<svg fill="#000000" xmlns="http://www.w3.org/2000/svg"  viewBox="0 0 26 26" width="26px" height="26px"><path fill-rule="evenodd" d="M 20.902344 0 L 5.097656 0 C 2.292969 0 0 2.292969 0 5.09375 L 0 20.90625 C 0 23.707031 2.292969 26 5.097656 26 L 20.90625 26 C 23.707031 26 26 23.707031 26 20.90625 L 26 5.09375 C 26 2.292969 23.707031 0 20.902344 0 Z M 11 2.789063 C 11.929688 2.789063 12.683594 3.542969 12.683594 4.472656 C 12.683594 5.402344 11.929688 6.15625 11 6.15625 C 10.070313 6.15625 9.316406 5.402344 9.316406 4.472656 C 9.316406 3.542969 10.070313 2.789063 11 2.789063 Z M 10.476563 23.039063 C 5.792969 23.039063 3.976563 19.117188 3.976563 16.339844 C 3.976563 13.984375 5.34375 11.449219 7.785156 10.375 C 8.011719 10.273438 8.910156 10.511719 8.910156 11.183594 C 8.910156 11.5625 8.707031 11.832031 8.527344 11.988281 C 8.347656 12.148438 5.835938 13.199219 5.835938 16.359375 C 5.835938 19.519531 8.617188 21.15625 10.523438 21.15625 C 12.425781 21.15625 13.546875 19.945313 13.863281 19.632813 C 14.175781 19.320313 14.871094 17.976563 14.871094 17.976563 C 14.871094 17.976563 15.140625 17.011719 15.789063 17.234375 C 16.441406 17.460938 16.621094 17.753906 16.621094 18.109375 C 16.621094 18.46875 15.203125 23.039063 10.476563 23.039063 Z M 22.472656 19.027344 L 20.746094 20.035156 C 20.746094 20.035156 20.074219 20.328125 19.515625 19.632813 C 18.996094 18.988281 17.003906 15.902344 17.003906 15.902344 L 11.109375 15.902344 C 11.109375 15.902344 9.9375 15.90625 9.9375 14.738281 C 9.9375 13.570313 9.9375 8.210938 9.9375 8.210938 C 9.9375 8.210938 9.964844 7.128906 11.042969 7.128906 C 12.117188 7.128906 12.160156 8.210938 12.160156 8.210938 L 12.160156 10 L 15.550781 10 C 15.550781 10 16.535156 10.007813 16.535156 11.039063 C 16.535156 12.066406 15.40625 11.96875 15.40625 11.96875 L 12.160156 11.96875 L 12.160156 13.898438 C 12.160156 13.898438 16.019531 13.898438 16.792969 13.898438 C 17.5625 13.898438 17.925781 14.152344 18.238281 14.679688 C 18.660156 15.398438 20.722656 18.492188 20.722656 18.492188 L 21.6875 17.886719 C 21.6875 17.886719 22.382813 17.574219 22.671875 18.023438 C 22.96875 18.46875 22.472656 19.027344 22.472656 19.027344 Z"/></svg>