<svg fill="#000000" xmlns="http://www.w3.org/2000/svg"  viewBox="0 0 26 26" width="26px" height="26px"><path d="M 13 0 C 5.820313 0 0 5.820313 0 13 C 0 20.179688 5.820313 26 13 26 C 20.179688 26 26 20.179688 26 13 C 26 5.820313 20.179688 0 13 0 Z M 13 24.054688 C 6.894531 24.054688 1.945313 19.105469 1.945313 13 C 1.945313 6.894531 6.894531 1.945313 13 1.945313 C 19.105469 1.945313 24.054688 6.894531 24.054688 13 C 24.054688 19.105469 19.105469 24.054688 13 24.054688 Z M 13 4 C 8.027344 4 4 8.027344 4 13 C 4 17.972656 8.027344 22 13 22 C 17.972656 22 22 17.972656 22 13 C 22 8.027344 17.972656 4 13 4 Z M 13 5.691406 C 13.992188 5.691406 14.800781 6.5 14.800781 7.492188 C 14.800781 8.488281 13.992188 9.292969 13 9.292969 C 12.007813 9.292969 11.199219 8.488281 11.199219 7.492188 C 11.199219 6.5 12.007813 5.691406 13 5.691406 Z M 18.097656 10.703125 C 17.628906 10.753906 16.015625 10.835938 15.386719 10.863281 C 14.753906 10.894531 14.121094 10.828125 14.121094 11.917969 C 14.121094 13.902344 14.753906 16.976563 15.355469 18.601563 C 15.902344 20.078125 15.597656 19.835938 15.324219 19.984375 C 15.054688 20.136719 14.664063 19.953125 14.421875 19.292969 C 14.183594 18.632813 13.671875 16.675781 13.550781 16.164063 C 13.429688 15.652344 13.339844 15.109375 13.039063 15.109375 C 12.738281 15.109375 12.648438 15.410156 12.558594 16.015625 C 12.46875 16.617188 11.777344 19.082031 11.566406 19.445313 C 11.355469 19.804688 11.292969 20.015625 10.8125 20.015625 C 10.332031 20.015625 10.363281 19.535156 10.511719 19.113281 C 10.660156 18.691406 11.898438 14.65625 11.953125 12.066406 C 11.976563 11.195313 11.835938 10.925781 10.84375 10.925781 C 9.847656 10.925781 7.804688 10.683594 7.804688 10.683594 C 7.804688 10.683594 7.050781 10.65625 7.082031 10.113281 C 7.109375 9.570313 7.621094 9.660156 7.925781 9.691406 C 7.925781 9.691406 10.996094 9.988281 12.984375 9.988281 C 14.96875 9.988281 18.242188 9.660156 18.242188 9.660156 C 18.242188 9.660156 18.816406 9.632813 18.90625 10.050781 C 18.996094 10.472656 18.621094 10.648438 18.097656 10.703125 Z"/></svg>