<svg fill="#000000" xmlns="http://www.w3.org/2000/svg"  viewBox="0 0 26 26" width="26px" height="26px"><path d="M 21 2 L 20.816406 2 C 20.402344 0.839844 19.304688 0 18 0 L 6 0 C 4.34375 0 3 1.34375 3 3 L 3 22 C 3 23.863281 6.550781 26 8 26 L 21 26 C 22.652344 26 24 24.652344 24 23 L 24 5 C 24 3.347656 22.652344 2 21 2 Z M 8 4.4375 C 8 2.039063 10 2 10 2 L 17 2 C 17 2 15 2.019531 15 4.4375 C 15 6.0625 15 15 15 15 L 11.5 12.5625 L 8 15 C 8 15 8 6.0625 8 4.4375 Z M 22 23 C 22 23.550781 21.550781 24 21 24 L 8 24 C 7.632813 23.996094 6.742188 23.515625 6.023438 23 L 18 23 C 19.65625 23 21 21.65625 21 20 L 21 4 C 21.550781 4 22 4.449219 22 5 Z"/></svg>