<svg fill="#000000" xmlns="http://www.w3.org/2000/svg"  viewBox="0 0 26 26" width="26px" height="26px"><path d="M 13 1 C 6.382813 1 1 6.382813 1 13 C 1 19.617188 6.382813 25 13 25 C 19.617188 25 25 19.617188 25 13 C 25 6.382813 19.617188 1 13 1 Z M 13 3 C 18.535156 3 23 7.464844 23 13 C 23 15.40625 22.160156 17.621094 20.75 19.34375 L 6.65625 5.25 C 8.378906 3.839844 10.59375 3 13 3 Z M 5.25 6.65625 L 19.34375 20.75 C 17.621094 22.160156 15.40625 23 13 23 C 7.464844 23 3 18.535156 3 13 C 3 10.59375 3.839844 8.378906 5.25 6.65625 Z"/></svg>