<svg fill="#000000" xmlns="http://www.w3.org/2000/svg"  viewBox="0 0 26 26" width="26px" height="26px"><path d="M 2 0 C 1.476563 0 0.941406 0.183594 0.5625 0.5625 C 0.183594 0.941406 0 1.476563 0 2 L 0 14 C 0 14.523438 0.183594 15.058594 0.5625 15.4375 C 0.941406 15.816406 1.476563 16 2 16 L 8.3125 16 L 8.3125 14 L 2 14 L 2 4 L 16 4 L 16 9 L 18 9 L 18 2 C 18 1.476563 17.816406 0.941406 17.4375 0.5625 C 17.058594 0.183594 16.523438 0 16 0 Z M 4 7 L 4 11 L 8 11 L 8 7 Z M 10 7 L 10 9.40625 C 10 9.40625 10.300781 9 11 9 L 14 9 L 14 7 Z M 11 10 C 10.476563 10 9.941406 10.183594 9.5625 10.5625 C 9.183594 10.941406 9 11.476563 9 12 L 9 24 C 9 24.523438 9.183594 25.058594 9.5625 25.4375 C 9.941406 25.816406 10.476563 26 11 26 L 24 26 C 24.523438 26 25.058594 25.816406 25.4375 25.4375 C 25.816406 25.058594 26 24.523438 26 24 L 26 12 C 26 11.476563 25.816406 10.941406 25.4375 10.5625 C 25.058594 10.183594 24.523438 10 24 10 Z M 11 12 L 24 12 L 24 14 L 11 14 Z M 12 18 L 16 18 L 16 22 L 12 22 Z M 19 18 L 23 18 L 23 22 L 19 22 Z"/></svg>