<svg fill="#000000" xmlns="http://www.w3.org/2000/svg"  viewBox="0 0 26 26" width="26px" height="26px"><path d="M 4.875 0 C 2.183594 0 0 2.183594 0 4.875 L 0 21.125 C 0 23.816406 2.183594 26 4.875 26 L 21.125 26 C 23.816406 26 26 23.816406 26 21.125 L 26 4.875 C 26 2.183594 23.820313 0 21.125 0 Z M 4.875 2 L 21.125 2 C 22.710938 2 24 3.289063 24 4.875 L 24 21.125 C 24 22.710938 22.710938 24 21.125 24 L 4.875 24 C 3.289063 24 2 22.710938 2 21.125 L 2 4.875 C 2 3.289063 3.289063 2 4.875 2 Z M 19.1875 4.625 C 18.945313 4.671875 18.710938 4.8125 18.5625 5.03125 L 10.75 16.5625 L 7.125 12.96875 C 6.75 12.59375 6.160156 12.59375 5.78125 12.96875 L 4.40625 14.34375 C 4.027344 14.71875 4.027344 15.34375 4.40625 15.71875 L 9.9375 21.25 C 10.25 21.558594 10.75 21.78125 11.1875 21.78125 C 11.625 21.78125 12.058594 21.507813 12.34375 21.09375 L 21.75 7.21875 C 22.050781 6.78125 21.941406 6.171875 21.5 5.875 L 19.90625 4.78125 C 19.6875 4.632813 19.429688 4.578125 19.1875 4.625 Z"/></svg>