<svg fill="#000000" xmlns="http://www.w3.org/2000/svg"  viewBox="0 0 26 26" width="26px" height="26px"><path d="M 11 0 C 9.300781 0 8 1.300781 8 3 L 8 11 L 4.6875 11 C 3.289063 11 3.085938 11.207031 4.1875 12.40625 L 10.8125 19 C 13.011719 21.199219 12.988281 21.199219 15.1875 19 L 21.8125 12.5 C 23.011719 11.199219 22.613281 11 21.3125 11 L 18 11 L 18 3 C 18 1.300781 16.699219 0 15 0 Z M 0 19 L 0 23 C 0 24.699219 1.300781 26 3 26 L 23 26 C 24.699219 26 26 24.699219 26 23 L 26 19 L 24 19 L 24 23 C 24 23.601563 23.601563 24 23 24 L 3 24 C 2.398438 24 2 23.601563 2 23 L 2 19 Z"/></svg>