<svg fill="#000000" xmlns="http://www.w3.org/2000/svg"  viewBox="0 0 26 26" width="26px" height="26px"><path d="M 15.203125 17.136719 L 15.109375 17.136719 C 14.390625 19.15625 13.089844 20.164063 11.199219 20.164063 C 9.78125 20.164063 8.640625 19.636719 7.773438 18.578125 C 6.902344 17.523438 6.46875 16.058594 6.46875 14.1875 C 6.46875 11.769531 7.070313 9.800781 8.273438 8.28125 C 9.472656 6.765625 10.921875 6.007813 12.613281 6.007813 C 14.144531 6.007813 15.105469 6.625 15.496094 7.863281 L 15.558594 7.863281 L 15.710938 6.292969 L 19.175781 6.292969 C 18.714844 10.796875 18.480469 13.738281 18.480469 15.125 C 18.480469 16.605469 18.871094 17.34375 19.652344 17.34375 C 20.476563 17.34375 21.152344 16.78125 21.6875 15.664063 C 22.21875 14.542969 22.488281 13.078125 22.488281 11.273438 C 22.488281 8.800781 21.722656 6.773438 20.191406 5.191406 C 18.660156 3.613281 16.527344 2.820313 13.785156 2.820313 C 10.847656 2.820313 8.40625 3.875 6.460938 5.984375 C 4.515625 8.09375 3.542969 10.664063 3.542969 13.699219 C 3.542969 16.636719 4.402344 18.949219 6.121094 20.640625 C 7.84375 22.332031 10.214844 23.179688 13.246094 23.179688 C 15.558594 23.179688 17.671875 22.726563 19.59375 21.816406 L 19.59375 24.84375 C 17.835938 25.613281 15.578125 26 12.816406 26 C 9.023438 26 5.941406 24.882813 3.566406 22.648438 C 1.1875 20.410156 0 17.40625 0 13.632813 C 0 9.785156 1.269531 6.554688 3.804688 3.933594 C 6.339844 1.3125 9.605469 0 13.601563 0 C 17.296875 0 20.289063 1.015625 22.574219 3.050781 C 24.859375 5.085938 26 7.769531 26 11.097656 C 26 13.835938 25.300781 16.03125 23.90625 17.6875 C 22.507813 19.339844 20.777344 20.167969 18.714844 20.167969 C 17.699219 20.167969 16.871094 19.886719 16.234375 19.328125 C 15.597656 18.765625 15.253906 18.035156 15.203125 17.136719 Z M 13.152344 8.765625 C 12.230469 8.765625 11.476563 9.308594 10.898438 10.390625 C 10.316406 11.476563 10.027344 12.730469 10.027344 14.15625 C 10.027344 15.171875 10.226563 15.960938 10.621094 16.527344 C 11.015625 17.09375 11.523438 17.375 12.152344 17.375 C 13.117188 17.375 13.878906 16.84375 14.433594 15.773438 C 14.984375 14.707031 15.261719 13.28125 15.261719 11.496094 C 15.261719 10.648438 15.070313 9.984375 14.683594 9.496094 C 14.300781 9.011719 13.789063 8.765625 13.152344 8.765625 Z"/></svg>