<svg fill="#000000" xmlns="http://www.w3.org/2000/svg"  viewBox="0 0 26 26" width="26px" height="26px"><path d="M 13.3125 1 L 13.1875 3 C 13.789063 3 14.3125 3.085938 14.8125 3.1875 L 15.1875 1.1875 C 14.585938 1.085938 13.914063 1 13.3125 1 Z M 11.09375 1.09375 C 10.394531 1.195313 9.699219 1.386719 9 1.6875 L 9.6875 3.59375 C 10.289063 3.394531 10.90625 3.195313 11.40625 3.09375 Z M 17 2 L 18 7.90625 L 19.8125 6.09375 C 21.179688 7.675781 22 9.75 22 12 C 22 14.515625 20.882813 16.800781 19.1875 18.5 C 18.789063 18.898438 18.3125 19.292969 17.8125 19.59375 L 18.90625 21.3125 C 19.121094 21.1875 19.285156 21.015625 19.46875 20.875 L 24.59375 26 L 26 24.59375 L 21 19.59375 C 22.832031 17.589844 24 14.914063 24 12 C 24 9.21875 22.953125 6.640625 21.21875 4.6875 L 22.90625 3 Z M 7 2.6875 C 6.398438 3.085938 5.8125 3.59375 5.3125 4.09375 L 5.34375 4.125 C 3.3125 6.140625 2 8.878906 2 12 C 2 14.765625 3.023438 17.355469 4.78125 19.3125 L 3.09375 21 L 9 22 L 8 16.09375 L 6.21875 17.875 C 4.828125 16.296875 4 14.234375 4 12 C 4 9.023438 5.429688 6.519531 7.625 4.78125 C 7.777344 4.660156 7.925781 4.542969 8.09375 4.40625 Z M 16.3125 20.3125 C 15.8125 20.511719 15.195313 20.710938 14.59375 20.8125 L 14.90625 22.8125 C 15.605469 22.710938 16.300781 22.488281 17 22.1875 Z M 11.3125 20.8125 L 10.90625 22.8125 C 11.507813 22.914063 12.085938 23 12.6875 23 L 12.8125 21 C 12.3125 21 11.8125 20.914063 11.3125 20.8125 Z"/></svg>