<svg fill="#000000" xmlns="http://www.w3.org/2000/svg"  viewBox="0 0 26 26" width="26px" height="26px"><path d="M 11.59375 -0.09375 L 11.3125 3 C 10.613281 3.199219 9.914063 3.414063 9.3125 3.8125 L 6.90625 2.09375 L 5.09375 3.8125 L 6.8125 6.1875 C 6.414063 6.886719 6.199219 7.511719 6 8.3125 L 3.09375 8.6875 L 3.09375 11.1875 L 6 11.6875 C 6.199219 12.386719 6.511719 13.085938 6.8125 13.6875 L 5.09375 16.09375 L 6.90625 17.90625 L 9.3125 16.1875 C 9.914063 16.585938 10.613281 16.800781 11.3125 17 L 11.8125 19.90625 L 14.3125 19.90625 L 14.8125 17 C 15.511719 16.800781 16.210938 16.488281 16.8125 16.1875 L 19.3125 17.90625 L 21.09375 16.09375 L 19.40625 13.6875 C 19.804688 13.085938 19.988281 12.386719 20.1875 11.6875 L 22.90625 11.1875 L 22.90625 8.6875 L 19.90625 8.1875 C 19.707031 7.488281 19.394531 6.789063 19.09375 6.1875 L 20.8125 3.6875 L 19 1.90625 L 16.59375 3.59375 C 15.992188 3.195313 15.292969 3.011719 14.59375 2.8125 L 14.09375 -0.09375 Z M 13 6.5 C 14.898438 6.5 16.5 8.101563 16.5 10 C 16.5 11.898438 14.898438 13.5 13 13.5 C 11.101563 13.5 9.5 11.898438 9.5 10 C 9.5 8.101563 11.101563 6.5 13 6.5 Z M 0 19 L 0 23 C 0 24.699219 1.300781 26 3 26 L 23 26 C 24.699219 26 26 24.699219 26 23 L 26 19 L 24 19 L 24 23 C 24 23.601563 23.601563 24 23 24 L 3 24 C 2.398438 24 2 23.601563 2 23 L 2 19 Z"/></svg>