<svg fill="#000000" xmlns="http://www.w3.org/2000/svg"  viewBox="0 0 26 26" width="26px" height="26px"><path d="M 6.59375 0.09375 C 5.1875 0.171875 3.601563 0.710938 2.15625 2.15625 C 0.226563 4.085938 -0.0625 6.285156 0.15625 7.9375 C 0.265625 8.765625 0.488281 9.472656 0.6875 9.96875 C 0.449219 10.941406 0.3125 11.957031 0.3125 13 C 0.3125 14.042969 0.449219 15.058594 0.6875 16.03125 C 0.488281 16.527344 0.265625 17.234375 0.15625 18.0625 C -0.0625 19.714844 0.226563 21.914063 2.15625 23.84375 C 4.085938 25.773438 6.285156 26.0625 7.9375 25.84375 C 8.765625 25.734375 9.472656 25.511719 9.96875 25.3125 C 10.941406 25.550781 11.957031 25.6875 13 25.6875 C 14.042969 25.6875 15.058594 25.550781 16.03125 25.3125 C 16.527344 25.511719 17.234375 25.734375 18.0625 25.84375 C 19.714844 26.0625 21.914063 25.773438 23.84375 23.84375 C 25.773438 21.914063 26.0625 19.714844 25.84375 18.0625 C 25.734375 17.234375 25.511719 16.527344 25.3125 16.03125 C 25.550781 15.058594 25.6875 14.042969 25.6875 13 C 25.6875 11.957031 25.550781 10.941406 25.3125 9.96875 C 25.511719 9.472656 25.734375 8.765625 25.84375 7.9375 C 26.0625 6.285156 25.773438 4.085938 23.84375 2.15625 C 21.914063 0.226563 19.714844 -0.0625 18.0625 0.15625 C 17.234375 0.265625 16.527344 0.488281 16.03125 0.6875 C 15.058594 0.449219 14.042969 0.3125 13 0.3125 C 11.957031 0.3125 10.941406 0.449219 9.96875 0.6875 C 9.472656 0.488281 8.765625 0.265625 7.9375 0.15625 C 7.523438 0.101563 7.0625 0.0664063 6.59375 0.09375 Z M 6.65625 1.0625 C 7.054688 1.042969 7.421875 1.078125 7.78125 1.125 C 7.960938 1.148438 8.117188 1.183594 8.28125 1.21875 C 5.070313 2.507813 2.507813 5.070313 1.21875 8.28125 C 1.183594 8.117188 1.148438 7.960938 1.125 7.78125 C 0.9375 6.34375 1.144531 4.542969 2.84375 2.84375 C 4.121094 1.566406 5.464844 1.121094 6.65625 1.0625 Z M 18.78125 1.0625 C 20.113281 1 21.667969 1.355469 23.15625 2.84375 C 24.855469 4.542969 25.0625 6.34375 24.875 7.78125 C 24.851563 7.960938 24.816406 8.117188 24.78125 8.28125 C 23.492188 5.070313 20.929688 2.507813 17.71875 1.21875 C 17.882813 1.183594 18.039063 1.148438 18.21875 1.125 C 18.398438 1.101563 18.589844 1.070313 18.78125 1.0625 Z M 11.0625 2.375 L 11.0625 6.25 C 8.738281 6.917969 6.917969 8.738281 6.25 11.0625 L 2.375 11.0625 C 3.175781 6.644531 6.644531 3.175781 11.0625 2.375 Z M 14.9375 2.375 C 19.355469 3.175781 22.824219 6.644531 23.625 11.0625 L 19.75 11.0625 C 19.082031 8.738281 17.261719 6.917969 14.9375 6.25 Z M 12.46875 7.84375 C 12.640625 7.824219 12.820313 7.84375 13 7.84375 C 15.851563 7.84375 18.15625 10.148438 18.15625 13 C 18.15625 15.851563 15.851563 18.15625 13 18.15625 C 10.148438 18.15625 7.84375 15.851563 7.84375 13 C 7.84375 10.328125 9.867188 8.109375 12.46875 7.84375 Z M 2.375 14.9375 L 6.25 14.9375 C 6.917969 17.261719 8.738281 19.082031 11.0625 19.75 L 11.0625 23.625 C 6.644531 22.824219 3.175781 19.355469 2.375 14.9375 Z M 19.75 14.9375 L 23.625 14.9375 C 22.824219 19.355469 19.355469 22.824219 14.9375 23.625 L 14.9375 19.75 C 17.261719 19.082031 19.082031 17.261719 19.75 14.9375 Z M 1.21875 17.71875 C 2.507813 20.929688 5.070313 23.492188 8.28125 24.78125 C 8.117188 24.816406 7.960938 24.851563 7.78125 24.875 C 6.34375 25.0625 4.542969 24.855469 2.84375 23.15625 C 1.144531 21.457031 0.9375 19.65625 1.125 18.21875 C 1.148438 18.039063 1.183594 17.882813 1.21875 17.71875 Z M 24.78125 17.71875 C 24.816406 17.882813 24.851563 18.039063 24.875 18.21875 C 25.0625 19.65625 24.855469 21.457031 23.15625 23.15625 C 21.457031 24.855469 19.65625 25.0625 18.21875 24.875 C 18.039063 24.851563 17.882813 24.816406 17.71875 24.78125 C 20.929688 23.492188 23.492188 20.929688 24.78125 17.71875 Z"/></svg>