<?xml version="1.0"?><svg fill="#000000" xmlns="http://www.w3.org/2000/svg"  viewBox="0 0 26 26" width="26px" height="26px">    <path d="M 13.001953 0 C 12.486953 0 11.941953 0.18121875 11.751953 0.44921875 C 11.621953 0.63021875 11.25 10 11.25 10 L 9.5117188 10 C 9.3227187 10 9.1505469 10.104531 9.0605469 10.269531 C 8.9715469 10.435531 8.9809375 10.636969 9.0859375 10.792969 C 10.454937 12.813969 12.590641 14.819625 12.681641 14.890625 C 12.775641 14.964625 12.888 15 13 15 C 13.113 15 13.226359 14.962625 13.318359 14.890625 C 13.408359 14.818625 15.545063 12.813969 16.914062 10.792969 C 17.020063 10.635969 17.028453 10.434531 16.939453 10.269531 C 16.850453 10.103531 16.676328 10 16.486328 10 L 14.75 10 C 14.75 10 14.455172 0.63121875 14.326172 0.44921875 C 14.135172 0.18121875 13.517953 0 13.001953 0 z M 9.5742188 2.5058594 C 4.6222187 3.9838594 1.0097656 8.573 1.0097656 14 C 1.0097656 20.617 6.383 26 13 26 C 19.617 26 25 20.617 25 14 C 25 8.595 21.406375 4.0165312 16.484375 2.5195312 C 16.512375 3.1015313 16.542219 3.820875 16.574219 4.671875 C 20.326219 6.113875 23 9.747 23 14 C 23 19.514 18.514 24 13 24 C 7.486 24 3 19.514 3 14 C 3 9.731 5.69475 6.08725 9.46875 4.65625 C 9.50675 3.80525 9.5412187 3.0878594 9.5742188 2.5058594 z"/></svg>