<?xml version="1.0"?><svg fill="#000000" xmlns="http://www.w3.org/2000/svg"  viewBox="0 0 26 26" width="26px" height="26px">    <path d="M 13 0 C 6.383 0 1 5.383 1 12 C 1 17.405 4.593625 21.983469 9.515625 23.480469 C 9.487625 22.898469 9.4577813 22.179125 9.4257812 21.328125 C 5.6737812 19.886125 3 16.253 3 12 C 3 6.486 7.486 2 13 2 C 18.514 2 23 6.486 23 12 C 23 16.269 20.30525 19.91275 16.53125 21.34375 C 16.49325 22.19475 16.458781 22.912141 16.425781 23.494141 C 21.377781 22.016141 25 17.427 25 12 C 25 5.383 19.617 0 13 0 z M 13 11 C 12.887 11 12.773641 11.037375 12.681641 11.109375 C 12.591641 11.181375 10.454937 13.186031 9.0859375 15.207031 C 8.9799375 15.364031 8.9715469 15.565469 9.0605469 15.730469 C 9.1495469 15.896469 9.3236719 16 9.5136719 16 L 11.25 16 C 11.25 16 11.544828 25.368781 11.673828 25.550781 C 11.864828 25.818781 12.482047 26 12.998047 26 C 13.513047 26 14.058047 25.818781 14.248047 25.550781 C 14.378047 25.369781 14.75 16 14.75 16 L 16.488281 16 C 16.677281 16 16.849453 15.895469 16.939453 15.730469 C 17.028453 15.564469 17.019063 15.363031 16.914062 15.207031 C 15.545062 13.186031 13.409359 11.180375 13.318359 11.109375 C 13.224359 11.035375 13.112 11 13 11 z"/></svg>