<?xml version="1.0"?><svg fill="#000000" xmlns="http://www.w3.org/2000/svg"  viewBox="0 0 26 26" width="26px" height="26px">    <path d="M 12 1 C 5.383 1 0 6.383 0 13 C 0 19.617 5.383 25 12 25 C 17.405 25 21.983469 21.406375 23.480469 16.484375 C 22.898469 16.512375 22.179125 16.542219 21.328125 16.574219 C 19.886125 20.326219 16.253 23 12 23 C 6.486 23 2 18.514 2 13 C 2 7.486 6.486 3 12 3 C 16.269 3 19.91275 5.69475 21.34375 9.46875 C 22.19475 9.50675 22.912141 9.5412187 23.494141 9.5742188 C 22.016141 4.6222187 17.427 1 12 1 z M 15.464844 9 C 15.374344 9.0045 15.285031 9.0334375 15.207031 9.0859375 C 13.186031 10.454937 11.180375 12.590641 11.109375 12.681641 C 11.035375 12.775641 11 12.888 11 13 C 11 13.113 11.037375 13.226359 11.109375 13.318359 C 11.181375 13.408359 13.186031 15.545063 15.207031 16.914062 C 15.364031 17.020063 15.565469 17.028453 15.730469 16.939453 C 15.896469 16.850453 16 16.676328 16 16.486328 L 16 14.75 C 16 14.75 25.368781 14.455172 25.550781 14.326172 C 25.818781 14.135172 26 13.517953 26 13.001953 C 26 12.486953 25.818781 11.941953 25.550781 11.751953 C 25.369781 11.621953 16 11.25 16 11.25 L 16 9.5117188 C 16 9.3227187 15.895469 9.1505469 15.730469 9.0605469 C 15.647469 9.0160469 15.555344 8.9955 15.464844 9 z"/></svg>