<?xml version="1.0"?><svg fill="#000000" xmlns="http://www.w3.org/2000/svg"  viewBox="0 0 26 26" width="26px" height="26px">    <path d="M 14 1 C 8.595 1 4.0165313 4.593625 2.5195312 9.515625 C 3.1015312 9.487625 3.820875 9.4577813 4.671875 9.4257812 C 6.113875 5.6737812 9.747 3 14 3 C 19.514 3 24 7.486 24 13 C 24 18.514 19.514 23 14 23 C 9.731 23 6.08725 20.30525 4.65625 16.53125 C 3.80525 16.49325 3.0878594 16.458781 2.5058594 16.425781 C 3.9838594 21.377781 8.573 25 14 25 C 20.617 25 26 19.617 26 13 C 26 6.383 20.617 1 14 1 z M 10.535156 9 C 10.444656 8.995625 10.352031 9.0160469 10.269531 9.0605469 C 10.103531 9.1495469 10 9.3236719 10 9.5136719 L 10 11.25 C 10 11.25 0.63121875 11.544828 0.44921875 11.673828 C 0.18121875 11.864828 0 12.482047 0 12.998047 C 0 13.513047 0.18121875 14.058047 0.44921875 14.248047 C 0.63021875 14.378047 10 14.75 10 14.75 L 10 16.488281 C 10 16.677281 10.104531 16.849453 10.269531 16.939453 C 10.435531 17.028453 10.636969 17.019063 10.792969 16.914062 C 12.813969 15.545062 14.819625 13.409359 14.890625 13.318359 C 14.964625 13.224359 15 13.112 15 13 C 15 12.887 14.962625 12.773641 14.890625 12.681641 C 14.818625 12.591641 12.813969 10.454937 10.792969 9.0859375 C 10.714469 9.0329375 10.625656 9.004375 10.535156 9 z"/></svg>