<?xml version="1.0"?><svg fill="#000000" xmlns="http://www.w3.org/2000/svg"  viewBox="0 0 26 26" width="26px" height="26px">    <path d="M 14 1 C 9.474 1 5.5361406 3.524375 3.4941406 7.234375 C 3.8101406 7.095375 4.1402344 7 4.4902344 7 C 4.9032344 7 5.3146406 7.1027813 5.6816406 7.3007812 C 5.7116406 7.3167813 5.7336719 7.342375 5.7636719 7.359375 C 7.5646719 4.731375 10.58 3 14 3 C 19.514 3 24 7.486 24 13 C 24 18.514 19.514 23 14 23 C 10.58 23 7.566625 21.266672 5.765625 18.638672 C 5.734625 18.656672 5.7097344 18.684172 5.6777344 18.701172 C 5.3137344 18.897172 4.9032344 19 4.4902344 19 C 4.1412344 19 3.8110937 18.903625 3.4960938 18.765625 C 5.5380937 22.474625 9.474 25 14 25 C 20.617 25 26 19.617 26 13 C 26 6.383 20.617 1 14 1 z M 4.4648438 9 C 4.3744688 9.0045 4.2850312 9.0334375 4.2070312 9.0859375 C 2.1860312 10.454937 0.180375 12.590641 0.109375 12.681641 C 0.035375 12.775641 3.9968029e-18 12.888 0 13 C 0 13.113 0.037375 13.226359 0.109375 13.318359 C 0.181375 13.408359 2.1860313 15.545063 4.2070312 16.914062 C 4.3640313 17.020063 4.5654687 17.028453 4.7304688 16.939453 C 4.8964687 16.850453 5 16.676328 5 16.486328 L 5 14.75 C 5 14.75 14.368781 14.455172 14.550781 14.326172 C 14.818781 14.135172 15 13.517953 15 13.001953 C 15 12.486953 14.818781 11.941953 14.550781 11.751953 C 14.369781 11.621953 5 11.25 5 11.25 L 5 9.5117188 C 5 9.3227187 4.8964687 9.1505469 4.7304688 9.0605469 C 4.6479687 9.0160469 4.5552187 8.9955 4.4648438 9 z"/></svg>