<?xml version="1.0"?><svg fill="#000000" xmlns="http://www.w3.org/2000/svg"  viewBox="0 0 26 26" width="26px" height="26px">    <path d="M 12 1 C 5.383 1 0 6.383 0 13 C 0 19.617 5.383 25 12 25 C 16.526 25 20.463859 22.475625 22.505859 18.765625 C 22.189859 18.904625 21.859766 19 21.509766 19 C 21.096766 19 20.685359 18.897219 20.318359 18.699219 C 20.288359 18.683219 20.266328 18.657625 20.236328 18.640625 C 18.435328 21.268625 15.42 23 12 23 C 6.486 23 2 18.514 2 13 C 2 7.486 6.486 3 12 3 C 15.42 3 18.433375 4.7333281 20.234375 7.3613281 C 20.265375 7.3433281 20.290266 7.3158281 20.322266 7.2988281 C 20.686266 7.1028281 21.096766 7 21.509766 7 C 21.858766 7 22.188906 7.096375 22.503906 7.234375 C 20.461906 3.525375 16.526 1 12 1 z M 21.535156 9 C 21.444656 8.995625 21.352031 9.0160469 21.269531 9.0605469 C 21.103531 9.1495469 21 9.3236719 21 9.5136719 L 21 11.25 C 21 11.25 11.631219 11.544828 11.449219 11.673828 C 11.181219 11.864828 11 12.482047 11 12.998047 C 11 13.513047 11.181219 14.058047 11.449219 14.248047 C 11.630219 14.378047 21 14.75 21 14.75 L 21 16.488281 C 21 16.677281 21.104531 16.849453 21.269531 16.939453 C 21.435531 17.028453 21.636969 17.019063 21.792969 16.914062 C 23.813969 15.545062 25.819625 13.409359 25.890625 13.318359 C 25.964625 13.224359 26 13.112 26 13 C 26 12.887 25.962625 12.773641 25.890625 12.681641 C 25.818625 12.591641 23.813969 10.454937 21.792969 9.0859375 C 21.714469 9.0329375 21.625656 9.004375 21.535156 9 z"/></svg>