<svg fill="#000000" xmlns="http://www.w3.org/2000/svg"  viewBox="0 0 26 26" width="26px" height="26px"><path d="M 1.3125 0 L 0 1.3125 L 2.3125 5.3125 L 3.8125 5.09375 L 12.96875 14.25 L 12.1875 15 C 11.789063 15.398438 11.789063 16.007813 12.1875 16.40625 L 12.59375 16.8125 C 12.992188 17.210938 13.605469 17.210938 13.90625 16.8125 L 15.09375 18 C 14.992188 18.601563 15.09375 19.3125 15.59375 19.8125 L 21 25.1875 C 22.101563 26.289063 23.898438 26.289063 25 25.1875 C 26.300781 23.988281 26.289063 22.195313 25.1875 21.09375 L 19.8125 15.6875 C 19.3125 15.1875 18.601563 14.988281 18 15.1875 L 16.6875 14 C 16.988281 13.601563 16.988281 12.988281 16.6875 12.6875 L 16.3125 12.3125 C 15.914063 11.914063 15.304688 11.914063 14.90625 12.3125 L 14.25 12.96875 L 5.09375 3.8125 L 5.3125 2.3125 Z M 20.8125 0.03125 C 18.839844 -0.132813 16.226563 1.175781 15 2.3125 C 13.496094 3.816406 13.738281 5.789063 14.9375 7.6875 L 12.8125 9.8125 L 14.3125 11.5 C 15.113281 10.800781 16.292969 10.800781 17.09375 11.5 L 17.59375 12 L 18.46875 11.125 C 20.277344 12.1875 22.160156 12.339844 23.59375 10.90625 C 24.992188 9.605469 26.511719 6.398438 25.8125 4.5 L 23 7.40625 C 22.601563 7.804688 21.992188 7.804688 21.59375 7.40625 L 18.6875 4.5 C 18.289063 4.101563 18.289063 3.492188 18.6875 3.09375 L 21.59375 0.1875 C 21.34375 0.101563 21.09375 0.0546875 20.8125 0.03125 Z M 9.8125 12.5 L 6.1875 16.125 C 5.8125 16.035156 5.40625 16 5 16 C 2.199219 16 0 18.199219 0 21 C 0 23.800781 2.199219 26 5 26 C 7.800781 26 10 23.800781 10 21 C 10 20.488281 9.917969 19.992188 9.78125 19.53125 L 11.90625 17.40625 L 11.59375 17 C 10.792969 16.199219 10.800781 14.988281 11.5 14.1875 Z M 17.5625 17.0625 C 17.6875 17.0625 17.804688 17.085938 17.90625 17.1875 L 23.8125 23.09375 C 24.011719 23.292969 24.011719 23.613281 23.8125 23.8125 C 23.613281 24.011719 23.292969 24.011719 23.09375 23.8125 L 17.1875 17.90625 C 16.988281 17.707031 16.988281 17.386719 17.1875 17.1875 C 17.289063 17.085938 17.4375 17.0625 17.5625 17.0625 Z M 5.6875 18.40625 L 7.59375 20.3125 L 6.90625 22.90625 L 4.3125 23.59375 L 2.40625 21.6875 L 3.09375 19.09375 Z"/></svg>