<svg fill="#000000" xmlns="http://www.w3.org/2000/svg"  viewBox="0 0 26 26" width="26px" height="26px"><path d="M 12.984375 2 C 12.722656 2.003906 12.476563 2.109375 12.292969 2.292969 L 10.292969 4.292969 C 10.03125 4.542969 9.925781 4.917969 10.019531 5.265625 C 10.109375 5.617188 10.382813 5.890625 10.734375 5.980469 C 11.082031 6.074219 11.457031 5.96875 11.707031 5.707031 L 12 5.414063 L 12 8 L 3 8 L 3 10 L 12.832031 10 C 12.941406 10.019531 13.050781 10.019531 13.15625 10 L 23 10 L 23 8 L 14 8 L 14 5.414063 L 14.292969 5.707031 C 14.542969 5.96875 14.917969 6.074219 15.265625 5.980469 C 15.617188 5.890625 15.890625 5.617188 15.980469 5.265625 C 16.074219 4.917969 15.96875 4.542969 15.707031 4.292969 L 13.707031 2.292969 C 13.515625 2.101563 13.253906 1.996094 12.984375 2 Z M 3 12.003906 L 3 14.003906 L 23 14.003906 L 23 12.003906 Z M 12.984375 15.984375 C 12.910156 15.988281 12.839844 15.996094 12.769531 16.015625 L 3 16.015625 L 3 18.015625 L 12 18.015625 L 12 20.585938 L 11.707031 20.292969 C 11.519531 20.097656 11.261719 19.992188 10.988281 19.988281 C 10.582031 19.992188 10.21875 20.238281 10.0625 20.613281 C 9.910156 20.992188 10 21.421875 10.292969 21.707031 L 12.292969 23.707031 C 12.683594 24.097656 13.316406 24.097656 13.707031 23.707031 L 15.707031 21.707031 C 16.003906 21.421875 16.09375 20.980469 15.9375 20.601563 C 15.777344 20.222656 15.402344 19.976563 14.988281 19.984375 C 14.726563 19.992188 14.476563 20.101563 14.292969 20.292969 L 14 20.585938 L 14 18.015625 L 23 18.015625 L 23 16.015625 L 13.222656 16.015625 C 13.144531 15.996094 13.066406 15.984375 12.984375 15.984375 Z"/></svg>