<svg fill="#000000" xmlns="http://www.w3.org/2000/svg"  viewBox="0 0 26 26" width="26px" height="26px"><path d="M 13 0.1875 C 11.9375 0.1875 11.0625 1.273438 11.0625 2.59375 C 11.0625 3.914063 11.9375 4.96875 13 4.96875 C 14.0625 4.96875 14.9375 3.914063 14.9375 2.59375 C 14.9375 1.273438 14.0625 0.1875 13 0.1875 Z M 10.1875 6 C 9.367188 6 8.96875 6.65625 8.96875 6.65625 L 5.96875 11.25 C 5.816406 11.21875 5.660156 11.1875 5.5 11.1875 C 4.222656 11.1875 3.1875 12.222656 3.1875 13.5 C 3.1875 14.777344 4.222656 15.8125 5.5 15.8125 C 6.777344 15.8125 7.8125 14.777344 7.8125 13.5 C 7.8125 12.964844 7.617188 12.484375 7.3125 12.09375 L 10 8.875 L 10 13.4375 L 7.71875 21.3125 C 7.644531 21.304688 7.574219 21.28125 7.5 21.28125 C 6.222656 21.28125 5.1875 22.316406 5.1875 23.59375 C 5.1875 24.871094 6.222656 25.90625 7.5 25.90625 C 8.777344 25.90625 9.8125 24.871094 9.8125 23.59375 C 9.8125 22.953125 9.542969 22.386719 9.125 21.96875 L 11.65625 16.9375 C 11.65625 16.9375 12.300781 15.875 12.875 15.875 C 13.449219 15.875 14.0625 16.9375 14.0625 16.9375 L 16.84375 22 C 16.441406 22.414063 16.1875 22.96875 16.1875 23.59375 C 16.1875 24.871094 17.222656 25.90625 18.5 25.90625 C 19.777344 25.90625 20.8125 24.871094 20.8125 23.59375 C 20.8125 22.316406 19.777344 21.28125 18.5 21.28125 C 18.40625 21.28125 18.3125 21.300781 18.21875 21.3125 L 16 13.625 L 16 8.875 L 18.71875 12.0625 C 18.398438 12.460938 18.1875 12.949219 18.1875 13.5 C 18.1875 14.777344 19.222656 15.8125 20.5 15.8125 C 21.777344 15.8125 22.8125 14.777344 22.8125 13.5 C 22.8125 12.222656 21.777344 11.1875 20.5 11.1875 C 20.359375 11.1875 20.226563 11.226563 20.09375 11.25 L 17.0625 6.71875 C 17.0625 6.71875 16.695313 6 15.78125 6 Z M 5.5 12.1875 C 6.222656 12.1875 6.8125 12.777344 6.8125 13.5 C 6.8125 14.222656 6.222656 14.8125 5.5 14.8125 C 4.777344 14.8125 4.1875 14.222656 4.1875 13.5 C 4.1875 12.777344 4.777344 12.1875 5.5 12.1875 Z M 20.5 12.1875 C 21.222656 12.1875 21.8125 12.777344 21.8125 13.5 C 21.8125 14.222656 21.222656 14.8125 20.5 14.8125 C 19.777344 14.8125 19.1875 14.222656 19.1875 13.5 C 19.1875 12.777344 19.777344 12.1875 20.5 12.1875 Z M 7.5 22.28125 C 8.222656 22.28125 8.8125 22.871094 8.8125 23.59375 C 8.8125 24.316406 8.222656 24.90625 7.5 24.90625 C 6.777344 24.90625 6.1875 24.316406 6.1875 23.59375 C 6.1875 22.871094 6.777344 22.28125 7.5 22.28125 Z M 18.5 22.28125 C 19.222656 22.28125 19.8125 22.871094 19.8125 23.59375 C 19.8125 24.316406 19.222656 24.90625 18.5 24.90625 C 17.777344 24.90625 17.1875 24.316406 17.1875 23.59375 C 17.1875 22.871094 17.777344 22.28125 18.5 22.28125 Z"/></svg>