<svg fill="#000000" xmlns="http://www.w3.org/2000/svg"  viewBox="0 0 26 26" width="26px" height="26px"><path d="M 7.5 0.1875 C 5.117188 0.1875 3.1875 2.117188 3.1875 4.5 C 3.1875 6.550781 4.613281 8.25 6.53125 8.6875 C 6.355469 8.089844 6.191406 7.507813 6.0625 6.9375 C 5.226563 6.445313 4.65625 5.539063 4.65625 4.5 C 4.65625 2.9375 5.9375 1.65625 7.5 1.65625 C 9.0625 1.65625 10.34375 2.9375 10.34375 4.5 C 10.34375 4.714844 10.296875 4.925781 10.25 5.125 C 10.519531 5.722656 10.746094 6.378906 10.9375 7.0625 C 11.476563 6.34375 11.8125 5.46875 11.8125 4.5 C 11.8125 2.117188 9.882813 0.1875 7.5 0.1875 Z M 8.03125 4.125 C 7.894531 4.105469 7.746094 4.113281 7.59375 4.15625 C 6.476563 4.484375 6.722656 5.808594 7.5625 8.65625 C 8.191406 10.785156 8.886719 13.015625 9.25 14.25 C 9.703125 15.804688 9.921875 16.332031 10.0625 17.53125 C 10.152344 18.273438 8.777344 18.648438 7.40625 18.4375 C 5.808594 18.195313 4.625 17.757813 3.5625 18.90625 C 2.910156 19.613281 2.824219 20.875 4.40625 20.84375 C 8.617188 20.757813 9.730469 22.527344 11.34375 23.4375 C 12.945313 24.335938 14.757813 24.4375 15.34375 25.84375 L 22.5625 23.09375 C 22.007813 21.21875 23.835938 20.195313 22.21875 14.65625 C 20.929688 10.25 18.660156 9.226563 18.0625 9.40625 C 17.464844 9.578125 17.488281 10.007813 17.09375 10.125 C 16.695313 10.242188 16.1875 9.0625 15.21875 9.34375 C 14.253906 9.625 14.371094 10.585938 14.03125 10.6875 C 13.691406 10.78125 13.460938 9.835938 12.25 10.1875 C 11.28125 10.472656 11.808594 11.613281 11.4375 11.71875 C 11.226563 11.78125 10.839844 10.609375 10.125 7.90625 C 9.578125 5.828125 8.980469 4.25 8.03125 4.125 Z"/></svg>