<svg fill="#000000" xmlns="http://www.w3.org/2000/svg"  viewBox="0 0 26 26" width="26px" height="26px"><path d="M 13 0.1875 C 5.925781 0.1875 0.1875 5.925781 0.1875 13 C 0.1875 20.074219 5.925781 25.8125 13 25.8125 C 20.074219 25.8125 25.8125 20.074219 25.8125 13 C 25.8125 5.925781 20.074219 0.1875 13 0.1875 Z M 13 2.1875 C 18.960938 2.1875 23.8125 7.039063 23.8125 13 C 23.8125 18.960938 18.960938 23.8125 13 23.8125 C 7.039063 23.8125 2.1875 18.960938 2.1875 13 C 2.1875 7.039063 7.039063 2.1875 13 2.1875 Z M 14 3.75 C 13.503906 3.757813 13.125 4.160156 13.125 4.65625 L 13.15625 11.5 L 11.9375 11.53125 L 11.90625 5.28125 C 11.902344 4.785156 11.496094 4.367188 11 4.375 C 10.5 4.382813 10.089844 4.789063 10.09375 5.28125 L 10.125 11.53125 C 9.699219 11.539063 9.304688 11.644531 8.9375 11.8125 L 8.90625 7.09375 C 8.902344 6.597656 8.5 6.210938 8 6.21875 C 7.5 6.226563 7.09375 6.628906 7.09375 7.125 L 7.125 14.5625 L 7.125 16.375 L 7.15625 17.03125 C 7.238281 19.726563 8.679688 22.242188 12.59375 22.1875 C 15.582031 22.148438 17.402344 20.902344 18.125 19.46875 L 21.40625 14.4375 C 21.820313 13.777344 21.640625 12.941406 21.03125 12.5625 C 20.421875 12.191406 19.605469 12.433594 19.1875 13.09375 L 17.96875 15 L 17.96875 14.40625 L 17.9375 5.78125 C 17.933594 5.285156 17.527344 4.898438 17.03125 4.90625 C 16.53125 4.914063 16.121094 5.316406 16.125 5.8125 L 16.15625 11.71875 C 15.785156 11.5625 15.367188 11.460938 14.9375 11.46875 L 14.9375 4.625 C 14.933594 4.132813 14.496094 3.742188 14 3.75 Z"/></svg>