<svg fill="#000000" xmlns="http://www.w3.org/2000/svg"  viewBox="0 0 26 26" width="26px" height="26px"><path d="M 13.3125 2 L 13.1875 4 C 13.789063 4 14.3125 4.085938 14.8125 4.1875 L 15.1875 2.1875 C 14.585938 2.085938 13.914063 2 13.3125 2 Z M 11.09375 2.09375 C 10.394531 2.195313 9.699219 2.386719 9 2.6875 L 9.6875 4.59375 C 10.289063 4.394531 10.90625 4.195313 11.40625 4.09375 Z M 17 3 L 18 8.90625 L 19.8125 7.09375 C 21.179688 8.675781 22 10.75 22 13 C 22 15.515625 20.882813 17.800781 19.1875 19.5 C 18.789063 19.898438 18.3125 20.292969 17.8125 20.59375 L 18.90625 22.3125 C 19.308594 22.082031 19.628906 21.808594 19.9375 21.53125 L 19.96875 21.5625 C 22.367188 19.492188 24 16.421875 24 13 C 24 10.21875 22.953125 7.640625 21.21875 5.6875 L 22.90625 4 Z M 7 3.6875 C 6.398438 4.085938 5.8125 4.59375 5.3125 5.09375 L 5.34375 5.125 C 3.3125 7.140625 2 9.878906 2 13 C 2 15.765625 3.023438 18.355469 4.78125 20.3125 L 3.09375 22 L 9 23 L 8 17.09375 L 6.21875 18.875 C 4.828125 17.296875 4 15.234375 4 13 C 4 10.023438 5.429688 7.519531 7.625 5.78125 C 7.777344 5.660156 7.925781 5.542969 8.09375 5.40625 Z M 16.3125 21.3125 C 15.8125 21.511719 15.195313 21.710938 14.59375 21.8125 L 14.90625 23.8125 C 15.605469 23.710938 16.300781 23.488281 17 23.1875 Z M 11.3125 21.8125 L 10.90625 23.8125 C 11.507813 23.914063 12.085938 24 12.6875 24 L 12.8125 22 C 12.3125 22 11.8125 21.914063 11.3125 21.8125 Z"/></svg>