<svg fill="#000000" xmlns="http://www.w3.org/2000/svg"  viewBox="0 0 26 26" width="26px" height="26px"><path d="M 3 0 C 1.34375 0 0 1.34375 0 3 L 0 23 C 0 24.65625 1.34375 26 3 26 L 17.6875 26 L 16.6875 25 L 4 25 C 3.449219 25 3 24.550781 3 24 L 3 14 C 3 13.449219 3.449219 13 4 13 L 22 13 C 22.550781 13 23 13.449219 23 14 L 23 18.78125 C 23.105469 18.851563 24.96875 20.8125 24.96875 20.8125 C 25.207031 21.050781 25.386719 21.339844 25.53125 21.625 C 25.832031 21.15625 26 20.597656 26 20 L 26 6 C 26 5.171875 25.960938 4.710938 23.625 2.375 C 21.289063 0.0390625 20.828125 0 20 0 Z M 6 1 L 19 1 C 19.550781 1 20 1.449219 20 2 L 20 9 C 20 9.550781 19.550781 10 19 10 L 6 10 C 5.449219 10 5 9.550781 5 9 L 5 2 C 5 1.449219 5.449219 1 6 1 Z M 15 2 L 15 9 L 18 9 L 18 2 Z M 12.53125 14.03125 C 12.5 14.039063 12.46875 14.050781 12.4375 14.0625 C 12.300781 14.089844 12.179688 14.171875 12.109375 14.289063 C 12.039063 14.410156 12.019531 14.554688 12.0625 14.6875 L 13.21875 18.59375 C 13.242188 18.757813 13.347656 18.898438 13.5 18.96875 L 17.84375 23.34375 L 18.46875 22.6875 L 21.28125 19.875 L 17 15.5625 C 16.945313 15.378906 16.785156 15.242188 16.59375 15.21875 L 12.6875 14.0625 C 12.636719 14.042969 12.585938 14.03125 12.53125 14.03125 Z M 13.90625 15.4375 L 16.125 16.09375 L 15.40625 17.375 L 14.09375 18.125 L 13.4375 15.90625 Z M 21.84375 20.375 L 18.375 23.84375 L 19.125 24.625 L 22.5625 21.1875 Z M 23.03125 21.71875 L 19.71875 25.03125 L 20.25 25.53125 C 20.707031 25.984375 21.417969 25.988281 21.875 25.53125 L 23.53125 23.875 C 23.984375 23.417969 23.980469 22.667969 23.53125 22.21875 Z"/></svg>