<svg fill="#000000" xmlns="http://www.w3.org/2000/svg"  viewBox="0 0 26 26" width="26px" height="26px"><path d="M 20.21875 0.125 C 18.371094 0.117188 14.597656 0.148438 12.78125 1.96875 L 12.40625 2.34375 C 10.257813 4.503906 10.125 7.757813 11.84375 10.09375 L 1.21875 19.71875 C 0.371094 20.566406 -0.742188 22.851563 1.21875 24.8125 C 3.179688 26.773438 5.5 25.65625 6.34375 24.8125 C 6.34375 24.8125 13.308594 17.195313 13.90625 16.53125 C 14.503906 15.863281 14.1875 15.15625 14.1875 15.15625 C 14.1875 15.15625 12.941406 13.460938 12.28125 12.4375 C 11.921875 11.878906 12.085938 11.800781 12.59375 12.125 C 13.871094 12.941406 15.246094 13.765625 15.71875 14.03125 C 15.757813 14.054688 15.882813 14.144531 15.90625 14.15625 C 15.917969 14.164063 15.925781 14.179688 15.9375 14.1875 C 18.265625 15.933594 21.523438 15.789063 23.6875 13.625 L 24.0625 13.25 C 25.824219 11.488281 25.867188 7.789063 25.875 5.90625 C 25.878906 5.304688 25.4375 5.6875 25.4375 5.6875 C 25.4375 5.6875 22.292969 8.863281 21.96875 9.1875 C 21.644531 9.511719 20.5625 9.46875 20.5625 9.46875 C 20.5625 9.46875 17.695313 9.164063 17.28125 8.75 C 16.867188 8.335938 16.5625 5.3125 16.5625 5.3125 C 16.5625 5.3125 16.492188 4.476563 16.90625 4.0625 C 17.320313 3.648438 20.40625 0.5625 20.40625 0.5625 C 20.40625 0.5625 20.792969 0.128906 20.21875 0.125 Z M 4.0625 20.15625 C 5.050781 20.15625 5.84375 20.949219 5.84375 21.9375 C 5.84375 22.925781 5.050781 23.71875 4.0625 23.71875 C 3.074219 23.71875 2.28125 22.925781 2.28125 21.9375 C 2.28125 20.949219 3.074219 20.15625 4.0625 20.15625 Z"/></svg>