<svg fill="#000000" xmlns="http://www.w3.org/2000/svg"  viewBox="0 0 26 26" width="26px" height="26px"><path d="M 4.875 5 C 2.183594 5 0 7.183594 0 9.875 L 0 16.125 C 0 18.816406 2.183594 21 4.875 21 L 21.125 21 C 23.816406 21 26 18.816406 26 16.125 L 26 9.875 C 26 7.183594 23.816406 5 21.125 5 Z M 14.03125 7 L 21.125 7 C 22.710938 7 24 8.289063 24 9.875 L 24 16.125 C 24 17.710938 22.710938 19 21.125 19 L 14.03125 19 C 14.628906 18.191406 15 17.207031 15 16.125 L 15 9.875 C 15 8.792969 14.628906 7.808594 14.03125 7 Z"/></svg>