<svg fill="#000000" xmlns="http://www.w3.org/2000/svg"  viewBox="0 0 26 26" width="26px" height="26px"><path d="M 4.875 5 C 2.183594 5 0 7.183594 0 9.875 L 0 16.125 C 0 18.816406 2.183594 21 4.875 21 L 21.125 21 C 23.816406 21 26 18.816406 26 16.125 L 26 9.875 C 26 7.183594 23.816406 5 21.125 5 Z M 4.875 7 L 11.96875 7 C 11.371094 7.808594 11 8.792969 11 9.875 L 11 16.125 C 11 17.207031 11.371094 18.191406 11.96875 19 L 4.875 19 C 3.289063 19 2 17.710938 2 16.125 L 2 9.875 C 2 8.289063 3.289063 7 4.875 7 Z"/></svg>