<svg fill="#000000" xmlns="http://www.w3.org/2000/svg"  viewBox="0 0 26 26" width="26px" height="26px"><path d="M 7 6 C 3.140625 6 0 9.140625 0 13 C 0 16.859375 3.140625 20 7 20 L 19 20 C 19.242188 20 19.484375 19.992188 19.71875 19.96875 C 20.890625 19.847656 21.976563 19.441406 22.90625 18.8125 C 23.835938 18.183594 24.617188 17.335938 25.15625 16.34375 C 25.265625 16.144531 25.347656 15.929688 25.4375 15.71875 C 25.53125 15.5 25.617188 15.292969 25.6875 15.0625 C 25.757813 14.84375 25.796875 14.632813 25.84375 14.40625 C 25.9375 13.949219 26 13.484375 26 13 C 26 12.757813 25.992188 12.515625 25.96875 12.28125 C 25.921875 11.820313 25.820313 11.367188 25.6875 10.9375 C 25.683594 10.929688 25.691406 10.914063 25.6875 10.90625 C 25.550781 10.46875 25.371094 10.054688 25.15625 9.65625 C 25.046875 9.457031 24.9375 9.28125 24.8125 9.09375 C 24.183594 8.164063 23.335938 7.382813 22.34375 6.84375 C 21.957031 6.632813 21.523438 6.449219 21.09375 6.3125 C 21.085938 6.308594 21.070313 6.316406 21.0625 6.3125 C 20.84375 6.242188 20.632813 6.203125 20.40625 6.15625 C 19.949219 6.0625 19.484375 6 19 6 Z M 19 8 C 21.773438 8 24 10.226563 24 13 C 24 15.773438 21.773438 18 19 18 C 16.226563 18 14 15.773438 14 13 C 14 10.226563 16.226563 8 19 8 Z"/></svg>