<svg fill="#000000" xmlns="http://www.w3.org/2000/svg"  viewBox="0 0 26 26" width="26px" height="26px"><path d="M 7 6 C 3.144531 6 0 9.144531 0 13 C 0 16.855469 3.144531 20 7 20 L 19 20 C 22.855469 20 26 16.855469 26 13 C 26 9.144531 22.855469 6 19 6 Z M 7 8 C 9.773438 8 12 10.226563 12 13 C 12 15.773438 9.773438 18 7 18 C 4.226563 18 2 15.773438 2 13 C 2 12.828125 2.015625 12.667969 2.03125 12.5 C 2.285156 9.96875 4.398438 8 7 8 Z M 11.875 8 L 19 8 C 21.773438 8 24 10.226563 24 13 C 24 15.773438 21.773438 18 19 18 L 11.875 18 C 13.179688 16.726563 14 14.957031 14 13 C 14 11.042969 13.179688 9.273438 11.875 8 Z"/></svg>