<svg fill="#000000" xmlns="http://www.w3.org/2000/svg"  viewBox="0 0 26 26" width="26px" height="26px"><path d="M 21.125 2 C 22.710938 2 24 3.289063 24 4.875 L 24 21.125 C 24 22.710938 22.710938 24 21.125 24 L 4.875 24 C 3.289063 24 2 22.710938 2 21.125 L 2 4.875 C 2 3.289063 3.289063 2 4.875 2 L 21.125 2 M 21.125 0 L 4.875 0 C 2.183594 0 0 2.183594 0 4.875 L 0 21.125 C 0 23.816406 2.183594 26 4.875 26 L 21.125 26 C 23.816406 26 26 23.816406 26 21.125 L 26 4.875 C 26 2.183594 23.816406 0 21.125 0 Z"/></svg>