<svg fill="#000000" xmlns="http://www.w3.org/2000/svg"  viewBox="0 0 26 26" width="26px" height="26px"><path d="M 11.8125 0 L 11.3125 3 C 10.613281 3.199219 9.914063 3.511719 9.3125 3.8125 L 6.8125 2 L 5.09375 3.8125 L 6.8125 6.1875 C 6.414063 6.789063 6.101563 7.488281 6 8.1875 L 3 8.6875 L 3 11.1875 L 5.90625 11.6875 C 6.105469 12.386719 6.386719 13.085938 6.6875 13.6875 L 5 16.1875 L 6.8125 18 L 9.3125 16.3125 C 9.914063 16.710938 10.613281 16.894531 11.3125 17.09375 L 11.8125 20.09375 L 14.3125 20.09375 L 14.8125 17.09375 C 15.511719 16.894531 16.210938 16.613281 16.8125 16.3125 L 19.3125 18 L 21.09375 16.1875 L 19.3125 13.8125 C 19.710938 13.210938 19.894531 12.511719 20.09375 11.8125 L 23 11.1875 L 23 8.6875 L 20 8.1875 C 19.800781 7.488281 19.488281 6.789063 19.1875 6.1875 L 20.90625 3.6875 L 19.1875 2 L 16.8125 3.8125 C 16.210938 3.414063 15.511719 3.199219 14.8125 3 L 14.3125 0 Z M 13 6 L 16 10 L 14 10 L 14 14 L 12 14 L 12 10 L 10 10 Z M 0 19 L 0 23 C 0 24.699219 1.300781 26 3 26 L 23 26 C 24.699219 26 26 24.699219 26 23 L 26 19 L 24 19 L 24 23 C 24 23.601563 23.601563 24 23 24 L 3 24 C 2.398438 24 2 23.601563 2 23 L 2 19 Z"/></svg>