<svg fill="#000000" xmlns="http://www.w3.org/2000/svg"  viewBox="0 0 26 26" width="26px" height="26px"><path d="M 8.1875 2 C 7.0625 2.011719 5.800781 2.507813 5 3.90625 C 4.199219 5.40625 3.992188 7.304688 4.59375 8.90625 C 4.492188 9.007813 4.414063 8.800781 4.3125 9.5 C 4.210938 10.199219 4.605469 11.1875 4.90625 11.6875 C 5.007813 11.886719 5.304688 11.988281 5.40625 12.1875 C 5.40625 12.1875 5.59375 13.394531 6.59375 14.59375 C 6.792969 15.492188 5.90625 16 5.90625 16 C 2.804688 16.601563 0 18.289063 0 20.1875 L 0 21.59375 C 0 23.59375 4.707031 24.007813 8.90625 23.90625 C 13.105469 23.90625 17.8125 22.699219 17.8125 21.5 L 17.8125 20.09375 C 17.8125 18.195313 15.007813 16.507813 11.90625 15.90625 C 11.90625 15.90625 10.710938 15.699219 11.3125 14.5 C 11.914063 13.601563 12.40625 12.488281 12.40625 12.1875 C 12.40625 12.1875 13.398438 11.292969 13.5 10.09375 C 13.601563 8.894531 13.3125 8.8125 13.3125 8.8125 C 13.710938 7.511719 13.894531 2.398438 10.59375 3 C 10.292969 2.449219 9.3125 1.988281 8.1875 2 Z M 15.5 7 C 15.5 7.601563 15.40625 8.195313 15.40625 8.59375 C 15.40625 8.695313 15.398438 8.800781 15.5 9 L 26 9 L 26 7 Z M 15 12 C 14.800781 12.5 14.488281 13.011719 14.1875 13.3125 C 14.085938 13.511719 14.007813 13.800781 13.90625 14 L 26 14 L 26 12 Z M 18.40625 17 C 18.90625 17.601563 19.394531 18.300781 19.59375 19 L 26 19 L 26 17 Z"/></svg>