<svg fill="#000000" xmlns="http://www.w3.org/2000/svg"  viewBox="0 0 26 26" width="26px" height="26px"><path d="M 10 0.1875 C 4.578125 0.1875 0.1875 4.578125 0.1875 10 C 0.1875 15.421875 4.578125 19.8125 10 19.8125 C 12.289063 19.8125 14.394531 19.003906 16.0625 17.6875 L 16.9375 18.5625 C 16.570313 19.253906 16.699219 20.136719 17.28125 20.71875 L 21.875 25.34375 C 22.589844 26.058594 23.753906 26.058594 24.46875 25.34375 L 25.34375 24.46875 C 26.058594 23.753906 26.058594 22.589844 25.34375 21.875 L 20.71875 17.28125 C 20.132813 16.695313 19.253906 16.59375 18.5625 16.96875 L 17.6875 16.09375 C 19.011719 14.421875 19.8125 12.300781 19.8125 10 C 19.8125 4.578125 15.421875 0.1875 10 0.1875 Z M 10 2 C 14.417969 2 18 5.582031 18 10 C 18 14.417969 14.417969 18 10 18 C 5.582031 18 2 14.417969 2 10 C 2 5.582031 5.582031 2 10 2 Z M 5 9 L 5 11 L 15 11 L 15 9 Z"/></svg>