<?xml version="1.0"?><svg fill="#000000" xmlns="http://www.w3.org/2000/svg"  viewBox="0 0 30 30" width="30px" height="30px">    <path d="M 19 5 A 2 2 0 0 0 17.269531 6 L 4 6 A 1.0001 1.0001 0 1 0 4 8 L 17.271484 8 A 2 2 0 0 0 19 9 A 2 2 0 0 0 21 7 A 2 2 0 0 0 19 5 z M 22.859375 6 C 22.942375 6.321 23 6.653 23 7 C 23 7.347 22.942375 7.679 22.859375 8 L 26 8 A 1 1 0 0 0 27 7 A 1 1 0 0 0 26 6 L 22.859375 6 z M 9 13 A 2 2 0 0 0 7.2714844 14 L 4 14 A 1.0001 1.0001 0 1 0 4 16 L 7.2695312 16 A 2 2 0 0 0 9 17 A 2 2 0 0 0 11 15 A 2 2 0 0 0 9 13 z M 12.859375 14 C 12.942375 14.321 13 14.653 13 15 C 13 15.347 12.942375 15.679 12.859375 16 L 26 16 A 1 1 0 0 0 27 15 A 1 1 0 0 0 26 14 L 12.859375 14 z M 15 21 A 2 2 0 0 0 13.269531 22 L 4 22 A 1.0001 1.0001 0 1 0 4 24 L 13.271484 24 A 2 2 0 0 0 15 25 A 2 2 0 0 0 17 23 A 2 2 0 0 0 15 21 z M 18.859375 22 C 18.942375 22.321 19 22.653 19 23 C 19 23.347 18.942375 23.679 18.859375 24 L 26 24 A 1 1 0 0 0 27 23 A 1 1 0 0 0 26 22 L 18.859375 22 z"/></svg>