<svg fill="#000000" xmlns="http://www.w3.org/2000/svg"  viewBox="0 0 30 30" width="30px" height="30px"><path d="M 14.724609 1 C 14.405609 1 14.138516 1.2406406 14.103516 1.5566406 L 14.050781 2.0292969 C 13.991781 2.5582969 13.602938 2.9844219 13.085938 3.1074219 C 12.956938 3.1384219 12.827172 3.1729844 12.701172 3.2089844 C 12.193172 3.3569844 11.648938 3.1828594 11.335938 2.7558594 L 11.054688 2.3710938 C 10.865687 2.1150938 10.514281 2.0421719 10.238281 2.2011719 L 9.7597656 2.4785156 C 9.4837656 2.6365156 9.372 2.9785312 9.5 3.2695312 L 9.6933594 3.7109375 C 9.9063594 4.1959375 9.7853437 4.7560469 9.4023438 5.1230469 C 9.3073437 5.2130469 9.2140469 5.3073438 9.1230469 5.4023438 C 8.7560469 5.7853438 8.1959375 5.9093125 7.7109375 5.6953125 L 7.2695312 5.5019531 C 6.9785312 5.3739531 6.6365625 5.4857187 6.4765625 5.7617188 L 6.2011719 6.2402344 C 6.0421719 6.5162344 6.1150937 6.8676406 6.3710938 7.0566406 L 6.7558594 7.3378906 C 7.1818594 7.6508906 7.3559844 8.195125 7.2089844 8.703125 C 7.1729844 8.829125 7.1384219 8.9588906 7.1074219 9.0878906 C 6.9844219 9.6048906 6.5582969 9.9917813 6.0292969 10.050781 L 5.5546875 10.103516 C 5.2396875 10.138516 5 10.405609 5 10.724609 L 5 11.275391 C 5 11.594391 5.2406406 11.862438 5.5566406 11.898438 L 6.03125 11.949219 C 6.56025 12.008219 6.986375 12.397062 7.109375 12.914062 C 7.140375 13.043062 7.1739375 13.171828 7.2109375 13.298828 C 7.3579375 13.806828 7.1818594 14.351062 6.7558594 14.664062 L 6.3730469 14.945312 C 6.1170469 15.134313 6.0421719 15.485719 6.2011719 15.761719 L 6.4785156 16.240234 C 6.6375156 16.516234 6.9785312 16.628 7.2695312 16.5 L 7.7109375 16.306641 C 8.1959375 16.093641 8.7570469 16.214656 9.1230469 16.597656 C 9.2130469 16.692656 9.3073438 16.785953 9.4023438 16.876953 C 9.7863438 17.242953 9.9073594 17.802109 9.6933594 18.287109 L 9.5039062 18.730469 C 9.3759062 19.021469 9.4876719 19.361484 9.7636719 19.521484 L 10.242188 19.798828 C 10.518187 19.957828 10.870594 19.882953 11.058594 19.626953 L 11.339844 19.244141 C 11.651844 18.818141 12.195125 18.642063 12.703125 18.789062 C 12.829125 18.825063 12.958891 18.859625 13.087891 18.890625 C 13.604891 19.012625 13.993734 19.43975 14.052734 19.96875 L 14.105469 20.443359 C 14.138469 20.760359 14.405609 21 14.724609 21 L 15.275391 21 C 15.594391 21 15.861484 20.759359 15.896484 20.443359 L 15.949219 19.96875 C 16.008219 19.43975 16.397062 19.013625 16.914062 18.890625 C 17.043063 18.859625 17.172828 18.826062 17.298828 18.789062 C 17.806828 18.641063 18.349109 18.817141 18.662109 19.244141 L 18.943359 19.626953 C 19.132359 19.882953 19.483766 19.957828 19.759766 19.798828 L 20.238281 19.521484 C 20.514281 19.362484 20.626047 19.021469 20.498047 18.730469 L 20.304688 18.289062 C 20.091687 17.804063 20.214656 17.243906 20.597656 16.878906 C 20.692656 16.788906 20.785953 16.694609 20.876953 16.599609 C 21.242953 16.215609 21.801109 16.093641 22.287109 16.306641 L 22.728516 16.5 C 23.019516 16.628 23.363484 16.516234 23.521484 16.240234 L 23.800781 15.759766 C 23.959781 15.483766 23.884906 15.131359 23.628906 14.943359 L 23.246094 14.662109 C 22.820094 14.350109 22.645969 13.805828 22.792969 13.298828 C 22.828969 13.172828 22.863531 13.043062 22.894531 12.914062 C 23.016531 12.396062 23.443656 12.008219 23.972656 11.949219 L 24.445312 11.896484 C 24.759313 11.862484 25 11.594391 25 11.275391 L 25 10.724609 C 25 10.405609 24.759359 10.138516 24.443359 10.103516 L 23.970703 10.050781 C 23.441703 9.9917813 23.014578 9.6039375 22.892578 9.0859375 C 22.861578 8.9569375 22.829969 8.8271719 22.792969 8.7011719 C 22.644969 8.1931719 22.819094 7.6479375 23.246094 7.3359375 L 23.628906 7.0546875 C 23.884906 6.8656875 23.959781 6.5142813 23.800781 6.2382812 L 23.523438 5.7597656 C 23.364438 5.4837656 23.022469 5.372 22.730469 5.5 L 22.289062 5.6933594 C 21.804063 5.9053594 21.243906 5.7843906 20.878906 5.4003906 C 20.788906 5.3053906 20.694609 5.2120938 20.599609 5.1210938 C 20.215609 4.7550938 20.092641 4.1969375 20.306641 3.7109375 L 20.5 3.2695312 C 20.628 2.9785313 20.516234 2.6365625 20.240234 2.4765625 L 19.761719 2.1992188 C 19.485719 2.0402188 19.133312 2.1150938 18.945312 2.3710938 L 18.664062 2.7539062 C 18.352062 3.1799063 17.806828 3.3540312 17.298828 3.2070312 C 17.172828 3.1710312 17.043063 3.1384219 16.914062 3.1074219 C 16.397063 2.9854219 16.008219 2.5582969 15.949219 2.0292969 L 15.898438 1.5546875 C 15.862437 1.2396875 15.594391 1 15.275391 1 L 14.724609 1 z M 15 7 L 18 10 L 16 10 L 16 15 L 14 15 L 14 10 L 12 10 L 15 7 z M 3.984375 17.986328 A 1.0001 1.0001 0 0 0 3 19 L 3 25 C 3 26.093063 3.9069372 27 5 27 L 25 27 C 26.093063 27 27 26.093063 27 25 L 27 19 A 1.0001 1.0001 0 1 0 25 19 L 25 25 L 5 25 L 5 19 A 1.0001 1.0001 0 0 0 3.984375 17.986328 z"/></svg>