<svg xmlns="http://www.w3.org/2000/svg"  viewBox="0 0 100 100" width="100px" height="100px"><path fill="#78a2d2" d="M50 15A35 35 0 1 0 50 85A35 35 0 1 0 50 15Z"/><path fill="#f69272" d="M66.86,41.14c-0.26,0.78-0.83,1.42-1.57,1.76L56,47.23v5c0,0.35,0.06,0.69,0.18,1.02L61.82,69 c0.28,0.76,0.23,1.59-0.14,2.34c-0.37,0.74-1.02,1.29-1.82,1.54c-1.48,0.44-3.19-0.49-3.74-2.03l-4.58-12.74 c-0.22-0.65-0.81-1.06-1.53-1.07c-0.71,0-1.33,0.42-1.55,1.04L43.83,71c-0.29,0.8-0.85,1.4-1.64,1.75c-0.37,0.16-0.78,0.25-1.2,0.25 c-0.39,0-0.79-0.08-1.15-0.23c-1.42-0.6-2.16-2.4-1.61-3.94l5.59-15.58c0.12-0.33,0.18-0.67,0.18-1.02v-5.19l-9.27-4.33 c-0.75-0.34-1.31-0.97-1.57-1.76c-0.27-0.8-0.2-1.64,0.2-2.37c0.49-0.94,1.52-1.53,2.68-1.53c0.49,0,0.97,0.11,1.39,0.31l7.17,3.34 c0.4,0.2,0.84,0.3,1.3,0.3h8.6c0.46,0,0.89-0.1,1.26-0.28l6.84-3.18c1.46-0.7,3.33-0.14,4.06,1.23 C67.06,39.5,67.13,40.34,66.86,41.14z"/><path fill="#f69272" d="M50 28A5 5 0 1 0 50 38A5 5 0 1 0 50 28Z"/><path fill="#1f212b" d="M57.529,59c-0.205,0-0.397-0.127-0.471-0.331l-1.819-5.08C55.081,53.16,55,52.701,55,52.23v-4.683 c0-0.581,0.34-1.115,0.867-1.36l9.002-4.19c0.497-0.232,0.869-0.65,1.047-1.177c0.175-0.526,0.127-1.086-0.137-1.572 c-0.49-0.915-1.751-1.281-2.755-0.807l-6.834,3.182C55.702,41.867,55.113,42,54.5,42h-8.6c-0.618,0-1.219-0.14-1.737-0.404 l-7.154-3.333c-0.296-0.14-0.63-0.213-0.969-0.213c-0.788,0-1.477,0.384-1.796,1.001c-0.268,0.493-0.315,1.053-0.139,1.581 c0.178,0.535,0.54,0.941,1.044,1.174l1.562,0.729c0.25,0.117,0.358,0.414,0.242,0.665c-0.117,0.25-0.414,0.361-0.665,0.241 l-1.56-0.729c-0.749-0.345-1.309-0.972-1.573-1.765c-0.265-0.794-0.192-1.635,0.205-2.366c0.488-0.942,1.516-1.532,2.68-1.532 c0.486,0,0.968,0.106,1.394,0.308l7.167,3.34C44.996,40.898,45.439,41,45.9,41h8.6c0.458,0,0.893-0.096,1.256-0.277l6.843-3.186 c1.465-0.701,3.329-0.134,4.062,1.236c0.395,0.731,0.468,1.571,0.204,2.365c-0.264,0.778-0.837,1.42-1.573,1.765l-9.003,4.19 C56.113,47.176,56,47.354,56,47.548v4.683c0,0.353,0.06,0.694,0.179,1.017L58,58.331c0.093,0.261-0.042,0.547-0.302,0.64 C57.642,58.99,57.585,59,57.529,59z"/><path fill="#1f212b" d="M40.994 72.998c-.394 0-.79-.075-1.155-.227-1.422-.598-2.158-2.401-1.61-3.939l5.59-15.581C43.94 52.925 44 52.583 44 52.23v-4.874c0-.193-.114-.371-.29-.453l-5.422-2.529c-.25-.117-.358-.414-.242-.664.117-.251.414-.359.665-.242l5.423 2.529C44.661 46.244 45 46.777 45 47.356v4.874c0 .471-.081.93-.241 1.362l-5.588 15.576c-.376 1.055.106 2.282 1.053 2.68.497.205 1.082.2 1.561-.015.54-.237.91-.632 1.104-1.173l4.63-12.92c.359-1.017 1.356-1.701 2.48-1.701 1.171.012 2.136.696 2.484 1.742l4.576 12.729c.38 1.06 1.527 1.706 2.504 1.411.538-.169.972-.533 1.218-1.025.251-.502.286-1.053.099-1.551l-1.675-4.677c-.093-.261.042-.547.302-.64.257-.093.545.041.639.302l1.672 4.67c.283.755.233 1.59-.144 2.343-.369.737-1.014 1.282-1.818 1.534-1.476.441-3.186-.484-3.74-2.029l-4.58-12.739c-.215-.646-.812-1.062-1.524-1.069-.715 0-1.334.417-1.553 1.037l-4.631 12.922c-.286.798-.853 1.403-1.639 1.749C41.821 72.914 41.408 72.998 40.994 72.998zM58.604 62c-.205 0-.397-.127-.471-.331l-.358-1c-.093-.26.042-.547.302-.64.257-.093.546.041.639.302l.358 1c.093.26-.042.547-.302.64C58.716 61.99 58.66 62 58.604 62z"/><path fill="#1f212b" d="M50,14c-19.851,0-36,16.149-36,36s16.149,36,36,36s36-16.149,36-36S69.851,14,50,14z M50,84 c-18.748,0-34-15.252-34-34s15.252-34,34-34s34,15.252,34,34S68.748,84,50,84z"/><path fill="#1f212b" d="M71.853,28.013c-0.196-0.194-0.512-0.194-0.707,0.002s-0.194,0.513,0.002,0.707 C76.856,34.396,80,41.952,80,50c0,16.542-13.458,30-30,30S20,66.542,20,50s13.458-30,30-30c3.55,0,7.025,0.614,10.328,1.825 c0.261,0.094,0.547-0.037,0.642-0.298c0.095-0.259-0.038-0.546-0.297-0.642C57.259,19.635,53.668,19,50,19 c-17.093,0-31,13.906-31,31s13.907,31,31,31s31-13.906,31-31C81,41.684,77.751,33.875,71.853,28.013z"/><path fill="#1f212b" d="M63.277 23.091c.669.332 1.331.69 1.969 1.066.237.141.544.062.685-.177C65.978 23.9 66 23.813 66 23.727c0-.171-.088-.338-.246-.431-.658-.388-1.342-.759-2.031-1.102-.248-.122-.548-.021-.671.226C62.931 22.665 63.029 22.967 63.277 23.091zM68.196 26.146c.22.167.533.126.701-.094C68.967 25.962 69 25.855 69 25.749c0-.15-.067-.299-.196-.397-.333-.255-.673-.503-1.017-.744-.226-.159-.537-.104-.696.122-.158.225-.104.537.122.696C67.545 25.659 67.873 25.899 68.196 26.146zM50 38c-2.757 0-5-2.243-5-5s2.243-5 5-5 5 2.243 5 5S52.757 38 50 38zM50 29c-2.206 0-4 1.794-4 4s1.794 4 4 4 4-1.794 4-4S52.206 29 50 29z"/></svg>