<svg xmlns="http://www.w3.org/2000/svg"  viewBox="0 0 100 100" width="100px" height="100px"><path fill="#f37e98" d="M78 75L65.24 62.04 61 66.28 66.51 72H29c-3.866 0-7-3.134-7-7V46h-6v19c0 7.18 5.82 13 13 13h37.51L61 83.72l4.24 4.24L78 75zM78 54h6V35c0-7.18-5.82-13-13-13H33.49L39 16.28l-4.24-4.24L22 25l12.76 12.96L39 33.72 33.49 28H71c3.866 0 7 3.134 7 7V54z"/><path fill="#1f212b" d="M65.24,88.96c-0.266,0-0.52-0.105-0.707-0.293l-4.24-4.24c-0.386-0.386-0.392-1.008-0.013-1.4L64.158,79H29c-7.72,0-14-6.28-14-14V46c0-0.553,0.447-1,1-1h6c0.553,0,1,0.447,1,1v19c0,3.309,2.691,6,6,6h35.158l-3.878-4.026c-0.379-0.393-0.373-1.015,0.013-1.4l4.24-4.24c0.188-0.188,0.441-0.293,0.707-0.293c0.001,0,0.003,0,0.004,0c0.267,0.001,0.521,0.108,0.709,0.299l12.76,12.96c0.383,0.389,0.383,1.014,0,1.402l-12.76,12.96C65.765,88.853,65.507,88.972,65.24,88.96z M62.401,83.707l2.833,2.833L76.597,75L65.234,63.46l-2.833,2.833l4.828,5.014c0.278,0.288,0.357,0.716,0.2,1.085C67.273,72.761,66.911,73,66.51,73H29c-4.411,0-8-3.589-8-8V47h-4v18c0,6.617,5.383,12,12,12h37.51c0.401,0,0.764,0.239,0.92,0.608c0.157,0.369,0.078,0.797-0.2,1.085L62.401,83.707z"/><path fill="#1f212b" d="M32.5 76h-1c-.276 0-.5-.224-.5-.5s.224-.5.5-.5h1c.276 0 .5.224.5.5S32.776 76 32.5 76zM36.5 76h-2c-.276 0-.5-.224-.5-.5s.224-.5.5-.5h2c.276 0 .5.224.5.5S36.776 76 36.5 76zM56.5 76h-17c-.276 0-.5-.224-.5-.5s.224-.5.5-.5h17c.276 0 .5.224.5.5S56.776 76 56.5 76zM70.5 25h-11c-.276 0-.5-.224-.5-.5s.224-.5.5-.5h11c.276 0 .5.224.5.5S70.776 25 70.5 25zM57.5 25h-2c-.276 0-.5-.224-.5-.5s.224-.5.5-.5h2c.276 0 .5.224.5.5S57.776 25 57.5 25zM52.5 25h-7c-.276 0-.5-.224-.5-.5s.224-.5.5-.5h7c.276 0 .5.224.5.5S52.776 25 52.5 25z"/><path fill="#1f212b" d="M84,55h-6c-0.553,0-1-0.447-1-1V35c0-3.309-2.691-6-6-6H35.842l3.878,4.026c0.379,0.393,0.373,1.015-0.013,1.4l-4.24,4.24c-0.188,0.188-0.441,0.293-0.707,0.293c-0.001,0-0.003,0-0.004,0c-0.267-0.001-0.521-0.108-0.709-0.299l-12.76-12.96c-0.383-0.389-0.383-1.014,0-1.402l12.76-12.96c0.188-0.19,0.442-0.298,0.709-0.299c0.001,0,0.003,0,0.004,0c0.266,0,0.52,0.105,0.707,0.293l4.24,4.24c0.386,0.386,0.392,1.008,0.013,1.4L35.842,21H71c7.72,0,14,6.28,14,14v19C85,54.553,84.553,55,84,55z M79,53h4V35c0-6.617-5.383-12-12-12H33.49c-0.401,0-0.764-0.239-0.92-0.608c-0.157-0.369-0.078-0.797,0.2-1.085l4.828-5.014l-2.833-2.833L23.403,25l11.362,11.54l2.833-2.833l-4.828-5.014c-0.278-0.288-0.357-0.716-0.2-1.085C32.727,27.239,33.089,27,33.49,27H71c4.411,0,8,3.589,8,8V53z"/></svg>