<svg xmlns="http://www.w3.org/2000/svg"  viewBox="0 0 100 100" width="100px" height="100px"><path fill="#ee538f" d="M69.614,81.961h-39c-6.6,0-12-5.4-12-12v-39c0-6.6,5.4-12,12-12h39c6.6,0,12,5.4,12,12v39C81.614,76.561,76.214,81.961,69.614,81.961z"/><path fill="#1f212b" d="M69.614,82.961h-39c-7.168,0-13-5.832-13-13v-39c0-7.168,5.832-13,13-13h39c7.168,0,13,5.832,13,13v39C82.614,77.129,76.783,82.961,69.614,82.961z M30.614,19.961c-6.065,0-11,4.935-11,11v39c0,6.065,4.935,11,11,11h39c6.065,0,11-4.935,11-11v-39c0-6.065-4.935-11-11-11H30.614z"/><path fill="#ee538f" d="M77.114,48.461v18.663c0,5.685-4.652,10.337-10.337,10.337H33.451c-5.685,0-10.337-4.652-10.337-10.337V33.798c0-5.685,4.652-10.337,10.337-10.337h33.663"/><path fill="#1f212b" d="M66.777 77.961H33.451c-5.976 0-10.837-4.861-10.837-10.837V33.798c0-5.976 4.861-10.837 10.837-10.837h33.663c.276 0 .5.224.5.5s-.224.5-.5.5H33.451c-5.424 0-9.837 4.413-9.837 9.837v33.326c0 5.424 4.413 9.837 9.837 9.837h33.326c5.424 0 9.837-4.413 9.837-9.837V48.461c0-.276.224-.5.5-.5s.5.224.5.5v18.663C77.614 73.099 72.753 77.961 66.777 77.961zM77.114 45.961c-.276 0-.5-.224-.5-.5v-4c0-.276.224-.5.5-.5s.5.224.5.5v4C77.614 45.737 77.391 45.961 77.114 45.961zM77.114 39.961c-.276 0-.5-.224-.5-.5v-2c0-.276.224-.5.5-.5s.5.224.5.5v2C77.614 39.737 77.391 39.961 77.114 39.961z"/><path fill="#fdfcee" d="M50,34.904c-8.324,0-15.096,6.772-15.096,15.096c0,4.115,1.659,7.848,4.339,10.574c0.028,0.034,0.051,0.07,0.083,0.101c0.032,0.032,0.068,0.055,0.102,0.083c2.726,2.68,6.458,4.339,10.573,4.339c8.324,0,15.097-6.772,15.097-15.097C65.096,41.676,58.324,34.904,50,34.904z M50,37.846c2.821,0,5.415,0.975,7.479,2.594L40.44,57.479c-1.619-2.065-2.594-4.658-2.594-7.479C37.846,43.298,43.298,37.846,50,37.846z M50,62.154c-2.821,0-5.414-0.975-7.479-2.594L59.56,42.521c1.619,2.065,2.594,4.658,2.594,7.479C62.154,56.702,56.702,62.154,50,62.154z"/><path fill="#1f212b" d="M50,65.596c-4.104,0-7.983-1.592-10.924-4.482c-0.028-0.017-0.068-0.049-0.104-0.086c-0.016-0.016-0.085-0.098-0.099-0.116c-2.877-2.929-4.469-6.809-4.469-10.913c0-8.6,6.997-15.596,15.596-15.596c8.6,0,15.597,6.997,15.597,15.596C65.597,58.6,58.6,65.596,50,65.596z M50,35.403c-8.048,0-14.596,6.548-14.596,14.596c0,3.84,1.49,7.471,4.195,10.223c0.015,0.015,0.057,0.067,0.07,0.084c0.011,0.009,0.098,0.084,0.108,0.094C42.53,63.107,46.16,64.596,50,64.596c8.049,0,14.597-6.548,14.597-14.597C64.597,41.951,58.049,35.403,50,35.403z M50,62.653c-2.842,0-5.535-0.934-7.788-2.7c-0.112-0.088-0.182-0.221-0.19-0.363c-0.009-0.143,0.044-0.283,0.146-0.384l17.039-17.039c0.101-0.101,0.237-0.152,0.384-0.146c0.143,0.009,0.275,0.078,0.363,0.19c1.767,2.254,2.7,4.947,2.7,7.788C62.654,56.977,56.977,62.653,50,62.653z M43.283,59.505c1.979,1.408,4.289,2.148,6.717,2.148c6.426,0,11.654-5.228,11.654-11.654c0-2.427-0.741-4.738-2.148-6.717L43.283,59.505z M40.44,57.979c-0.01,0-0.02,0-0.03-0.001c-0.143-0.008-0.275-0.078-0.363-0.19c-1.767-2.253-2.7-4.946-2.7-7.788c0-6.977,5.676-12.653,12.653-12.653c2.842,0,5.535,0.934,7.788,2.7c0.112,0.088,0.182,0.221,0.19,0.363c0.009,0.143-0.044,0.283-0.146,0.384L40.794,57.833C40.7,57.927,40.573,57.979,40.44,57.979z M50,38.346c-6.426,0-11.653,5.228-11.653,11.653c0,2.428,0.741,4.739,2.148,6.718l16.223-16.223C54.739,39.088,52.428,38.346,50,38.346z"/></svg>