<svg xmlns="http://www.w3.org/2000/svg"  viewBox="0 0 100 100" width="100px" height="100px"><path fill="#78a2d2" d="M12,70c3.866,0,7,3.134,7,7h62c0-3.866,3.134-7,7-7V29c-3.866,0-7-3.134-7-7H19c0,3.866-3.134,7-7,7 V70z"/><path fill="#1f212b" d="M65.5 44h-40c-.276 0-.5-.224-.5-.5s.224-.5.5-.5h40c.276 0 .5.224.5.5S65.776 44 65.5 44zM71.5 44h-3c-.276 0-.5-.224-.5-.5s.224-.5.5-.5h3c.276 0 .5.224.5.5S71.776 44 71.5 44zM74.5 44h-1c-.276 0-.5-.224-.5-.5s.224-.5.5-.5h1c.276 0 .5.224.5.5S74.776 44 74.5 44zM37.5 57h-12c-.276 0-.5-.224-.5-.5s.224-.5.5-.5h12c.276 0 .5.224.5.5S37.776 57 37.5 57zM74.5 57h-33c-.276 0-.5-.224-.5-.5s.224-.5.5-.5h33c.276 0 .5.224.5.5S74.776 57 74.5 57z"/><path fill="#1f212b" d="M81,78H19c-0.552,0-1-0.447-1-1c0-3.309-2.691-6-6-6c-0.552,0-1-0.447-1-1V29c0-0.553,0.448-1,1-1 c3.309,0,6-2.691,6-6c0-0.553,0.448-1,1-1h62c0.553,0,1,0.447,1,1c0,3.309,2.691,6,6,6c0.553,0,1,0.447,1,1v41c0,0.553-0.447,1-1,1 c-3.309,0-6,2.691-6,6C82,77.553,81.553,78,81,78z M19.938,76h60.125c0.452-3.613,3.324-6.485,6.938-6.938V29.938 c-3.613-0.452-6.485-3.324-6.938-6.938H19.938c-0.453,3.613-3.325,6.485-6.938,6.938v39.125C16.613,69.515,19.485,72.387,19.938,76z"/></svg>