<svg xmlns="http://www.w3.org/2000/svg"  viewBox="0 0 100 100" width="100px" height="100px"><path fill="#a1d3a2" d="M50,15c-19.3,0-35,15.7-35,35s15.7,35,35,35s35-15.7,35-35S69.3,15,50,15z"/><path fill="#1f212b" d="M50,86c-19.9,0-36-16.1-36-36s16.1-36,36-36s36,16.1,36,36S69.9,86,50,86z M50,16c-18.7,0-34,15.3-34,34	s15.3,34,34,34s34-15.3,34-34S68.7,16,50,16z"/><path fill="#1f212b" d="M65.5,24.2c-0.1,0-0.2,0-0.3-0.1c-0.6-0.4-1.3-0.7-2-1.1c-0.2-0.1-0.3-0.4-0.2-0.7c0.1-0.2,0.4-0.3,0.7-0.2	c0.7,0.3,1.4,0.7,2,1.1c0.2,0.1,0.3,0.4,0.2,0.7C65.8,24.1,65.7,24.2,65.5,24.2z M68.5,26.3c-0.1,0-0.2,0-0.3-0.1	c-0.3-0.2-0.7-0.5-1-0.7c-0.2-0.2-0.3-0.5-0.1-0.7c0.2-0.2,0.5-0.3,0.7-0.1c0.3,0.2,0.7,0.5,1,0.7c0.2,0.2,0.3,0.5,0.1,0.7	C68.8,26.2,68.7,26.3,68.5,26.3z"/><path fill="#1f212b" d="M50,81c-17.1,0-31-13.9-31-31s13.9-31,31-31c3.7,0,7.3,0.6,10.7,1.9c0.3,0.1,0.4,0.4,0.3,0.6s-0.4,0.4-0.6,0.3	C57,20.6,53.6,20,50,20c-16.5,0-30,13.5-30,30s13.5,30,30,30s30-13.5,30-30c0-8.4-3.6-16.5-9.8-22.2c-0.2-0.2-0.2-0.5,0-0.7	c0.2-0.2,0.5-0.2,0.7,0C77.3,32.9,81,41.3,81,50C81,67.1,67.1,81,50,81z"/></svg>