<svg xmlns="http://www.w3.org/2000/svg"  viewBox="0 0 100 100" width="100px" height="100px"><path fill="#b3b2c3" d="M31 30A20 20 0 1 0 31 70A20 20 0 1 0 31 30Z"/><path fill="#fef6aa" d="M31 34A16 16 0 1 0 31 66A16 16 0 1 0 31 34Z"/><path fill="#1f212b" d="M31,29c-11.58,0-21,9.421-21,21s9.42,21,21,21s21-9.421,21-21S42.58,29,31,29z M31,69 c-10.477,0-19-8.523-19-19s8.523-19,19-19s19,8.523,19,19S41.477,69,31,69z"/><path fill="#1f212b" d="M44.238,58.082c-0.23-0.151-0.54-0.088-0.692,0.144c-0.447,0.681-0.956,1.332-1.511,1.936 c-0.187,0.203-0.174,0.52,0.029,0.707C42.159,60.956,42.281,61,42.402,61c0.135,0,0.269-0.055,0.368-0.161 c0.592-0.644,1.135-1.338,1.612-2.064C44.533,58.544,44.469,58.233,44.238,58.082z"/><path fill="#1f212b" d="M31,34c-8.822,0-16,7.178-16,16s7.178,16,16,16c3.588,0,6.979-1.161,9.807-3.357 c0.218-0.169,0.258-0.483,0.088-0.701c-0.169-0.218-0.482-0.259-0.702-0.088C37.543,63.912,34.364,65,31,65c-8.271,0-15-6.729-15-15 s6.729-15,15-15s15,6.729,15,15c0,1.144-0.129,2.283-0.384,3.388c-0.062,0.269,0.106,0.537,0.375,0.6 c0.27,0.062,0.538-0.105,0.6-0.375C46.862,52.435,47,51.22,47,50C47,41.178,39.822,34,31,34z"/><path fill="#1f212b" d="M45.678 55.021c-.256-.095-.547.032-.645.29-.126.333-.263.659-.412.979-.116.25-.007.548.244.664C44.933 56.985 45.004 57 45.075 57c.189 0 .37-.107.454-.29.158-.342.305-.689.439-1.044C46.066 55.407 45.936 55.119 45.678 55.021zM88 49H60c-.552 0-1 .447-1 1s.448 1 1 1h28c.552 0 1-.447 1-1S88.552 49 88 49zM29 56c-.005 0-.009 0-.014 0-.134-.004-.26-.061-.352-.158l-6.5-6.947c-.188-.202-.178-.519.023-.707.203-.188.519-.179.707.023l6.154 6.578 11.135-10.65c.199-.191.516-.184.707.016.19.199.184.517-.016.707l-11.5 11C29.252 55.95 29.129 56 29 56z"/></svg>