<svg xmlns="http://www.w3.org/2000/svg"  viewBox="0 0 100 100" width="100px" height="100px"><path fill="#fed5b3" d="M50 41A9 9 0 1 0 50 59 9 9 0 1 0 50 41zM27 41A9 9 0 1 0 27 59 9 9 0 1 0 27 41zM73 41A9 9 0 1 0 73 59 9 9 0 1 0 73 41zM50 64A9 9 0 1 0 50 82 9 9 0 1 0 50 64zM27 64A9 9 0 1 0 27 82 9 9 0 1 0 27 64zM73 64A9 9 0 1 0 73 82 9 9 0 1 0 73 64zM50 18A9 9 0 1 0 50 36 9 9 0 1 0 50 18zM27 18A9 9 0 1 0 27 36 9 9 0 1 0 27 18zM73 18A9 9 0 1 0 73 36 9 9 0 1 0 73 18z"/><path fill="#1f212b" d="M67.5 50.5c-.276 0-.5-.224-.5-.5 0-3.309 2.691-6 6-6 1.796 0 3.483.795 4.628 2.182.176.213.146.528-.067.704-.213.178-.527.146-.704-.067C75.903 45.663 74.497 45 73 45c-2.757 0-5 2.243-5 5C68 50.276 67.776 50.5 67.5 50.5zM78.478 51c-.015 0-.03-.001-.045-.002-.275-.024-.478-.268-.454-.542C77.993 50.306 78 50.154 78 50c0-.464-.063-.923-.188-1.364-.075-.266.079-.542.345-.617.265-.074.542.079.617.346C78.924 48.894 79 49.444 79 50c0 .184-.008.364-.024.544C78.953 50.805 78.734 51 78.478 51zM77.242 54c-.112 0-.225-.038-.318-.115-.213-.176-.242-.491-.066-.704.23-.277.431-.583.598-.908.126-.245.427-.342.673-.218.246.126.343.428.217.673-.2.391-.441.758-.717 1.092C77.529 53.938 77.386 54 77.242 54zM50 60c-5.514 0-10-4.486-10-10s4.486-10 10-10 10 4.486 10 10S55.514 60 50 60zM50 42c-4.411 0-8 3.589-8 8s3.589 8 8 8 8-3.589 8-8S54.411 42 50 42zM27 60c-5.514 0-10-4.486-10-10s4.486-10 10-10 10 4.486 10 10S32.514 60 27 60zM27 42c-4.411 0-8 3.589-8 8s3.589 8 8 8 8-3.589 8-8S31.411 42 27 42z"/><path fill="#1f212b" d="M73 60c-5.514 0-10-4.486-10-10s4.486-10 10-10 10 4.486 10 10S78.514 60 73 60zM73 42c-4.411 0-8 3.589-8 8s3.589 8 8 8 8-3.589 8-8S77.411 42 73 42zM50 83c-5.514 0-10-4.486-10-10s4.486-10 10-10 10 4.486 10 10S55.514 83 50 83zM50 65c-4.411 0-8 3.589-8 8s3.589 8 8 8 8-3.589 8-8S54.411 65 50 65zM27 83c-5.514 0-10-4.486-10-10s4.486-10 10-10 10 4.486 10 10S32.514 83 27 83zM27 65c-4.411 0-8 3.589-8 8s3.589 8 8 8 8-3.589 8-8S31.411 65 27 65zM73 83c-5.514 0-10-4.486-10-10s4.486-10 10-10 10 4.486 10 10S78.514 83 73 83zM73 65c-4.411 0-8 3.589-8 8s3.589 8 8 8 8-3.589 8-8S77.411 65 73 65zM50 37c-5.514 0-10-4.486-10-10s4.486-10 10-10 10 4.486 10 10S55.514 37 50 37zM50 19c-4.411 0-8 3.589-8 8s3.589 8 8 8 8-3.589 8-8S54.411 19 50 19zM27 37c-5.514 0-10-4.486-10-10s4.486-10 10-10 10 4.486 10 10S32.514 37 27 37zM27 19c-4.411 0-8 3.589-8 8s3.589 8 8 8 8-3.589 8-8S31.411 19 27 19zM73 37c-5.514 0-10-4.486-10-10s4.486-10 10-10 10 4.486 10 10S78.514 37 73 37zM73 19c-4.411 0-8 3.589-8 8s3.589 8 8 8 8-3.589 8-8S77.411 19 73 19z"/></svg>