<svg xmlns="http://www.w3.org/2000/svg"  viewBox="0 0 100 100" width="100px" height="100px"><path fill="#fefdef" d="M50 15A35 35 0 1 0 50 85A35 35 0 1 0 50 15Z"/><path fill="#00ac9c" d="M50 38A12 12 0 1 0 50 62A12 12 0 1 0 50 38Z"/><path fill="#1f212b" d="M41.5,58.246c-0.136,0-0.271-0.055-0.37-0.163c-0.374-0.411-0.721-0.849-1.031-1.301 c-0.156-0.228-0.098-0.539,0.13-0.694c0.229-0.157,0.54-0.098,0.695,0.13c0.284,0.414,0.602,0.815,0.945,1.191 c0.186,0.204,0.171,0.521-0.033,0.706C41.741,58.203,41.621,58.246,41.5,58.246z"/><path fill="#1f212b" d="M50,62c-2.428,0-4.767-0.722-6.765-2.087c-0.228-0.156-0.287-0.468-0.13-0.695 c0.156-0.228,0.467-0.285,0.695-0.131C45.63,60.339,47.774,61,50,61c6.065,0,11-4.935,11-11s-4.935-11-11-11s-11,4.935-11,11 c0,1.493,0.294,2.941,0.874,4.305c0.108,0.254-0.01,0.547-0.264,0.655c-0.254,0.107-0.547-0.01-0.656-0.265 C38.321,53.209,38,51.629,38,50c0-6.617,5.383-12,12-12s12,5.383,12,12S56.617,62,50,62z"/><path fill="#1f212b" d="M50,14c-19.851,0-36,16.149-36,36s16.149,36,36,36s36-16.149,36-36S69.851,14,50,14z M50,84 c-18.748,0-34-15.252-34-34s15.252-34,34-34s34,15.252,34,34S68.748,84,50,84z"/><path fill="#1f212b" d="M71.853,28.013c-0.196-0.194-0.512-0.194-0.707,0.002s-0.194,0.513,0.002,0.707 C76.856,34.396,80,41.952,80,50c0,16.542-13.458,30-30,30S20,66.542,20,50s13.458-30,30-30c3.55,0,7.025,0.614,10.328,1.825 c0.261,0.094,0.547-0.037,0.642-0.298c0.095-0.259-0.038-0.546-0.297-0.642C57.259,19.635,53.668,19,50,19 c-17.093,0-31,13.906-31,31s13.907,31,31,31s31-13.906,31-31C81,41.684,77.751,33.875,71.853,28.013z"/><path fill="#1f212b" d="M63.277 23.091c.669.332 1.331.69 1.969 1.066.237.141.544.062.685-.177C65.978 23.9 66 23.813 66 23.727c0-.171-.088-.338-.246-.431-.658-.388-1.342-.759-2.031-1.102-.248-.122-.548-.021-.671.226C62.931 22.665 63.029 22.967 63.277 23.091zM68.196 26.146c.22.167.533.126.701-.094C68.967 25.962 69 25.855 69 25.749c0-.15-.067-.299-.196-.397-.333-.255-.673-.503-1.017-.744-.226-.159-.537-.104-.696.122-.158.225-.104.537.122.696C67.545 25.659 67.873 25.899 68.196 26.146z"/></svg>