<svg xmlns="http://www.w3.org/2000/svg"  viewBox="0 0 100 100" width="100px" height="100px"><path fill="#f15b6c" d="M26.5,77.042l56.503-0.039c2.208-0.002,3.997-1.792,3.997-4V26.997c0-2.208-1.789-3.998-3.997-4L26.5,22.958L5,50L26.5,77.042z"/><path fill="#fefdef" d="M66.41,61.59C66.79,61.96,67,62.47,67,63c0,0.53-0.21,1.04-0.59,1.41C66.04,64.79,65.53,65,65,65s-1.04-0.21-1.41-0.59L52,52.83L40.41,64.41c-0.75,0.76-2.07,0.76-2.82,0C37.21,64.04,37,63.53,37,63c0-0.53,0.21-1.04,0.59-1.41L49.17,50L37.59,38.41C37.21,38.04,37,37.53,37,37c0-0.53,0.21-1.04,0.59-1.41c0.75-0.76,2.07-0.76,2.82,0L52,47.17l11.59-11.58c0.75-0.76,2.07-0.76,2.82,0C66.79,35.96,67,36.47,67,37c0,0.53-0.21,1.04-0.59,1.41L54.83,50L66.41,61.59z"/><path fill="#1f212b" d="M16.5 41.922c-.111 0-.223-.037-.315-.112-.214-.175-.246-.489-.072-.703l.751-.922c.175-.215.49-.246.704-.072.214.175.246.489.072.703l-.751.922C16.789 41.859 16.645 41.922 16.5 41.922zM19.5 38.24c-.111 0-.223-.037-.315-.112-.214-.175-.246-.489-.072-.703l9.16-11.24C28.368 26.067 28.51 26 28.66 26H75.5c.276 0 .5.224.5.5S75.776 27 75.5 27H28.897l-9.01 11.056C19.789 38.178 19.645 38.24 19.5 38.24zM83 74H28.66c-.15 0-.292-.067-.388-.185l-19.15-23.5c-.15-.184-.15-.447 0-.631l5.705-7c.175-.215.489-.246.704-.072.214.175.246.489.072.703L10.155 50l18.743 23H83v-2.5c0-.276.224-.5.5-.5s.5.224.5.5V73C84 73.561 83.561 74 83 74zM83.5 68c-.276 0-.5-.224-.5-.5v-2c0-.276.224-.5.5-.5s.5.224.5.5v2C84 67.776 83.776 68 83.5 68zM83.5 63c-.276 0-.5-.224-.5-.5V27h-4.5c-.276 0-.5-.224-.5-.5s.224-.5.5-.5H83c.561 0 1 .439 1 1v35.5C84 62.776 83.776 63 83.5 63z"/><path fill="#1f212b" d="M83.004,78.003L27,78c-0.301,0-0.585-0.136-0.775-0.368l-22-27c-0.299-0.368-0.299-0.896,0-1.264l22-27C26.415,22.136,26.699,22,27,22l56.003-0.003C85.759,22,88,24.242,88,26.997v46.006C88,75.758,85.759,78,83.004,78.003z M27.475,76l55.528,0.003c1.652-0.002,2.997-1.348,2.997-3V26.997c0-1.652-1.345-2.998-2.998-3L27.475,24L6.29,50L27.475,76z"/><path fill="#1f212b" d="M65,65c-0.534,0-1.036-0.208-1.414-0.586L52,52.828L40.414,64.414c-0.756,0.756-2.072,0.756-2.828,0C37.208,64.036,37,63.534,37,63s0.208-1.036,0.586-1.414L49.172,50L37.586,38.414C37.208,38.036,37,37.534,37,37s0.208-1.036,0.586-1.414c0.756-0.756,2.072-0.756,2.828,0L52,47.172l11.586-11.586c0.756-0.756,2.072-0.756,2.828,0C66.792,35.964,67,36.466,67,37s-0.208,1.036-0.586,1.414L54.828,50l11.586,11.586C66.792,61.964,67,62.466,67,63s-0.208,1.036-0.586,1.414S65.534,65,65,65z M52,51.621c0.128,0,0.256,0.049,0.354,0.146l11.939,11.939c0.378,0.377,1.036,0.377,1.414,0c0.39-0.39,0.39-1.024,0-1.414L53.768,50.354c-0.195-0.195-0.195-0.512,0-0.707l11.939-11.939c0.39-0.39,0.39-1.024,0-1.414c-0.39-0.391-1.024-0.391-1.414,0L52.354,48.232c-0.195,0.195-0.512,0.195-0.707,0L39.707,36.293c-0.39-0.391-1.024-0.391-1.414,0c-0.39,0.39-0.39,1.024,0,1.414l11.939,11.939c0.195,0.195,0.195,0.512,0,0.707L38.293,62.293c-0.39,0.39-0.39,1.024,0,1.414c0.378,0.377,1.036,0.377,1.414,0l11.939-11.939C51.744,51.67,51.872,51.621,52,51.621z"/></svg>