<svg xmlns="http://www.w3.org/2000/svg"  viewBox="0 0 100 100" width="100px" height="100px"><path fill="#fefdef" d="M32,82H16c-0.552,0-1-0.448-1-1V65c0-0.552,0.448-1,1-1h16c0.552,0,1,0.448,1,1v16 C33,81.552,32.552,82,32,82z"/><path fill="#fed5b3" d="M32,36H16c-0.552,0-1-0.448-1-1V19c0-0.552,0.448-1,1-1h16c0.552,0,1,0.448,1,1v16 C33,35.552,32.552,36,32,36z"/><path fill="#f4cccb" d="M32,59H16c-0.552,0-1-0.448-1-1V42c0-0.552,0.448-1,1-1h16c0.552,0,1,0.448,1,1v16 C33,58.552,32.552,59,32,59z"/><path fill="#ef5390" d="M29.5,49.1c0,0.778-0.43,1.52-1.16,1.862c-0.365,0.174-0.92,0.307-1.49,0.363 c0.39,0.271,0.73,0.568,0.94,0.829c0.695,0.875,0.575,2.164-0.28,2.88c-0.36,0.302-0.8,0.466-1.26,0.466 c-0.065,0-0.135-0.005-0.2-0.01c-0.53-0.051-1.01-0.317-1.35-0.737c-0.245-0.307-0.5-0.813-0.7-1.346 c-0.2,0.532-0.455,1.039-0.7,1.346c-0.34,0.42-0.82,0.686-1.35,0.737c-0.53,0.051-1.05-0.107-1.46-0.455 c-0.855-0.716-0.975-2.006-0.28-2.88c0.21-0.261,0.55-0.558,0.94-0.829c-0.57-0.056-1.125-0.189-1.49-0.363 c-1-0.471-1.435-1.693-0.975-2.717c0.225-0.496,0.625-0.875,1.125-1.059c0.5-0.189,1.04-0.169,1.525,0.061 c0.27,0.128,0.59,0.353,0.905,0.624c-0.155-0.507-0.235-0.993-0.235-1.325c0-1.131,0.895-2.047,1.995-2.047s1.995,0.916,1.995,2.047 c0,0.333-0.08,0.819-0.235,1.325c0.315-0.271,0.635-0.496,0.905-0.624c0.485-0.23,1.025-0.251,1.525-0.061 c0.5,0.184,0.9,0.563,1.125,1.059C29.44,48.521,29.5,48.813,29.5,49.1z"/><path fill="#1f212b" d="M20.5 72.352c-.051 0-.103-.008-.154-.024l-2.512-.816c-.263-.085-.407-.368-.321-.63.086-.263.369-.406.63-.321l2.512.816c.263.085.407.368.321.63C20.907 72.218 20.711 72.352 20.5 72.352zM20.284 78.604c-.102 0-.205-.031-.293-.096-.223-.162-.273-.475-.11-.698l1.542-2.122c.162-.224.474-.274.698-.11.223.162.273.475.11.698l-1.542 2.122C20.591 78.533 20.438 78.604 20.284 78.604zM27.716 78.604c-.155 0-.307-.071-.405-.206l-1.543-2.125c-.163-.224-.113-.536.11-.698s.537-.113.698.11l1.543 2.125c.163.224.113.536-.11.698C27.921 78.573 27.818 78.604 27.716 78.604zM27.5 72.352c-.211 0-.407-.134-.476-.346-.085-.262.059-.544.321-.63l2.512-.816c.261-.085.544.058.63.321.085.262-.059.544-.321.63l-2.512.816C27.603 72.344 27.551 72.352 27.5 72.352zM24 69.715c-.276 0-.5-.224-.5-.5v-2.547c0-.276.224-.5.5-.5s.5.224.5.5v2.547C24.5 69.491 24.276 69.715 24 69.715zM32 37H16c-1.103 0-2-.897-2-2V19c0-1.103.897-2 2-2h16c1.103 0 2 .897 2 2v16C34 36.103 33.103 37 32 37zM16 19v16h16.001L32 19H16z"/><path fill="#1f212b" d="M32 83H16c-1.103 0-2-.897-2-2V65c0-1.103.897-2 2-2h16c1.103 0 2 .897 2 2v16C34 82.103 33.103 83 32 83zM16 65v16h16.001L32 65H16zM32 60H16c-1.103 0-2-.897-2-2V42c0-1.103.897-2 2-2h16c1.103 0 2 .897 2 2v16C34 59.103 33.103 60 32 60zM16 42v16h16.001L32 42H16zM85 55H41c-.552 0-1-.448-1-1v-8c0-.552.448-1 1-1h44c.552 0 1 .448 1 1v8C86 54.552 85.552 55 85 55zM42 53h42v-6H42V53zM85 78H41c-.552 0-1-.448-1-1v-8c0-.552.448-1 1-1h44c.552 0 1 .448 1 1v8C86 77.552 85.552 78 85 78zM42 76h42v-6H42V76zM85 32H41c-.552 0-1-.448-1-1v-8c0-.552.448-1 1-1h44c.552 0 1 .448 1 1v8C86 31.552 85.552 32 85 32zM42 30h42v-6H42V30z"/><path fill="#1f212b" d="M85 28H48.5c-.276 0-.5-.224-.5-.5s.224-.5.5-.5H85c.276 0 .5.224.5.5S85.276 28 85 28zM46.5 28H41c-.276 0-.5-.224-.5-.5S40.724 27 41 27h5.5c.276 0 .5.224.5.5S46.776 28 46.5 28zM85 50h-5.5c-.276 0-.5-.224-.5-.5s.224-.5.5-.5H85c.276 0 .5.224.5.5S85.276 50 85 50zM73.5 50H41c-.276 0-.5-.224-.5-.5S40.724 49 41 49h32.5c.276 0 .5.224.5.5S73.776 50 73.5 50z"/><g><path fill="#1f212b" d="M26.25,56c-0.078,0-0.163-0.005-0.241-0.012c-0.668-0.065-1.268-0.391-1.697-0.92 c-0.113-0.141-0.217-0.302-0.312-0.469c-0.103,0.181-0.208,0.339-0.309,0.466c-0.431,0.532-1.031,0.858-1.692,0.922 c-0.671,0.065-1.321-0.138-1.832-0.572c-1.054-0.882-1.211-2.486-0.348-3.573c0.058-0.072,0.124-0.146,0.196-0.221 c-0.213-0.061-0.406-0.131-0.57-0.209c-1.243-0.584-1.789-2.098-1.216-3.373c0.282-0.623,0.782-1.093,1.408-1.323 c0.613-0.232,1.28-0.209,1.877,0.062c-0.006-0.082-0.009-0.16-0.009-0.233c0-1.404,1.119-2.546,2.495-2.546 s2.496,1.142,2.496,2.546c0,0.073-0.003,0.151-0.009,0.233c0.598-0.272,1.264-0.295,1.882-0.061 c0.621,0.229,1.121,0.698,1.403,1.32C29.923,48.376,30,48.732,30,49.1c0,0.993-0.568,1.902-1.448,2.315 c-0.163,0.077-0.354,0.147-0.567,0.208c0.072,0.074,0.137,0.147,0.194,0.218c0.865,1.089,0.708,2.692-0.349,3.577 C27.376,55.798,26.83,56,26.25,56z M23.999,52.907c0.208,0,0.395,0.129,0.468,0.324c0.192,0.509,0.424,0.961,0.623,1.21 c0.257,0.316,0.616,0.513,1.008,0.551c0.338,0.029,0.778-0.079,1.091-0.341c0.645-0.54,0.739-1.52,0.209-2.186 c-0.173-0.215-0.478-0.482-0.833-0.729c-0.172-0.12-0.251-0.333-0.199-0.537c0.053-0.203,0.227-0.351,0.435-0.372 c0.519-0.051,1.014-0.17,1.324-0.317C28.657,50.26,29,49.707,29,49.1c0-0.224-0.047-0.442-0.141-0.648 c-0.17-0.376-0.47-0.659-0.842-0.796c-0.376-0.143-0.779-0.126-1.138,0.044c-0.219,0.104-0.5,0.299-0.794,0.552 c-0.168,0.145-0.411,0.162-0.6,0.039c-0.186-0.122-0.27-0.352-0.204-0.565c0.132-0.429,0.213-0.881,0.213-1.179 c0-0.853-0.671-1.546-1.496-1.546c-0.824,0-1.495,0.694-1.495,1.546c0,0.297,0.082,0.749,0.213,1.179 c0.065,0.213-0.018,0.443-0.205,0.564c-0.186,0.123-0.43,0.106-0.6-0.04c-0.293-0.252-0.574-0.448-0.792-0.551 c-0.36-0.17-0.762-0.186-1.134-0.045c-0.377,0.139-0.676,0.421-0.847,0.797c-0.351,0.779-0.022,1.703,0.732,2.058 c0.312,0.148,0.806,0.267,1.326,0.318c0.208,0.021,0.382,0.169,0.435,0.372c0.053,0.203-0.026,0.417-0.199,0.537 c-0.356,0.248-0.661,0.514-0.836,0.731c-0.527,0.664-0.433,1.644,0.211,2.184c0.306,0.259,0.689,0.375,1.091,0.341 c0.393-0.038,0.751-0.235,1.01-0.554c0.197-0.247,0.43-0.699,0.621-1.207C23.604,53.037,23.791,52.907,23.999,52.907z"/></g><g><path fill="#1f212b" d="M29.237,32H18.763c-0.281,0-0.539-0.159-0.673-0.414c-0.126-0.257-0.115-0.542,0.022-0.777 l5.244-8.458c0.291-0.445,1.004-0.436,1.283-0.01l5.244,8.457c0.144,0.247,0.155,0.532,0.035,0.776l-0.006,0.013 C29.776,31.841,29.519,32,29.237,32z M19.169,31h9.663L24,23.208L19.169,31z"/></g><g><path fill="#1f212b" d="M24,77c-2.206,0-4-1.794-4-4s1.794-4,4-4s4,1.794,4,4S26.206,77,24,77z M24,70 c-1.654,0-3,1.346-3,3s1.346,3,3,3s3-1.346,3-3S25.654,70,24,70z"/></g><g><path fill="#1f212b" d="M77.5,50h-2c-0.276,0-0.5-0.224-0.5-0.5s0.224-0.5,0.5-0.5h2c0.276,0,0.5,0.224,0.5,0.5 S77.776,50,77.5,50z"/></g></svg>