<svg xmlns="http://www.w3.org/2000/svg"  viewBox="0 0 100 100" width="100px" height="100px"><path fill="#fefdef" d="M32,82H16c-0.552,0-1-0.448-1-1V65c0-0.552,0.448-1,1-1h16c0.552,0,1,0.448,1,1v16 C33,81.552,32.552,82,32,82z"/><path fill="#fed5b3" d="M32,36H16c-0.552,0-1-0.448-1-1V19c0-0.552,0.448-1,1-1h16c0.552,0,1,0.448,1,1v16 C33,35.552,32.552,36,32,36z"/><path fill="#f4cccb" d="M32,59H16c-0.552,0-1-0.448-1-1V42c0-0.552,0.448-1,1-1h16c0.552,0,1,0.448,1,1v16 C33,58.552,32.552,59,32,59z"/><path fill="#ef5390" d="M29.5,49.1c0,0.778-0.43,1.52-1.16,1.862c-0.365,0.174-0.92,0.307-1.49,0.363 c0.39,0.271,0.73,0.568,0.94,0.829c0.695,0.875,0.575,2.164-0.28,2.88c-0.36,0.302-0.8,0.466-1.26,0.466 c-0.065,0-0.135-0.005-0.2-0.01c-0.53-0.051-1.01-0.317-1.35-0.737c-0.245-0.307-0.5-0.813-0.7-1.346 c-0.2,0.532-0.455,1.039-0.7,1.346c-0.34,0.42-0.82,0.686-1.35,0.737c-0.53,0.051-1.05-0.107-1.46-0.455 c-0.855-0.716-0.975-2.006-0.28-2.88c0.21-0.261,0.55-0.558,0.94-0.829c-0.57-0.056-1.125-0.189-1.49-0.363 c-1-0.471-1.435-1.693-0.975-2.717c0.225-0.496,0.625-0.875,1.125-1.059c0.5-0.189,1.04-0.169,1.525,0.061 c0.27,0.128,0.59,0.353,0.905,0.624c-0.155-0.507-0.235-0.993-0.235-1.325c0-1.131,0.895-2.047,1.995-2.047s1.995,0.916,1.995,2.047 c0,0.333-0.08,0.819-0.235,1.325c0.315-0.271,0.635-0.496,0.905-0.624c0.485-0.23,1.025-0.251,1.525-0.061 c0.5,0.184,0.9,0.563,1.125,1.059C29.44,48.521,29.5,48.813,29.5,49.1z"/><path fill="#1f212b" d="M20.5 72.352c-.051 0-.104-.008-.154-.024l-2.513-.816c-.263-.085-.406-.368-.321-.63s.37-.407.63-.321l2.513.816c.263.085.406.368.321.63C20.907 72.218 20.711 72.352 20.5 72.352zM20.284 78.604c-.103 0-.205-.031-.294-.095-.224-.163-.272-.475-.11-.699l1.586-2.184c.162-.224.476-.273.698-.111.224.163.272.475.11.699l-1.586 2.184C20.591 78.533 20.438 78.604 20.284 78.604zM27.716 78.604c-.154 0-.307-.071-.404-.206l-1.572-2.164c-.162-.224-.113-.536.11-.698.223-.162.536-.114.698.11l1.572 2.164c.162.224.113.536-.11.698C27.921 78.573 27.818 78.604 27.716 78.604zM27.5 72.352c-.211 0-.407-.134-.476-.346-.085-.262.059-.544.321-.63l2.513-.816c.261-.085.545.059.63.321s-.059.544-.321.63l-2.513.816C27.604 72.344 27.551 72.352 27.5 72.352zM24 69.832c-.276 0-.5-.224-.5-.5v-2.664c0-.276.224-.5.5-.5s.5.224.5.5v2.664C24.5 69.608 24.276 69.832 24 69.832zM32 37H16c-1.103 0-2-.897-2-2V19c0-1.103.897-2 2-2h16c1.103 0 2 .897 2 2v16C34 36.103 33.103 37 32 37zM16 19v16h16.001L32 19H16z"/><path fill="#1f212b" d="M32 83H16c-1.103 0-2-.897-2-2V65c0-1.103.897-2 2-2h16c1.103 0 2 .897 2 2v16C34 82.103 33.103 83 32 83zM16 65v16h16.001L32 65H16zM32 60H16c-1.103 0-2-.897-2-2V42c0-1.103.897-2 2-2h16c1.103 0 2 .897 2 2v16C34 59.103 33.103 60 32 60zM16 42v16h16.001L32 42H16zM60 32H41c-.553 0-1-.448-1-1v-8c0-.552.447-1 1-1h19c.553 0 1 .448 1 1v8C61 31.552 60.553 32 60 32zM42 30h17v-6H42V30zM85 32H66c-.553 0-1-.448-1-1v-8c0-.552.447-1 1-1h19c.553 0 1 .448 1 1v8C86 31.552 85.553 32 85 32zM67 30h17v-6H67V30zM60 55H41c-.553 0-1-.448-1-1v-8c0-.552.447-1 1-1h19c.553 0 1 .448 1 1v8C61 54.552 60.553 55 60 55zM42 53h17v-6H42V53zM85 55H66c-.553 0-1-.448-1-1v-8c0-.552.447-1 1-1h19c.553 0 1 .448 1 1v8C86 54.552 85.553 55 85 55zM67 53h17v-6H67V53zM60 78H41c-.553 0-1-.448-1-1v-8c0-.552.447-1 1-1h19c.553 0 1 .448 1 1v8C61 77.552 60.553 78 60 78zM42 76h17v-6H42V76zM85 78H66c-.553 0-1-.448-1-1v-8c0-.552.447-1 1-1h19c.553 0 1 .448 1 1v8C86 77.552 85.553 78 85 78zM67 76h17v-6H67V76z"/><path fill="#1f212b" d="M26.25 56c-.079 0-.164-.005-.242-.012-.668-.064-1.269-.391-1.697-.92-.112-.141-.217-.302-.312-.468-.094.166-.198.326-.31.465-.431.532-1.031.858-1.692.922-.664.064-1.321-.138-1.832-.572-1.054-.883-1.211-2.486-.348-3.573.058-.072.124-.146.196-.221-.213-.061-.406-.131-.57-.208-1.242-.585-1.789-2.099-1.216-3.374.282-.623.782-1.093 1.408-1.323.612-.233 1.28-.209 1.877.062-.006-.082-.009-.16-.009-.233 0-1.404 1.119-2.546 2.495-2.546s2.495 1.142 2.495 2.546c0 .074-.003.152-.01.233.596-.273 1.264-.296 1.882-.062.621.229 1.122.698 1.404 1.32C29.923 48.375 30 48.732 30 49.1c0 .994-.568 1.902-1.447 2.315-.163.077-.355.147-.567.208.072.074.137.147.194.218.864 1.09.707 2.693-.349 3.577C27.377 55.798 26.83 56 26.25 56zM23.999 52.907c.208 0 .395.129.468.324.191.509.425.961.623 1.21.257.316.615.513 1.008.551.341.027.777-.078 1.091-.341.645-.539.738-1.52.21-2.186-.172-.214-.478-.481-.834-.729-.172-.12-.252-.334-.198-.537.053-.203.226-.351.435-.372.52-.051 1.015-.17 1.324-.317C28.657 50.261 29 49.707 29 49.1c0-.225-.047-.443-.141-.648-.17-.375-.47-.659-.843-.796-.376-.143-.778-.125-1.137.044-.221.104-.502.3-.794.551-.167.145-.411.162-.6.04-.187-.122-.27-.352-.205-.564.132-.431.213-.883.213-1.18 0-.853-.671-1.546-1.495-1.546s-1.495.694-1.495 1.546c0 .298.082.75.214 1.179.064.213-.019.443-.205.565-.185.122-.429.107-.6-.039-.293-.252-.575-.448-.794-.552-.357-.169-.76-.187-1.134-.045-.377.139-.676.421-.847.797-.35.779-.021 1.703.732 2.059.307.146.814.268 1.326.318.209.021.382.169.435.372.054.203-.026.417-.198.537-.355.247-.66.514-.835.731-.527.663-.434 1.644.211 2.184.306.259.695.376 1.092.341.392-.038.75-.235 1.009-.554.196-.246.43-.698.621-1.207C23.604 53.036 23.791 52.907 23.999 52.907zM29.713 32.482H18.287c-.291 0-.558-.166-.695-.432-.129-.265-.119-.561.021-.805l5.72-9.379c.299-.466 1.041-.456 1.328-.01l5.719 9.379c.147.255.157.551.034.804l-.006.012C30.271 32.317 30.004 32.482 29.713 32.482zM18.641 31.482h10.72L24 22.693 18.641 31.482zM24 77c-2.206 0-4-1.794-4-4s1.794-4 4-4 4 1.794 4 4S26.206 77 24 77zM24 70c-1.654 0-3 1.346-3 3s1.346 3 3 3 3-1.346 3-3S25.654 70 24 70z"/><g><path fill="#1f212b" d="M84.5,28h-8c-0.276,0-0.5-0.224-0.5-0.5s0.224-0.5,0.5-0.5h8c0.276,0,0.5,0.224,0.5,0.5 S84.776,28,84.5,28z"/></g><g><path fill="#1f212b" d="M55.5,51h-14c-0.276,0-0.5-0.224-0.5-0.5s0.224-0.5,0.5-0.5h14c0.276,0,0.5,0.224,0.5,0.5 S55.776,51,55.5,51z"/></g><g><path fill="#1f212b" d="M60.5,51h-3c-0.276,0-0.5-0.224-0.5-0.5s0.224-0.5,0.5-0.5h3c0.276,0,0.5,0.224,0.5,0.5 S60.776,51,60.5,51z"/></g><g><path fill="#1f212b" d="M59.5,73h-8c-0.276,0-0.5-0.224-0.5-0.5s0.224-0.5,0.5-0.5h8c0.276,0,0.5,0.224,0.5,0.5 S59.776,73,59.5,73z"/></g></svg>