<svg xmlns="http://www.w3.org/2000/svg"  viewBox="0 0 100 100" width="100px" height="100px"><path fill="#a0d2a1" d="M69.307,81.614h-39c-6.6,0-12-5.4-12-12v-39c0-6.6,5.4-12,12-12h39c6.6,0,12,5.4,12,12v39	C81.307,76.214,75.907,81.614,69.307,81.614z"/><path fill="#1f212b" d="M69.307,82.614h-39c-7.168,0-13-5.832-13-13v-39c0-7.168,5.832-13,13-13h39c7.168,0,13,5.832,13,13	v39C82.307,76.783,76.476,82.614,69.307,82.614z M30.307,19.614c-6.065,0-11,4.935-11,11v39c0,6.065,4.935,11,11,11h39	c6.065,0,11-4.935,11-11v-39c0-6.065-4.935-11-11-11C69.307,19.614,30.307,19.614,30.307,19.614z"/><path fill="#fdfcee" d="M67.033,77.114H33.274c-5.566,0-10.121-4.554-10.121-10.121V33.235	c0-5.566,4.554-10.121,10.121-10.121h33.759c5.566,0,10.121,4.554,10.121,10.121v33.759C77.154,72.56,72.599,77.114,67.033,77.114z"/><path fill="#1f212b" d="M66.47,77.614H33.144c-5.976,0-10.837-4.861-10.837-10.837V33.451	c0-5.976,4.861-10.837,10.837-10.837h33.663c0.276,0,0.5,0.224,0.5,0.5s-0.224,0.5-0.5,0.5H33.144c-5.424,0-9.837,4.413-9.837,9.837	v33.326c0,5.424,4.413,9.837,9.837,9.837H66.47c5.424,0,9.837-4.413,9.837-9.837V48.114c0-0.276,0.224-0.5,0.5-0.5	s0.5,0.224,0.5,0.5v18.663C77.307,72.753,72.446,77.614,66.47,77.614z M76.807,45.614c-0.276,0-0.5-0.224-0.5-0.5v-4	c0-0.276,0.224-0.5,0.5-0.5s0.5,0.224,0.5,0.5v4C77.307,45.391,77.083,45.614,76.807,45.614z M76.807,39.614	c-0.276,0-0.5-0.224-0.5-0.5v-2c0-0.276,0.224-0.5,0.5-0.5s0.5,0.224,0.5,0.5v2C77.307,39.391,77.083,39.614,76.807,39.614z"/><path fill="#60bd91" d="M50.307,45.114c-2.485,0-4.5,2.015-4.5,4.5s2.015,4.5,4.5,4.5s4.5-2.015,4.5-4.5	S52.792,45.114,50.307,45.114z"/><path fill="#1f212b" d="M50.307,54.614c-2.757,0-5-2.243-5-5s2.243-5,5-5s5,2.243,5,5S53.064,54.614,50.307,54.614z M50.307,45.614c-2.206,0-4,1.794-4,4s1.794,4,4,4s4-1.794,4-4S52.513,45.614,50.307,45.614z"/><path fill="#60bd91" d="M36.023,46.986c-1.429,0-2.588,1.159-2.588,2.588s1.159,2.588,2.588,2.588s2.588-1.159,2.588-2.588 S37.452,46.986,36.023,46.986z"/><circle cx="36" cy="49.677" r="2.565" fill="none" stroke="#1f212b" stroke-miterlimit="10"/><g><path fill="#60bd91" d="M64,46.924c-1.486,0-2.69,1.204-2.69,2.69s1.204,2.69,2.69,2.69c1.486,0,2.69-1.204,2.69-2.69 S65.486,46.924,64,46.924z"/><circle cx="64" cy="49.614" r="2.565" fill="none" stroke="#1f212b" stroke-miterlimit="10"/></g></svg>