<svg xmlns="http://www.w3.org/2000/svg"  viewBox="0 0 100 100" width="100px" height="100px"><path fill="#00ac9c" d="M19 33L25 19 75 19 81 33 60 33 57 38 43 38 40 33z"/><path fill="#52bfa1" d="M81 81L19 81 19 33 40 33 43 38 57 38 60 33 81 33z"/><path fill="#fefdef" d="M48.862,70.976l-7-8c-0.539-0.631-0.466-1.576,0.162-2.115c0.629-0.539,1.576-0.467,2.115,0.162l4.361,4.995V48.999c0-0.828,0.672-1.5,1.5-1.5s1.5,0.672,1.5,1.5v17.018l4.361-4.995c0.539-0.629,1.486-0.701,2.115-0.162c0.346,0.297,0.523,0.717,0.523,1.14c0,0.346-0.118,0.692-0.361,0.976l-7,8c-0.284,0.332-0.7,0.523-1.137,0.523S49.147,71.308,48.862,70.976z"/><path fill="#1f212b" d="M41.02 41c-.276 0-.5.224-.5.5s.224.5.5.5H58.98c.176 0 .339-.092.429-.243L62.264 37H63.5c.276 0 .5-.224.5-.5S63.776 36 63.5 36h-1.52c-.176 0-.339.092-.429.243L58.697 41H41.02zM22.5 66c.276 0 .5-.224.5-.5V37h15.02c.276 0 .5-.224.5-.5s-.224-.5-.5-.5H22.5c-.276 0-.5.224-.5.5v29C22 65.776 22.224 66 22.5 66zM22.5 71c.276 0 .5-.224.5-.5v-2c0-.276-.224-.5-.5-.5S22 68.224 22 68.5v2C22 70.776 22.224 71 22.5 71zM22.5 74c.276 0 .5-.224.5-.5v-1c0-.276-.224-.5-.5-.5S22 72.224 22 72.5v1C22 73.776 22.224 74 22.5 74zM66.5 77h-44c-.276 0-.5.224-.5.5s.224.5.5.5h44c.276 0 .5-.224.5-.5S66.776 77 66.5 77zM69.5 78h2c.276 0 .5-.224.5-.5S71.776 77 71.5 77h-2c-.276 0-.5.224-.5.5S69.224 78 69.5 78zM74.5 77h-1c-.276 0-.5.224-.5.5s.224.5.5.5h1c.276 0 .5-.224.5-.5S74.776 77 74.5 77zM70.5 37H77v30.5c0 .276.224.5.5.5s.5-.224.5-.5v-31c0-.276-.224-.5-.5-.5h-7c-.276 0-.5.224-.5.5S70.224 37 70.5 37zM65.5 37h2c.276 0 .5-.224.5-.5S67.776 36 67.5 36h-2c-.276 0-.5.224-.5.5S65.224 37 65.5 37zM50 46.999c-1.103 0-2 .897-2 2v15.686l-3.481-3.986c-.348-.406-.832-.652-1.365-.692-.528-.042-1.048.128-1.455.477-.834.716-.932 1.98-.212 2.822l6.998 7.998c.381.442.934.696 1.517.696.585 0 1.139-.255 1.513-.694l7.003-8.003c.312-.362.482-.824.482-1.302 0-.586-.255-1.14-.698-1.52-.406-.348-.928-.517-1.454-.476-.533.04-1.018.286-1.362.688L52 64.684V48.999C52 47.896 51.103 46.999 50 46.999zM56.241 61.348c.174-.203.416-.326.682-.346.265-.021.524.064.728.238.222.189.349.467.349.76 0 .242-.083.467-.237.646l-7.005 8.005c-.377.441-1.133.443-1.516-.002-.001-.001-.002-.002-.003-.003l-6.996-7.996c-.357-.419-.31-1.052.107-1.409C42.533 61.084 42.762 61 43 61c.025 0 .052.001.077.003.266.02.508.143.685.35l4.361 4.994c.139.156.357.213.553.139C48.871 66.412 49 66.226 49 66.018V48.999c0-.552.448-1 1-1s1 .448 1 1v17.018c0 .208.129.395.324.468.196.073.415.018.553-.139L56.241 61.348z"/><path fill="#1f212b" d="M81.919,32.607L81.919,32.607l-6-14C75.762,18.238,75.4,18,75,18H25c-0.4,0-0.762,0.238-0.919,0.606l-6,14l0,0C18.029,32.727,18,32.86,18,33v48c0,0.553,0.447,1,1,1h62c0.553,0,1-0.447,1-1V33C82,32.86,81.971,32.727,81.919,32.607z M25.659,20h48.682l5.143,12H60c-0.352,0-0.677,0.185-0.857,0.485L56.434,37H43.566l-2.709-4.515C40.677,32.185,40.352,32,40,32H20.516L25.659,20z M80,80H20V34h19.434l2.709,4.515C42.323,38.815,42.648,39,43,39h14c0.352,0,0.677-0.185,0.857-0.485L60.566,34H80V80z"/></svg>