<svg xmlns="http://www.w3.org/2000/svg"  viewBox="0 0 100 100" width="100px" height="100px"><path fill="#60be92" d="M64.37 43.99L54 53.747 54 15 50 15 46 15 46 53.747 35.63 43.99 29.98 49.65 50 68.997 70.02 49.65zM81 70v13H19V69h6v8h50v-7H81z"/><path fill="#1f212b" d="M50,69.997c-0.25,0-0.501-0.094-0.695-0.281l-20.02-19.347c-0.193-0.186-0.303-0.441-0.305-0.71c-0.002-0.268,0.103-0.525,0.292-0.715l5.65-5.66c0.382-0.383,0.999-0.394,1.393-0.022L45,51.434V15c0-0.553,0.448-1,1-1h8c0.552,0,1,0.447,1,1v36.434l8.685-8.172c0.393-0.371,1.011-0.36,1.393,0.022l5.65,5.66c0.189,0.189,0.295,0.447,0.292,0.715c-0.002,0.269-0.112,0.524-0.305,0.71l-20.02,19.347C50.501,69.903,50.25,69.997,50,69.997z M31.406,49.638L50,67.606l18.594-17.969l-4.246-4.254l-9.663,9.092c-0.291,0.273-0.717,0.35-1.082,0.189C53.237,54.507,53,54.146,53,53.747V16h-6v37.747c0,0.399-0.237,0.76-0.604,0.918c-0.364,0.157-0.791,0.084-1.082-0.189l-9.663-9.092L31.406,49.638z"/><path fill="#1f212b" d="M81,84H19c-0.552,0-1-0.447-1-1V69c0-0.553,0.448-1,1-1h6c0.552,0,1,0.447,1,1v7h48v-6c0-0.553,0.448-1,1-1h6c0.552,0,1,0.447,1,1v13C82,83.553,81.552,84,81,84z M20,82h60V71h-4v6c0,0.553-0.448,1-1,1H25c-0.552,0-1-0.447-1-1v-7h-4V82z"/><path fill="#1f212b" d="M60.5 74h-31c-.276 0-.5-.224-.5-.5s.224-.5.5-.5h31c.276 0 .5.224.5.5S60.776 74 60.5 74zM66.5 74h-3c-.276 0-.5-.224-.5-.5s.224-.5.5-.5h3c.276 0 .5.224.5.5S66.776 74 66.5 74zM70.5 74h-2c-.276 0-.5-.224-.5-.5s.224-.5.5-.5h2c.276 0 .5.224.5.5S70.776 74 70.5 74z"/></svg>