<svg xmlns="http://www.w3.org/2000/svg"  viewBox="0 0 100 100" width="100px" height="100px"><path fill="#78a2d2" d="M73,83H27c-1.657,0-3-1.343-3-3V20c0-1.657,1.343-3,3-3h46c1.657,0,3,1.343,3,3v60C76,81.657,74.657,83,73,83z"/><path fill="#fefdef" d="M52.977,48.862l-9-8c-0.631-0.539-1.576-0.466-2.115,0.162c-0.539,0.629-0.467,1.576,0.162,2.115l5.995,5.361H15c-0.828,0-1.5,0.672-1.5,1.5s0.672,1.5,1.5,1.5h33.018l-5.995,5.361c-0.629,0.539-0.701,1.486-0.162,2.115c0.297,0.346,0.717,0.523,1.14,0.523c0.346,0,0.692-0.118,0.976-0.361l9-8c0.332-0.284,0.523-0.7,0.523-1.137S53.309,49.147,52.977,48.862z"/><path fill="#1f212b" d="M72 79H44.5c-.276 0-.5.224-.5.5s.224.5.5.5h28c.276 0 .5-.224.5-.5v-7c0-.276-.224-.5-.5-.5S72 72.224 72 72.5V79zM72 70.5c0 .276.224.5.5.5s.5-.224.5-.5v-1c0-.276-.224-.5-.5-.5S72 69.224 72 69.5V70.5zM72.5 67c.276 0 .5-.224.5-.5v-41c0-.276-.224-.5-.5-.5S72 25.224 72 25.5v41C72 66.776 72.224 67 72.5 67zM65.5 20h-28c-.276 0-.5.224-.5.5s.224.5.5.5h28c.276 0 .5-.224.5-.5S65.776 20 65.5 20zM34.5 21c.276 0 .5-.224.5-.5S34.776 20 34.5 20h-2c-.276 0-.5.224-.5.5s.224.5.5.5H34.5zM28 39.5V21h2.5c.276 0 .5-.224.5-.5S30.776 20 30.5 20h-3c-.276 0-.5.224-.5.5v19c0 .276.224.5.5.5S28 39.776 28 39.5z"/><path fill="#1f212b" d="M73,16H27c-2.206,0-4,1.794-4,4v25c0,0.553,0.447,1,1,1s1-0.447,1-1V20c0-1.103,0.897-2,2-2h46c1.103,0,2,0.897,2,2v60c0,1.103-0.897,2-2,2H27c-1.103,0-2-0.897-2-2V55c0-0.553-0.447-1-1-1s-1,0.447-1,1v25c0,2.206,1.794,4,4,4h46c2.206,0,4-1.794,4-4V20C77,17.794,75.206,16,73,16z"/><path fill="#1f212b" d="M41.698,56.481c-0.406,0.348-0.652,0.832-0.692,1.365c-0.041,0.532,0.128,1.049,0.476,1.454c0.38,0.443,0.934,0.698,1.52,0.698c0.478,0,0.939-0.171,1.308-0.487l8.992-7.993C53.745,51.14,54,50.586,54,50.001c0-0.583-0.253-1.135-0.694-1.516l-9.004-8.003c-0.839-0.717-2.104-0.618-2.819,0.217c-0.348,0.405-0.517,0.922-0.476,1.454c0.04,0.533,0.286,1.018,0.685,1.358L46.71,48H15c-1.103,0-2,0.897-2,2s0.897,2,2,2h31.709L41.698,56.481z M15,51c-0.552,0-1-0.448-1-1s0.448-1,1-1h33.019c0.207,0,0.394-0.128,0.467-0.321c0.074-0.194,0.021-0.413-0.134-0.552l-6.002-5.368c-0.203-0.174-0.326-0.416-0.346-0.682c-0.021-0.266,0.064-0.524,0.237-0.727c0.358-0.418,0.99-0.466,1.403-0.114l9,8c0.002,0.002,0.004,0.004,0.006,0.005c0.223,0.191,0.35,0.468,0.35,0.76s-0.127,0.567-0.355,0.763l-8.994,7.995c-0.403,0.348-1.063,0.296-1.409-0.108c-0.174-0.203-0.259-0.462-0.238-0.728c0.02-0.266,0.143-0.508,0.354-0.688l5.994-5.361c0.155-0.139,0.208-0.357,0.134-0.552C48.411,51.128,48.225,51,48.018,51H15z"/></svg>