<svg xmlns="http://www.w3.org/2000/svg"  viewBox="0 0 100 100" width="100px" height="100px"><path fill="#f15b6c" d="M50 14L10 85 90 85z"/><path fill="#fef6aa" d="M81.02,79.75C80.93,79.91,80.77,80,80.59,80H19.41c-0.18,0-0.34-0.09-0.43-0.25c-0.09-0.15-0.09-0.34-0.01-0.5l30.59-54.29c0.18-0.31,0.7-0.31,0.88,0l30.59,54.29C81.11,79.41,81.11,79.6,81.02,79.75z"/><path fill="#f15b6c" d="M50 67A3 3 0 1 0 50 73 3 3 0 1 0 50 67zM48.025 44h3.949c.562 0 1.014.463 1 1.025l-.45 18c-.014.542-.457.975-1 .975h-3.049c-.543 0-.986-.433-1-.975l-.45-18C47.012 44.463 47.463 44 48.025 44z"/><path fill="#1f212b" d="M90.871,84.509l-40-71c-0.354-0.629-1.388-0.629-1.742,0l-40,71c-0.175,0.31-0.171,0.688,0.008,0.995C9.316,85.812,9.645,86,10,86h80c0.355,0,0.684-0.188,0.863-0.496C91.043,85.198,91.046,84.819,90.871,84.509z M11.711,84L50,16.037L88.289,84H11.711z"/><path fill="#1f212b" d="M59.307 42.746C59.398 42.909 59.568 43 59.742 43c.084 0 .168-.021.245-.064.241-.135.326-.44.19-.681l-.563-1c-.136-.243-.444-.326-.681-.19-.241.135-.326.44-.19.681L59.307 42.746zM49.564 24.964l-27.209 48.29c-.136.241-.05.546.19.681C22.623 73.979 22.707 74 22.79 74c.175 0 .344-.092.436-.254L50 26.229l7.564 13.425c.136.241.443.324.681.19.241-.135.326-.44.19-.681l-8-14.198C50.259 24.65 49.741 24.65 49.564 24.964zM79.734 79H22.5c-.276 0-.5.224-.5.5s.224.5.5.5h58.09c.178 0 .342-.094.432-.248.09-.154.091-.343.004-.498l-17.467-31c-.137-.243-.445-.326-.681-.19-.241.135-.326.44-.19.681L79.734 79zM61.561 46.746C61.652 46.909 61.822 47 61.996 47c.084 0 .168-.021.245-.064.241-.135.326-.44.19-.681l-1.127-2c-.137-.242-.444-.325-.681-.19-.241.135-.326.44-.19.681L61.561 46.746z"/><path fill="#1f212b" d="M50 73c1.654 0 3-1.346 3-3s-1.346-3-3-3-3 1.346-3 3S48.346 73 50 73zM50 68c1.103 0 2 .897 2 2s-.897 2-2 2c-1.103 0-2-.897-2-2S48.897 68 50 68zM48 64h4c.271 0 .493-.216.5-.487l.5-19c.003-.135-.048-.266-.142-.362C52.764 44.055 52.635 44 52.5 44h-5c-.135 0-.264.055-.358.151-.094.096-.145.227-.142.362l.5 19C47.507 63.784 47.729 64 48 64zM51.986 45l-.474 18h-3.026l-.474-18H51.986z"/></svg>