<svg xmlns="http://www.w3.org/2000/svg"  viewBox="0 0 100 100" width="100px" height="100px"><path fill="#78cdd4" d="M82,23v54c0,2.75-2.25,5-5,5H23c-2.75,0-5-2.25-5-5V23c0-2.75,2.25-5,5-5h54C79.75,18,82,20.25,82,23z"/><path fill="#1f212b" d="M39 22.5c0-.276-.224-.5-.5-.5H23c-.542 0-1 .458-1 1v5.5c0 .276.224.5.5.5s.5-.224.5-.5V23h15.5C38.776 23 39 22.776 39 22.5zM22.5 36c.276 0 .5-.224.5-.5v-4c0-.276-.224-.5-.5-.5S22 31.224 22 31.5v4C22 35.776 22.224 36 22.5 36zM22 40.5c0 .276.224.5.5.5s.5-.224.5-.5v-2c0-.276-.224-.5-.5-.5S22 38.224 22 38.5V40.5zM22 77c0 .542.458 1 1 1h2.5c.276 0 .5-.224.5-.5S25.776 77 25.5 77H23V64.5c0-.276-.224-.5-.5-.5S22 64.224 22 64.5V77zM40.5 77h-11c-.276 0-.5.224-.5.5s.224.5.5.5h11c.276 0 .5-.224.5-.5S40.776 77 40.5 77zM59 77.5c0 .276.224.5.5.5H77c.542 0 1-.458 1-1v-6.5c0-.276-.224-.5-.5-.5S77 70.224 77 70.5V77H59.5C59.224 77 59 77.224 59 77.5zM77.5 63c-.276 0-.5.224-.5.5v3c0 .276.224.5.5.5s.5-.224.5-.5v-3C78 63.224 77.776 63 77.5 63zM78 59.5c0-.276-.224-.5-.5-.5S77 59.224 77 59.5v1c0 .276.224.5.5.5s.5-.224.5-.5V59.5zM78 23c0-.542-.458-1-1-1h-1.5c-.276 0-.5.224-.5.5s.224.5.5.5H77v17.5c0 .276.224.5.5.5s.5-.224.5-.5V23zM73.5 23c.276 0 .5-.224.5-.5S73.776 22 73.5 22h-2c-.276 0-.5.224-.5.5s.224.5.5.5H73.5zM69 22.5c0-.276-.224-.5-.5-.5h-7c-.276 0-.5.224-.5.5s.224.5.5.5h7C68.776 23 69 22.776 69 22.5z"/><path fill="#1f212b" d="M19 41c.552 0 1-.447 1-1V23c0-1.654 1.346-3 3-3h17c.552 0 1-.447 1-1s-.448-1-1-1H23c-2.757 0-5 2.243-5 5v17C18 40.553 18.448 41 19 41zM77 18H60c-.553 0-1 .447-1 1s.447 1 1 1h17c1.654 0 3 1.346 3 3v17c0 .553.447 1 1 1s1-.447 1-1V23C82 20.243 79.757 18 77 18zM46 56h4c.552 0 1-.447 1-1V38c0-.553-.448-1-1-1s-1 .447-1 1v16h-3c-.552 0-1 .447-1 1S45.448 56 46 56zM34 38v5c0 .553.448 1 1 1s1-.447 1-1v-5c0-.553-.448-1-1-1S34 37.447 34 38zM64 38v5c0 .553.447 1 1 1s1-.447 1-1v-5c0-.553-.447-1-1-1S64 37.447 64 38zM81 59c-.553 0-1 .447-1 1v17c0 1.654-1.346 3-3 3H60c-.553 0-1 .447-1 1s.447 1 1 1h17c2.757 0 5-2.243 5-5V60C82 59.447 81.553 59 81 59zM40 80H23c-1.654 0-3-1.346-3-3V60c0-.553-.448-1-1-1s-1 .447-1 1v17c0 2.757 2.243 5 5 5h17c.552 0 1-.447 1-1S40.552 80 40 80zM60.525 63.541c.299-.465.164-1.084-.3-1.382-.466-.3-1.084-.164-1.382.3C58.052 63.691 54.683 65 50 65s-8.051-1.31-8.844-2.541c-.299-.464-.917-.598-1.382-.3-.464.299-.599.918-.3 1.382C40.805 65.61 45.035 67 50 67 54.966 67 59.195 65.609 60.525 63.541z"/></svg>