<svg xmlns="http://www.w3.org/2000/svg"  viewBox="0 0 100 100" width="100px" height="100px"><path fill="#a3a3cd" d="M83.36,56.99c-3.39-1.3-5.08-3.5-5.15-6.75c-0.07-3.4,1.61-5.73,5.15-7.1 c0.42-0.15,0.68-0.58,0.62-1.02c-0.23-2.4-2.91-8.87-4.34-10.49c-0.29-0.33-0.77-0.43-1.17-0.24c-3.35,1.57-6.15,1.18-8.54-1.19 c-2.41-2.38-2.81-5.22-1.22-8.67c0.2-0.46,0.05-1.01-0.38-1.27c-3.19-1.97-6.65-3.4-10.27-4.23c-0.49-0.12-0.99,0.15-1.16,0.64 c-1.13,3.28-3.26,5.06-6.32,5.29c-3.7,0.27-6.18-1.45-7.59-5.28c-0.19-0.48-0.68-0.74-1.18-0.61c-3.67,0.89-7.11,2.33-10.22,4.28 c-0.43,0.27-0.58,0.82-0.36,1.27c1.6,3.39,1.23,6.22-1.13,8.62c-2.38,2.43-5.21,2.84-8.65,1.26c-0.46-0.22-1-0.06-1.27,0.38 c-1.93,3.19-3.33,6.65-4.15,10.27c-0.12,0.49,0.14,0.98,0.62,1.16c3.44,1.25,5.15,3.46,5.23,6.73c0.07,3.42-1.61,5.74-5.14,7.11 c-0.47,0.18-0.72,0.68-0.61,1.17c0.87,3.58,2.32,7,4.3,10.16c0.26,0.43,0.78,0.59,1.23,0.39c3.34-1.49,6.1-1.09,8.44,1.18 c2.4,2.34,2.85,5.13,1.38,8.52c-0.19,0.45-0.03,0.98,0.39,1.25c3.18,1.93,6.62,3.34,10.22,4.16C42.15,84,42.21,84,42.28,84 c0.39,0,0.78-0.26,0.95-0.61c0.06-0.11,0.1-0.18,0.12-0.25c1.13-2.97,3.66-4.82,6.57-4.86c0.03-0.01,0.07-0.01,0.1-0.01 c3.08,0,5.61,1.76,6.79,4.7c0.23,0.55,0.73,1.15,1.8,0.88c3.27-0.83,6.39-2.13,9.29-3.86c0.12-0.08,0.24-0.16,0.35-0.22l0.11-0.08 c0.41-0.26,0.55-0.79,0.37-1.23c-1.37-3.09-1.11-5.7,0.84-7.95c2.36-2.77,5.28-3.34,8.93-1.78c0.45,0.18,0.98,0.02,1.24-0.4 c1.96-3.17,3.39-6.59,4.23-10.18C84.09,57.67,83.83,57.17,83.36,56.99z M50,73c-12.7,0-23-10.3-23-23s10.3-23,23-23s23,10.3,23,23 S62.7,73,50,73z"/><path fill="#6474a6" d="M50,67c-4.483,0-8.822-1.809-12.002-4.982l8.471-4.846c2.207,1.086,4.864,1.083,7.063-0.001 l8.473,4.844C58.824,65.19,54.484,67,50,67z M57.969,50.665C57.989,50.438,58,50.217,58,50c0-2.865-1.524-5.489-4-6.921v-9.583 c2.217,0.541,4.342,1.546,6.18,2.927l0.179,0.134c0.117,0.088,0.233,0.175,0.348,0.269c0.071,0.058,0.139,0.117,0.208,0.179 l0.14,0.121c2.272,1.969,3.999,4.509,4.991,7.343C66.679,46.297,67,48.158,67,50c0,1.805-0.287,3.584-0.853,5.298L57.969,50.665z M42.03,50.659l-8.182,4.62c-0.354-1.079-0.598-2.194-0.727-3.316l-0.048-0.508C33.032,50.974,33,50.491,33,50 c0-1.841,0.321-3.702,0.953-5.529c0.994-2.837,2.72-5.376,4.993-7.346l0.141-0.123c0.068-0.06,0.136-0.119,0.209-0.179 c0.112-0.092,0.229-0.179,0.348-0.268l0.174-0.131c1.84-1.382,3.966-2.388,6.183-2.929v9.583c-2.476,1.432-4,4.056-4,6.921 C42,50.216,42.01,50.435,42.03,50.659z M50,27c-12.7,0-23,10.3-23,23s10.3,23,23,23s23-10.3,23-23S62.7,27,50,27z"/><path fill="#1f212b" d="M83.718,56.061c-3.018-1.157-4.45-3.013-4.511-5.839c-0.061-2.975,1.374-4.928,4.509-6.145 c0.846-0.323,1.365-1.175,1.265-2.057c-0.257-2.587-3.048-9.302-4.593-11.052c-0.581-0.662-1.543-0.863-2.337-0.484 c-2.974,1.391-5.332,1.077-7.421-0.988c-2.103-2.081-2.426-4.48-1.014-7.557c0.42-0.924,0.089-2.013-0.763-2.527 c-3.309-2.037-6.862-3.504-10.557-4.357c-1.003-0.239-2.003,0.316-2.341,1.293c-1.004,2.909-2.784,4.42-5.441,4.619 c-3.243,0.227-5.336-1.237-6.596-4.635c-0.359-0.958-1.374-1.487-2.345-1.236c-3.772,0.919-7.309,2.402-10.512,4.41 c-0.857,0.54-1.174,1.637-0.738,2.549c1.428,3.011,1.132,5.387-0.934,7.482c-2.078,2.126-4.468,2.459-7.51,1.061 c-0.928-0.447-2.027-0.11-2.547,0.77c-1.99,3.271-3.43,6.824-4.276,10.544c-0.242,0.989,0.301,1.992,1.251,2.329 c3.047,1.12,4.498,2.972,4.567,5.827c0.069,2.98-1.359,4.937-4.49,6.152c-0.934,0.357-1.458,1.36-1.221,2.331 c0.886,3.67,2.371,7.188,4.414,10.459c0.534,0.854,1.584,1.176,2.497,0.77c2.952-1.319,5.282-1.008,7.332,0.986 c2.096,2.047,2.465,4.4,1.165,7.4c-0.4,0.903-0.067,1.978,0.782,2.502c3.294,2.001,6.831,3.443,10.423,4.263 C41.989,85,42.17,85,42.278,85c0.775,0,1.521-0.478,1.812-1.103c0.109-0.183,0.177-0.333,0.195-0.406 c0.982-2.57,3.146-4.183,5.648-4.209l0.178-0.009c2.609,0.033,4.764,1.548,5.779,4.078c0.525,1.258,1.636,1.805,2.964,1.459 c3.33-0.839,6.546-2.17,9.605-3.987l0.436-0.295c0.818-0.52,1.135-1.557,0.745-2.482c-1.215-2.742-0.999-4.931,0.68-6.89 c2.067-2.417,4.542-2.899,7.795-1.509c0.898,0.381,1.958,0.038,2.473-0.792c2.014-3.251,3.48-6.775,4.36-10.477l0.002-0.008 C85.17,57.407,84.641,56.414,83.718,56.061z M78.897,67.807c-4.058-1.731-7.453-1.043-10.097,2.049 c-2.178,2.54-2.511,5.567-1.028,9.019l-0.382,0.259c-2.846,1.689-5.883,2.946-9.032,3.74c-0.364,0.096-0.484,0.036-0.618-0.28 c-1.337-3.331-4.223-5.32-7.719-5.32l-0.259,0.01l-0.01,0.003c-3.273,0.1-6.075,2.191-7.336,5.493l-0.15,0.178l-0.017,0.035 c-3.449-0.798-6.765-2.154-9.846-4.022c1.631-3.764,1.094-7.005-1.6-9.636c-1.61-1.564-3.431-2.348-5.442-2.348 c-1.287,0-2.651,0.32-4.087,0.963c-1.929-3.087-3.33-6.406-4.169-9.862c3.918-1.521,5.86-4.235,5.77-8.066 c-0.089-3.68-2.066-6.256-5.872-7.649c0.802-3.524,2.161-6.877,4.027-9.963c3.821,1.761,7.115,1.265,9.787-1.469 c2.659-2.696,3.101-5.974,1.309-9.738c3.02-1.894,6.357-3.293,9.918-4.169c1.57,4.235,4.47,6.228,8.617,5.93 c3.443-0.257,5.928-2.318,7.176-5.959c3.491,0.807,6.844,2.19,9.959,4.107c-1.759,3.831-1.279,7.131,1.427,9.809 c2.689,2.66,5.945,3.124,9.663,1.373c1.28,1.45,3.888,7.759,4.11,9.919c-3.92,1.522-5.868,4.231-5.79,8.054 c0.078,3.64,2.027,6.219,5.792,7.664C82.169,61.415,80.785,64.737,78.897,67.807z"/><path fill="#1f212b" d="M50,74c-13.233,0-24-10.767-24-24s10.767-24,24-24c2.254,0,4.487,0.314,6.639,0.934 c0.265,0.076,0.418,0.354,0.342,0.619c-0.077,0.265-0.352,0.419-0.619,0.342C54.3,27.301,52.16,27,50,27c-12.683,0-23,10.317-23,23 s10.317,23,23,23s23-10.317,23-23c0-6.19-2.434-12.001-6.852-16.362c-0.196-0.193-0.198-0.51-0.004-0.707 c0.193-0.195,0.51-0.199,0.707-0.004C71.461,37.477,74,43.54,74,50C74,63.233,63.233,74,50,74z M64.5,32.019 c-0.108,0-0.218-0.035-0.31-0.107c-0.319-0.251-0.646-0.494-0.979-0.728c-0.226-0.159-0.279-0.472-0.121-0.697 c0.159-0.225,0.471-0.279,0.697-0.121c0.347,0.245,0.688,0.498,1.021,0.761c0.217,0.171,0.254,0.485,0.083,0.702 C64.794,31.953,64.647,32.019,64.5,32.019z"/><path fill="#1f212b" d="M66.422 56.528c-.085 0-.171-.021-.246-.065l-8.986-5.091c-.178-.1-.276-.298-.25-.5C56.979 50.568 57 50.281 57 50c0-2.556-1.466-4.983-3.734-6.184C53.103 43.729 53 43.56 53 43.374v-1.805c0-.276.224-.5.5-.5s.5.224.5.5v1.51c2.476 1.432 4 4.056 4 6.921 0 .217-.011.438-.031.665l8.179 4.633C66.713 53.584 67 51.805 67 50c0-1.842-.321-3.703-.955-5.532-.992-2.834-2.719-5.374-4.991-7.343l-.14-.121c-.069-.062-.137-.121-.208-.179-.114-.094-.23-.181-.348-.269l-.179-.134c-1.838-1.381-3.963-2.386-6.18-2.927V38.5c0 .276-.224.5-.5.5S53 38.776 53 38.5v-5.629c0-.15.067-.292.184-.388.117-.094.271-.132.417-.103 2.576.528 5.06 1.649 7.181 3.243l.178.133c.126.095.254.191.378.293.079.063.158.133.236.202l.137.118c2.403 2.082 4.229 4.769 5.279 7.769C67.66 46.075 68 48.047 68 50c0 2.119-.373 4.205-1.109 6.201-.051.138-.159.246-.297.297C66.538 56.519 66.479 56.528 66.422 56.528zM33.572 56.51c-.059 0-.117-.01-.173-.031-.138-.05-.246-.159-.297-.297-.485-1.325-.813-2.71-.976-4.115l-.049-.521C32.042 51.123 32 50.569 32 50c0-1.953.34-3.924 1.009-5.857 1.052-3.003 2.878-5.689 5.281-7.771l.138-.12c.077-.068.156-.138.237-.203.122-.1.25-.196.379-.292l.172-.13c2.123-1.595 4.607-2.717 7.184-3.245.147-.03.299.008.417.103C46.933 32.579 47 32.721 47 32.871v10.503c0 .186-.103.355-.266.442C44.466 45.017 43 47.444 43 50c0 .28.02.565.06.866.026.202-.072.4-.25.501l-8.991 5.078C33.742 56.488 33.657 56.51 33.572 56.51zM46 33.496c-2.217.541-4.343 1.547-6.183 2.929l-.174.131c-.119.089-.235.176-.348.268-.073.06-.141.119-.209.179l-.141.123c-2.273 1.97-3.999 4.509-4.993 7.346C33.321 46.298 33 48.159 33 50c0 .491.032.974.074 1.455l.048.508c.129 1.122.373 2.237.727 3.316l8.182-4.62C42.01 50.435 42 50.216 42 50c0-2.865 1.524-5.489 4-6.921V33.496zM42.514 66.309c-.072 0-.146-.016-.215-.049-.356-.17-.708-.351-1.053-.543-.241-.135-.327-.439-.192-.681.135-.242.44-.327.681-.192.325.183.657.354.994.514.249.118.355.417.236.666C42.88 66.203 42.7 66.309 42.514 66.309z"/><path fill="#1f212b" d="M50,68c-1.56,0-3.112-0.204-4.616-0.605c-0.267-0.071-0.426-0.346-0.354-0.612 c0.071-0.266,0.344-0.423,0.612-0.354C47.062,66.808,48.527,67,50,67c4.484,0,8.824-1.81,12.005-4.985l-8.473-4.844 c-2.199,1.084-4.856,1.087-7.063,0.001l-8.471,4.846c0.56,0.559,1.159,1.08,1.787,1.554c0.221,0.166,0.265,0.479,0.099,0.7 c-0.167,0.222-0.481,0.263-0.7,0.099c-0.843-0.636-1.636-1.352-2.357-2.127c-0.104-0.112-0.151-0.266-0.128-0.416 c0.022-0.151,0.113-0.283,0.246-0.358l9.264-5.299c0.147-0.086,0.333-0.089,0.484-0.007c2.042,1.098,4.577,1.097,6.615-0.001 c0.153-0.083,0.335-0.079,0.485,0.007l9.266,5.297c0.133,0.075,0.224,0.207,0.246,0.358c0.023,0.15-0.024,0.304-0.128,0.416 C59.774,65.9,54.972,68,50,68z"/></svg>