<svg xmlns="http://www.w3.org/2000/svg"  viewBox="0 0 100 100" width="100px" height="100px"><path fill="#fefdef" d="M50 24A42 26 0 1 0 50 76A42 26 0 1 0 50 24Z"/><path fill="#a2a2cc" d="M50 28A22 22 0 1 0 50 72A22 22 0 1 0 50 28Z"/><path fill="#6b6aaf" d="M50 41A9 9 0 1 0 50 59A9 9 0 1 0 50 41Z"/><path fill="#1f212b" d="M70.918 55.017c-.269-.072-.54.09-.611.355-.087.329-.182.654-.283.977-.083.264.062.545.325.628C70.399 56.992 70.45 57 70.5 57c.212 0 .409-.136.477-.349.107-.338.206-.679.297-1.023C71.344 55.36 71.185 55.087 70.918 55.017zM69.953 58.041c-.252-.111-.549.007-.657.261-.289.67-.614 1.327-.966 1.953-.136.241-.05.546.19.681C68.599 60.979 68.683 61 68.766 61c.175 0 .344-.092.436-.255.369-.657.71-1.346 1.013-2.047C70.323 58.444 70.207 58.15 69.953 58.041z"/><path fill="#1f212b" d="M94.707,93.293L71.626,70.212C84.008,62.83,93,51.834,93,50c0-2.802-20.991-27-43-27c-6.917,0-13.733,2.392-19.829,5.757L6.707,5.293c-0.391-0.391-1.023-0.391-1.414,0s-0.391,1.023,0,1.414l23.081,23.081C15.992,37.17,7,48.166,7,50c0,2.802,20.991,27,43,27c6.917,0,13.733-2.392,19.829-5.757l23.464,23.464C93.488,94.902,93.744,95,94,95s0.512-0.098,0.707-0.293C95.098,94.316,95.098,93.684,94.707,93.293z M50,25c20.636,0,39.781,22.196,40.969,25c-0.777,1.835-9.247,11.974-20.791,18.764l-3.935-3.935c0.445-0.489,0.876-0.993,1.282-1.526c0.167-0.22,0.124-0.533-0.096-0.701c-0.22-0.166-0.533-0.124-0.701,0.096c-0.378,0.497-0.78,0.967-1.193,1.423l-8.509-8.509C58.258,54.071,59,52.122,59,50c0-4.963-4.037-9-9-9c-2.122,0-4.071,0.742-5.611,1.975l-8.49-8.49C39.63,31.09,44.57,29,50,29c11.579,0,21,9.421,21,21c0,1.148-0.093,2.299-0.276,3.419c-0.045,0.272,0.14,0.53,0.412,0.574c0.265,0.046,0.529-0.139,0.574-0.412C71.902,52.407,72,51.202,72,50c0-12.131-9.869-22-22-22c-5.706,0-10.912,2.185-14.825,5.761l-3.546-3.546C37.275,27.159,43.565,25,50,25z M42.975,44.389C41.742,45.929,41,47.878,41,50c0,2.133,0.76,4.201,2.139,5.824c0.178,0.211,0.494,0.237,0.705,0.057c0.21-0.179,0.235-0.494,0.057-0.705C42.675,53.734,42,51.896,42,50c0-1.846,0.634-3.542,1.688-4.898l11.209,11.209C53.542,57.366,51.846,58,50,58c-1.149,0-2.257-0.238-3.294-0.707c-0.249-0.113-0.548-0.003-0.661,0.249c-0.114,0.251-0.003,0.548,0.249,0.661C47.461,58.732,48.708,59,50,59c2.122,0,4.071-0.742,5.611-1.975l8.516,8.516C60.294,69.044,55.317,71,50,71c-11.579,0-21-9.421-21-21c0-5.43,2.09-10.37,5.484-14.101L42.975,44.389z M45.102,43.688C46.458,42.634,48.154,42,50,42c4.411,0,8,3.589,8,8c0,1.846-0.634,3.542-1.688,4.898L45.102,43.688z M50,75C29.364,75,10.219,52.804,9.031,50c0.777-1.835,9.247-11.974,20.791-18.764l3.938,3.938C30.185,39.088,28,44.294,28,50c0,12.131,9.869,22,22,22c5.587,0,10.816-2.06,14.836-5.75l3.535,3.535C62.725,72.841,56.435,75,50,75z"/></svg>