<svg xmlns="http://www.w3.org/2000/svg"  viewBox="0 0 100 100" width="100px" height="100px"><path fill="#b3b2c3" d="M71,82H29c-6.075,0-11-4.925-11-11V29c0-6.075,4.925-11,11-11h42c6.075,0,11,4.925,11,11v42C82,77.075,77.075,82,71,82z"/><path fill="#60be92" d="M61,46.115v6.769C61,54.052,60.104,55,59,55h-4c-1.104,0-2-0.948-2-2.115v-6.769C53,44.948,53.896,44,55,44h4C60.104,44,61,44.948,61,46.115z"/><path fill="#f9e65c" d="M50,62.115v6.769C50,70.052,49.104,71,48,71h-4c-1.104,0-2-0.948-2-2.115v-6.769C42,60.948,42.896,60,44,60h4C49.104,60,50,60.948,50,62.115z"/><path fill="#f37e98" d="M47,31.115v6.769C47,39.052,46.104,40,45,40h-4c-1.104,0-2-0.948-2-2.115v-6.769C39,29.948,39.896,29,41,29h4C46.104,29,47,29.948,47,31.115z"/><path fill="#1f212b" d="M71,83H29c-6.617,0-12-5.383-12-12V29c0-6.617,5.383-12,12-12h42c6.617,0,12,5.383,12,12v42C83,77.617,77.617,83,71,83z M29,19c-5.514,0-10,4.486-10,10v42c0,5.514,4.486,10,10,10h42c5.514,0,10-4.486,10-10V29c0-5.514-4.486-10-10-10H29z"/><path fill="#1f212b" d="M70.5 50h-8c-.276 0-.5-.224-.5-.5s.224-.5.5-.5h8c.276 0 .5.224.5.5S70.776 50 70.5 50zM50.5 50h-21c-.276 0-.5-.224-.5-.5s.224-.5.5-.5h21c.276 0 .5.224.5.5S50.776 50 50.5 50zM59.5 55h-5c-.827 0-1.5-.673-1.5-1.5v-8c0-.827.673-1.5 1.5-1.5h5c.827 0 1.5.673 1.5 1.5v8C61 54.327 60.327 55 59.5 55zM54.5 45c-.275 0-.5.225-.5.5v8c0 .275.225.5.5.5h5c.275 0 .5-.225.5-.5v-8c0-.275-.225-.5-.5-.5H54.5zM70.5 66h-18c-.276 0-.5-.224-.5-.5s.224-.5.5-.5h18c.276 0 .5.224.5.5S70.776 66 70.5 66zM42.5 66h-13c-.276 0-.5-.224-.5-.5s.224-.5.5-.5h13c.276 0 .5.224.5.5S42.776 66 42.5 66z"/><path fill="#1f212b" d="M48.5 71h-5c-.827 0-1.5-.673-1.5-1.5v-8c0-.827.673-1.5 1.5-1.5h5c.827 0 1.5.673 1.5 1.5v8C50 70.327 49.327 71 48.5 71zM43.5 61c-.276 0-.5.225-.5.5v8c0 .275.224.5.5.5h5c.276 0 .5-.225.5-.5v-8c0-.275-.224-.5-.5-.5H43.5zM70.5 35h-24c-.276 0-.5-.224-.5-.5s.224-.5.5-.5h24c.276 0 .5.224.5.5S70.776 35 70.5 35zM35.5 35h-6c-.276 0-.5-.224-.5-.5s.224-.5.5-.5h6c.276 0 .5.224.5.5S35.776 35 35.5 35z"/><path fill="#1f212b" d="M45.5,40h-5c-0.827,0-1.5-0.673-1.5-1.5v-8c0-0.827,0.673-1.5,1.5-1.5h5c0.827,0,1.5,0.673,1.5,1.5v8C47,39.327,46.327,40,45.5,40z M40.5,30c-0.276,0-0.5,0.225-0.5,0.5v8c0,0.275,0.224,0.5,0.5,0.5h5c0.276,0,0.5-0.225,0.5-0.5v-8c0-0.275-0.224-0.5-0.5-0.5H40.5z"/><path fill="#1f212b" d="M71 78H29c-3.86 0-7-3.141-7-7V29c0-3.859 3.14-7 7-7h37.5c.276 0 .5.224.5.5S66.776 23 66.5 23H29c-3.309 0-6 2.691-6 6v42c0 3.309 2.691 6 6 6h42c3.309 0 6-2.691 6-6V53c0-.276.224-.5.5-.5S78 52.724 78 53v18C78 74.859 74.859 78 71 78zM77.5 50c-.276 0-.5-.224-.5-.5v-4c0-.276.224-.5.5-.5s.5.224.5.5v4C78 49.776 77.776 50 77.5 50zM77.5 44c-.276 0-.5-.224-.5-.5v-2c0-.276.224-.5.5-.5s.5.224.5.5v2C78 43.776 77.776 44 77.5 44z"/></svg>