<svg xmlns="http://www.w3.org/2000/svg"  viewBox="0 0 100 100" width="100px" height="100px"><path fill="#60be92" d="M50 15A35 35 0 1 0 50 85A35 35 0 1 0 50 15Z"/><path fill="#a1d3a2" d="M50 19A31 31 0 1 0 50 81A31 31 0 1 0 50 19Z"/><path fill="#fefdef" d="M47.5,61.5c-0.481,0-0.964-0.173-1.346-0.521l-12-12c-0.817-0.742-0.877-2.008-0.134-2.825c0.743-0.815,2.007-0.878,2.825-0.134l10.628,10.753l17.653-17.728c0.802-0.758,2.067-0.724,2.827,0.081c0.759,0.803,0.723,2.068-0.081,2.827l-19,19C48.488,61.317,47.994,61.5,47.5,61.5z"/><path fill="#1f212b" d="M50,86c-0.552,0-1-0.447-1-1s0.448-1,1-1c18.748,0,34-15.252,34-34S68.748,16,50,16c-0.552,0-1-0.447-1-1s0.448-1,1-1c19.851,0,36,16.149,36,36S69.851,86,50,86z"/><path fill="#1f212b" d="M50 86c-.69 0-1.376-.02-2.058-.059-.551-.031-.973-.504-.941-1.056.032-.551.517-.967 1.056-.94C48.701 83.982 49.348 84 50 84c.552 0 1 .447 1 1S50.552 86 50 86zM42.069 85.098c-.075 0-.15-.008-.227-.025-1.333-.309-2.66-.698-3.946-1.157-.521-.186-.792-.758-.606-1.277.186-.521.761-.792 1.278-.605 1.214.433 2.467.8 3.725 1.091.538.125.873.662.749 1.2C42.935 84.785 42.524 85.098 42.069 85.098zM32.786 81.482c-.167 0-.336-.042-.492-.13-1.186-.671-2.348-1.419-3.455-2.224-.447-.324-.546-.949-.221-1.396.325-.446.95-.545 1.397-.221 1.045.76 2.144 1.466 3.264 2.101.48.272.649.882.377 1.362C33.473 81.3 33.135 81.482 32.786 81.482zM24.904 75.396c-.26 0-.521-.102-.717-.303-.953-.979-1.859-2.023-2.692-3.103-.337-.438-.257-1.065.181-1.403.436-.336 1.065-.256 1.402.181.787 1.02 1.642 2.005 2.542 2.931.385.396.376 1.029-.02 1.414C25.407 75.303 25.155 75.396 24.904 75.396zM19.045 67.347c-.359 0-.706-.193-.885-.532-.64-1.209-1.215-2.466-1.709-3.733-.201-.515.054-1.095.568-1.295.514-.204 1.094.054 1.295.568.467 1.197 1.01 2.383 1.614 3.524.258.488.072 1.094-.416 1.352C19.363 67.31 19.203 67.347 19.045 67.347zM15.694 57.973c-.466 0-.883-.327-.979-.802-.27-1.334-.466-2.702-.583-4.067-.047-.55.361-1.034.911-1.081.557-.052 1.035.36 1.082.911.11 1.289.295 2.581.55 3.841.11.541-.24 1.069-.782 1.179C15.826 57.967 15.759 57.973 15.694 57.973zM15.125 48.033c-.028 0-.056-.001-.085-.004-.55-.046-.959-.529-.913-1.08.115-1.364.309-2.732.577-4.067.108-.542.631-.896 1.177-.784.542.108.892.636.784 1.177-.253 1.261-.436 2.554-.544 3.843C16.077 47.639 15.64 48.033 15.125 48.033zM17.363 38.33c-.121 0-.243-.021-.362-.067-.515-.2-.77-.78-.57-1.295.496-1.275 1.07-2.534 1.706-3.739.258-.488.861-.675 1.351-.418.488.258.675.863.417 1.352-.601 1.138-1.142 2.325-1.61 3.53C18.142 38.088 17.764 38.33 17.363 38.33zM22.258 29.656c-.213 0-.428-.067-.61-.208-.438-.337-.519-.965-.182-1.402.833-1.082 1.738-2.127 2.688-3.106.385-.397 1.018-.405 1.414-.021.396.385.406 1.018.021 1.414-.897.925-1.752 1.912-2.54 2.935C22.854 29.522 22.557 29.656 22.258 29.656zM29.392 22.707c-.309 0-.613-.143-.809-.41-.326-.446-.228-1.072.218-1.397 1.103-.806 2.264-1.555 3.45-2.229.479-.272 1.091-.104 1.363.376s.104 1.091-.376 1.364c-1.12.636-2.216 1.344-3.258 2.104C29.803 22.645 29.596 22.707 29.392 22.707zM38.186 18.044c-.41 0-.795-.254-.941-.663-.186-.52.084-1.092.604-1.278 1.287-.461 2.613-.852 3.942-1.161.536-.123 1.076.209 1.201.747.125.537-.209 1.075-.747 1.2-1.254.293-2.506.661-3.721 1.097C38.412 18.025 38.298 18.044 38.186 18.044zM47.999 16.057c-.526 0-.967-.411-.998-.942-.032-.552.39-1.024.941-1.056C48.624 14.02 49.31 14 50 14c.552 0 1 .447 1 1s-.448 1-1 1c-.652 0-1.299.018-1.942.055C48.038 16.056 48.019 16.057 47.999 16.057zM65.5 24.227c-.086 0-.174-.022-.254-.069-.637-.376-1.299-.734-1.968-1.066-.248-.123-.349-.423-.226-.671.122-.247.423-.348.67-.226.691.343 1.375.714 2.032 1.102.238.141.316.447.176.685C65.837 24.139 65.67 24.227 65.5 24.227zM68.5 26.249c-.106 0-.212-.033-.303-.103-.323-.247-.651-.487-.984-.721-.226-.159-.28-.471-.122-.696.158-.226.471-.281.697-.122.343.241.683.489 1.016.744.219.168.261.481.093.701C68.799 26.182 68.65 26.249 68.5 26.249z"/><path fill="#1f212b" d="M50,81c-17.093,0-31-13.906-31-31s13.907-31,31-31c3.666,0,7.256,0.635,10.672,1.887c0.259,0.096,0.393,0.383,0.297,0.642c-0.095,0.261-0.382,0.393-0.641,0.298C57.023,20.614,53.548,20,50,20c-16.542,0-30,13.458-30,30s13.458,30,30,30s30-13.458,30-30c0-8.439-3.585-16.536-9.836-22.213c-0.205-0.186-0.22-0.502-0.034-0.706c0.186-0.204,0.503-0.219,0.706-0.034C77.295,32.913,81,41.279,81,50C81,67.094,67.093,81,50,81z"/><path fill="#1f212b" d="M47.5,62c-0.624,0-1.222-0.231-1.683-0.651L33.801,49.333c-0.477-0.432-0.767-1.047-0.798-1.714c-0.031-0.667,0.198-1.307,0.647-1.801c0.93-1.019,2.514-1.092,3.531-0.167l10.293,10.413l17.298-17.371C65.27,38.224,65.92,37.997,66.57,38c0.668,0.019,1.288,0.297,1.747,0.783c0.459,0.485,0.701,1.12,0.682,1.788c-0.019,0.667-0.297,1.288-0.783,1.747l-18.989,18.99C48.75,61.758,48.141,62,47.5,62z M35.509,45.999c-0.409,0-0.82,0.165-1.119,0.493c-0.269,0.296-0.407,0.68-0.388,1.08s0.192,0.769,0.488,1.038l12.018,12.017c0.526,0.477,1.469,0.484,2.022-0.036l18.989-18.99c0.302-0.285,0.469-0.657,0.48-1.058c0.011-0.4-0.134-0.781-0.409-1.072c-0.275-0.292-0.648-0.458-1.049-0.47c-0.392-0.019-0.78,0.133-1.071,0.409L47.828,57.126c-0.094,0.094-0.222,0.147-0.354,0.147h-0.001c-0.133,0-0.261-0.054-0.354-0.148L36.49,46.372C36.215,46.123,35.863,45.999,35.509,45.999z"/></svg>