<svg xmlns="http://www.w3.org/2000/svg"  viewBox="0 0 100 100" width="100px" height="100px"><path fill="#f37e98" d="M37 38h23v36c0 .552.448 1 1 1h10v8H34v-8h10c.552 0 1-.448 1-1V47c0-.552-.448-1-1-1h-7V38zM50.5 16A9.413 8.014 0 1 0 50.5 32.028 9.413 8.014 0 1 0 50.5 16z"/><path fill="#1f212b" d="M67.5 79h-2c-.276 0-.5-.224-.5-.5s.224-.5.5-.5h2c.276 0 .5.224.5.5S67.776 79 67.5 79zM62.5 79H61c-2.757 0-5-2.243-5-5v-7.5c0-.276.224-.5.5-.5s.5.224.5.5V74c0 2.206 1.794 4 4 4h1.5c.276 0 .5.224.5.5S62.776 79 62.5 79zM56.5 63c-.276 0-.5-.224-.5-.5V42h-2.5c-.276 0-.5-.224-.5-.5s.224-.5.5-.5h3c.276 0 .5.224.5.5v21C57 62.776 56.776 63 56.5 63zM50.5 42h-3c-.276 0-.5-.224-.5-.5s.224-.5.5-.5h3c.276 0 .5.224.5.5S50.776 42 50.5 42zM45.5 42h-2c-.276 0-.5-.224-.5-.5s.224-.5.5-.5h2c.276 0 .5.224.5.5S45.776 42 45.5 42zM50.5 33C44.71 33 40 28.963 40 24s4.71-9 10.5-9S61 19.037 61 24 56.29 33 50.5 33zM50.5 17c-4.687 0-8.5 3.141-8.5 7s3.813 7 8.5 7 8.5-3.141 8.5-7S55.187 17 50.5 17z"/><path fill="#1f212b" d="M71,84H34c-0.553,0-1-0.447-1-1v-8c0-0.553,0.447-1,1-1h10V47h-7c-0.553,0-1-0.447-1-1v-8c0-0.553,0.447-1,1-1h23c0.553,0,1,0.447,1,1v36h10c0.553,0,1,0.447,1,1v8C72,83.553,71.553,84,71,84z M35,82h35v-6h-9c-1.103,0-2-0.897-2-2V39H38v6h6c1.103,0,2,0.897,2,2v27c0,1.103-0.897,2-2,2h-9V82z"/></svg>