<svg xmlns="http://www.w3.org/2000/svg"  viewBox="0 0 100 100" width="100px" height="100px"><path fill="#fefdef" d="M40.75,33.613c-1.196,0.69-2.725,0.281-3.415-0.915l-5.5-9.526c-0.69-1.196-0.281-2.725,0.915-3.415 c1.196-0.69,2.725-0.281,3.415,0.915l5.5,9.526C42.355,31.393,41.946,32.922,40.75,33.613z"/><path fill="#fefdef" d="M33.613,40.75c-0.69,1.196-2.219,1.605-3.415,0.915l-9.526-5.5c-1.196-0.69-1.605-2.219-0.915-3.415 c0.69-1.196,2.219-1.605,3.415-0.915l9.526,5.5C33.893,38.025,34.303,39.554,33.613,40.75z"/><path fill="#eeecd9" d="M31,50.5c0,1.381-1.119,2.5-2.5,2.5h-11c-1.381,0-2.5-1.119-2.5-2.5s1.119-2.5,2.5-2.5h11 C29.881,48,31,49.119,31,50.5z"/><path fill="#eeecd9" d="M33.613,60.25c0.69,1.196,0.281,2.725-0.915,3.415l-9.526,5.5c-1.196,0.69-2.725,0.281-3.415-0.915 s-0.281-2.725,0.915-3.415l9.526-5.5C31.393,58.645,32.922,59.054,33.613,60.25z"/><path fill="#e0decf" d="M40.75,67.387c1.196,0.69,1.605,2.219,0.915,3.415l-5.5,9.526c-0.69,1.196-2.219,1.605-3.415,0.915 c-1.196-0.69-1.605-2.219-0.915-3.415l5.5-9.526C38.025,67.107,39.554,66.697,40.75,67.387z"/><path fill="#e0decf" d="M50.5,70c1.381,0,2.5,1.119,2.5,2.5v11c0,1.381-1.119,2.5-2.5,2.5S48,84.881,48,83.5v-11 C48,71.119,49.119,70,50.5,70z"/><path fill="#d1cfc2" d="M60.25,67.387c1.196-0.69,2.725-0.281,3.415,0.915l5.5,9.526c0.69,1.196,0.281,2.725-0.915,3.415 s-2.725,0.281-3.415-0.915l-5.5-9.526C58.645,69.607,59.054,68.078,60.25,67.387z"/><path fill="#d1cfc2" d="M67.387,60.25c0.69-1.196,2.219-1.605,3.415-0.915l9.526,5.5c1.196,0.69,1.605,2.219,0.915,3.415 s-2.219,1.605-3.415,0.915l-9.526-5.5C67.107,62.975,66.697,61.446,67.387,60.25z"/><path fill="#cdcbbd" d="M70,50.5c0-1.381,1.119-2.5,2.5-2.5h11c1.381,0,2.5,1.119,2.5,2.5S84.881,53,83.5,53h-11 C71.119,53,70,51.881,70,50.5z"/><path fill="#cdcbbd" d="M67.387,40.75c-0.69-1.196-0.281-2.725,0.915-3.415l9.526-5.5c1.196-0.69,2.725-0.281,3.415,0.915 c0.69,1.196,0.281,2.725-0.915,3.415l-9.526,5.5C69.607,42.355,68.078,41.946,67.387,40.75z"/><path fill="#a4a29a" d="M60.25,33.613c-1.196-0.69-1.605-2.219-0.915-3.415l5.5-9.526c0.69-1.196,2.219-1.605,3.415-0.915 s1.605,2.219,0.915,3.415l-5.5,9.526C62.975,33.893,61.446,34.303,60.25,33.613z"/><path fill="#a4a29a" d="M50.5,31c-1.381,0-2.5-1.119-2.5-2.5v-11c0-1.381,1.119-2.5,2.5-2.5s2.5,1.119,2.5,2.5v11 C53,29.881,51.881,31,50.5,31z"/><g><path fill="#1f212b" d="M50.5,32c-1.93,0-3.5-1.57-3.5-3.5v-11c0-1.93,1.57-3.5,3.5-3.5s3.5,1.57,3.5,3.5v11 C54,30.43,52.43,32,50.5,32z M50.5,16c-0.827,0-1.5,0.673-1.5,1.5v11c0,0.827,0.673,1.5,1.5,1.5s1.5-0.673,1.5-1.5v-11 C52,16.673,51.327,16,50.5,16z"/><path fill="#1f212b" d="M39.506,34.947c-1.21,0-2.389-0.628-3.037-1.75l-5.5-9.526c-0.965-1.672-0.39-3.817,1.281-4.782 c0.81-0.467,1.754-0.59,2.656-0.35c0.903,0.242,1.658,0.822,2.125,1.631l5.5,9.526c0.467,0.81,0.591,1.753,0.35,2.656 c-0.242,0.903-0.821,1.658-1.631,2.125C40.7,34.796,40.099,34.947,39.506,34.947z M33.998,20.42c-0.26,0-0.517,0.068-0.748,0.202 c-0.716,0.414-0.962,1.333-0.549,2.049l5.5,9.526c0.414,0.716,1.333,0.963,2.049,0.549c0.716-0.414,0.962-1.333,0.549-2.049 l-5.5-9.526c-0.2-0.347-0.524-0.596-0.911-0.699C34.259,20.438,34.128,20.42,33.998,20.42z"/><path fill="#1f212b" d="M31.442,43.001c-0.607,0-1.205-0.159-1.745-0.47l-9.526-5.5c-0.81-0.468-1.389-1.222-1.631-2.125 c-0.242-0.903-0.118-1.846,0.35-2.656c0.965-1.671,3.11-2.247,4.782-1.281l9.526,5.5c1.671,0.965,2.246,3.11,1.281,4.781 c-0.468,0.81-1.223,1.389-2.125,1.631C32.052,42.961,31.746,43.001,31.442,43.001z M21.924,32.5c-0.519,0-1.024,0.269-1.302,0.75 c-0.201,0.347-0.254,0.751-0.15,1.138c0.104,0.387,0.352,0.71,0.699,0.911l9.526,5.5c0.718,0.415,1.636,0.168,2.049-0.549 c0.414-0.716,0.167-1.635-0.549-2.049l-9.526-5.5C22.436,32.565,22.178,32.5,21.924,32.5z"/><path fill="#1f212b" d="M28.5,54h-11c-1.93,0-3.5-1.57-3.5-3.5s1.57-3.5,3.5-3.5h11c1.93,0,3.5,1.57,3.5,3.5 S30.43,54,28.5,54z M17.5,49c-0.827,0-1.5,0.673-1.5,1.5s0.673,1.5,1.5,1.5h11c0.827,0,1.5-0.673,1.5-1.5S29.327,49,28.5,49H17.5z"/><path fill="#1f212b" d="M21.927,70.499c-1.211,0-2.39-0.627-3.038-1.749c-0.467-0.81-0.591-1.753-0.35-2.656 c0.242-0.903,0.822-1.658,1.631-2.125l9.526-5.5c0.81-0.467,1.755-0.59,2.656-0.35c0.903,0.242,1.658,0.821,2.125,1.631 c0.965,1.671,0.39,3.816-1.281,4.781l-9.526,5.5C23.122,70.349,22.521,70.499,21.927,70.499z M31.445,60 c-0.254,0-0.512,0.064-0.748,0.201l-9.526,5.5c-0.347,0.2-0.596,0.524-0.699,0.911c-0.104,0.387-0.051,0.791,0.15,1.138 c0.413,0.716,1.332,0.963,2.049,0.549l9.526-5.5c0.716-0.414,0.962-1.333,0.549-2.049C32.469,60.27,31.963,60,31.445,60z"/><path fill="#1f212b" d="M33.994,82.581c-0.606,0-1.205-0.159-1.744-0.47c-1.671-0.965-2.246-3.11-1.281-4.782l5.5-9.526 c0.966-1.671,3.111-2.245,4.781-1.281c0.81,0.468,1.389,1.223,1.631,2.125c0.242,0.903,0.118,1.846-0.35,2.656l-5.5,9.526 c-0.468,0.81-1.222,1.389-2.125,1.631C34.604,82.541,34.298,82.581,33.994,82.581z M39.502,68.053c-0.519,0-1.024,0.269-1.301,0.75 l-5.5,9.526c-0.414,0.716-0.167,1.636,0.549,2.049c0.346,0.2,0.75,0.254,1.138,0.15c0.387-0.104,0.71-0.352,0.911-0.699l5.5-9.526 c0.414-0.716,0.167-1.635-0.549-2.049C40.014,68.118,39.757,68.053,39.502,68.053z"/><path fill="#1f212b" d="M50.5,87c-1.93,0-3.5-1.57-3.5-3.5v-11c0-1.93,1.57-3.5,3.5-3.5s3.5,1.57,3.5,3.5v11 C54,85.43,52.43,87,50.5,87z M50.5,71c-0.827,0-1.5,0.673-1.5,1.5v11c0,0.827,0.673,1.5,1.5,1.5s1.5-0.673,1.5-1.5v-11 C52,71.673,51.327,71,50.5,71z"/><path fill="#1f212b" d="M67.006,82.581c-0.304,0-0.61-0.04-0.912-0.121c-0.903-0.242-1.658-0.822-2.125-1.631l-5.5-9.526 c-0.467-0.81-0.591-1.753-0.35-2.656c0.242-0.903,0.821-1.658,1.631-2.125c1.671-0.965,3.815-0.39,4.781,1.281l5.5,9.526 c0.965,1.672,0.39,3.817-1.281,4.782C68.211,82.421,67.612,82.581,67.006,82.581z M61.498,68.053c-0.254,0-0.512,0.064-0.748,0.201 c-0.716,0.414-0.962,1.333-0.549,2.049l5.5,9.526c0.2,0.347,0.524,0.596,0.911,0.699c0.387,0.104,0.792,0.05,1.138-0.15 c0.716-0.414,0.962-1.333,0.549-2.049l-5.5-9.526C62.521,68.322,62.016,68.053,61.498,68.053z"/><path fill="#1f212b" d="M79.073,70.499c-0.593,0-1.194-0.15-1.744-0.468l-9.526-5.5c-1.671-0.965-2.246-3.11-1.281-4.781 c0.468-0.81,1.223-1.389,2.125-1.631s1.847-0.117,2.656,0.35l9.526,5.5c0.81,0.468,1.389,1.222,1.631,2.125 c0.242,0.903,0.118,1.846-0.35,2.656C81.462,69.872,80.284,70.499,79.073,70.499z M69.555,60c-0.519,0-1.024,0.269-1.301,0.75 c-0.414,0.716-0.167,1.635,0.549,2.049l9.526,5.5c0.718,0.416,1.636,0.167,2.049-0.549c0.201-0.347,0.254-0.751,0.15-1.138 c-0.104-0.387-0.352-0.71-0.699-0.911l-9.526-5.5C70.067,60.065,69.81,60,69.555,60z"/><path fill="#1f212b" d="M83.5,54h-11c-1.93,0-3.5-1.57-3.5-3.5s1.57-3.5,3.5-3.5h11c1.93,0,3.5,1.57,3.5,3.5 S85.43,54,83.5,54z M72.5,49c-0.827,0-1.5,0.673-1.5,1.5s0.673,1.5,1.5,1.5h11c0.827,0,1.5-0.673,1.5-1.5S84.327,49,83.5,49H72.5z"/><path fill="#1f212b" d="M69.559,43.001c-0.304,0-0.61-0.04-0.912-0.121c-0.903-0.242-1.658-0.821-2.125-1.631 c-0.965-1.671-0.39-3.816,1.281-4.781l9.526-5.5c1.672-0.966,3.816-0.39,4.782,1.281c0.467,0.81,0.591,1.753,0.35,2.656 c-0.242,0.903-0.822,1.658-1.631,2.125l-9.526,5.5C70.764,42.842,70.165,43.001,69.559,43.001z M79.076,32.5 c-0.254,0-0.512,0.064-0.748,0.201l-9.526,5.5c-0.716,0.414-0.962,1.333-0.549,2.049c0.414,0.717,1.333,0.963,2.049,0.549 l9.526-5.5c0.347-0.2,0.596-0.524,0.699-0.911c0.104-0.387,0.051-0.791-0.15-1.138C80.101,32.77,79.595,32.5,79.076,32.5z"/><path fill="#1f212b" d="M61.494,34.947c-0.593,0-1.194-0.151-1.744-0.468c-0.81-0.468-1.389-1.223-1.631-2.125 c-0.242-0.903-0.118-1.846,0.35-2.656l5.5-9.526c0.468-0.81,1.222-1.389,2.125-1.631c0.901-0.241,1.846-0.117,2.656,0.35 c1.671,0.965,2.246,3.11,1.281,4.782l-5.5,9.526C63.883,34.319,62.705,34.947,61.494,34.947z M67.002,20.42 c-0.13,0-0.261,0.017-0.391,0.052c-0.387,0.104-0.71,0.352-0.911,0.699l-5.5,9.526c-0.414,0.716-0.167,1.635,0.549,2.049 c0.717,0.415,1.636,0.167,2.049-0.549l5.5-9.526c0.414-0.716,0.167-1.636-0.549-2.049C67.519,20.488,67.262,20.42,67.002,20.42z"/><path fill="#1f212b" d="M50.5,65c-6.761,0-12.715-4.792-14.158-11.393c-0.059-0.27,0.112-0.537,0.381-0.595 c0.273-0.061,0.537,0.112,0.595,0.381C38.662,59.539,44.206,64,50.5,64C57.944,64,64,57.944,64,50.5S57.944,37,50.5,37 c-0.276,0-0.5-0.224-0.5-0.5s0.224-0.5,0.5-0.5C58.495,36,65,42.505,65,50.5S58.495,65,50.5,65z"/><path fill="#1f212b" d="M36.551,50c-0.012,0-0.024,0-0.036-0.001c-0.275-0.02-0.482-0.258-0.463-0.534 c0.052-0.731,0.149-1.428,0.29-2.071c0.059-0.27,0.324-0.44,0.595-0.381c0.27,0.059,0.44,0.325,0.381,0.595 c-0.13,0.596-0.221,1.245-0.27,1.929C37.03,49.799,36.811,50,36.551,50z"/><path fill="#1f212b" d="M37.436,46c-0.06,0-0.12-0.011-0.179-0.033c-0.258-0.099-0.387-0.388-0.288-0.646 c0.135-0.353,0.284-0.697,0.445-1.036c0.119-0.25,0.416-0.355,0.666-0.237c0.25,0.118,0.356,0.417,0.237,0.666 c-0.15,0.315-0.289,0.636-0.415,0.964C37.826,45.878,37.637,46,37.436,46z"/></g></svg>