<svg xmlns="http://www.w3.org/2000/svg"  viewBox="0 0 100 100" width="100px" height="100px"><path fill="#a1d3a2" d="M50 14A36 36 0 1 0 50 86A36 36 0 1 0 50 14Z"/><path fill="#1f212b" d="M50 81c-17.093 0-31-13.906-31-31s13.907-31 31-31c3.668 0 7.259.635 10.672 1.886.259.096.392.383.297.642-.094.261-.38.393-.642.298C57.025 20.614 53.55 20 50 20c-16.542 0-30 13.458-30 30s13.458 30 30 30 30-13.458 30-30c0-8.048-3.144-15.604-8.852-21.278-.196-.194-.197-.511-.002-.707s.511-.196.707-.002C77.751 33.875 81 41.684 81 50 81 67.094 67.093 81 50 81zM36.575 83.31c-.128 0-.258-.024-.383-.076-1.513-.629-2.991-1.364-4.394-2.185-.477-.279-.637-.892-.358-1.368.278-.478.891-.638 1.368-.358 1.325.775 2.722 1.47 4.152 2.063.51.212.751.798.54 1.308C37.339 83.078 36.967 83.31 36.575 83.31z"/><path fill="#1f212b" d="M25.139 75.631c-.258 0-.515-.099-.71-.297-1.373-1.386-2.642-2.897-3.773-4.492-.319-.45-.213-1.074.237-1.394.452-.321 1.075-.213 1.395.237 1.068 1.506 2.266 2.933 3.562 4.242.389.393.386 1.025-.007 1.414C25.648 75.534 25.394 75.631 25.139 75.631zM18.563 66.358c-.371 0-.726-.206-.899-.562-.856-1.753-1.576-3.591-2.138-5.461-.159-.529.141-1.087.669-1.246.531-.156 1.087.142 1.246.67.531 1.768 1.211 3.503 2.02 5.16.243.496.037 1.095-.459 1.337C18.86 66.326 18.71 66.358 18.563 66.358zM15.29 55.473c-.495 0-.925-.367-.99-.871C14.101 53.073 14 51.517 14 49.978c0-.411.007-.822.021-1.235.019-.552.46-1.001 1.034-.965.552.019.984.481.965 1.033C16.007 49.2 16 49.59 16 49.978c0 1.454.095 2.923.283 4.366.071.548-.315 1.05-.863 1.12C15.376 55.47 15.333 55.473 15.29 55.473zM16.16 42.085c-.084 0-.171-.011-.257-.033-.534-.142-.852-.689-.71-1.223.416-1.569.945-3.133 1.573-4.646.212-.51.796-.752 1.307-.541.51.212.752.797.541 1.307-.594 1.433-1.095 2.91-1.487 4.393C17.007 41.789 16.603 42.085 16.16 42.085z"/><g><path fill="#1f212b" d="M73.329 77.093c-.275 0-.549-.112-.747-.334-.368-.412-.332-1.044.08-1.412.384-.343.76-.692 1.129-1.055.395-.388 1.028-.38 1.414.014.387.395.381 1.027-.014 1.414-.392.384-.79.755-1.197 1.119C73.803 77.009 73.565 77.093 73.329 77.093zM48.004 85.941c-.02 0-.039-.001-.058-.002-.728-.041-1.47-.107-2.207-.194-.548-.065-.94-.562-.875-1.111.065-.548.56-.944 1.111-.875.695.083 1.391.145 2.084.185.552.031.973.504.941 1.056C48.971 85.53 48.53 85.941 48.004 85.941zM54.452 85.711c-.495 0-.925-.368-.99-.872-.071-.548.316-1.049.864-1.12.686-.088 1.38-.199 2.065-.331.544-.11 1.066.25 1.171.792.104.542-.25 1.066-.792 1.171-.726.141-1.462.259-2.189.353C54.538 85.708 54.495 85.711 54.452 85.711zM62.78 83.573c-.4 0-.778-.242-.932-.638-.2-.515.055-1.095.57-1.294l.245-.098c.564-.227 1.124-.468 1.675-.725.5-.232 1.096-.017 1.329.483.233.501.017 1.096-.484 1.329-.584.272-1.177.527-1.774.768l-.267.105C63.023 83.552 62.9 83.573 62.78 83.573zM38.058 83.887c-.113 0-.228-.02-.34-.06-.511-.186-1.021-.384-1.527-.595-.51-.213-.751-.798-.538-1.308.212-.51.798-.752 1.308-.538.477.199.957.386 1.438.56.52.188.788.762.6 1.281C38.851 83.634 38.467 83.887 38.058 83.887z"/></g><g><path fill="#1f212b" d="M85,50.997c-0.552,0-1-0.447-1-1c0-18.745-15.25-33.995-33.995-33.995c-15.521,0-29.061,10.483-32.924,25.494c-0.137,0.535-0.683,0.855-1.217,0.72c-0.535-0.138-0.857-0.684-0.719-1.218c4.091-15.895,18.426-26.996,34.861-26.996C69.853,14.002,86,30.149,86,49.997C86,50.55,85.552,50.997,85,50.997z"/></g><g><path fill="#1f212b" d="M66,23.727c0,0.087-0.022,0.174-0.069,0.254c-0.141,0.238-0.447,0.317-0.685,0.177c-0.638-0.376-1.3-0.734-1.969-1.066c-0.248-0.124-0.347-0.426-0.226-0.671c0.123-0.247,0.423-0.348,0.671-0.226c0.689,0.343,1.373,0.714,2.031,1.102C65.912,23.389,66,23.556,66,23.727z"/></g><g><path fill="#1f212b" d="M69,25.749c0,0.106-0.033,0.213-0.103,0.304c-0.168,0.22-0.481,0.261-0.701,0.094c-0.323-0.247-0.651-0.487-0.983-0.721c-0.227-0.159-0.28-0.472-0.122-0.696c0.159-0.227,0.471-0.281,0.696-0.122c0.344,0.241,0.684,0.489,1.017,0.744C68.933,25.45,69,25.599,69,25.749z"/></g></svg>