<svg xmlns="http://www.w3.org/2000/svg"  viewBox="0 0 100 100" width="100px" height="100px"><path fill="#6693c1" d="M50.5,16C31.446,16,16,31.446,16,50.5S31.446,85,50.5,85S85,69.554,85,50.5S69.554,16,50.5,16z M50.5,74C37.521,74,27,63.479,27,50.5S37.521,27,50.5,27S74,37.521,74,50.5S63.479,74,50.5,74z"/><path fill="#d3dff1" d="M50.5,27V16C31.446,16,16,31.446,16,50.5h11C27,37.521,37.521,27,50.5,27z"/><path fill="#1f212b" d="M50.5,86C30.925,86,15,70.075,15,50.5S30.925,15,50.5,15S86,30.925,86,50.5S70.075,86,50.5,86z M50.5,17C32.028,17,17,32.028,17,50.5S32.028,84,50.5,84S84,68.972,84,50.5S68.972,17,50.5,17z"/><path fill="#1f212b" d="M50.5,75C36.991,75,26,64.01,26,50.5S36.991,26,50.5,26S75,36.99,75,50.5S64.009,75,50.5,75z M50.5,28C38.093,28,28,38.094,28,50.5S38.093,73,50.5,73S73,62.906,73,50.5S62.907,28,50.5,28z"/><path fill="#1f212b" d="M50.5,27c-0.276,0-0.5-0.224-0.5-0.5v-10c0-0.276,0.224-0.5,0.5-0.5s0.5,0.224,0.5,0.5v10	C51,26.776,50.776,27,50.5,27z"/><path fill="#1f212b" d="M26.5,51h-10c-0.276,0-0.5-0.224-0.5-0.5s0.224-0.5,0.5-0.5h10c0.276,0,0.5,0.224,0.5,0.5	S26.776,51,26.5,51z"/><path fill="#1f212b" d="M65.479,24.248c-0.086,0-0.174-0.022-0.254-0.069c-0.636-0.377-1.298-0.735-1.967-1.066	c-0.248-0.122-0.349-0.423-0.227-0.67c0.123-0.246,0.422-0.35,0.67-0.227c0.691,0.342,1.375,0.713,2.033,1.102	c0.237,0.141,0.316,0.447,0.175,0.686C65.816,24.16,65.649,24.248,65.479,24.248z"/><path fill="#1f212b" d="M68.479,26.27c-0.106,0-0.212-0.033-0.303-0.103c-0.323-0.247-0.651-0.487-0.983-0.719	c-0.226-0.159-0.281-0.471-0.123-0.696c0.158-0.228,0.47-0.281,0.696-0.124c0.344,0.241,0.684,0.489,1.017,0.744	c0.219,0.168,0.261,0.481,0.093,0.701C68.778,26.202,68.629,26.27,68.479,26.27z"/><path fill="#1f212b" d="M49.979,81.021c-12.966,0-24.669-8.178-29.122-20.349c-0.095-0.26,0.039-0.547,0.298-0.642	c0.258-0.094,0.546,0.039,0.642,0.298c4.309,11.778,15.634,19.692,28.182,19.692c16.542,0,30-13.458,30-30	c0-8.439-3.585-16.536-9.836-22.213c-0.205-0.186-0.22-0.502-0.034-0.706c0.187-0.203,0.503-0.219,0.706-0.034	c6.459,5.866,10.164,14.232,10.164,22.953C80.979,67.114,67.072,81.021,49.979,81.021z"/></svg>