<svg xmlns="http://www.w3.org/2000/svg"  viewBox="0 0 100 100" width="100px" height="100px"><path fill="#fdfcee" d="M81.667,68H60V30h25v34.667C85,66.508,83.508,68,81.667,68z"/><path fill="#78cdd4" d="M59.537,68H19.463C17.55,68,16,66.45,16,64.537V33.463C16,31.55,17.55,30,19.463,30h40.075 C61.45,30,63,31.55,63,33.463v31.075C63,66.45,61.45,68,59.537,68z"/><path fill="#25262f" d="M81.956,69H19.044C16.814,69,15,67.206,15,65V33c0-1.991,1.564-4,5.059-4h62.912 C84.306,29,86,30.884,86,33v32C86,67.206,84.186,69,81.956,69z M82.877,30.989L20.059,31C18.172,31,17,31.767,17,33v32 c0,1.103,0.917,2,2.044,2h62.912C83.083,67,84,66.103,84,65V33C84,31.923,83.166,31.084,82.877,30.989z"/><path fill="#25262f" d="M62.5 45c-.276 0-.5-.224-.5-.5v-14c0-.276.224-.5.5-.5s.5.224.5.5v14C63 44.776 62.776 45 62.5 45zM62.5 52c-.276 0-.5-.224-.5-.5v-4c0-.276.224-.5.5-.5s.5.224.5.5v4C63 51.776 62.776 52 62.5 52zM62.5 57c-.276 0-.5-.224-.5-.5v-2c0-.276.224-.5.5-.5s.5.224.5.5v2C63 56.776 62.776 57 62.5 57zM62.5 68c-.276 0-.5-.224-.5-.5v-8c0-.276.224-.5.5-.5s.5.224.5.5v8C63 67.776 62.776 68 62.5 68z"/></svg>