<svg xmlns="http://www.w3.org/2000/svg"  viewBox="0 0 100 100" width="100px" height="100px"><path fill="#f15b6c" d="M50 15A35 35 0 1 0 50 85A35 35 0 1 0 50 15Z"/><path fill="#fefdef" d="M87.977,48.861l-9-8c-0.631-0.539-1.576-0.466-2.115,0.162c-0.539,0.629-0.467,1.576,0.162,2.115 l5.995,5.361H49c-0.828,0-1.5,0.672-1.5,1.5s0.672,1.5,1.5,1.5h34.018l-5.995,5.361c-0.629,0.539-0.701,1.486-0.162,2.115 c0.297,0.346,0.717,0.523,1.14,0.523c0.346,0,0.692-0.118,0.976-0.361l9-8C88.309,50.853,88.5,50.437,88.5,50 S88.309,49.146,87.977,48.861z"/><path fill="none" stroke="#1f212b" stroke-linecap="round" stroke-miterlimit="10" stroke-width="2" d="M82.889,38 C77.991,24.58,65.114,15,50,15c-19.33,0-35,15.67-35,35s15.67,35,35,35c15.114,0,27.991-9.58,32.889-23"/><path fill="none" stroke="#1f212b" stroke-linecap="round" stroke-linejoin="round" stroke-miterlimit="10" d="M65.5 23.727c-.652-.385-1.319-.747-2-1.084M68.5 25.749c-.328-.251-.662-.495-1-.732M77.396 36.607c-1.701-3.461-4.046-6.592-6.896-9.19M60.5 21.356c-17.492-6.376-37.479 5.346-40.583 23.692-3.162 18.685 12.558 36.034 31.365 35.399 11.093-.374 21.219-7.166 26.114-17.075"/><path fill="none" stroke="#1f212b" stroke-linejoin="round" stroke-miterlimit="10" d="M87.977,48.861l-9-8 c-0.631-0.539-1.576-0.466-2.115,0.162c-0.539,0.629-0.467,1.576,0.162,2.115l5.995,5.361H49c-0.828,0-1.5,0.672-1.5,1.5 s0.672,1.5,1.5,1.5h34.018l-5.995,5.361c-0.629,0.539-0.701,1.486-0.162,2.115c0.297,0.346,0.717,0.523,1.14,0.523 c0.346,0,0.692-0.118,0.976-0.361l9-8C88.309,50.853,88.5,50.437,88.5,50S88.309,49.146,87.977,48.861z"/></svg>