<svg xmlns="http://www.w3.org/2000/svg"  viewBox="0 0 100 100" width="100px" height="100px"><path fill="#f37e98" d="M15,50c0-19.33,15.67-35,35-35s35,15.67,35,35c0,17.632-13.038,32.219-30,34.646 C53.367,84.879,51.698,85,50,85s-3.367-0.121-5-0.354C28.038,82.219,15,67.632,15,50z"/><path fill="#fefdef" d="M48.862,89.977l-8-9c-0.539-0.631-0.466-1.576,0.162-2.115c0.629-0.539,1.576-0.467,2.115,0.162 l5.361,5.995V52c0-0.828,0.672-1.5,1.5-1.5s1.5,0.672,1.5,1.5v33.018l5.361-5.995c0.539-0.629,1.486-0.701,2.115-0.162 c0.346,0.297,0.523,0.717,0.523,1.14c0,0.346-0.118,0.692-0.361,0.976l-8,9c-0.284,0.332-0.7,0.523-1.137,0.523 S49.147,90.309,48.862,89.977z"/><path fill="#1f212b" d="M50,14c19.851,0,36,16.149,36,36c0,15.069-9.507,28.664-23.657,33.828 c-0.519,0.188-1.092-0.078-1.282-0.597c-0.189-0.519,0.078-1.093,0.597-1.282C75.021,77.072,84,64.232,84,50 c0-18.748-15.252-34-34-34S16,31.252,16,50c0,14.232,8.979,27.072,22.343,31.949c0.519,0.189,0.786,0.764,0.597,1.282 c-0.189,0.52-0.764,0.785-1.282,0.597C23.507,78.664,14,65.069,14,50C14,30.149,30.149,14,50,14z"/><path fill="#1f212b" d="M23.727 34c.087 0 .174.022.254.069.238.141.317.447.177.685-.376.638-.734 1.3-1.066 1.969-.124.248-.426.347-.671.226-.247-.123-.348-.423-.226-.671.343-.689.714-1.373 1.102-2.031C23.389 34.088 23.556 34 23.727 34zM25.749 31c.106 0 .213.033.304.103.22.168.261.481.094.701-.247.323-.487.651-.721.983-.159.227-.472.28-.696.122-.227-.159-.281-.471-.122-.696.241-.344.489-.684.744-1.017C25.45 31.067 25.599 31 25.749 31zM50 19c17.094 0 31 13.906 31 31 0 12.183-7.182 23.286-18.295 28.285-.249.113-.548.002-.661-.251-.113-.252-.001-.548.251-.661C73.051 72.535 80 61.79 80 50c0-16.542-13.458-30-30-30-8.439 0-16.535 3.585-22.213 9.836-.187.204-.503.219-.706.034-.205-.186-.22-.502-.034-.706C32.914 22.704 41.279 19 50 19zM21.356 39c.058 0 .115.01.172.03.26.096.393.383.298.642C20.614 42.978 20 46.452 20 50c0 11.79 6.949 22.535 17.705 27.373.252.113.364.409.251.661-.113.253-.412.364-.661.251C26.182 73.286 19 62.183 19 50c0-3.665.635-7.256 1.887-10.672C20.961 39.125 21.152 39 21.356 39z"/><path fill="#1f212b" d="M50,50c1.103,0,2,0.897,2,2v31.709l4.488-5.019c0.341-0.398,0.825-0.645,1.358-0.685 c0.53-0.04,1.048,0.128,1.454,0.476c0.443,0.38,0.698,0.934,0.698,1.52c0,0.478-0.171,0.939-0.482,1.302l-8.005,9.006 c-0.743,0.871-2.264,0.882-3.026-0.003l-7.997-8.997c-0.722-0.845-0.624-2.109,0.21-2.825c0.407-0.349,0.927-0.518,1.455-0.477 c0.533,0.04,1.018,0.286,1.365,0.692L48,83.71V52C48,50.897,48.897,50,50,50z M51.5,85.518c-0.06,0-0.12-0.011-0.179-0.033 C51.128,85.411,51,85.225,51,85.018V52c0-0.552-0.448-1-1-1s-1,0.448-1,1v33.019c0,0.207-0.128,0.394-0.321,0.467 c-0.197,0.075-0.414,0.021-0.552-0.134l-5.361-5.994c-0.181-0.211-0.423-0.334-0.688-0.354c-0.265-0.022-0.524,0.064-0.728,0.238 c-0.417,0.357-0.465,0.99-0.107,1.409l7.994,8.993c0.002,0.002,0.004,0.004,0.005,0.006c0.383,0.445,1.139,0.443,1.516,0.002 l8.007-9.008C58.917,80.467,59,80.243,59,80c0-0.293-0.127-0.57-0.349-0.76c-0.203-0.174-0.464-0.259-0.728-0.238 c-0.266,0.02-0.508,0.143-0.682,0.346l-5.368,6.002C51.776,85.459,51.64,85.518,51.5,85.518z"/></svg>