<svg xmlns="http://www.w3.org/2000/svg"  viewBox="0 0 100 100" width="100px" height="100px"><path fill="#fefdef" d="M82,29v42c0,6.07-4.93,11-11,11H29c-6.07,0-11-4.93-11-11V29c0-6.07,4.93-11,11-11h42 C77.07,18,82,22.93,82,29z"/><path fill="#f9e65c" d="M66.5 27A7.5 7.5 0 1 0 66.5 42A7.5 7.5 0 1 0 66.5 27Z"/><path fill="#f15b6c" d="M45,63.99c0,1.52-0.86,2.97-2.32,3.64c-0.73,0.34-1.84,0.6-2.98,0.71c0.78,0.53,1.46,1.11,1.88,1.62 c1.39,1.71,1.15,4.23-0.56,5.63c-0.72,0.59-1.6,0.91-2.52,0.91c-0.13,0-0.27-0.01-0.4-0.02c-1.06-0.1-2.02-0.62-2.7-1.44 c-0.49-0.6-1-1.59-1.4-2.63c-0.4,1.04-0.91,2.03-1.4,2.63c-0.68,0.82-1.64,1.34-2.7,1.44s-2.1-0.21-2.92-0.89 c-1.71-1.4-1.95-3.92-0.56-5.63c0.42-0.51,1.1-1.09,1.88-1.62c-1.14-0.11-2.25-0.37-2.98-0.71c-2-0.92-2.87-3.31-1.95-5.31 c0.45-0.97,1.25-1.71,2.25-2.07c1-0.37,2.08-0.33,3.05,0.12c0.54,0.25,1.18,0.69,1.81,1.22c-0.31-0.99-0.47-1.94-0.47-2.59 c0-2.21,1.79-4,3.99-4s3.99,1.79,3.99,4c0,0.65-0.16,1.6-0.47,2.59c0.63-0.53,1.27-0.97,1.81-1.22c0.97-0.45,2.05-0.49,3.05-0.12 c1,0.36,1.8,1.1,2.25,2.07C44.88,62.86,45,63.43,45,63.99z"/><path fill="#78a2d2" d="M78,71.5c0,2.48-2.02,4.5-4.5,4.5h-14c-2.48,0-4.5-2.02-4.5-4.5c0-1.93,1.22-3.61,3.01-4.24 C58,67.18,58,67.09,58,67c0-2.51,2.33-4.55,4.93-3.88C63.87,61.79,65.37,61,67,61c2.02,0,3.85,1.26,4.61,3.12 C71.9,64.04,72.2,64,72.5,64c1.93,0,3.5,1.57,3.5,3.5c0,0.09,0,0.18-0.01,0.27C77.24,68.6,78,70,78,71.5z"/><path fill="#f9e65c" d="M41.5 23A3.5 3.5 0 1 0 41.5 30 3.5 3.5 0 1 0 41.5 23zM57.5 54A3.5 3.5 0 1 0 57.5 61 3.5 3.5 0 1 0 57.5 54z"/><path fill="#f69272" d="M46.5,45h-13v-1l3.48-5.772l2.6-4c0.185-0.283,0.654-0.283,0.839,0l6.5,10 c0.1,0.153,0.107,0.35,0.02,0.511S46.684,45,46.5,45z"/><path fill="#fcba7f" d="M41.94,44.74C41.85,44.9,41.68,45,41.5,45h-20c-0.18,0-0.35-0.1-0.44-0.26 c-0.09-0.17-0.08-0.36,0.02-0.52l10-15c0.19-0.27,0.65-0.27,0.84,0l10,15C42.02,44.38,42.03,44.57,41.94,44.74z"/><path fill="#1f212b" d="M71,83H29c-6.617,0-12-5.383-12-12V29c0-6.617,5.383-12,12-12h42c6.617,0,12,5.383,12,12v42 C83,77.617,77.617,83,71,83z M29,19c-5.514,0-10,4.486-10,10v42c0,5.514,4.486,10,10,10h42c5.514,0,10-4.486,10-10V29 c0-5.514-4.486-10-10-10H29z"/><path fill="#1f212b" d="M49 18H51V82H49z"/><path fill="#1f212b" d="M18 49H82V51H18zM46.5 45h-6c-.276 0-.5-.224-.5-.5s.224-.5.5-.5h5.079L40 35.417l-2.081 3.201c-.151.231-.46.298-.692.146-.231-.15-.297-.46-.147-.691l2.5-3.846c.185-.283.654-.283.839 0l6.5 10c.1.153.107.35.02.511S46.684 45 46.5 45zM73.5 76h-14c-2.481 0-4.5-2.019-4.5-4.5 0-1.929 1.217-3.611 3.011-4.236C58.004 67.177 58 67.089 58 67c0-2.206 1.794-4 4-4 .198 0 .392.017.58.048.272.044.458.301.414.573-.045.271-.3.464-.574.413C62.283 64.013 62.143 64 62 64c-1.654 0-3 1.346-3 3 0 .183.023.36.055.534.046.261-.118.512-.375.574C57.102 68.488 56 69.883 56 71.5c0 1.93 1.57 3.5 3.5 3.5h14c1.93 0 3.5-1.57 3.5-3.5 0-1.251-.689-2.415-1.798-3.038-.186-.104-.285-.314-.248-.523C74.98 67.795 75 67.649 75 67.5c0-1.379-1.122-2.5-2.5-2.5-.342 0-.678.07-.998.21-.132.059-.282.056-.412-.005-.13-.062-.228-.176-.268-.313C70.329 63.188 68.756 62 67 62c-.457 0-.905.077-1.331.23-.259.089-.546-.042-.64-.302s.042-.546.302-.64C65.866 61.098 66.427 61 67 61c2.023 0 3.85 1.258 4.61 3.116C71.9 64.039 72.198 64 72.5 64c1.93 0 3.5 1.57 3.5 3.5 0 .092-.005.182-.013.271C77.237 68.604 78 70.002 78 71.5 78 73.981 75.981 76 73.5 76zM57.5 61c-1.93 0-3.5-1.57-3.5-3.5s1.57-3.5 3.5-3.5 3.5 1.57 3.5 3.5S59.43 61 57.5 61zM57.5 55c-1.378 0-2.5 1.121-2.5 2.5s1.122 2.5 2.5 2.5 2.5-1.121 2.5-2.5S58.878 55 57.5 55zM66.5 42c-4.136 0-7.5-3.364-7.5-7.5s3.364-7.5 7.5-7.5 7.5 3.364 7.5 7.5S70.636 42 66.5 42zM66.5 28c-3.584 0-6.5 2.916-6.5 6.5s2.916 6.5 6.5 6.5 6.5-2.916 6.5-6.5S70.084 28 66.5 28zM41.5 30c-1.93 0-3.5-1.57-3.5-3.5s1.57-3.5 3.5-3.5 3.5 1.57 3.5 3.5S43.43 30 41.5 30zM41.5 24c-1.378 0-2.5 1.121-2.5 2.5s1.122 2.5 2.5 2.5 2.5-1.121 2.5-2.5S42.878 24 41.5 24z"/><path fill="#1f212b" d="M66.5 28c-.276 0-.5-.224-.5-.5v-4c0-.276.224-.5.5-.5s.5.224.5.5v4C67 27.776 66.776 28 66.5 28zM66.5 46c-.276 0-.5-.224-.5-.5v-4c0-.276.224-.5.5-.5s.5.224.5.5v4C67 45.776 66.776 46 66.5 46zM59.5 35h-4c-.276 0-.5-.224-.5-.5s.224-.5.5-.5h4c.276 0 .5.224.5.5S59.776 35 59.5 35zM77.5 35h-4c-.276 0-.5-.224-.5-.5s.224-.5.5-.5h4c.276 0 .5.224.5.5S77.776 35 77.5 35zM61.55 30.05c-.128 0-.256-.049-.354-.146l-3.05-3.05c-.195-.195-.195-.512 0-.707s.512-.195.707 0l3.05 3.05c.195.195.195.512 0 .707C61.806 30.001 61.678 30.05 61.55 30.05zM74.5 43c-.128 0-.256-.049-.354-.146l-3.05-3.05c-.195-.195-.195-.512 0-.707s.512-.195.707 0l3.05 3.05c.195.195.195.512 0 .707C74.756 42.951 74.628 43 74.5 43zM58.5 43c-.128 0-.256-.049-.354-.146-.195-.195-.195-.512 0-.707l3.05-3.05c.195-.195.512-.195.707 0s.195.512 0 .707l-3.05 3.05C58.756 42.951 58.628 43 58.5 43zM71.45 30.05c-.128 0-.256-.049-.354-.146-.195-.195-.195-.512 0-.707l3.05-3.05c.195-.195.512-.195.707 0s.195.512 0 .707l-3.05 3.05C71.706 30.001 71.578 30.05 71.45 30.05zM41.5 45h-20c-.185 0-.354-.102-.441-.264-.087-.163-.077-.36.025-.514l3.333-5c.152-.229.462-.292.693-.139.23.153.292.464.139.693L22.434 44h18.132L31.5 30.401l-.25.376c-.153.229-.464.29-.693.139-.23-.153-.292-.464-.139-.693l.667-1c.186-.277.646-.277.832 0l10 15c.102.153.112.351.025.514C41.854 44.898 41.685 45 41.5 45z"/><path fill="#1f212b" d="M26.166 38c-.095 0-.191-.027-.277-.084-.23-.153-.292-.464-.139-.693l1.333-2c.152-.23.462-.292.693-.139.23.153.292.464.139.693l-1.333 2C26.486 37.922 26.328 38 26.166 38zM28.833 34c-.095 0-.191-.027-.277-.084-.23-.153-.292-.464-.139-.693l.667-1c.153-.23.462-.292.693-.139.23.153.292.464.139.693l-.667 1C29.153 33.922 28.995 34 28.833 34zM38.498 76.5c-.132 0-.266-.007-.399-.02-1.062-.104-2.019-.617-2.696-1.444-.49-.599-1.007-1.584-1.403-2.63-.396 1.046-.913 2.031-1.403 2.63-.677.827-1.634 1.34-2.696 1.444-1.057.104-2.1-.211-2.924-.888-1.702-1.399-1.951-3.924-.555-5.629.417-.511 1.097-1.091 1.874-1.619-1.135-.117-2.244-.374-2.978-.713-1.999-.927-2.873-3.308-1.949-5.31.206-.445.485-.842.83-1.18.198-.192.514-.189.707.008s.189.514-.008.707c-.257.252-.467.55-.621.885-.693 1.501-.038 3.287 1.461 3.981.828.385 2.602.762 4.265.681.247 0 .447.146.505.374.059.229-.049.467-.26.573-1.214.608-2.469 1.532-3.053 2.245-1.048 1.279-.861 3.174.416 4.223.618.508 1.395.742 2.191.666.795-.079 1.513-.463 2.021-1.082.544-.665 1.321-2.224 1.69-3.801.105-.451.868-.451.974 0 .369 1.577 1.146 3.136 1.69 3.801.507.619 1.225 1.003 2.02 1.082.796.076 1.574-.158 2.191-.666 1.277-1.049 1.463-2.943.416-4.223-.175-.213-.144-.528.07-.703.214-.177.528-.144.704.07 1.396 1.705 1.147 4.229-.555 5.629C40.303 76.185 39.418 76.5 38.498 76.5zM38.402 68.413c-.152 0-.301-.003-.448-.009-.276-.013-.49-.245-.478-.521.012-.275.257-.48.521-.479 1.665.08 3.437-.297 4.265-.681 1.498-.694 2.154-2.48 1.46-3.981-.336-.729-.935-1.282-1.687-1.558-.75-.276-1.56-.243-2.286.094-.887.41-2.394 1.625-3.382 2.947-.16.216-.458.265-.681.115-.221-.149-.286-.447-.146-.675.869-1.422 1.452-3.561 1.452-4.666 0-1.654-1.343-3-2.993-3s-2.993 1.346-2.993 3c0 1.105.583 3.244 1.452 4.666.139.228.075.525-.146.675-.221.149-.521.101-.681-.115-.988-1.322-2.496-2.537-3.382-2.947-.261-.122-.537-.204-.823-.246-.273-.041-.462-.295-.421-.568.041-.272.288-.458.568-.422.381.057.75.167 1.098.329.539.249 1.177.687 1.805 1.215-.302-.989-.469-1.938-.469-2.586 0-2.206 1.792-4 3.993-4s3.993 1.794 3.993 4c0 .647-.167 1.597-.469 2.586.628-.529 1.267-.966 1.806-1.216.967-.448 2.05-.491 3.051-.125 1.002.369 1.801 1.106 2.25 2.077.924 2.002.05 4.383-1.948 5.31C41.666 68.102 39.929 68.413 38.402 68.413z"/></svg>