<svg xmlns="http://www.w3.org/2000/svg"  viewBox="0 0 100 100" width="100px" height="100px"><path fill="#39c2d8" d="M50 40A10 10 0 1 0 50 60 10 10 0 1 0 50 40zM50 15A10 10 0 1 0 50 35 10 10 0 1 0 50 15zM50 65A10 10 0 1 0 50 85 10 10 0 1 0 50 65z"/><path fill="#1f212b" d="M50,61c-6.065,0-11-4.935-11-11s4.935-11,11-11s11,4.935,11,11S56.065,61,50,61z M50,41c-4.962,0-9,4.038-9,9s4.038,9,9,9c4.963,0,9-4.038,9-9S54.963,41,50,41z"/><path fill="#1f212b" d="M43.998 48c-.064 0-.129-.012-.192-.039-.255-.106-.375-.399-.269-.654.705-1.689 2.078-3.063 3.767-3.77.687-.287 1.413-.461 2.158-.518.285-.018.516.185.537.46s-.185.516-.46.537c-.639.049-1.261.198-1.849.443-1.449.605-2.626 1.783-3.23 3.231C44.379 47.884 44.193 48 43.998 48zM50 57c-3.262 0-6.064-2.214-6.813-5.385-.063-.269.103-.538.372-.602.268-.062.538.103.602.372C44.802 54.102 47.204 56 50 56c1.65 0 3.187-.656 4.329-1.846.191-.199.508-.206.707-.015.199.191.206.508.015.707C53.719 56.235 51.925 57 50 57zM56 53.003c-.064 0-.13-.012-.192-.039-.255-.106-.375-.399-.269-.654.246-.59.396-1.212.443-1.849.021-.276.285-.48.537-.46.275.021.481.261.461.537-.057.743-.231 1.469-.52 2.158C56.381 52.888 56.195 53.003 56 53.003zM50 36c-6.065 0-11-4.935-11-11s4.935-11 11-11 11 4.935 11 11S56.065 36 50 36zM50 16c-4.962 0-9 4.038-9 9s4.038 9 9 9c4.963 0 9-4.038 9-9S54.963 16 50 16z"/><path fill="#1f212b" d="M56.48 25c-.258 0-.478-.199-.497-.461-.024-.309-.072-.62-.144-.924-.063-.269.104-.538.372-.601.273-.06.538.105.601.373.083.354.14.716.167 1.076.021.275-.185.516-.46.537C56.507 25 56.494 25 56.48 25zM55.5 22.035c-.165 0-.327-.083-.423-.233-.261-.413-.571-.793-.924-1.131-.199-.191-.205-.508-.014-.707.191-.2.508-.204.707-.015.41.394.772.838 1.076 1.319.147.233.078.542-.156.69C55.685 22.01 55.592 22.035 55.5 22.035zM49.5 31.981c-.013 0-.025 0-.039-.001C45.838 31.704 43 28.638 43 25c0-3.86 3.14-7 7-7 .933 0 1.838.181 2.692.537.255.106.375.399.27.654-.106.255-.404.375-.654.269C51.576 19.155 50.8 19 50 19c-3.309 0-6 2.691-6 6 0 3.118 2.433 5.746 5.538 5.982.275.021.481.261.46.537C49.979 31.781 49.759 31.981 49.5 31.981zM50 86c-6.065 0-11-4.935-11-11s4.935-11 11-11 11 4.935 11 11S56.065 86 50 86zM50 66c-4.962 0-9 4.038-9 9s4.038 9 9 9c4.963 0 9-4.038 9-9S54.963 66 50 66z"/><path fill="#1f212b" d="M56.326 74c-.227 0-.432-.155-.486-.385-.075-.316-.177-.628-.301-.926-.106-.255.014-.548.268-.654.255-.105.548.014.654.269.146.348.265.712.352 1.082.063.269-.103.538-.371.602C56.402 73.996 56.364 74 56.326 74zM54.5 70.81c-.125 0-.249-.046-.347-.139-.538-.517-1.159-.924-1.846-1.211-.255-.106-.375-.399-.27-.654.106-.255.402-.376.654-.269.801.334 1.525.809 2.154 1.412.199.191.205.508.014.707C54.763 70.758 54.631 70.81 54.5 70.81zM46.5 80.978c-.092 0-.186-.025-.269-.079C44.208 79.604 43 77.399 43 75c0-3.638 2.838-6.704 6.462-6.979.285-.02.516.186.537.46.021.275-.185.516-.46.537C46.433 69.254 44 71.882 44 75c0 2.057 1.035 3.947 2.77 5.057.232.148.3.458.151.69C46.826 80.896 46.665 80.978 46.5 80.978z"/></svg>