<svg xmlns="http://www.w3.org/2000/svg"  viewBox="0 0 100 100" width="100px" height="100px"><path fill="#8f9eb6" d="M42 45H82V55H42zM42 69H82V79H42zM42 21H82V31H42z"/><path fill="#fae8e6" d="M18 42H34V58H18z"/><path fill="#60be92" d="M18 66H34V82H18z"/><path fill="#fae8e6" d="M28.667,78h-5.333C22.597,78,22,77.403,22,76.667v-5.333C22,70.597,22.597,70,23.333,70h5.333 C29.403,70,30,70.597,30,71.333v5.333C30,77.403,29.403,78,28.667,78z"/><path fill="#60be92" d="M18 18H34V34H18z"/><path fill="#fae8e6" d="M28.667,30h-5.333C22.597,30,22,29.403,22,28.667v-5.333C22,22.597,22.597,22,23.333,22h5.333 C29.403,22,30,22.597,30,23.333v5.333C30,29.403,29.403,30,28.667,30z"/><path fill="#1f212b" d="M29.5 72c-.276 0-.5-.224-.5-.5V71h-1.5c-.276 0-.5-.224-.5-.5s.224-.5.5-.5h2c.276 0 .5.224.5.5v1C30 71.776 29.776 72 29.5 72zM29.5 78h-7c-.276 0-.5-.224-.5-.5v-7c0-.276.224-.5.5-.5h2c.276 0 .5.224.5.5S24.776 71 24.5 71H23v6h6v-3.5c0-.276.224-.5.5-.5s.5.224.5.5v4C30 77.776 29.776 78 29.5 78zM81.5 28h-24c-.276 0-.5-.224-.5-.5s.224-.5.5-.5h24c.276 0 .5.224.5.5S81.776 28 81.5 28zM54.5 28h-2c-.276 0-.5-.224-.5-.5s.224-.5.5-.5h2c.276 0 .5.224.5.5S54.776 28 54.5 28zM50.5 28h-1c-.276 0-.5-.224-.5-.5s.224-.5.5-.5h1c.276 0 .5.224.5.5S50.776 28 50.5 28zM81.5 73h-16c-.276 0-.5-.224-.5-.5s.224-.5.5-.5h16c.276 0 .5.224.5.5S81.776 73 81.5 73zM62.5 73h-2c-.276 0-.5-.224-.5-.5s.224-.5.5-.5h2c.276 0 .5.224.5.5S62.776 73 62.5 73zM58.5 73h-1c-.276 0-.5-.224-.5-.5s.224-.5.5-.5h1c.276 0 .5.224.5.5S58.776 73 58.5 73zM34 59H18c-.553 0-1-.447-1-1V42c0-.553.447-1 1-1h16c.553 0 1 .447 1 1v16C35 58.553 34.553 59 34 59zM19 57h14V43H19V57zM82 56H42c-.553 0-1-.447-1-1V45c0-.553.447-1 1-1h40c.553 0 1 .447 1 1v10C83 55.553 82.553 56 82 56zM43 54h38v-8H43V54z"/><path fill="#1f212b" d="M82 80H42c-.553 0-1-.447-1-1V69c0-.553.447-1 1-1h40c.553 0 1 .447 1 1v10C83 79.553 82.553 80 82 80zM43 78h38v-8H43V78zM82 32H42c-.553 0-1-.447-1-1V21c0-.553.447-1 1-1h40c.553 0 1 .447 1 1v10C83 31.553 82.553 32 82 32zM43 30h38v-8H43V30zM34 35H18c-.553 0-1-.447-1-1V18c0-.553.447-1 1-1h16c.553 0 1 .447 1 1v16C35 34.553 34.553 35 34 35zM19 33h14V19H19V33z"/><path fill="#1f212b" d="M29.5 30h-7c-.276 0-.5-.224-.5-.5v-7c0-.276.224-.5.5-.5h7c.276 0 .5.224.5.5v3c0 .276-.224.5-.5.5S29 25.776 29 25.5V23h-6v6h6v-.5c0-.276.224-.5.5-.5s.5.224.5.5v1C30 29.776 29.776 30 29.5 30zM34 83H18c-.553 0-1-.447-1-1V66c0-.553.447-1 1-1h16c.553 0 1 .447 1 1v16C35 82.553 34.553 83 34 83zM19 81h14V67H19V81z"/></svg>