<svg xmlns="http://www.w3.org/2000/svg"  viewBox="0 0 100 100" width="100px" height="100px"><path fill="#78cdd4" d="M19 19H81V81H19z"/><path fill="#fefdef" d="M75 32.5v5c0 .28-.22.5-.5.5h-49c-.28 0-.5-.22-.5-.5v-5c0-.28.22-.5.5-.5h49C74.78 32 75 32.22 75 32.5zM64 52.5v5c0 .28-.22.5-.5.5h-38c-.28 0-.5-.22-.5-.5v-5c0-.28.22-.5.5-.5h38C63.78 52 64 52.22 64 52.5zM73 62.5v5c0 .28-.22.5-.5.5h-47c-.28 0-.5-.22-.5-.5v-5c0-.28.22-.5.5-.5h47C72.78 62 73 62.22 73 62.5zM70 42.5v5c0 .28-.22.5-.5.5h-44c-.28 0-.5-.22-.5-.5v-5c0-.28.22-.5.5-.5h44C69.78 42 70 42.22 70 42.5z"/><path fill="#1f212b" d="M81,82H19c-0.552,0-1-0.447-1-1V19c0-0.553,0.448-1,1-1h62c0.553,0,1,0.447,1,1v62 C82,81.553,81.553,82,81,82z M20,80h60V20H20V80z"/><path fill="#1f212b" d="M67.5,33h-4c-0.276,0-0.5-0.224-0.5-0.5s0.224-0.5,0.5-0.5h4c0.276,0,0.5,0.224,0.5,0.5 S67.776,33,67.5,33z"/><path fill="#1f212b" d="M74.5 38h-49c-.276 0-.5-.224-.5-.5v-5c0-.276.224-.5.5-.5h36c.276 0 .5.224.5.5S61.776 33 61.5 33H26v4h48v-4h-3.5c-.276 0-.5-.224-.5-.5s.224-.5.5-.5h4c.276 0 .5.224.5.5v5C75 37.776 74.776 38 74.5 38zM63.5 58h-6c-.276 0-.5-.224-.5-.5s.224-.5.5-.5H63v-4H26v4h23.5c.276 0 .5.224.5.5S49.776 58 49.5 58h-24c-.276 0-.5-.224-.5-.5v-5c0-.276.224-.5.5-.5h38c.276 0 .5.224.5.5v5C64 57.776 63.776 58 63.5 58z"/><path fill="#1f212b" d="M54.5 58h-3c-.276 0-.5-.224-.5-.5s.224-.5.5-.5h3c.276 0 .5.224.5.5S54.776 58 54.5 58zM72.5 68h-33c-.276 0-.5-.224-.5-.5s.224-.5.5-.5H72v-4H26v4h7.5c.276 0 .5.224.5.5S33.776 68 33.5 68h-8c-.276 0-.5-.224-.5-.5v-5c0-.276.224-.5.5-.5h47c.276 0 .5.224.5.5v5C73 67.776 72.776 68 72.5 68zM69.5 48h-44c-.276 0-.5-.224-.5-.5v-5c0-.276.224-.5.5-.5h7c.276 0 .5.224.5.5S32.776 43 32.5 43H26v4h43v-4H37.5c-.276 0-.5-.224-.5-.5s.224-.5.5-.5h32c.276 0 .5.224.5.5v5C70 47.776 69.776 48 69.5 48z"/></svg>