<svg xmlns="http://www.w3.org/2000/svg"  viewBox="0 0 100 100" width="100px" height="100px"><path fill="#fdfcee" d="M37.278,21.467v18.962v0.954v14.16c-3.155-0.032-10.877-8.617-15.271-7.452c-2.242,0.594-4.543,2.32-4.405,4.595c0.133,2.18,21.289,18.761,22.107,22.763l0.117,16.282h35.41V75.449v-0.667v-1.177V44.571c0-2.633-2.236-5.493-4.85-5.493c-2.614,0-4.622,0.898-4.622,3.53l-0.033-2.432c0-2.633-2.139-4.787-4.752-4.787s-4.753,2.154-4.753,4.787v-2.102c0-2.633-2.139-4.787-4.752-4.787c-2.084,0-3.847,1.379-4.483,3.269v-15.09c0-2.518-2.046-4.579-4.546-4.579h-0.62C39.324,16.888,37.278,18.949,37.278,21.467z"/><path fill="#1f212b" d="M75.235,92.731h-35.41c-0.546,0-0.989-0.443-0.993-0.993l-0.115-16.168c-0.571-2.01-7.932-8.681-12.826-13.116c-7.348-6.659-9.206-8.496-9.28-9.708c-0.175-2.881,2.543-4.935,5.143-5.624c3.011-0.789,6.893,1.974,10.324,4.417c1.459,1.04,3.064,2.183,4.207,2.708V21.467c0-3.076,2.484-5.579,5.538-5.579h0.621c3.054,0,5.538,2.502,5.538,5.579v12.03c0.979-0.766,2.197-1.208,3.491-1.208c2.488,0,4.611,1.602,5.408,3.834c1.043-1.069,2.495-1.733,4.097-1.733c2.759,0,5.069,1.969,5.62,4.585c0.841-0.538,2.052-0.896,3.788-0.896c3.29,0,5.842,3.49,5.842,6.493v47.16C76.228,92.284,75.784,92.731,75.235,92.731z M40.812,90.731h33.431v-46.16c0-2.022-1.779-4.493-3.856-4.493c-3.629,0-3.629,1.838-3.629,2.53c0,0.549-0.44,0.996-0.986,1c-0.002,0-0.005,0-0.007,0c-0.543,0-0.985-0.439-0.993-0.986l-0.034-2.432c0-2.103-1.686-3.801-3.759-3.801s-3.76,1.699-3.76,3.787c0,0.552-0.444,1-0.993,1c-0.549,0-0.993-0.448-0.993-1v-2.102c0-2.088-1.686-3.787-3.759-3.787c-1.597,0-3.021,1.041-3.543,2.59c-0.157,0.464-0.63,0.741-1.102,0.666c-0.479-0.08-0.831-0.498-0.831-0.987v-15.09c0-1.973-1.594-3.579-3.553-3.579h-0.621c-1.959,0-3.553,1.605-3.553,3.579v34.076c0,0.267-0.106,0.523-0.295,0.71c-0.187,0.188-0.46,0.271-0.708,0.29c-1.629-0.017-3.707-1.497-6.337-3.37c-2.923-2.083-6.568-4.677-8.671-4.115c-1.869,0.495-3.709,1.846-3.67,3.486c0.485,1.043,4.994,5.13,8.629,8.424c7.816,7.084,12.976,11.905,13.462,14.279c0.013,0.064,0.019,0.129,0.02,0.194L40.812,90.731z"/><path fill="#78a1d1" d="M49.639 66.147H65.36V99.63300000000001H49.639z" transform="rotate(90 57.5 82.89)"/><path fill="#1f212b" d="M66.535 75.614h-26.82c-.276 0-.5-.224-.5-.5s.224-.5.5-.5h26.82c.276 0 .5.224.5.5S66.811 75.614 66.535 75.614zM46.728 68.93c-.276 0-.5-.224-.5-.5V49.083c0-.276.224-.5.5-.5s.5.224.5.5V68.43C47.228 68.706 47.005 68.93 46.728 68.93zM56.728 63.982c-.276 0-.5-.224-.5-.5V49.083c0-.276.224-.5.5-.5s.5.224.5.5v14.399C57.228 63.759 57.005 63.982 56.728 63.982zM65.728 59.257c-.276 0-.5-.224-.5-.5v-9.673c0-.276.224-.5.5-.5s.5.224.5.5v9.673C66.228 59.033 66.005 59.257 65.728 59.257zM69.831 75.614h-1.766c-.276 0-.5-.224-.5-.5s.224-.5.5-.5h1.766c.276 0 .5.224.5.5S70.107 75.614 69.831 75.614zM71.773 75.614h-.334c-.276 0-.5-.224-.5-.5s.224-.5.5-.5h.334c.276 0 .5.224.5.5S72.05 75.614 71.773 75.614zM56.728 67.16c-.276 0-.5-.224-.5-.5v-1.687c0-.276.224-.5.5-.5s.5.224.5.5v1.687C57.228 66.936 57.005 67.16 56.728 67.16zM56.728 69.083c-.276 0-.5-.224-.5-.5v-.549c0-.276.224-.5.5-.5s.5.224.5.5v.549C57.228 68.859 57.005 69.083 56.728 69.083z"/><path fill="#657fbe" d="M68.065 81.099A2.413 2.413 0 1 0 68.065 85.925A2.413 2.413 0 1 0 68.065 81.099Z"/><path fill="#1f212b" d="M68.065 86.424c-1.606 0-2.913-1.307-2.913-2.913 0-1.606 1.307-2.913 2.913-2.913s2.913 1.307 2.913 2.913C70.978 85.118 69.672 86.424 68.065 86.424zM68.065 81.599c-1.055 0-1.913.858-1.913 1.913s.858 1.913 1.913 1.913 1.913-.858 1.913-1.913S69.12 81.599 68.065 81.599zM50.89 21.991c-.276 0-.5-.224-.5-.5 0-4.765-3.682-8.642-8.208-8.642s-8.208 3.876-8.208 8.642c0 .276-.224.5-.5.5s-.5-.224-.5-.5c0-5.316 4.131-9.642 9.208-9.642s9.208 4.325 9.208 9.642C51.39 21.767 51.166 21.991 50.89 21.991z"/><path fill="#1f212b" d="M54.776,21.991c-0.276,0-0.5-0.224-0.5-0.5c0-7.015-5.426-12.722-12.095-12.722s-12.095,5.707-12.095,12.722c0,0.276-0.224,0.5-0.5,0.5s-0.5-0.224-0.5-0.5c0-7.566,5.874-13.722,13.095-13.722s13.095,6.156,13.095,13.722C55.276,21.767,55.053,21.991,54.776,21.991z"/></svg>