<svg xmlns="http://www.w3.org/2000/svg"  viewBox="0 0 100 100" width="100px" height="100px"><path fill="#c6dff1" d="M12,26v48c0,3.314,2.686,6,6,6h64c3.314,0,6-2.686,6-6V26c0-3.314-2.686-6-6-6H18	C14.686,20,12,22.686,12,26z"/><path fill="#4e6e91" d="M81.5,75.5h-29c-1.105,0-2-0.895-2-2v-21c0-1.105,0.895-2,2-2h29c1.105,0,2,0.895,2,2v21	C83.5,74.605,82.605,75.5,81.5,75.5z"/><path fill="#1f212b" d="M82,81H18c-3.859,0-7-3.14-7-7V26c0-3.86,3.141-7,7-7h64c3.859,0,7,3.14,7,7v48	C89,77.86,85.859,81,82,81z M18,21c-2.757,0-5,2.243-5,5v48c0,2.757,2.243,5,5,5h64c2.757,0,5-2.243,5-5V26c0-2.757-2.243-5-5-5H18z"/><path fill="#1f212b" d="M44.5,76h-22c-3.584,0-6.5-2.916-6.5-6.5v-39c0-3.584,2.916-6.5,6.5-6.5h55	c3.584,0,6.5,2.916,6.5,6.5v4c0,0.276-0.224,0.5-0.5,0.5S83,34.776,83,34.5v-4c0-3.033-2.468-5.5-5.5-5.5h-55	c-3.032,0-5.5,2.467-5.5,5.5v39c0,3.033,2.468,5.5,5.5,5.5h22c0.276,0,0.5,0.224,0.5,0.5S44.776,76,44.5,76z"/><path fill="#1f212b" d="M81.5,76h-29c-1.379,0-2.5-1.122-2.5-2.5v-21c0-1.378,1.121-2.5,2.5-2.5h29	c1.379,0,2.5,1.122,2.5,2.5v21C84,74.878,82.879,76,81.5,76z M52.5,51c-0.827,0-1.5,0.673-1.5,1.5v21c0,0.827,0.673,1.5,1.5,1.5h29	c0.827,0,1.5-0.673,1.5-1.5v-21c0-0.827-0.673-1.5-1.5-1.5H52.5z"/><path fill="#1f212b" d="M83.5,45c-0.276,0-0.5-0.224-0.5-0.5v-1c0-0.276,0.224-0.5,0.5-0.5s0.5,0.224,0.5,0.5v1	C84,44.776,83.776,45,83.5,45z"/><path fill="#1f212b" d="M83.5,42c-0.276,0-0.5-0.224-0.5-0.5v-2c0-0.276,0.224-0.5,0.5-0.5s0.5,0.224,0.5,0.5v2	C84,41.776,83.776,42,83.5,42z"/></svg>