<svg xmlns="http://www.w3.org/2000/svg"  viewBox="0 0 100 100" width="100px" height="100px"><path fill="#f15b6c" d="M50 15A35 35 0 1 0 50 85A35 35 0 1 0 50 15Z"/><path fill="#fefdef" d="M64,33.67V72.5c0,0.28-0.22,0.5-0.5,0.5h-23c-0.28,0-0.5-0.22-0.5-0.5V66c-0.19-1.3-5.01-6.08-7.49-8.56C27.67,52.62,27,51.33,27,50.5c0-2.32,1.68-3.5,4-3.5c1.15,0,3,1.17,5,2.5c1.42,0.95,2.02,1.08,3,1.4V29.67c0-1.93,1.49-3.57,3.31-3.67c0.98-0.06,1.9,0.29,2.6,0.96c0.05,0.05,0.08,0.1,0.13,0.15C45.23,25.37,46.7,24,48.5,24c1.93,0,3.5,1.57,3.5,3.5v0.56c0.64-0.65,1.52-1.06,2.5-1.06c1.93,0,3.5,1.57,3.5,3.5v0.57c0.03-0.04,0.06-0.08,0.09-0.11c0.7-0.67,1.63-1.02,2.6-0.96C62.51,30.1,64,31.74,64,33.67z"/><path fill="#78a2d2" d="M63,73H41c-0.552,0-1-0.448-1-1v-7h24v7C64,72.552,63.552,73,63,73z"/><path fill="#a3a3cd" d="M59 67A2 2 0 1 0 59 71A2 2 0 1 0 59 67Z"/><g><path fill="#1f212b" d="M50,14c-19.851,0-36,16.149-36,36s16.149,36,36,36s36-16.149,36-36S69.851,14,50,14z M50,84c-18.748,0-34-15.252-34-34s15.252-34,34-34s34,15.252,34,34S68.748,84,50,84z"/><path fill="#1f212b" d="M55.5 66h2c.276 0 .5-.224.5-.5S57.776 65 57.5 65h-2c-.276 0-.5.224-.5.5S55.224 66 55.5 66zM59.5 66h1c.276 0 .5-.224.5-.5S60.776 65 60.5 65h-1c-.276 0-.5.224-.5.5S59.224 66 59.5 66zM57 69c0 1.103.897 2 2 2s2-.897 2-2-.897-2-2-2S57 67.897 57 69zM59 68c.551 0 1 .448 1 1s-.449 1-1 1-1-.448-1-1S58.449 68 59 68z"/><path fill="#1f212b" d="M40.5,73h23c0.276,0,0.5-0.224,0.5-0.5V33.67c0-1.926-1.486-3.569-3.313-3.665c-0.971-0.063-1.894,0.288-2.596,0.957c-0.034,0.032-0.058,0.072-0.091,0.105V30.5c0-1.93-1.57-3.5-3.5-3.5c-0.98,0-1.864,0.407-2.5,1.058V27.5c0-1.93-1.57-3.5-3.5-3.5c-1.797,0-3.265,1.367-3.461,3.113c-0.046-0.049-0.081-0.104-0.13-0.151c-0.703-0.669-1.622-1.022-2.597-0.957C40.486,26.101,39,27.744,39,29.67v21.244c-0.811-0.243-1.937-0.966-3.032-1.668C34.247,48.142,32.466,47,31,47c-2.467,0-4,1.341-4,3.5c0,0.753,0.667,2.114,5.507,6.944C37.134,62.045,39.844,64.932,40,66v6.5C40,72.776,40.224,73,40.5,73z M33.213,56.736C28.677,52.21,28,50.887,28,50.5c0-2.175,1.879-2.5,3-2.5c1.173,0,2.902,1.109,4.428,2.088C37.028,51.114,38.409,52,39.5,52c0.276,0,0.5-0.224,0.5-0.5V29.67c0-1.402,1.061-2.599,2.365-2.667c0.697-0.027,1.354,0.207,1.856,0.684C44.723,28.164,45,28.808,45,29.5v16c0,0.276,0.224,0.5,0.5,0.5s0.5-0.224,0.5-0.5v-18c0-1.379,1.122-2.5,2.5-2.5s2.5,1.121,2.5,2.5v3V31v14.5c0,0.276,0.224,0.5,0.5,0.5s0.5-0.224,0.5-0.5V31v-0.5c0-1.379,1.122-2.5,2.5-2.5s2.5,1.121,2.5,2.5V33c0,0.059,0.015,0.114,0.034,0.166C57.023,33.278,57,33.386,57,33.5v14c0,0.276,0.224,0.5,0.5,0.5s0.5-0.224,0.5-0.5v-14c0-0.692,0.277-1.336,0.779-1.813c0.501-0.477,1.166-0.718,1.855-0.684C61.939,31.071,63,32.268,63,33.67V72H41l-0.004-6H52.5c0.276,0,0.5-0.224,0.5-0.5S52.776,65,52.5,65H40.653C39.897,63.599,37.811,61.308,33.213,56.736z"/><path fill="#1f212b" d="M71.853,28.013c-0.196-0.194-0.512-0.194-0.707,0.002s-0.194,0.513,0.002,0.707C76.856,34.396,80,41.952,80,50c0,16.542-13.458,30-30,30S20,66.542,20,50s13.458-30,30-30c3.55,0,7.025,0.614,10.328,1.825c0.261,0.094,0.547-0.037,0.642-0.298c0.095-0.259-0.038-0.546-0.297-0.642C57.259,19.635,53.668,19,50,19c-17.093,0-31,13.906-31,31s13.907,31,31,31s31-13.906,31-31C81,41.684,77.751,33.875,71.853,28.013z"/><path fill="#1f212b" d="M63.277 23.091c.669.332 1.331.69 1.969 1.066.237.141.544.062.685-.177C65.978 23.9 66 23.813 66 23.727c0-.171-.088-.338-.246-.431-.658-.388-1.342-.759-2.031-1.102-.248-.122-.548-.021-.671.226C62.931 22.665 63.029 22.967 63.277 23.091zM68.196 26.146c.22.167.533.126.701-.094C68.967 25.962 69 25.855 69 25.749c0-.15-.067-.299-.196-.397-.333-.255-.673-.503-1.017-.744-.226-.159-.537-.104-.696.122-.158.225-.104.537.122.696C67.545 25.659 67.873 25.899 68.196 26.146z"/></g></svg>