<svg xmlns="http://www.w3.org/2000/svg"  viewBox="0 0 100 100" width="100px" height="100px"><path fill="#78cdd4" d="M70,44H53l9-33L30,56h17l-9,33L70,44z"/><path fill="#1f212b" d="M38,90c-0.144,0-0.29-0.031-0.427-0.096c-0.438-0.208-0.665-0.699-0.537-1.167L45.691,57H30 c-0.374,0-0.717-0.209-0.889-0.542s-0.143-0.733,0.074-1.038l32-45c0.281-0.395,0.805-0.53,1.243-0.324 c0.438,0.208,0.665,0.699,0.537,1.167L54.309,43H70c0.374,0,0.717,0.209,0.889,0.542s0.143,0.733-0.074,1.038l-32,45 C38.622,89.851,38.315,90,38,90z M31.938,55H47c0.312,0,0.605,0.146,0.795,0.393c0.189,0.248,0.252,0.569,0.17,0.87l-7.52,27.573 L68.062,45H53c-0.312,0-0.605-0.146-0.795-0.393c-0.189-0.248-0.252-0.569-0.17-0.87l7.52-27.573L31.938,55z"/><path fill="#1f212b" d="M33.955 90c-.044 0-.088-.005-.132-.018-.267-.073-.424-.348-.351-.614l3.818-14c.073-.267.35-.424.614-.351.267.073.424.348.351.614l-3.818 14C34.376 89.854 34.175 90 33.955 90zM38.591 73c-.044 0-.088-.005-.132-.018-.267-.073-.424-.348-.351-.614l.545-2c.073-.267.349-.425.614-.351.267.073.424.348.351.614l-.545 2C39.013 72.854 38.811 73 38.591 73zM39.682 69c-.044 0-.088-.005-.132-.018-.267-.073-.424-.348-.351-.614l2.281-8.365L29.5 60c-.276 0-.5-.224-.5-.5 0-.276.224-.5.5-.5l0 0 12.635.003c.156 0 .303.073.397.197.095.124.126.285.085.435l-2.454 8.997C40.104 68.854 39.902 69 39.682 69zM63.137 22c-.044 0-.088-.005-.132-.018-.267-.073-.424-.348-.351-.614l1.637-6c.073-.267.35-.424.614-.351.267.073.424.348.351.614l-1.637 6C63.558 21.854 63.356 22 63.137 22zM61.773 27c-.044 0-.088-.005-.132-.018-.267-.073-.424-.348-.351-.614l.545-2c.072-.267.35-.424.614-.351.267.073.424.348.351.614l-.545 2C62.195 26.854 61.993 27 61.773 27zM60.955 30c-.043 0-.088-.005-.132-.018-.267-.073-.424-.348-.351-.614l.272-1c.073-.267.349-.424.614-.351.267.073.424.348.351.614l-.272 1C61.376 29.854 61.175 30 60.955 30zM58.228 40c-.044 0-.088-.005-.132-.018-.267-.073-.424-.348-.351-.614l2.182-8c.073-.267.349-.425.614-.351.267.073.424.348.351.614l-2.182 8C58.649 39.854 58.447 40 58.228 40z"/></svg>