<svg xmlns="http://www.w3.org/2000/svg"  viewBox="0 0 100 100" width="100px" height="100px"><path fill="#f15b6c" d="M49.817 16C31.153 16.099 16 31.313 16 50c0 9.646 3.949 18.577 10.948 25l-2.83 0c-1.451 0-2.784.978-3.06 2.402C20.686 79.317 22.15 81 24 81h9 2c1.657 0 3-1.343 3-3l0-10.882c0-1.451-.978-2.784-2.402-3.06C33.683 63.686 32 65.15 32 67v4.45C25.624 66.113 22 58.385 22 50c0-15.439 12.561-28 28-28 1.842 0 3.301-1.668 2.947-3.573C52.675 16.969 51.3 15.993 49.817 16zM50.183 84C68.847 83.901 84 68.687 84 50c0-9.646-3.949-18.577-10.948-25l2.83 0c1.451 0 2.784-.978 3.06-2.402C79.314 20.683 77.85 19 76 19h-9-2c-1.657 0-3 1.343-3 3l0 10.882c0 1.451.978 2.784 2.402 3.06C66.317 36.314 68 34.85 68 33v-4.45C74.376 33.887 78 41.615 78 50c0 15.439-12.561 28-28 28-1.842 0-3.301 1.668-2.947 3.573C47.325 83.031 48.7 84.007 50.183 84z"/><path fill="#1f212b" d="M74.174 46.5c-.24 0-.452-.174-.492-.419-.548-3.342-1.776-6.473-3.65-9.305-.152-.23-.089-.541.142-.693.228-.154.54-.089.692.141 1.952 2.952 3.232 6.214 3.803 9.695.045.272-.14.529-.412.574C74.229 46.498 74.201 46.5 74.174 46.5zM74.5 50.5c-.276 0-.5-.224-.5-.5 0-.494-.016-.984-.044-1.471-.017-.275.194-.512.47-.528.271-.021.512.194.528.47C74.984 48.977 75 49.486 75 50 75 50.276 74.776 50.5 74.5 50.5zM50 75c-.276 0-.5-.224-.5-.5S49.724 74 50 74c12.367 0 22.632-9.265 23.877-21.551.027-.274.273-.475.548-.446.274.027.475.272.446.548C73.575 65.349 62.883 75 50 75zM29.552 64c-.162 0-.321-.079-.417-.225-.222-.334-.435-.674-.641-1.02-.142-.237-.063-.544.174-.686.234-.142.543-.065.686.174.198.332.403.658.615.98.152.23.089.54-.142.692C29.742 63.974 29.646 64 29.552 64zM27.206 59.5c-.199 0-.388-.12-.465-.316C25.586 56.262 25 53.172 25 50c0-9.603 5.607-18.472 14.285-22.594.248-.119.548-.013.666.236.119.25.013.548-.236.666C31.383 32.268 26 40.781 26 50c0 3.046.562 6.012 1.671 8.816.102.257-.024.547-.281.648C27.329 59.489 27.268 59.5 27.206 59.5zM42.5 27.169c-.212 0-.408-.135-.476-.347-.085-.264.06-.545.322-.629C44.812 25.401 47.388 25 50 25c.276 0 .5.224.5.5S50.276 26 50 26c-2.509 0-4.98.385-7.347 1.145C42.602 27.161 42.551 27.169 42.5 27.169z"/><path fill="#1f212b" d="M35 82H24c-1.197 0-2.322-.531-3.087-1.458-.763-.926-1.067-2.14-.836-3.33C20.438 75.351 22.138 74 24.118 74h.388C18.357 67.521 15 59.09 15 50c0-19.196 15.616-34.897 34.812-35l0 0c.008 0 .016 0 .023 0 2.024 0 3.744 1.36 4.095 3.244.221 1.185-.09 2.392-.852 3.309C52.314 22.473 51.192 23 50 23c-14.888 0-27 12.112-27 27 0 7.271 2.891 14.147 8 19.19V67c0-1.197.531-2.322 1.458-3.087.926-.763 2.139-1.068 3.33-.836C37.649 63.438 39 65.138 39 67.118V78C39 80.206 37.206 82 35 82zM24.118 76c-1.009 0-1.901.685-2.078 1.593-.118.611.029 1.207.416 1.677C22.839 79.733 23.401 80 24 80h11c1.103 0 2-.897 2-2V67.118c0-1.009-.685-1.901-1.593-2.078-.612-.119-1.208.028-1.677.416C33.267 65.839 33 66.401 33 67v4.45c0 .389-.225.741-.577.906-.352.162-.767.111-1.064-.14C24.775 66.707 21 58.609 21 50c0-15.99 13.01-29 29-29 .596 0 1.156-.265 1.539-.725.387-.466.538-1.058.424-1.665C51.792 17.69 50.878 17 49.834 17c-.004 0-.008 0-.013 0l0 0C31.724 17.097 17 31.9 17 50c0 9.359 3.773 17.976 10.624 24.264.304.278.405.715.256 1.099C27.73 75.747 27.36 76 26.948 76H24.118zM50.165 85c-2.024 0-3.744-1.36-4.095-3.244-.221-1.185.09-2.392.852-3.309C47.686 77.527 48.808 77 50 77c14.888 0 27-12.112 27-27 0-7.271-2.891-14.147-8-19.19V33c0 1.197-.531 2.322-1.458 3.087-.926.763-2.142 1.067-3.33.836C62.351 36.562 61 34.862 61 32.882V22c0-2.206 1.794-4 4-4h11c1.197 0 2.322.531 3.087 1.458.763.926 1.067 2.14.836 3.33C79.562 24.649 77.862 26 75.882 26h-.388C81.643 32.479 85 40.91 85 50c0 19.196-15.616 34.897-34.812 35l0 0C50.181 85 50.173 85 50.165 85zM68 27.55c.23 0 .458.079.642.233C75.225 33.293 79 41.391 79 50c0 15.99-13.01 29-29 29-.596 0-1.156.265-1.539.725-.387.466-.538 1.058-.424 1.665.171.92 1.085 1.61 2.129 1.61.004 0 .008 0 .013 0l0 0C68.276 82.903 83 68.1 83 50c0-9.359-3.773-17.976-10.624-24.264-.304-.278-.405-.715-.256-1.099C72.27 24.253 72.64 24 73.052 24h2.83c1.009 0 1.901-.685 2.078-1.593.118-.611-.029-1.207-.416-1.677C77.161 20.267 76.599 20 76 20H65c-1.103 0-2 .897-2 2v10.882c0 1.009.685 1.901 1.593 2.078.611.116 1.208-.029 1.677-.416C66.733 34.161 67 33.599 67 33v-4.45c0-.389.225-.741.577-.906C67.712 27.581 67.856 27.55 68 27.55z"/></svg>