<svg xmlns="http://www.w3.org/2000/svg"  viewBox="0 0 100 100" width="100px" height="100px"><path fill="#a3a3cd" d="M76,80H24c-2.761,0-5-2.239-5-5V25c0-2.761,2.239-5,5-5h40l17,16v39C81,77.761,78.761,80,76,80z"/><path fill="#fef6aa" d="M60.5,33h-18c-1.379,0-2.5-1.121-2.5-2.5V20h23v10.5C63,31.879,61.879,33,60.5,33z"/><path fill="#565fa1" d="M59,23.5v6c0,0.28-0.22,0.5-0.5,0.5h-3c-0.28,0-0.5-0.22-0.5-0.5v-6c0-0.28,0.22-0.5,0.5-0.5h3C58.78,23,59,23.22,59,23.5z"/><path fill="#fefdef" d="M27,80V45.5c0-3.584,2.916-6.5,6.5-6.5h33c3.584,0,6.5,2.916,6.5,6.5V80H27z"/><path fill="#fef6aa" d="M75.5 60A14.5 14.5 0 1 0 75.5 89A14.5 14.5 0 1 0 75.5 60Z"/><path fill="#1f212b" d="M31.5 50h23c.276 0 .5-.224.5-.5S54.776 49 54.5 49h-23c-.276 0-.5.224-.5.5S31.224 50 31.5 50zM58.5 50h10c.276 0 .5-.224.5-.5S68.776 49 68.5 49h-10c-.276 0-.5.224-.5.5S58.224 50 58.5 50zM55.5 30h3c.276 0 .5-.224.5-.5v-6c0-.276-.224-.5-.5-.5h-3c-.276 0-.5.224-.5.5v6C55 29.776 55.224 30 55.5 30zM56 24h2v5h-2V24zM31.5 56h29c.276 0 .5-.224.5-.5S60.776 55 60.5 55h-29c-.276 0-.5.224-.5.5S31.224 56 31.5 56zM65.5 55h-2c-.276 0-.5.224-.5.5s.224.5.5.5h2c.276 0 .5-.224.5-.5S65.776 55 65.5 55zM68.5 55h-1c-.276 0-.5.224-.5.5s.224.5.5.5h1c.276 0 .5-.224.5-.5S68.776 55 68.5 55z"/><path fill="#1f212b" d="M82,60.448V36c0-0.275-0.114-0.539-0.314-0.729l-17-16C64.5,19.098,64.255,19,64,19H24c-3.309,0-6,2.691-6,6v50c0,3.309,2.691,6,6,6h37.448c2.464,5.305,7.828,9,14.052,9C84.047,90,91,83.047,91,74.5C91,68.276,87.305,62.912,82,60.448z M41,21h21v9.5c0,0.827-0.673,1.5-1.5,1.5h-18c-0.827,0-1.5-0.673-1.5-1.5V21z M27,79h-3c-2.206,0-4-1.794-4-4V25c0-2.206,1.794-4,4-4h16v9.5c0,1.379,1.121,2.5,2.5,2.5h18c1.379,0,2.5-1.121,2.5-2.5V21h0.604L80,36.432v23.24C78.575,59.238,77.065,59,75.5,59c-0.853,0-1.684,0.087-2.5,0.221V45.5c0-3.584-2.916-6.5-6.5-6.5h-33c-3.584,0-6.5,2.916-6.5,6.5V79z M31.5,68h29.948C60.528,69.98,60,72.177,60,74.5c0,1.565,0.238,3.075,0.671,4.5H28V45.5c0-3.032,2.468-5.5,5.5-5.5h33c3.032,0,5.5,2.468,5.5,5.5v13.913c-1.452,0.337-2.826,0.873-4.09,1.587H33.5c-0.276,0-0.5,0.224-0.5,0.5s0.224,0.5,0.5,0.5h32.873c-1.812,1.327-3.332,3.027-4.428,5H31.5c-0.276,0-0.5,0.224-0.5,0.5S31.224,68,31.5,68z M75.5,88C68.056,88,62,81.944,62,74.5C62,67.056,68.056,61,75.5,61C82.944,61,89,67.056,89,74.5C89,81.944,82.944,88,75.5,88z"/><path fill="#1f212b" d="M84.164,69.13l-10.679,9.708l-5.665-4.722c-0.212-0.175-0.526-0.149-0.704,0.064c-0.177,0.212-0.148,0.528,0.063,0.705l6,5C73.272,79.961,73.387,80,73.5,80c0.121,0,0.241-0.043,0.336-0.13l11-10c0.205-0.186,0.22-0.502,0.034-0.707C84.686,68.959,84.368,68.946,84.164,69.13z"/></svg>