<svg xmlns="http://www.w3.org/2000/svg"  viewBox="0 0 100 100" width="100px" height="100px"><path fill="#a3a3cd" d="M76,80H24c-2.761,0-5-2.239-5-5V25c0-2.761,2.239-5,5-5h40l17,16v39C81,77.761,78.761,80,76,80z"/><path fill="#fef6aa" d="M60.5,33h-18c-1.379,0-2.5-1.121-2.5-2.5V20h23v10.5C63,31.879,61.879,33,60.5,33z"/><path fill="#565fa1" d="M59,23.5v6c0,0.28-0.22,0.5-0.5,0.5h-3c-0.28,0-0.5-0.22-0.5-0.5v-6c0-0.28,0.22-0.5,0.5-0.5h3C58.78,23,59,23.22,59,23.5z"/><path fill="#fefdef" d="M27,80V45.5c0-3.584,2.916-6.5,6.5-6.5h33c3.584,0,6.5,2.916,6.5,6.5V80H27z"/><path fill="#fef6aa" d="M75.5 60A14.5 14.5 0 1 0 75.5 89A14.5 14.5 0 1 0 75.5 60Z"/><path fill="#fcba7f" d="M69,81l0.773-3.576l10.871-10.871c0,0,1.045-0.338,2.106,0.723c1.061,1.061,0.723,2.106,0.723,2.106L72.601,80.253L69,81z"/><path fill="#f37e98" d="M79.197,68l1.447-1.447c0,0,1.045-0.338,2.106,0.723c1.061,1.061,0.723,2.106,0.723,2.106L82,70.854L79.197,68z"/><g><path fill="#1f212b" d="M31.5 50h23c.276 0 .5-.224.5-.5S54.776 49 54.5 49h-23c-.276 0-.5.224-.5.5S31.224 50 31.5 50zM58.5 50h10c.276 0 .5-.224.5-.5S68.776 49 68.5 49h-10c-.276 0-.5.224-.5.5S58.224 50 58.5 50zM55.5 30h3c.276 0 .5-.224.5-.5v-6c0-.276-.224-.5-.5-.5h-3c-.276 0-.5.224-.5.5v6C55 29.776 55.224 30 55.5 30zM56 24h2v5h-2V24zM31.5 56h29c.276 0 .5-.224.5-.5S60.776 55 60.5 55h-29c-.276 0-.5.224-.5.5S31.224 56 31.5 56zM65.5 55h-2c-.276 0-.5.224-.5.5s.224.5.5.5h2c.276 0 .5-.224.5-.5S65.776 55 65.5 55zM68.5 55h-1c-.276 0-.5.224-.5.5s.224.5.5.5h1c.276 0 .5-.224.5-.5S68.776 55 68.5 55z"/><path fill="#1f212b" d="M82,60.448V36c0-0.275-0.114-0.539-0.314-0.729l-17-16C64.5,19.098,64.255,19,64,19H24c-3.309,0-6,2.691-6,6v50c0,3.309,2.691,6,6,6h37.448c2.464,5.305,7.828,9,14.052,9C84.047,90,91,83.047,91,74.5C91,68.276,87.305,62.912,82,60.448z M41,21h21v9.5c0,0.827-0.673,1.5-1.5,1.5h-18c-0.827,0-1.5-0.673-1.5-1.5V21z M20,75V25c0-2.206,1.794-4,4-4h16v9.5c0,1.379,1.121,2.5,2.5,2.5h18c1.379,0,2.5-1.121,2.5-2.5V21h0.604L80,36.432v23.24C78.575,59.238,77.065,59,75.5,59c-0.853,0-1.684,0.087-2.5,0.221V45.5c0-3.584-2.916-6.5-6.5-6.5h-33c-3.584,0-6.5,2.916-6.5,6.5V79h-3C21.794,79,20,77.206,20,75z M28,79V45.5c0-3.032,2.468-5.5,5.5-5.5h33c3.032,0,5.5,2.468,5.5,5.5v13.913c-1.452,0.337-2.826,0.873-4.09,1.587H33.5c-0.276,0-0.5,0.224-0.5,0.5s0.224,0.5,0.5,0.5h32.873c-1.812,1.327-3.332,3.027-4.428,5H31.5c-0.276,0-0.5,0.224-0.5,0.5s0.224,0.5,0.5,0.5h29.948C60.528,69.98,60,72.177,60,74.5c0,1.565,0.238,3.075,0.671,4.5H28z M75.5,88C68.056,88,62,81.944,62,74.5C62,67.056,68.056,61,75.5,61C82.944,61,89,67.056,89,74.5C89,81.944,82.944,88,75.5,88z"/><path fill="#1f212b" d="M80.49,66.078c-0.075,0.024-0.144,0.066-0.2,0.122L69.612,76.878c-0.001,0.001-0.002,0.001-0.003,0.002s-0.001,0.002-0.002,0.003l-0.129,0.129c-0.093,0.092-0.163,0.206-0.204,0.326l-1.225,3.522c-0.111,0.319-0.031,0.666,0.21,0.906c0.169,0.169,0.39,0.259,0.618,0.259c0.096,0,0.193-0.016,0.288-0.048l3.601-1.252c0.071-0.025,0.136-0.066,0.189-0.119l9.488-9.487c0,0,0,0,0,0s0,0,0,0l1.383-1.383c0.056-0.056,0.098-0.125,0.122-0.2c0.017-0.055,0.417-1.351-0.845-2.613C81.842,65.661,80.544,66.058,80.49,66.078z M72.791,79.355l-2.121-2.121l8.591-8.591l2.121,2.121L72.791,79.355z M69.368,80.097l0.703-2.048l1.893,1.894l-2.041,0.71L69.368,80.097z M83.015,69.131l-0.927,0.927l-2.121-2.121l0.924-0.924c0.239-0.032,0.854-0.033,1.504,0.617C83.049,68.281,83.045,68.9,83.015,69.131z"/></g></svg>