<svg xmlns="http://www.w3.org/2000/svg"  viewBox="0 0 100 100" width="100px" height="100px"><path fill="#a3a3cd" d="M67,16H33c-2.209,0-4,1.791-4,4v44c0,2.209,1.791,4,4,4h45c2.209,0,4-1.791,4-4V30L67,16z"/><path fill="#fef6aa" d="M50.5,26.5h12c1.105,0,2-0.895,2-2V16h-16v8.5C48.5,25.605,49.395,26.5,50.5,26.5z"/><path fill="#fefdef" d="M37.5,67.5v-30c0-2.209,1.791-4,4-4h28c2.209,0,4,1.791,4,4v30"/><path fill="#565fa1" d="M58.5 19.5H61.5V23.5H58.5z"/><path fill="#a3a3cd" d="M54,30H20c-2.209,0-4,1.791-4,4v44c0,2.209,1.791,4,4,4h45c2.209,0,4-1.791,4-4V44L54,30z"/><path fill="#fef6aa" d="M37.5,40.5h12c1.105,0,2-0.895,2-2V30h-16v8.5C35.5,39.605,36.395,40.5,37.5,40.5z"/><path fill="#565fa1" d="M45.5 33.5H48.5V37.5H45.5z"/><path fill="#fefdef" d="M24.5,81.5v-30c0-2.209,1.791-4,4-4h28c2.209,0,4,1.791,4,4v30"/><g><path fill="#1f212b" d="M82.683,29.269l-15-14C67.497,15.096,67.253,15,67,15H33c-2.757,0-5,2.243-5,5v9h-8c-2.757,0-5,2.243-5,5v44c0,2.757,2.243,5,5,5h45c2.757,0,5-2.243,5-5v-9h8c2.757,0,5-2.243,5-5V30C83,29.723,82.885,29.458,82.683,29.269z M49,17h15v7.5c0,0.827-0.673,1.5-1.5,1.5h-12c-0.827,0-1.5-0.673-1.5-1.5V17z M60,81H25V51.5c0-1.93,1.57-3.5,3.5-3.5h28c1.93,0,3.5,1.57,3.5,3.5V81z M68,78c0,1.654-1.346,3-3,3h-4V51.5c0-2.481-2.019-4.5-4.5-4.5h-28c-2.481,0-4.5,2.019-4.5,4.5V81h-4c-1.654,0-3-1.346-3-3V34c0-1.654,1.346-3,3-3h8h2h5v7.5c0,1.379,1.121,2.5,2.5,2.5h12c1.379,0,2.5-1.121,2.5-2.5V31h1.605L68,44.435V78z M36,31h15v7.5c0,0.827-0.673,1.5-1.5,1.5h-12c-0.827,0-1.5-0.673-1.5-1.5V31z M69.683,43.269L59.752,34H69.5c1.93,0,3.5,1.57,3.5,3.5V67h-3V44C70,43.723,69.885,43.458,69.683,43.269z M81,64c0,1.654-1.346,3-3,3h-4V37.5c0-2.481-2.019-4.5-4.5-4.5H58.681l-3.998-3.731C54.497,29.096,54.253,29,54,29H30v-9c0-1.654,1.346-3,3-3h15v7.5c0,1.379,1.121,2.5,2.5,2.5h12c1.379,0,2.5-1.121,2.5-2.5V17h1.605L81,30.435V64z"/><path fill="#1f212b" d="M58.5 24h3c.276 0 .5-.224.5-.5v-4c0-.276-.224-.5-.5-.5h-3c-.276 0-.5.224-.5.5v4C58 23.776 58.224 24 58.5 24zM59 20h2v3h-2V20zM56.5 55h-5c-.276 0-.5.224-.5.5s.224.5.5.5h5c.276 0 .5-.224.5-.5S56.776 55 56.5 55zM28.5 56h19c.276 0 .5-.224.5-.5S47.776 55 47.5 55h-19c-.276 0-.5.224-.5.5S28.224 56 28.5 56zM56.5 65h-1c-.276 0-.5.224-.5.5s.224.5.5.5h1c.276 0 .5-.224.5-.5S56.776 65 56.5 65zM53.5 66c.276 0 .5-.224.5-.5S53.776 65 53.5 65h-2c-.276 0-.5.224-.5.5s.224.5.5.5H53.5zM30 65.5c0 .276.224.5.5.5h18c.276 0 .5-.224.5-.5S48.776 65 48.5 65h-18C30.224 65 30 65.224 30 65.5zM56.5 60h-23c-.276 0-.5.224-.5.5s.224.5.5.5h23c.276 0 .5-.224.5-.5S56.776 60 56.5 60zM28.5 61h3c.276 0 .5-.224.5-.5S31.776 60 31.5 60h-3c-.276 0-.5.224-.5.5S28.224 61 28.5 61zM56.5 70h-16c-.276 0-.5.224-.5.5s.224.5.5.5h16c.276 0 .5-.224.5-.5S56.776 70 56.5 70zM36.5 70h-8c-.276 0-.5.224-.5.5s.224.5.5.5h8c.276 0 .5-.224.5-.5S36.776 70 36.5 70zM45.5 38h3c.276 0 .5-.224.5-.5v-4c0-.276-.224-.5-.5-.5h-3c-.276 0-.5.224-.5.5v4C45 37.776 45.224 38 45.5 38zM46 34h2v3h-2V34z"/></g></svg>