<svg xmlns="http://www.w3.org/2000/svg"  viewBox="0 0 100 100" width="100px" height="100px"><path fill="#60be92" d="M48 68A9 9 0 1 0 48 86 9 9 0 1 0 48 68zM70 61A8 8 0 1 0 70 77 8 8 0 1 0 70 61zM78 41A7 7 0 1 0 78 55 7 7 0 1 0 78 41zM69.5 22A6.5 6.5 0 1 0 69.5 35 6.5 6.5 0 1 0 69.5 22zM48 15A5 5 0 1 0 48 25 5 5 0 1 0 48 15zM27 24A4 4 0 1 0 27 32 4 4 0 1 0 27 24zM18 46A3 3 0 1 0 18 52 3 3 0 1 0 18 46zM27 67A2 2 0 1 0 27 71 2 2 0 1 0 27 67z"/><path fill="#1f212b" d="M51.5 73.257c-.112 0-.226-.038-.318-.115-.281-.232-.587-.433-.909-.598-.246-.125-.344-.427-.218-.673.126-.246.427-.342.673-.218.387.198.754.439 1.091.718.213.176.243.491.067.704C51.786 73.195 51.644 73.257 51.5 73.257zM45.706 72.5c-.189 0-.37-.108-.454-.292-.115-.25-.006-.547.245-.663.954-.438 2.014-.612 3.047-.521.275.024.479.267.454.542s-.292.475-.542.454c-.859-.075-1.747.068-2.541.433C45.848 72.485 45.776 72.5 45.706 72.5zM48 83c-3.309 0-6-2.691-6-6 0-.961.22-1.879.654-2.728.126-.247.431-.343.673-.218.246.126.344.427.218.673C43.184 75.434 43 76.199 43 77c0 2.757 2.243 5 5 5 .276 0 .5.224.5.5S48.276 83 48 83z"/><path fill="#1f212b" d="M48 87c-5.514 0-10-4.486-10-10s4.486-10 10-10 10 4.486 10 10S53.514 87 48 87zM48 69c-4.411 0-8 3.589-8 8s3.589 8 8 8 8-3.589 8-8S52.411 69 48 69zM70 78c-4.963 0-9-4.038-9-9s4.037-9 9-9 9 4.038 9 9S74.963 78 70 78zM70 62c-3.859 0-7 3.14-7 7s3.141 7 7 7 7-3.14 7-7S73.859 62 70 62zM78 56c-4.411 0-8-3.589-8-8s3.589-8 8-8 8 3.589 8 8S82.411 56 78 56zM78 42c-3.309 0-6 2.691-6 6s2.691 6 6 6 6-2.691 6-6S81.309 42 78 42zM69.5 36c-4.136 0-7.5-3.364-7.5-7.5s3.364-7.5 7.5-7.5 7.5 3.364 7.5 7.5S73.636 36 69.5 36zM69.5 23c-3.032 0-5.5 2.467-5.5 5.5s2.468 5.5 5.5 5.5 5.5-2.467 5.5-5.5S72.532 23 69.5 23zM48 26c-3.309 0-6-2.691-6-6s2.691-6 6-6 6 2.691 6 6S51.309 26 48 26zM48 16c-2.206 0-4 1.794-4 4s1.794 4 4 4 4-1.794 4-4S50.206 16 48 16zM27 33c-2.757 0-5-2.243-5-5s2.243-5 5-5 5 2.243 5 5S29.757 33 27 33zM27 25c-1.654 0-3 1.346-3 3s1.346 3 3 3 3-1.346 3-3S28.654 25 27 25zM18 53c-2.206 0-4-1.794-4-4s1.794-4 4-4 4 1.794 4 4S20.206 53 18 53zM18 47c-1.103 0-2 .897-2 2s.897 2 2 2 2-.897 2-2S19.103 47 18 47zM27 72c-1.654 0-3-1.346-3-3s1.346-3 3-3 3 1.346 3 3S28.654 72 27 72zM27 68c-.552 0-1 .449-1 1s.448 1 1 1 1-.449 1-1S27.552 68 27 68z"/></svg>