<svg xmlns="http://www.w3.org/2000/svg"  viewBox="0 0 100 100" width="100px" height="100px"><path fill="#60be92" d="M50 15A35 35 0 1 0 50 85A35 35 0 1 0 50 15Z"/><path fill="#a1d3a2" d="M50 19A31 31 0 1 0 50 81A31 31 0 1 0 50 19Z"/><path fill="#fefdef" d="M51.138,68.977l8-9c0.539-0.631,0.466-1.576-0.162-2.115c-0.629-0.539-1.576-0.467-2.115,0.162 L51.5,64.019V31c0-0.828-0.672-1.5-1.5-1.5s-1.5,0.672-1.5,1.5v33.018l-5.361-5.995c-0.539-0.629-1.486-0.701-2.115-0.162 c-0.346,0.297-0.523,0.717-0.523,1.14c0,0.346,0.118,0.692,0.361,0.976l8,9c0.284,0.332,0.7,0.523,1.137,0.523 S50.853,69.309,51.138,68.977z"/><path fill="#1f212b" d="M50,86c-0.552,0-1-0.447-1-1s0.448-1,1-1c18.748,0,34-15.252,34-34S68.748,16,50,16 c-0.552,0-1-0.447-1-1s0.448-1,1-1c19.851,0,36,16.149,36,36S69.851,86,50,86z"/><path fill="#1f212b" d="M50 86c-.69 0-1.376-.02-2.058-.059-.551-.031-.973-.504-.941-1.056.032-.551.517-.967 1.056-.94C48.701 83.982 49.348 84 50 84c.552 0 1 .447 1 1S50.552 86 50 86zM42.069 85.098c-.075 0-.15-.008-.227-.025-1.333-.309-2.66-.698-3.946-1.157-.521-.186-.792-.758-.606-1.277.186-.521.761-.792 1.278-.605 1.214.433 2.467.8 3.725 1.091.538.125.873.662.749 1.2C42.935 84.785 42.524 85.098 42.069 85.098zM32.786 81.482c-.167 0-.336-.042-.492-.13-1.186-.671-2.348-1.419-3.455-2.224-.447-.324-.546-.949-.221-1.396.325-.446.95-.545 1.397-.221 1.045.76 2.144 1.466 3.264 2.101.48.272.649.882.377 1.362C33.473 81.3 33.135 81.482 32.786 81.482zM24.904 75.396c-.26 0-.521-.102-.717-.303-.953-.979-1.859-2.023-2.692-3.103-.337-.438-.257-1.065.181-1.403.436-.336 1.065-.256 1.402.181.787 1.02 1.642 2.005 2.542 2.931.385.396.376 1.029-.02 1.414C25.407 75.303 25.155 75.396 24.904 75.396zM19.045 67.347c-.359 0-.706-.193-.885-.532-.64-1.209-1.215-2.466-1.709-3.733-.201-.515.054-1.095.568-1.295.514-.204 1.094.054 1.295.568.467 1.197 1.01 2.383 1.614 3.524.258.488.072 1.094-.416 1.352C19.363 67.31 19.203 67.347 19.045 67.347zM15.694 57.973c-.466 0-.883-.327-.979-.802-.27-1.334-.466-2.702-.583-4.067-.047-.55.361-1.034.911-1.081.557-.052 1.035.36 1.082.911.11 1.289.295 2.581.55 3.841.11.541-.24 1.069-.782 1.179C15.826 57.967 15.759 57.973 15.694 57.973zM15.125 48.033c-.028 0-.056-.001-.085-.004-.55-.046-.959-.529-.913-1.08.115-1.364.309-2.732.577-4.067.108-.542.631-.896 1.177-.784.542.108.892.636.784 1.177-.253 1.261-.436 2.554-.544 3.843C16.077 47.639 15.64 48.033 15.125 48.033zM17.363 38.33c-.121 0-.243-.021-.362-.067-.515-.2-.77-.78-.57-1.295.496-1.275 1.07-2.534 1.706-3.739.258-.488.861-.675 1.351-.418.488.258.675.863.417 1.352-.601 1.138-1.142 2.325-1.61 3.53C18.142 38.088 17.764 38.33 17.363 38.33zM22.258 29.656c-.213 0-.428-.067-.61-.208-.438-.337-.519-.965-.182-1.402.833-1.082 1.738-2.127 2.688-3.106.385-.397 1.018-.405 1.414-.021.396.385.406 1.018.021 1.414-.897.925-1.752 1.912-2.54 2.935C22.854 29.522 22.557 29.656 22.258 29.656zM29.392 22.707c-.309 0-.613-.143-.809-.41-.326-.446-.228-1.072.218-1.397 1.103-.806 2.264-1.555 3.45-2.229.479-.272 1.091-.104 1.363.376s.104 1.091-.376 1.364c-1.12.636-2.216 1.344-3.258 2.104C29.803 22.645 29.596 22.707 29.392 22.707zM38.186 18.044c-.41 0-.795-.254-.941-.663-.186-.52.084-1.092.604-1.278 1.287-.461 2.613-.852 3.942-1.161.536-.123 1.076.209 1.201.747.125.537-.209 1.075-.747 1.2-1.254.293-2.506.661-3.721 1.097C38.412 18.025 38.298 18.044 38.186 18.044zM47.999 16.057c-.526 0-.967-.411-.998-.942-.032-.552.39-1.024.941-1.056C48.624 14.02 49.31 14 50 14c.552 0 1 .447 1 1s-.448 1-1 1c-.652 0-1.299.018-1.942.055C48.038 16.056 48.019 16.057 47.999 16.057zM65.5 24.227c-.086 0-.174-.022-.254-.069-.637-.376-1.299-.734-1.968-1.066-.248-.123-.349-.423-.226-.671.122-.247.423-.348.67-.226.691.343 1.375.714 2.032 1.102.238.141.316.447.176.685C65.837 24.139 65.67 24.227 65.5 24.227zM68.5 26.249c-.106 0-.212-.033-.303-.103-.323-.247-.651-.487-.984-.721-.226-.159-.28-.471-.122-.696.158-.226.471-.281.697-.122.343.241.683.489 1.016.744.219.168.261.481.093.701C68.799 26.182 68.65 26.249 68.5 26.249z"/><path fill="#1f212b" d="M50,81c-17.093,0-31-13.906-31-31s13.907-31,31-31c3.666,0,7.256,0.635,10.672,1.887 c0.259,0.096,0.393,0.383,0.297,0.642c-0.095,0.261-0.382,0.393-0.641,0.298C57.023,20.614,53.548,20,50,20 c-16.542,0-30,13.458-30,30s13.458,30,30,30s30-13.458,30-30c0-8.439-3.585-16.536-9.836-22.213 c-0.205-0.186-0.22-0.502-0.034-0.706c0.186-0.204,0.503-0.219,0.706-0.034C77.295,32.913,81,41.279,81,50 C81,67.094,67.093,81,50,81z"/><path fill="#1f212b" d="M40.002,59.001c0-0.585,0.254-1.139,0.698-1.52c0.405-0.348,0.922-0.517,1.454-0.476 c0.532,0.041,1.018,0.287,1.365,0.692l4.481,5.011V31c0-1.103,0.897-2,2-2s2,0.897,2,2v31.71l4.488-5.02 c0.71-0.829,1.975-0.926,2.812-0.208c0.835,0.718,0.934,1.982,0.217,2.82l-8.004,9.004C51.135,69.747,50.583,70,50,70 c-0.586,0-1.139-0.254-1.518-0.698l-7.993-8.993C40.173,59.939,40.002,59.477,40.002,59.001z M51.001,31c0-0.551-0.448-1-1-1 s-1,0.449-1,1v33.018c0,0.208-0.128,0.393-0.321,0.467c-0.194,0.074-0.413,0.021-0.552-0.134l-5.361-5.995 c-0.365-0.426-0.997-0.475-1.416-0.116c-0.404,0.347-0.457,1.004-0.107,1.412l7.994,8.993C49.432,68.874,49.708,69,50,69 s0.569-0.127,0.76-0.349c0.001-0.002,0.003-0.004,0.005-0.006l8-9c0.354-0.412,0.305-1.045-0.114-1.404 c-0.418-0.358-1.05-0.31-1.408,0.108l-5.368,6.003c-0.139,0.154-0.357,0.208-0.552,0.134c-0.193-0.074-0.321-0.26-0.321-0.467V31z"/></svg>