<svg xmlns="http://www.w3.org/2000/svg"  viewBox="0 0 100 100" width="100px" height="100px"><path fill="#8f9eb6" d="M84,73H15c-2.209,0-4-1.791-4-4V27c0-2.209,1.791-4,4-4h69c2.209,0,4,1.791,4,4v42 C88,71.209,86.209,73,84,73z"/><path fill="#ceccbe" d="M19,31.5v33c0,1.38,1.12,2.5,2.5,2.5h35c1.38,0,2.5-1.12,2.5-2.5v-33c0-1.38-1.12-2.5-2.5-2.5h-35 C20.12,29,19,30.12,19,31.5z"/><path fill="#1f212b" d="M84,74H15c-2.757,0-5-2.243-5-5V27c0-2.757,2.243-5,5-5h69c2.757,0,5,2.243,5,5v42 C89,71.757,86.757,74,84,74z M15,24c-1.654,0-3,1.346-3,3v42c0,1.654,1.346,3,3,3h69c1.654,0,3-1.346,3-3V27c0-1.654-1.346-3-3-3H15 z"/><path fill="#1f212b" d="M50.5 63h-27c-.276 0-.5-.224-.5-.5v-29c0-.276.224-.5.5-.5h3c.276 0 .5.224.5.5S26.776 34 26.5 34H24v28h26.5c.276 0 .5.224.5.5S50.776 63 50.5 63zM54.5 53c-.276 0-.5-.224-.5-.5V34H33.5c-.276 0-.5-.224-.5-.5s.224-.5.5-.5h21c.276 0 .5.224.5.5v19C55 52.776 54.776 53 54.5 53zM30.5 34h-2c-.276 0-.5-.224-.5-.5s.224-.5.5-.5h2c.276 0 .5.224.5.5S30.776 34 30.5 34z"/><path fill="#1f212b" d="M56.5,67h-35c-1.379,0-2.5-1.121-2.5-2.5v-33c0-1.379,1.121-2.5,2.5-2.5h35 c1.379,0,2.5,1.121,2.5,2.5v33C59,65.879,57.879,67,56.5,67z M21.5,30c-0.827,0-1.5,0.673-1.5,1.5v33c0,0.827,0.673,1.5,1.5,1.5h35 c0.827,0,1.5-0.673,1.5-1.5v-33c0-0.827-0.673-1.5-1.5-1.5H21.5z"/></svg>