<svg xmlns="http://www.w3.org/2000/svg"  viewBox="0 0 100 100" width="100px" height="100px"><path fill="#60be92" d="M15,73h69c2.209,0,4-1.791,4-4V27c0-2.209-1.791-4-4-4H15c-2.209,0-4,1.791-4,4v42 C11,71.209,12.791,73,15,73z"/><path fill="#fef6aa" d="M80,31.5v33c0,1.38-1.12,2.5-2.5,2.5h-35c-1.38,0-2.5-1.12-2.5-2.5v-33c0-1.38,1.12-2.5,2.5-2.5h35 C78.88,29,80,30.12,80,31.5z"/><path fill="#1f212b" d="M84,74H15c-2.757,0-5-2.243-5-5V27c0-2.757,2.243-5,5-5h69c2.757,0,5,2.243,5,5v42 C89,71.757,86.757,74,84,74z M15,24c-1.654,0-3,1.346-3,3v42c0,1.654,1.346,3,3,3h69c1.654,0,3-1.346,3-3V27c0-1.654-1.346-3-3-3H15 z"/><path fill="#1f212b" d="M71.5 63h-27c-.276 0-.5-.224-.5-.5v-29c0-.276.224-.5.5-.5h3c.276 0 .5.224.5.5S47.776 34 47.5 34H45v28h26.5c.276 0 .5.224.5.5S71.776 63 71.5 63zM75.5 53c-.276 0-.5-.224-.5-.5V34H54.5c-.276 0-.5-.224-.5-.5s.224-.5.5-.5h21c.276 0 .5.224.5.5v19C76 52.776 75.776 53 75.5 53zM51.5 34h-2c-.276 0-.5-.224-.5-.5s.224-.5.5-.5h2c.276 0 .5.224.5.5S51.776 34 51.5 34z"/><path fill="#1f212b" d="M77.5,67h-35c-1.379,0-2.5-1.121-2.5-2.5v-33c0-1.379,1.121-2.5,2.5-2.5h35 c1.379,0,2.5,1.121,2.5,2.5v33C80,65.879,78.879,67,77.5,67z M42.5,30c-0.827,0-1.5,0.673-1.5,1.5v33c0,0.827,0.673,1.5,1.5,1.5h35 c0.827,0,1.5-0.673,1.5-1.5v-33c0-0.827-0.673-1.5-1.5-1.5H42.5z"/></svg>