<svg xmlns="http://www.w3.org/2000/svg"  viewBox="0 0 100 100" width="100px" height="100px"><path fill="#a1d3a2" d="M81 81L19 81 19 34 50 16 81 34z"/><path fill="#1f212b" d="M81.502,33.135l-31-18c-0.311-0.18-0.693-0.18-1.004,0l-31,18C18.189,33.314,18,33.644,18,34v47c0,0.553,0.448,1,1,1h62c0.552,0,1-0.447,1-1V34C82,33.644,81.811,33.314,81.502,33.135z M80,80H20V34.576l30-17.42l30,17.42V80z"/><path fill="#1f212b" d="M61.5 47h7c.276 0 .5-.224.5-.5S68.776 46 68.5 46h-7c-.276 0-.5.224-.5.5S61.224 47 61.5 47zM31 46.5c0 .276.224.5.5.5h25.107c.276 0 .5-.224.5-.5s-.224-.5-.5-.5H31.5C31.224 46 31 46.224 31 46.5zM68.5 56h-1c-.276 0-.5.224-.5.5s.224.5.5.5h1c.276 0 .5-.224.5-.5S68.776 56 68.5 56zM64.5 57c.276 0 .5-.224.5-.5S64.776 56 64.5 56h-3c-.276 0-.5.224-.5.5s.224.5.5.5H64.5zM34 56.5c0 .276.224.5.5.5h23c.276 0 .5-.224.5-.5S57.776 56 57.5 56h-23C34.224 56 34 56.224 34 56.5zM68.5 51h-30c-.276 0-.5.224-.5.5s.224.5.5.5h30c.276 0 .5-.224.5-.5S68.776 51 68.5 51zM35.464 51H31.5c-.276 0-.5.224-.5.5s.224.5.5.5h3.964c.276 0 .5-.224.5-.5S35.741 51 35.464 51zM68.5 61h-21c-.276 0-.5.224-.5.5s.224.5.5.5h21c.276 0 .5-.224.5-.5S68.776 61 68.5 61zM41.5 61h-10c-.276 0-.5.224-.5.5s.224.5.5.5h10c.276 0 .5-.224.5-.5S41.776 61 41.5 61z"/></svg>