<svg xmlns="http://www.w3.org/2000/svg"  viewBox="0 0 100 100" width="100px" height="100px"><path fill="#f37e98" d="M71,82H29c-6.075,0-11-4.925-11-11V29c0-6.075,4.925-11,11-11h42c6.075,0,11,4.925,11,11v42C82,77.075,77.075,82,71,82z"/><path fill="#f4cccb" d="M75,29v42c0,2.21-1.79,4-4,4H29c-2.21,0-4-1.79-4-4V29c0-2.21,1.79-4,4-4h42C73.21,25,75,26.79,75,29z"/><path fill="#1f212b" d="M71 75H29c-2.206 0-4-1.794-4-4V29c0-2.206 1.794-4 4-4h3.5c.276 0 .5.224.5.5S32.776 26 32.5 26H29c-1.654 0-3 1.346-3 3v42c0 1.654 1.346 3 3 3h42c1.654 0 3-1.346 3-3v-2.5c0-.276.224-.5.5-.5s.5.224.5.5V71C75 73.206 73.206 75 71 75zM74.5 59c-.276 0-.5-.224-.5-.5V29c0-1.654-1.346-3-3-3H45.5c-.276 0-.5-.224-.5-.5s.224-.5.5-.5H71c2.206 0 4 1.794 4 4v29.5C75 58.776 74.776 59 74.5 59zM42.5 26h-3c-.276 0-.5-.224-.5-.5s.224-.5.5-.5h3c.276 0 .5.224.5.5S42.776 26 42.5 26zM36.5 26h-2c-.276 0-.5-.224-.5-.5s.224-.5.5-.5h2c.276 0 .5.224.5.5S36.776 26 36.5 26z"/><path fill="#1f212b" d="M71,83H29c-6.617,0-12-5.383-12-12V29c0-6.617,5.383-12,12-12h42c6.617,0,12,5.383,12,12v42C83,77.617,77.617,83,71,83z M29,19c-5.514,0-10,4.486-10,10v42c0,5.514,4.486,10,10,10h42c5.514,0,10-4.486,10-10V29c0-5.514-4.486-10-10-10H29z"/></svg>