<svg xmlns="http://www.w3.org/2000/svg"  viewBox="0 0 100 100" width="100px" height="100px"><path fill="#78cdd4" d="M76,84H39c-4.418,0-8-3.582-8-8V39c0-4.418,3.582-8,8-8h37c4.418,0,8,3.582,8,8v37 C84,80.418,80.418,84,76,84z"/><path fill="#a1d3a2" d="M61,69H24c-4.418,0-8-3.582-8-8V24c0-4.418,3.582-8,8-8h37c4.418,0,8,3.582,8,8v37 C69,65.418,65.418,69,61,69z"/><path fill="#1f212b" d="M76,85H39c-4.962,0-9-4.037-9-9v-2c0-0.553,0.448-1,1-1s1,0.447,1,1v2c0,3.859,3.14,7,7,7h37 c3.86,0,7-3.141,7-7V39c0-3.859-3.14-7-7-7h-2c-0.552,0-1-0.447-1-1s0.448-1,1-1h2c4.962,0,9,4.037,9,9v37 C85,80.963,80.962,85,76,85z"/><path fill="#1f212b" d="M60.5,65h-36c-2.481,0-4.5-2.019-4.5-4.5v-36c0-2.481,2.019-4.5,4.5-4.5h29 c0.276,0,0.5,0.224,0.5,0.5S53.776,21,53.5,21h-29c-1.93,0-3.5,1.57-3.5,3.5v36c0,1.93,1.57,3.5,3.5,3.5h36 c1.93,0,3.5-1.57,3.5-3.5V43c0-0.276,0.224-0.5,0.5-0.5S65,42.724,65,43v17.5C65,62.981,62.981,65,60.5,65z M64.5,40 c-0.276,0-0.5-0.224-0.5-0.5v-4c0-0.276,0.224-0.5,0.5-0.5s0.5,0.224,0.5,0.5v4C65,39.776,64.776,40,64.5,40z M64.5,34 c-0.276,0-0.5-0.224-0.5-0.5v-2c0-0.276,0.224-0.5,0.5-0.5s0.5,0.224,0.5,0.5v2C65,33.776,64.776,34,64.5,34z"/><path fill="#1f212b" d="M61,70H24c-4.962,0-9-4.037-9-9V24c0-4.963,4.038-9,9-9h37c4.962,0,9,4.037,9,9v37 C70,65.963,65.962,70,61,70z M24,17c-3.86,0-7,3.141-7,7v37c0,3.859,3.14,7,7,7h37c3.86,0,7-3.141,7-7V24c0-3.859-3.14-7-7-7H24z"/></svg>