<svg xmlns="http://www.w3.org/2000/svg"  viewBox="0 0 100 100" width="100px" height="100px"><path fill="#8f9eb6" d="M69,84H43c-8.284,0-15-6.716-15-15V48c0-2.761,2.239-5,5-5h46c2.761,0,5,2.239,5,5v21 C84,77.284,77.284,84,69,84z"/><path fill="#fcba7f" d="M28 51H84V61H28z"/><path fill="#4e6d91" d="M59.5,77.5l-1.896-7.583C58.152,69.459,58.5,68.77,58.5,68c0-1.381-1.119-2.5-2.5-2.5 s-2.5,1.119-2.5,2.5c0,0.77,0.348,1.459,0.896,1.917L52.5,77.5H59.5z"/><path fill="#b3b2c3" d="M25.766,14.014C13.819,13.589,4,23.148,4,35v0.5C4,37.433,5.567,39,7.5,39s3.5-1.567,3.5-3.5v-0.105 c0-7.538,5.793-14.025,13.323-14.379C32.363,20.637,39,27.044,39,35v7.5h7v-6.997C46,24.116,37.146,14.418,25.766,14.014z"/><path fill="#1f212b" d="M69,85H43c-8.822,0-16-7.178-16-16V48c0-3.309,2.691-6,6-6h46c3.309,0,6,2.691,6,6v21 C85,77.822,77.822,85,69,85z M33,44c-2.206,0-4,1.794-4,4v21c0,7.72,6.28,14,14,14h26c7.72,0,14-6.28,14-14V48c0-2.206-1.794-4-4-4 H33z"/><path fill="#1f212b" d="M47 42.5h-2v-6.997c0-10.92-8.644-20.112-19.27-20.49-5.483-.191-10.678 1.792-14.618 5.595C7.171 24.412 5 29.523 5 35v.5C5 36.878 6.122 38 7.5 38s2.5-1.122 2.5-2.5v-.105c0-8.247 6.271-15.001 14.276-15.378 4.154-.189 8.081 1.271 11.076 4.128C38.35 27.004 40 30.859 40 35v7.5h-2V35c0-3.588-1.431-6.93-4.028-9.408-2.596-2.477-6.002-3.752-9.602-3.577C17.434 22.341 12 28.218 12 35.395V35.5c0 2.481-2.019 4.5-4.5 4.5S3 37.981 3 35.5V35c0-6.024 2.388-11.647 6.724-15.832 4.334-4.183 10.038-6.357 16.078-6.155C37.49 13.43 47 23.518 47 35.503V42.5zM84 52H71.5c-.276 0-.5-.224-.5-.5s.224-.5.5-.5H84c.276 0 .5.224.5.5S84.276 52 84 52zM68.5 52h-5c-.276 0-.5-.224-.5-.5s.224-.5.5-.5h5c.276 0 .5.224.5.5S68.776 52 68.5 52zM60.5 52H28c-.276 0-.5-.224-.5-.5S27.724 51 28 51h32.5c.276 0 .5.224.5.5S60.776 52 60.5 52zM28 60H84V61H28zM59.5 78h-7c-.154 0-.3-.071-.395-.192s-.128-.279-.091-.429l1.825-7.298C53.303 69.525 53 68.783 53 68c0-1.654 1.346-3 3-3s3 1.346 3 3c0 .783-.303 1.525-.84 2.081l1.825 7.298c.037.149.004.308-.091.429S59.654 78 59.5 78zM53.141 77h5.719l-1.741-6.962c-.046-.186.018-.382.165-.505C57.738 69.153 58 68.594 58 68c0-1.103-.897-2-2-2s-2 .897-2 2c0 .594.262 1.153.717 1.533.147.123.211.319.165.505L53.141 77z"/><path fill="#1f212b" d="M26.018 55.505H37.464V56.505H26.018z" transform="rotate(-54.942 31.742 56.004)"/><path fill="#1f212b" d="M34.018 55.505H45.464V56.505H34.018z" transform="rotate(-54.942 39.742 56.003)"/><path fill="#1f212b" d="M42.018 55.505H53.464V56.505H42.018z" transform="rotate(-54.942 47.743 56.003)"/><path fill="#1f212b" d="M50.018 55.505H61.464V56.505H50.018z" transform="rotate(-54.942 55.743 56.003)"/><path fill="#1f212b" d="M58.018 55.505H69.464V56.505H58.018z" transform="rotate(-54.942 63.743 56.003)"/><path fill="#1f212b" d="M66.018 55.505H77.464V56.505H66.018z" transform="rotate(-54.942 71.743 56.003)"/><path fill="#1f212b" d="M74.018 55.505H85.464V56.505H74.018z" transform="rotate(-54.942 79.743 56.002)"/></svg>