<svg xmlns="http://www.w3.org/2000/svg"  viewBox="0 0 100 100" width="100px" height="100px"><path fill="#edbc94" d="M48.89,68.4C46.98,69.94,42.83,71,38,71s-8.98-1.06-10.89-2.61l0.85-0.3l1.92-0.72c1.08-0.35,1.14-1.77,1.12-2.41V62h14v2.99c-0.03,0.9,0.13,2.03,1.06,2.36l1.98,0.75L48.89,68.4z"/><path fill="#edbc94" d="M38,62c-2.61,0-5.03,0.31-7,0.85V62H38z"/><path fill="#78a2d2" d="M65,81H11l0.27-1.22c0.85-3.78,3.49-6.89,7.09-8.31l8.75-3.08C29.02,69.94,33.17,71,38,71s8.98-1.06,10.89-2.6l8.73,3.05c3.61,1.43,6.26,4.55,7.11,8.33L65,81z"/><path fill="#fed5b3" d="M55.9,43.81c-0.61,1.66-1.83,4.99-1.99,5.48c-0.15,0.45-0.49,0.77-0.74,0.89L52,50.71V53c0,2.14-0.36,3.43-0.66,3.89C47.84,62.14,40.69,65,38,65s-9.84-2.86-13.34-8.11C24.36,56.43,24,55.14,24,53v-2.29l-1.17-0.53c-0.25-0.12-0.59-0.44-0.74-0.89c-0.16-0.49-1.38-3.82-1.99-5.48c-0.21-0.57-0.04-1.2,0.43-1.59L22,41v-6.64c0-8.71,6.81-16.11,15.52-16.35C46.72,17.75,54,24.87,54,34v7l1.47,1.22C55.94,42.61,56.11,43.24,55.9,43.81z"/><path fill="#1f212b" d="M64.972 77.363c-.012-.04-.027-.075-.047-.11-1.333-3.046-3.8-5.49-6.975-6.747l-9.556-3.342-2-.757c-.322-.114-.415-.789-.395-1.417v-1.855c2.31-1.401 4.581-3.304 6.178-5.699C52.692 56.646 53 54.987 53 53v-1.646l.603-.273c.439-.211 1.001-.709 1.258-1.48.132-.401 1.118-3.104 1.979-5.446.354-.961.061-2.048-.73-2.704L55 40.53V34c0-4.696-1.81-9.041-5.096-12.236-3.291-3.198-7.702-4.884-12.412-4.754C28.398 17.261 21 25.044 21 34.36v6.17l-1.109.92c-.791.657-1.083 1.744-.729 2.704.87 2.368 1.846 5.042 1.98 5.452.255.766.816 1.264 1.276 1.484L23 51.354V53c0 1.988.308 3.647.828 4.444 1.594 2.391 3.863 4.291 6.172 5.692l0 1.855c.019.589-.083 1.315-.472 1.442l-11.536 4.105c-3.896 1.537-6.774 4.909-7.7 9.025l-.27 1.22c-.065.296.007.605.197.842S10.697 82 11 82h54c.303 0 .59-.138.779-.374.19-.236.263-.546.197-.842l-.271-1.224C65.534 78.797 65.274 78.069 64.972 77.363zM25.498 56.343C25.369 56.146 25 55.106 25 53v-2.29c0-.393-.229-.749-.587-.911l-1.144-.518c-.042-.023-.174-.141-.228-.301-.171-.525-1.457-4.032-2.002-5.517-.063-.173-.013-.354.131-.475l1.47-1.22C22.868 41.579 23 41.298 23 41v-6.64c0-8.243 6.526-15.13 14.548-15.351.153-.005.306-.007.459-.007 3.995 0 7.71 1.48 10.503 4.195C51.405 26.013 53 29.849 53 34v7c0 .298.133.579.361.77l1.47 1.22c.145.12.194.302.131.475 0 0 0 0 0 .001-.185.501-1.806 4.913-2 5.509-.056.167-.188.284-.205.295l-1.17.53C51.229 49.961 51 50.317 51 50.71V53c0 2.105-.369 3.146-.492 3.335C47.136 61.393 40.212 64 38 64S28.864 61.393 25.498 56.343zM12.246 80c.779-3.466 3.202-6.307 6.446-7.587l9.401-3.31C30.273 70.286 33.923 71 38 71c.516 0 1.025-.012 1.523-.035.276-.012.489-.246.477-.521-.012-.276-.245-.527-.522-.477C38.994 69.988 38.5 70 38 70c-3.387 0-6.517-.524-8.596-1.384l.785-.295c1.206-.392 1.866-1.628 1.812-3.361v-.735C34.414 65.397 36.667 66 38 66c1.333 0 3.586-.603 6-1.776l0 .733c-.079 2.341 1.047 3.095 1.706 3.328l.885.335c-.636.261-1.376.495-2.207.693-.269.064-.435.334-.371.603.055.229.26.384.486.384.039 0 .078-.004.116-.014 1.304-.311 2.408-.714 3.273-1.179l9.363 3.273c2.275.901 4.122 2.55 5.314 4.62H25.5c-.276 0-.5.224-.5.5s.224.5.5.5h37.574c.283.638.523 1.301.68 1.996L63.755 80H12.246zM90.5 49h-26c-.276 0-.5.224-.5.5s.224.5.5.5h26c.276 0 .5-.224.5-.5S90.776 49 90.5 49z"/><path fill="#1f212b" d="M59.5 50h2c.276 0 .5-.224.5-.5S61.776 49 61.5 49h-2c-.276 0-.5.224-.5.5S59.224 50 59.5 50zM90.5 39h-28c-.276 0-.5.224-.5.5s.224.5.5.5h28c.276 0 .5-.224.5-.5S90.776 39 90.5 39zM84.5 30h6c.276 0 .5-.224.5-.5S90.776 29 90.5 29h-6c-.276 0-.5.224-.5.5S84.224 30 84.5 30zM62.5 30h18.938c.276 0 .5-.224.5-.5s-.224-.5-.5-.5H62.5c-.276 0-.5.224-.5.5S62.224 30 62.5 30zM90.5 59h-29c-.276 0-.5.224-.5.5s.224.5.5.5h29c.276 0 .5-.224.5-.5S90.776 59 90.5 59zM90.5 69h-26c-.276 0-.5.224-.5.5s.224.5.5.5h26c.276 0 .5-.224.5-.5S90.776 69 90.5 69zM22.5 77h-2c-.276 0-.5.224-.5.5s.224.5.5.5h2c.276 0 .5-.224.5-.5S22.776 77 22.5 77zM18.5 77h-1c-.276 0-.5.224-.5.5s.224.5.5.5h1c.276 0 .5-.224.5-.5S18.776 77 18.5 77zM41.5 70.812c.019 0 .037-.001.056-.003.346-.039.686-.083 1.017-.131.273-.041.462-.295.422-.567-.041-.273-.288-.455-.567-.423-.32.048-.648.09-.983.127-.274.031-.472.278-.441.553C41.032 70.623 41.248 70.812 41.5 70.812z"/></svg>