<svg xmlns="http://www.w3.org/2000/svg"  viewBox="0 0 100 100" width="100px" height="100px"><path fill="#60be92" d="M86,50c0-5.301-3.199-9.801-7.699-11.898C78.699,36.801,79,35.398,79,34c0-7.199-5.801-13-13-13	c-1.5,0-2.801,0.199-4.102,0.699C59.898,17.199,55.301,14,50,14s-9.801,3.199-11.898,7.699C36.801,21.199,35.5,21,34,21	c-7.199,0-13,5.801-13,13c0,1.5,0.199,2.801,0.699,4.102C17.199,40.102,14,44.699,14,50s3.199,9.801,7.699,11.898	C21.199,63.199,21,64.5,21,66c0,7.199,5.801,13,13,13c1.5,0,2.801-0.199,4.102-0.699C40.102,82.801,44.699,86,50,86	s9.801-3.199,11.898-7.699C63.199,78.699,64.602,79,66,79c7.199,0,13-5.801,13-13c0-1.5-0.199-2.801-0.699-4.102	C82.801,59.801,86,55.301,86,50z"/><path fill="#1f212b" d="M50,83c-3.982,0-7.577-2.315-9.157-5.899c-0.498-1.073-1.601-1.8-2.742-1.8	c-0.278,0-0.498,0.058-0.802,0.138l-0.176,0.046C35.978,75.829,34.95,76,34,76c-5.514,0-10-4.486-10-10	c0-0.949,0.17-1.979,0.521-3.144c0.509-1.438-0.222-3.087-1.62-3.699C19.312,57.472,17,53.88,17,50c0-2.54,0.972-4.97,2.738-6.843	c0.189-0.201,0.506-0.21,0.707-0.021c0.201,0.189,0.21,0.506,0.021,0.707C18.875,45.53,18,47.716,18,50	c0,3.494,2.086,6.73,5.314,8.247c1.856,0.812,2.83,3.021,2.157,4.92C25.157,64.215,25,65.149,25,66c0,4.963,4.038,9,9,9	c0.851,0,1.785-0.156,2.856-0.479l0.189-0.05c0.334-0.088,0.649-0.171,1.057-0.171c1.522,0,2.99,0.959,3.653,2.388	C43.179,79.918,46.414,82,50,82c3.548,0,6.707-2.036,8.247-5.314c0.811-1.856,3.021-2.831,4.92-2.157C64.215,74.844,65.149,75,66,75	c4.963,0,9-4.037,9-9c0-0.851-0.156-1.785-0.479-2.856c-0.691-1.951,0.266-4.116,2.187-4.906C79.918,56.821,82,53.586,82,50	c0-0.276,0.224-0.5,0.5-0.5S83,49.724,83,50c0,3.982-2.315,7.576-5.899,9.156c-1.439,0.593-2.15,2.206-1.629,3.677	C75.829,64.021,76,65.051,76,66c0,5.514-4.486,10-10,10c-0.949,0-1.979-0.171-3.144-0.521c-1.439-0.507-3.088,0.223-3.699,1.62	C57.446,80.743,53.939,83,50,83z M23,41.898c-0.276,0-0.5-0.224-0.5-0.5c0-0.289,0.196-0.523,0.465-0.583	c1.392-0.605,2.078-2.196,1.563-3.648C24.17,35.978,24,34.95,24,34c0-5.514,4.486-10,10-10c0.95,0,1.978,0.17,3.144,0.521	c1.436,0.508,3.086-0.221,3.699-1.62C42.554,19.256,46.061,17,50,17c3.982,0,7.576,2.316,9.156,5.9	c0.112,0.252-0.003,0.548-0.255,0.659c-0.256,0.109-0.548-0.004-0.659-0.256C56.821,20.082,53.586,18,50,18	c-3.547,0-6.708,2.036-8.247,5.314c-0.813,1.856-3.023,2.827-4.92,2.157C35.785,25.157,34.851,25,34,25c-4.962,0-9,4.038-9,9	c0,0.851,0.157,1.785,0.479,2.856c0.681,1.922-0.238,4.052-2.102,4.871C23.285,41.832,23.15,41.898,23,41.898z M76.898,41.801	c-0.067,0-0.135-0.013-0.2-0.042c-1.868-0.817-2.842-3.027-2.17-4.926C74.844,35.785,75,34.851,75,34	c0-3.353-1.814-6.402-4.735-7.957c-0.243-0.13-0.336-0.433-0.206-0.676c0.131-0.245,0.434-0.334,0.677-0.207	C73.982,26.89,76,30.277,76,34c0,0.95-0.171,1.978-0.521,3.144c-0.508,1.438,0.222,3.087,1.62,3.699	c0.253,0.111,0.368,0.405,0.258,0.659C77.274,41.689,77.091,41.801,76.898,41.801z M63,25.5c-0.198,0-0.387-0.119-0.465-0.315	c-0.102-0.256,0.023-0.547,0.279-0.649c0.563-0.224,1.132-0.335,1.59-0.425c0.267-0.052,0.534,0.123,0.587,0.395	c0.053,0.271-0.124,0.534-0.396,0.586c-0.529,0.104-0.97,0.197-1.41,0.372C63.124,25.489,63.062,25.5,63,25.5z M68.5,25.301	c-0.052,0-0.105-0.008-0.157-0.025C67.799,25.095,67.161,25,66.5,25c-0.276,0-0.5-0.224-0.5-0.5s0.224-0.5,0.5-0.5	c0.767,0,1.513,0.113,2.157,0.326c0.262,0.087,0.404,0.37,0.317,0.632C68.905,25.168,68.71,25.301,68.5,25.301z"/><path fill="#1f212b" d="M50,87c-5.236,0-10.013-2.904-12.414-7.471C36.488,79.849,35.327,80,34,80c-7.72,0-14-6.28-14-14	c0-1.332,0.152-2.498,0.475-3.6C15.906,59.915,13,55.141,13,50c0-5.236,2.904-10.013,7.471-12.414C20.151,36.488,20,35.327,20,34	c0-7.72,6.28-14,14-14c1.333,0,2.498,0.152,3.6,0.475C40.085,15.906,44.86,13,50,13c5.236,0,10.013,2.904,12.414,7.471	C63.512,20.151,64.673,20,66,20c7.72,0,14,6.28,14,14c0,1.1-0.168,2.278-0.511,3.58C84.078,40.06,87,44.846,87,50	c0,5.141-2.906,9.915-7.475,12.4C79.848,63.502,80,64.668,80,66c0,7.72-6.28,14-14,14c-1.1,0-2.277-0.168-3.58-0.511	C59.939,84.078,55.153,87,50,87z M38.101,77.301c0.385,0,0.75,0.223,0.914,0.594C40.934,82.211,45.246,85,50,85	c4.661,0,8.976-2.796,10.992-7.122c0.211-0.45,0.718-0.682,1.199-0.533C63.631,77.785,64.877,78,66,78c6.617,0,12-5.383,12-12	c0-1.45-0.195-2.604-0.633-3.743c-0.188-0.49,0.035-1.043,0.511-1.265C82.204,58.976,85,54.661,85,50	c0-4.661-2.796-8.976-7.122-10.992c-0.452-0.21-0.68-0.722-0.533-1.199C77.785,36.369,78,35.123,78,34c0-6.617-5.383-12-12-12	c-1.45,0-2.604,0.195-3.743,0.633c-0.491,0.188-1.056-0.04-1.272-0.527C59.066,17.789,54.755,15,50,15	c-4.661,0-8.976,2.795-10.992,7.122c-0.222,0.476-0.775,0.697-1.265,0.511C36.604,22.195,35.45,22,34,22c-6.617,0-12,5.383-12,12	c0,1.45,0.195,2.604,0.633,3.743c0.191,0.497-0.041,1.057-0.527,1.272C17.789,40.934,15,45.246,15,50	c0,4.661,2.795,8.976,7.122,10.992c0.477,0.222,0.7,0.774,0.511,1.265C22.195,63.396,22,64.55,22,66c0,6.617,5.383,12,12,12	c1.45,0,2.604-0.195,3.743-0.633C37.86,77.322,37.982,77.301,38.101,77.301z"/><path fill="#fefdef" d="M47.5,61.5c-0.5,0-1-0.199-1.301-0.5l-12-12c-0.801-0.699-0.898-2-0.098-2.801	c0.699-0.801,2-0.898,2.797-0.098L47.5,56.898L65.102,39c0.797-0.801,2.098-0.699,2.797,0.102c0.801,0.797,0.703,2.098-0.098,2.797	l-19,19C48.5,61.301,48,61.5,47.5,61.5z"/><path fill="#1f212b" d="M47.5,62c-0.602,0-1.199-0.199-1.699-0.699l-12-12c-0.5-0.402-0.801-1-0.801-1.699	c0-0.703,0.199-1.301,0.602-1.801c0.898-1,2.5-1.102,3.5-0.199L47.398,56l17.301-17.398c0.5-0.5,1.102-0.703,1.801-0.703	s1.301,0.301,1.699,0.801c0.5,0.5,0.699,1.102,0.699,1.801s-0.297,1.301-0.797,1.699l-19,19C48.801,61.801,48.102,62,47.5,62z M35.5,46c-0.398,0-0.801,0.199-1.102,0.5C34.102,46.801,34,47.199,34,47.602c0,0.398,0.199,0.797,0.5,1l12,12c0.5,0.5,1.5,0.5,2,0	l19-19c0.301-0.301,0.5-0.703,0.5-1.102s-0.102-0.801-0.398-1.102c-0.301-0.297-0.602-0.5-1-0.5c-0.402,0-0.801,0.102-1.102,0.402	L47.801,57.102c-0.102,0.098-0.199,0.098-0.402,0.098c-0.098,0-0.297-0.098-0.398-0.098L36.5,46.398	C36.199,46.102,35.898,46,35.5,46z"/></svg>