<svg xmlns="http://www.w3.org/2000/svg"  viewBox="0 0 100 100" width="100px" height="100px"><path fill="#a3a3cd" d="M70.921,82.921h-41c-6.6,0-12-5.4-12-12v-41c0-6.6,5.4-12,12-12h41c6.6,0,12,5.4,12,12v41C82.921,77.521,77.521,82.921,70.921,82.921z"/><path d="M70.921,83.921h-41c-7.168,0-13-5.832-13-13v-41c0-7.168,5.832-13,13-13h41c7.168,0,13,5.832,13,13v41C83.921,78.089,78.089,83.921,70.921,83.921z M29.921,18.921c-6.065,0-11,4.935-11,11v41c0,6.065,4.935,11,11,11h41c6.065,0,11-4.935,11-11v-41c0-6.065-4.935-11-11-11H29.921z"/><path fill="#a3a3cd" d="M78.421,48.421v19.314c0,5.877-4.809,10.686-10.686,10.686H33.107c-5.877,0-10.686-4.809-10.686-10.686V33.107c0-5.877,4.809-10.686,10.686-10.686h35.314"/><path d="M67.736 78.921H33.107c-6.168 0-11.186-5.018-11.186-11.186V33.107c0-6.168 5.018-11.186 11.186-11.186h35.314c.276 0 .5.224.5.5s-.224.5-.5.5H33.107c-5.616 0-10.186 4.569-10.186 10.186v34.629c0 5.616 4.569 10.186 10.186 10.186h34.629c5.616 0 10.186-4.569 10.186-10.186V48.421c0-.276.224-.5.5-.5s.5.224.5.5v19.314C78.921 73.904 73.904 78.921 67.736 78.921zM78.421 45.921c-.276 0-.5-.224-.5-.5v-4c0-.276.224-.5.5-.5s.5.224.5.5v4C78.921 45.698 78.698 45.921 78.421 45.921zM78.421 39.921c-.276 0-.5-.224-.5-.5v-2c0-.276.224-.5.5-.5s.5.224.5.5v2C78.921 39.698 78.698 39.921 78.421 39.921z"/><path d="M50.421 63.921c-.276 0-.5-.224-.5-.5v-34c0-.276.224-.5.5-.5s.5.224.5.5v34C50.921 63.698 50.698 63.921 50.421 63.921zM50.421 72.921c-.276 0-.5-.224-.5-.5v-7c0-.276.224-.5.5-.5s.5.224.5.5v7C50.921 72.698 50.698 72.921 50.421 72.921zM32.421 38.921c-.276 0-.5-.224-.5-.5v-9c0-.276.224-.5.5-.5s.5.224.5.5v9C32.921 38.698 32.698 38.921 32.421 38.921zM32.421 72.921c-.276 0-.5-.224-.5-.5v-32c0-.276.224-.5.5-.5s.5.224.5.5v32C32.921 72.698 32.698 72.921 32.421 72.921zM41.421 50.921c-.276 0-.5-.224-.5-.5v-21c0-.276.224-.5.5-.5s.5.224.5.5v21C41.921 50.698 41.698 50.921 41.421 50.921zM41.421 72.921c-.276 0-.5-.224-.5-.5v-20c0-.276.224-.5.5-.5s.5.224.5.5v20C41.921 72.698 41.698 72.921 41.421 72.921z"/><path fill="#565fa1" d="M32.421 32.421A3 3 0 1 0 32.421 38.421A3 3 0 1 0 32.421 32.421Z"/><path d="M32.421,38.921c-1.93,0-3.5-1.57-3.5-3.5s1.57-3.5,3.5-3.5s3.5,1.57,3.5,3.5S34.351,38.921,32.421,38.921z M32.421,32.921c-1.379,0-2.5,1.121-2.5,2.5s1.121,2.5,2.5,2.5c1.379,0,2.5-1.121,2.5-2.5S33.8,32.921,32.421,32.921z"/><path fill="#565fa1" d="M41.421 44.421A3 3 0 1 0 41.421 50.421A3 3 0 1 0 41.421 44.421Z"/><path d="M41.421,50.921c-1.93,0-3.5-1.57-3.5-3.5s1.57-3.5,3.5-3.5s3.5,1.57,3.5,3.5S43.351,50.921,41.421,50.921z M41.421,44.921c-1.379,0-2.5,1.121-2.5,2.5s1.121,2.5,2.5,2.5s2.5-1.121,2.5-2.5S42.8,44.921,41.421,44.921z"/><path fill="#565fa1" d="M50.421 57.421A3 3 0 1 0 50.421 63.421A3 3 0 1 0 50.421 57.421Z"/><path d="M50.421,63.921c-1.93,0-3.5-1.57-3.5-3.5s1.57-3.5,3.5-3.5s3.5,1.57,3.5,3.5S52.351,63.921,50.421,63.921z M50.421,57.921c-1.379,0-2.5,1.121-2.5,2.5s1.121,2.5,2.5,2.5s2.5-1.121,2.5-2.5S51.8,57.921,50.421,57.921z"/><path fill="#a3a3cd" d="M67.421 38.421L67.421 29.421"/><path d="M67.421 38.921c-.276 0-.5-.224-.5-.5v-9c0-.276.224-.5.5-.5s.5.224.5.5v9C67.921 38.698 67.698 38.921 67.421 38.921zM67.421 72.921c-.276 0-.5-.224-.5-.5v-32c0-.276.224-.5.5-.5s.5.224.5.5v32C67.921 72.698 67.698 72.921 67.421 72.921z"/><path fill="#a3a3cd" d="M58.421 50.421L58.421 29.421"/><path d="M58.421 50.921c-.276 0-.5-.224-.5-.5v-21c0-.276.224-.5.5-.5s.5.224.5.5v21C58.921 50.698 58.698 50.921 58.421 50.921zM58.421 72.921c-.276 0-.5-.224-.5-.5v-20c0-.276.224-.5.5-.5s.5.224.5.5v20C58.921 72.698 58.698 72.921 58.421 72.921z"/><path fill="#565fa1" d="M67.421 32.421A3 3 0 1 0 67.421 38.421A3 3 0 1 0 67.421 32.421Z"/><path d="M67.421,38.921c-1.93,0-3.5-1.57-3.5-3.5s1.57-3.5,3.5-3.5s3.5,1.57,3.5,3.5S69.351,38.921,67.421,38.921z M67.421,32.921c-1.379,0-2.5,1.121-2.5,2.5s1.121,2.5,2.5,2.5s2.5-1.121,2.5-2.5S68.8,32.921,67.421,32.921z"/><path fill="#565fa1" d="M58.421 44.421A3 3 0 1 0 58.421 50.421A3 3 0 1 0 58.421 44.421Z"/><path d="M58.421,50.921c-1.93,0-3.5-1.57-3.5-3.5s1.57-3.5,3.5-3.5s3.5,1.57,3.5,3.5S60.351,50.921,58.421,50.921z M58.421,44.921c-1.379,0-2.5,1.121-2.5,2.5s1.121,2.5,2.5,2.5s2.5-1.121,2.5-2.5S59.8,44.921,58.421,44.921z"/></svg>