<svg xmlns="http://www.w3.org/2000/svg"  viewBox="0 0 100 100" width="100px" height="100px"><path fill="#b3b2c3" d="M15 22H85V78H15z"/><path fill="#78a2d2" d="M79,29v42c0,0.552-0.448,1-1,1H22c-0.552,0-1-0.448-1-1V29c0-0.552,0.448-1,1-1h56C78.552,28,79,28.448,79,29z"/><path fill="#fefdef" d="M58,65.5c2.485,0,4.5-2.015,4.5-4.5s-2.015-4.5-4.5-4.5c-0.243,0-0.477,0.034-0.71,0.072c0.123-0.422,0.21-0.86,0.21-1.322c0-2.623-2.127-4.75-4.75-4.75c-0.482,0-0.938,0.093-1.376,0.227C50.781,47.747,48.154,45.5,45,45.5c-2.974,0-5.477,2-6.249,4.727c-0.728-0.454-1.58-0.727-2.501-0.727c-2.623,0-4.75,2.127-4.75,4.75c0,0.823,0.228,1.585,0.596,2.26C32.063,56.509,32.033,56.5,32,56.5c-2.485,0-4.5,2.015-4.5,4.5s2.015,4.5,4.5,4.5H58z"/><path fill="#fef6aa" d="M67 35A5 5 0 1 0 67 45A5 5 0 1 0 67 35Z"/><path fill="#1f212b" d="M85,21H15c-0.552,0-1,0.447-1,1v56c0,0.553,0.448,1,1,1h70c0.552,0,1-0.447,1-1V22C86,21.447,85.552,21,85,21z M84,77H16V23h68V77z"/><path fill="#1f212b" d="M68.5 29h3c.276 0 .5-.224.5-.5S71.776 28 71.5 28h-3c-.276 0-.5.224-.5.5S68.224 29 68.5 29zM21.5 72h9c.276 0 .5-.224.5-.5S30.776 71 30.5 71H22V29h42.5c.276 0 .5-.224.5-.5S64.776 28 64.5 28h-43c-.276 0-.5.224-.5.5v43C21 71.776 21.224 72 21.5 72zM35.5 71h-3c-.276 0-.5.224-.5.5s.224.5.5.5h3c.276 0 .5-.224.5-.5S35.776 71 35.5 71zM75.5 71h-37c-.276 0-.5.224-.5.5s.224.5.5.5h37c.276 0 .5-.224.5-.5S75.776 71 75.5 71zM74.5 29H78v39.5c0 .276.224.5.5.5s.5-.224.5-.5v-40c0-.276-.224-.5-.5-.5h-4c-.276 0-.5.224-.5.5S74.224 29 74.5 29z"/><path fill="#1f212b" d="M27 61c0 2.757 2.243 5 5 5h26c2.757 0 5-2.243 5-5 0-2.778-2.281-5.084-5.064-4.999C57.979 55.742 58 55.495 58 55.25c0-2.895-2.355-5.25-5.25-5.25-.324 0-.657.037-1.009.113C50.906 47.121 48.151 45 45 45c-2.906 0-5.51 1.823-6.535 4.503C37.767 49.173 37.012 49 36.25 49 33.355 49 31 51.355 31 54.25c0 .61.111 1.211.333 1.794C28.89 56.372 27 58.47 27 61zM31.979 57c.019.002.083.009.103.01.003 0 .005-.002.008-.002.953.021 1.866.373 2.578 1.01.096.085.215.127.333.127.137 0 .274-.057.373-.167.184-.205.167-.521-.039-.706-.811-.725-1.832-1.141-2.908-1.234C32.149 55.458 32 54.859 32 54.25c0-2.344 1.907-4.25 4.25-4.25.779 0 1.553.226 2.236.651.134.084.299.1.445.043.146-.057.258-.18.301-.33C39.959 47.795 42.332 46 45 46c2.853 0 5.328 2.029 5.883 4.824.027.139.112.259.233.331s.268.092.403.05C51.978 51.065 52.368 51 52.75 51c2.343 0 4.25 1.906 4.25 4.25 0 .362-.06.738-.189 1.182-.048.164-.008.342.105.471s.288.189.454.163C57.576 57.032 57.784 57 58 57c2.206 0 4 1.794 4 4s-1.794 4-4 4H32c-2.206 0-4-1.794-4-4S29.794 57 31.979 57zM62 40c0 2.757 2.243 5 5 5s5-2.243 5-5-2.243-5-5-5S62 37.243 62 40zM67 36c2.206 0 4 1.794 4 4s-1.794 4-4 4-4-1.794-4-4S64.794 36 67 36z"/><path fill="#1f212b" d="M35.976,60.556C36.004,60.811,36.221,61,36.472,61c0.019,0,0.037-0.001,0.056-0.003c0.274-0.03,0.472-0.278,0.442-0.553c-0.042-0.379-0.128-0.753-0.254-1.11c-0.092-0.261-0.375-0.397-0.638-0.306c-0.26,0.092-0.397,0.378-0.305,0.638C35.874,59.952,35.942,60.252,35.976,60.556z"/></svg>