<svg xmlns="http://www.w3.org/2000/svg"  viewBox="0 0 100 100" width="100px" height="100px"><path fill="#7783ad" d="M39.361 16.948A22 22 0 1 0 39.361 60.948A22 22 0 1 0 39.361 16.948Z" transform="rotate(-45.001 39.36 38.949)"/><path fill="none" d="M54.917 54.505L59.867 59.454"/><path fill="#fcba7f" d="M81.08,80.668L81.08,80.668c-1.945,1.945-5.127,1.945-7.071,0L59.867,66.525c-1.945-1.945-1.945-5.127,0-7.071l0,0c1.945-1.945,5.127-1.945,7.071,0L81.08,73.596C83.025,75.541,83.025,78.723,81.08,80.668z"/><path fill="#78cdd4" d="M39.361 21.448A17.5 17.5 0 1 0 39.361 56.448A17.5 17.5 0 1 0 39.361 21.448Z" transform="rotate(-45.001 39.36 38.949)"/><path fill="none" d="M60.928 66.172L67.292 59.808M63.756 66.879L70.875 73.997M72.241 75.364L72.948 76.071"/><path fill="#fefdef" d="M49.14,38.208h-8.901v-8.901c0-0.445-0.364-0.809-0.809-0.809s-0.809,0.364-0.809,0.809v8.901h-8.901c-0.445,0-0.809,0.364-0.809,0.809s0.364,0.809,0.809,0.809h8.901v8.901c0,0.445,0.364,0.809,0.809,0.809s0.809-0.364,0.809-0.809v-8.901h8.901c0.445,0,0.809-0.364,0.809-0.809S49.586,38.208,49.14,38.208z"/><path fill="#1f212b" d="M81.837,73.352L67.695,59.21c-2.097-2.097-5.365-2.299-7.706-0.635l-4.068-4.068C59.834,50.253,62,44.783,62,38.969c0-6.144-2.393-11.919-6.737-16.263c-4.344-4.344-10.12-6.737-16.263-6.737s-11.919,2.393-16.263,6.737C18.393,27.049,16,32.825,16,38.969s2.393,11.919,6.737,16.263c4.344,4.344,10.12,6.737,16.263,6.737c5.8,0,11.256-2.155,15.505-6.049l4.061,4.061c-0.716,1.006-1.107,2.207-1.107,3.473c0,1.606,0.622,3.113,1.751,4.243l14.142,14.142c1.169,1.17,2.706,1.754,4.243,1.754c1.536,0,3.073-0.584,4.242-1.754C84.177,79.498,84.177,75.692,81.837,73.352z M39,59.969c-5.609,0-10.883-2.185-14.849-6.151S18,44.578,18,38.969s2.185-10.883,6.151-14.849s9.24-6.151,14.849-6.151s10.883,2.185,14.849,6.151S60,33.359,60,38.969s-2.185,10.883-6.151,14.849S44.609,59.969,39,59.969z M60.625,60.624c0.78-0.78,1.804-1.169,2.828-1.169c1.024,0,2.049,0.39,2.829,1.169l-5.657,5.657c0,0,0,0,0,0c-0.751-0.752-1.165-1.756-1.165-2.828C59.459,62.38,59.873,61.376,60.625,60.624z M80.423,80.424c-1.56,1.56-4.098,1.559-5.657,0L61.331,66.988c0,0,0,0,0,0l5.657-5.657l13.435,13.435C81.983,76.326,81.983,78.864,80.423,80.424z"/><path fill="#1f212b" d="M51.728 26.24c-7.019-7.018-18.438-7.018-25.456 0-7.018 7.018-7.018 18.438 0 25.456C29.781 55.205 34.391 56.96 39 56.96s9.219-1.754 12.728-5.263C58.746 44.678 58.746 33.259 51.728 26.24zM51.021 50.989c-6.628 6.628-17.414 6.627-24.042 0-6.628-6.628-6.628-17.414 0-24.042 3.314-3.314 7.667-4.971 12.021-4.971s8.707 1.657 12.021 4.971C57.649 33.576 57.649 44.361 51.021 50.989zM64.16 66.989c-.195-.195-.512-.195-.707 0s-.195.512 0 .707l7.119 7.118c.098.098.226.146.354.146s.256-.049.354-.146c.195-.195.195-.512 0-.707L64.16 66.989zM72.645 75.473c-.195-.195-.512-.195-.707 0-.195.195-.195.512 0 .707l.707.708c.098.098.226.146.354.146s.256-.049.354-.146c.195-.195.195-.512 0-.707L72.645 75.473z"/><path fill="#1f212b" d="M49.398,38.013c-0.065-0.03-0.136-0.045-0.208-0.045H41V29.77c0-0.074-0.017-0.147-0.048-0.214c-0.324-0.686-0.875-1.096-1.472-1.096c-0.615,0-1.183,0.444-1.447,1.13C38.011,29.648,38,29.709,38,29.77v8.199h-8.23c-0.071,0-0.142,0.015-0.208,0.045c-0.689,0.314-1.102,0.863-1.102,1.467c0,0.617,0.43,1.173,1.122,1.452c0.06,0.024,0.123,0.036,0.187,0.036H38v8.222c0,0.061,0.011,0.122,0.033,0.179c0.264,0.687,0.832,1.13,1.447,1.13c0.598,0,1.148-0.41,1.472-1.096C40.983,49.338,41,49.264,41,49.191v-8.222h8.191c0.064,0,0.127-0.012,0.187-0.036c0.692-0.279,1.122-0.835,1.122-1.452C50.5,38.876,50.088,38.328,49.398,38.013z M49.085,39.969H40.5c-0.276,0-0.5,0.224-0.5,0.5v8.602c-0.293,0.527-0.767,0.512-1,0.019v-8.621c0-0.276-0.224-0.5-0.5-0.5h-8.625c-0.218-0.107-0.415-0.289-0.415-0.488c0-0.176,0.164-0.371,0.426-0.512H38.5c0.276,0,0.5-0.224,0.5-0.5v-8.597c0.232-0.493,0.706-0.509,1,0.019v8.579c0,0.276,0.224,0.5,0.5,0.5h8.574c0.262,0.141,0.426,0.336,0.426,0.512C49.5,39.68,49.303,39.861,49.085,39.969z"/></svg>