<svg fill="#000000" xmlns="http://www.w3.org/2000/svg"  viewBox="0 0 64 64" width="64px" height="64px"><path d="M 30.925781 2.148438 C 30.519531 2.148438 30.152344 2.394531 30 2.773438 L 22.128906 22.058594 L 0.757813 24.003906 C 0.363281 24.039063 0.0234375 24.308594 -0.101563 24.691406 C -0.222656 25.074219 -0.109375 25.488281 0.191406 25.753906 L 16.324219 39.859375 L 11.367188 60.117188 C 11.269531 60.511719 11.425781 60.925781 11.75 61.164063 C 12.082031 61.398438 12.519531 61.417969 12.863281 61.203125 L 30.925781 50.027344 L 48.988281 61.203125 C 49.148438 61.304688 49.332031 61.355469 49.515625 61.355469 C 49.71875 61.355469 49.925781 61.292969 50.101563 61.164063 C 50.429688 60.925781 50.582031 60.511719 50.484375 60.117188 L 45.53125 39.859375 L 61.660156 25.753906 C 61.960938 25.488281 62.074219 25.074219 61.953125 24.691406 C 61.828125 24.308594 61.488281 24.039063 61.09375 24.003906 L 39.71875 22.058594 L 31.851563 2.773438 C 31.699219 2.394531 31.332031 2.148438 30.925781 2.148438 Z M 30.925781 5.796875 L 38.097656 23.378906 C 38.242188 23.726563 38.5625 23.960938 38.933594 23.996094 L 58.582031 25.78125 L 43.753906 38.75 C 43.476563 38.996094 43.351563 39.378906 43.441406 39.742188 L 47.964844 58.21875 L 31.453125 48 C 31.289063 47.898438 31.109375 47.851563 30.925781 47.851563 C 30.742188 47.851563 30.558594 47.898438 30.398438 48 L 13.890625 58.21875 L 18.410156 39.742188 C 18.5 39.378906 18.378906 38.996094 18.097656 38.75 L 3.265625 25.78125 L 22.917969 23.996094 C 23.289063 23.960938 23.609375 23.726563 23.75 23.378906 Z M 31 23 C 30.445313 23 30 23.445313 30 24 L 30 32 L 22 32 C 21.445313 32 21 32.445313 21 33 C 21 33.554688 21.445313 34 22 34 L 30 34 L 30 42 C 30 42.554688 30.445313 43 31 43 C 31.554688 43 32 42.554688 32 42 L 32 34 L 40 34 C 40.554688 34 41 33.554688 41 33 C 41 32.445313 40.554688 32 40 32 L 32 32 L 32 24 C 32 23.445313 31.554688 23 31 23 Z M 3 39 C 2.445313 39 2 39.445313 2 40 L 2 42 C 2 42.554688 2.445313 43 3 43 C 3.554688 43 4 42.554688 4 42 L 4 40 C 4 39.445313 3.554688 39 3 39 Z M 8 39 C 7.445313 39 7 39.445313 7 40 L 7 42 C 7 42.554688 7.445313 43 8 43 C 8.554688 43 9 42.554688 9 42 L 9 40 C 9 39.445313 8.554688 39 8 39 Z M 13 39 C 12.445313 39 12 39.445313 12 40 L 12 42 C 12 42.554688 12.445313 43 13 43 C 13.554688 43 14 42.554688 14 42 L 14 40 C 14 39.445313 13.554688 39 13 39 Z M 49 39 C 48.445313 39 48 39.445313 48 40 L 48 42 C 48 42.554688 48.445313 43 49 43 C 49.554688 43 50 42.554688 50 42 L 50 40 C 50 39.445313 49.554688 39 49 39 Z M 54 39 C 53.445313 39 53 39.445313 53 40 L 53 42 C 53 42.554688 53.445313 43 54 43 C 54.554688 43 55 42.554688 55 42 L 55 40 C 55 39.445313 54.554688 39 54 39 Z M 59 39 C 58.445313 39 58 39.445313 58 40 L 58 42 C 58 42.554688 58.445313 43 59 43 C 59.554688 43 60 42.554688 60 42 L 60 40 C 60 39.445313 59.554688 39 59 39 Z"/></svg>