<svg fill="#000000" xmlns="http://www.w3.org/2000/svg"  viewBox="0 0 64 64" width="64px" height="64px"><path d="M 3 8 C 1.351563 8 0 9.351563 0 11 L 0 45 C 0 46.648438 1.351563 48 3 48 L 16.070313 48 L 9.851563 54.628906 C 9.300781 55.222656 9.152344 56.050781 9.46875 56.789063 C 9.789063 57.539063 10.5 58 11.3125 58 L 52.6875 58 C 53.5 58 54.210938 57.539063 54.53125 56.789063 C 54.847656 56.050781 54.699219 55.222656 54.152344 54.628906 L 47.929688 48 L 61 48 C 62.648438 48 64 46.648438 64 45 L 64 11 C 64 9.351563 62.648438 8 61 8 Z M 3 10 L 61 10 C 61.550781 10 62 10.449219 62 11 L 62 14 C 61.445313 14 61 14.449219 61 15 L 61 17 C 61 17.550781 61.445313 18 62 18 L 62 45 C 62 45.550781 61.550781 46 61 46 L 46.0625 46 L 33.460938 32.5625 C 32.710938 31.761719 31.289063 31.761719 30.539063 32.5625 L 17.9375 46 L 3 46 C 2.449219 46 2 45.550781 2 45 L 2 18 C 2.554688 18 3 17.550781 3 17 L 3 15 C 3 14.449219 2.554688 14 2 14 L 2 11 C 2 10.449219 2.449219 10 3 10 Z M 7 14 C 6.445313 14 6 14.449219 6 15 L 6 17 C 6 17.550781 6.445313 18 7 18 C 7.554688 18 8 17.550781 8 17 L 8 15 C 8 14.449219 7.554688 14 7 14 Z M 12 14 C 11.445313 14 11 14.449219 11 15 L 11 17 C 11 17.550781 11.445313 18 12 18 C 12.554688 18 13 17.550781 13 17 L 13 15 C 13 14.449219 12.554688 14 12 14 Z M 17 14 C 16.445313 14 16 14.449219 16 15 L 16 17 C 16 17.550781 16.445313 18 17 18 C 17.554688 18 18 17.550781 18 17 L 18 15 C 18 14.449219 17.554688 14 17 14 Z M 22 14 C 21.445313 14 21 14.449219 21 15 L 21 17 C 21 17.550781 21.445313 18 22 18 C 22.554688 18 23 17.550781 23 17 L 23 15 C 23 14.449219 22.554688 14 22 14 Z M 27 14 C 26.445313 14 26 14.449219 26 15 L 26 17 C 26 17.550781 26.445313 18 27 18 C 27.554688 18 28 17.550781 28 17 L 28 15 C 28 14.449219 27.554688 14 27 14 Z M 32 14 C 31.445313 14 31 14.449219 31 15 L 31 17 C 31 17.550781 31.445313 18 32 18 C 32.554688 18 33 17.550781 33 17 L 33 15 C 33 14.449219 32.554688 14 32 14 Z M 37 14 C 36.445313 14 36 14.449219 36 15 L 36 17 C 36 17.550781 36.445313 18 37 18 C 37.554688 18 38 17.550781 38 17 L 38 15 C 38 14.449219 37.554688 14 37 14 Z M 42 14 C 41.445313 14 41 14.449219 41 15 L 41 17 C 41 17.550781 41.445313 18 42 18 C 42.554688 18 43 17.550781 43 17 L 43 15 C 43 14.449219 42.554688 14 42 14 Z M 47 14 C 46.445313 14 46 14.449219 46 15 L 46 17 C 46 17.550781 46.445313 18 47 18 C 47.554688 18 48 17.550781 48 17 L 48 15 C 48 14.449219 47.554688 14 47 14 Z M 52 14 C 51.445313 14 51 14.449219 51 15 L 51 17 C 51 17.550781 51.445313 18 52 18 C 52.554688 18 53 17.550781 53 17 L 53 15 C 53 14.449219 52.554688 14 52 14 Z M 57 14 C 56.445313 14 56 14.449219 56 15 L 56 17 C 56 17.550781 56.445313 18 57 18 C 57.554688 18 58 17.550781 58 17 L 58 15 C 58 14.449219 57.554688 14 57 14 Z M 32 33.929688 L 43.320313 46 L 45.1875 48 L 52.6875 56 L 11.3125 56 L 18.8125 48 L 20.679688 46 Z"/></svg>