<svg fill="#000000" xmlns="http://www.w3.org/2000/svg"  viewBox="0 0 64 64" width="64px" height="64px"><path d="M 32.511719 4.007813 C 31.382813 3.988281 30.242188 4.035156 29.097656 4.148438 C 16.097656 5.460938 5.621094 15.820313 4.179688 28.789063 C 3.28125 36.878906 5.742188 44.648438 11.128906 50.660156 C 16.441406 56.601563 24.039063 60 32 60 C 34.941406 60 37.808594 59.550781 40.519531 58.679688 C 42.878906 61.898438 46.699219 64 51 64 C 58.171875 64 64 58.171875 64 51 C 64 43.828125 58.171875 38 51 38 C 43.828125 38 38 43.828125 38 51 L 38 51.078125 C 36.078125 51.691406 34.058594 52 32 52 C 26.449219 52 21.289063 49.78125 17.46875 45.75 C 13.660156 41.71875 11.730469 36.429688 12.03125 30.871094 C 12.597656 20.429688 21.25 12.140625 31.730469 12 C 37.699219 11.929688 43.488281 14.589844 47.328125 19.1875 L 44.570313 20.621094 C 43.78125 21.019531 43.359375 21.878906 43.511719 22.738281 C 43.667969 23.609375 44.359375 24.269531 45.230469 24.378906 L 57.597656 25.9375 C 58.21875 26.007813 58.828125 25.808594 59.269531 25.371094 C 59.710938 24.929688 59.910156 24.320313 59.839844 23.699219 L 58.28125 11.359375 C 58.167969 10.488281 57.511719 9.789063 56.640625 9.640625 C 55.769531 9.492188 54.917969 9.921875 54.519531 10.710938 L 53.0625 13.5625 C 47.835938 7.585938 40.410156 4.15625 32.511719 4.007813 Z M 31.96875 6 C 39.949219 6 47.460938 9.597656 52.4375 15.9375 C 52.621094 16.167969 52.878906 16.300781 53.160156 16.320313 C 53.441406 16.332031 53.730469 16.238281 53.929688 16.039063 L 54.050781 15.921875 C 54.128906 15.839844 54.191406 15.75 54.238281 15.660156 L 56.300781 11.609375 L 57.847656 23.949219 L 45.480469 22.390625 L 49.320313 20.421875 C 49.582031 20.28125 49.769531 20.039063 49.839844 19.761719 C 49.898438 19.46875 49.839844 19.167969 49.671875 18.9375 C 45.46875 13.25 38.777344 9.949219 31.699219 10 C 20.179688 10.160156 10.660156 19.28125 10.03125 30.761719 C 9.699219 36.878906 11.820313 42.6875 16.019531 47.121094 C 20.21875 51.558594 25.890625 54 32 54 C 34.109375 54 36.179688 53.710938 38.171875 53.109375 C 38.390625 54.460938 38.820313 55.738281 39.429688 56.921875 C 37.050781 57.628906 34.550781 58 32 58 C 24.609375 58 17.550781 54.839844 12.621094 49.328125 C 7.617188 43.738281 5.328125 36.53125 6.171875 29.011719 C 7.511719 16.96875 17.242188 7.351563 29.300781 6.140625 C 30.191406 6.050781 31.089844 6 31.96875 6 Z M 32 15 C 31.449219 15 31 15.445313 31 16 L 31 18 C 31 18.554688 31.449219 19 32 19 C 32.550781 19 33 18.554688 33 18 L 33 16 C 33 15.445313 32.550781 15 32 15 Z M 26.023438 16.167969 C 25.894531 16.164063 25.761719 16.1875 25.632813 16.238281 C 25.121094 16.445313 24.871094 17.027344 25.078125 17.539063 L 25.828125 19.394531 C 25.984375 19.785156 26.359375 20.019531 26.753906 20.019531 C 26.878906 20.019531 27.007813 19.996094 27.128906 19.949219 C 27.644531 19.742188 27.890625 19.15625 27.683594 18.644531 L 26.933594 16.792969 C 26.777344 16.410156 26.414063 16.171875 26.023438 16.167969 Z M 38.527344 16.378906 C 38.136719 16.371094 37.761719 16.597656 37.59375 16.976563 L 36.78125 18.804688 C 36.554688 19.308594 36.78125 19.898438 37.285156 20.125 C 37.417969 20.183594 37.558594 20.210938 37.691406 20.210938 C 38.078125 20.210938 38.441406 19.988281 38.609375 19.613281 L 39.421875 17.789063 C 39.648438 17.285156 39.417969 16.695313 38.914063 16.46875 C 38.789063 16.414063 38.65625 16.382813 38.527344 16.378906 Z M 20.902344 19.492188 C 20.644531 19.488281 20.386719 19.578125 20.1875 19.769531 C 19.792969 20.15625 19.78125 20.789063 20.164063 21.1875 L 21.554688 22.625 C 21.75 22.824219 22.011719 22.929688 22.273438 22.929688 C 22.523438 22.929688 22.773438 22.835938 22.96875 22.652344 C 23.367188 22.265625 23.378906 21.632813 22.996094 21.234375 L 21.605469 19.796875 C 21.414063 19.597656 21.160156 19.496094 20.902344 19.492188 Z M 17.402344 24.492188 C 17.011719 24.484375 16.640625 24.707031 16.46875 25.089844 C 16.246094 25.59375 16.472656 26.183594 16.976563 26.40625 L 18.804688 27.21875 C 18.9375 27.277344 19.074219 27.308594 19.210938 27.308594 C 19.59375 27.308594 19.957031 27.085938 20.125 26.714844 C 20.347656 26.207031 20.121094 25.617188 19.617188 25.390625 L 17.789063 24.578125 C 17.664063 24.523438 17.53125 24.496094 17.402344 24.492188 Z M 16 31 C 15.449219 31 15 31.445313 15 32 C 15 32.554688 15.449219 33 16 33 L 18 33 C 18.550781 33 19 32.554688 19 32 C 19 31.445313 18.550781 31 18 31 Z M 19.035156 36.246094 C 18.90625 36.242188 18.773438 36.265625 18.644531 36.316406 L 16.792969 37.066406 C 16.277344 37.273438 16.03125 37.855469 16.238281 38.371094 C 16.394531 38.757813 16.769531 38.996094 17.167969 38.996094 C 17.292969 38.996094 17.417969 38.972656 17.542969 38.921875 L 19.394531 38.171875 C 19.90625 37.964844 20.152344 37.382813 19.949219 36.871094 C 19.792969 36.484375 19.425781 36.25 19.035156 36.246094 Z M 51 40 C 57.070313 40 62 44.929688 62 51 C 62 57.070313 57.070313 62 51 62 C 47.570313 62 44.511719 60.429688 42.488281 57.96875 C 42.058594 57.441406 41.667969 56.871094 41.347656 56.269531 C 40.710938 55.109375 40.269531 53.820313 40.097656 52.449219 C 40.03125 51.96875 40 51.488281 40 51 C 40 50.769531 40.007813 50.539063 40.019531 50.3125 C 40.378906 44.5625 45.160156 40 51 40 Z M 21.949219 40.726563 C 21.691406 40.722656 21.433594 40.8125 21.234375 41.003906 L 19.796875 42.394531 C 19.398438 42.777344 19.386719 43.410156 19.769531 43.808594 C 19.96875 44.011719 20.226563 44.113281 20.488281 44.113281 C 20.738281 44.113281 20.992188 44.019531 21.1875 43.832031 L 22.625 42.445313 C 23.019531 42.0625 23.03125 41.429688 22.648438 41.03125 C 22.457031 40.832031 22.203125 40.730469 21.949219 40.726563 Z M 26.324219 43.789063 C 25.933594 43.78125 25.5625 44.003906 25.390625 44.386719 L 24.578125 46.210938 C 24.351563 46.714844 24.582031 47.304688 25.085938 47.53125 C 25.21875 47.589844 25.355469 47.617188 25.492188 47.617188 C 25.875 47.617188 26.242188 47.394531 26.40625 47.023438 L 27.21875 45.195313 C 27.445313 44.691406 27.21875 44.101563 26.714844 43.875 C 26.585938 43.820313 26.453125 43.792969 26.324219 43.789063 Z M 32 45 C 31.449219 45 31 45.445313 31 46 L 31 48 C 31 48.554688 31.449219 49 32 49 C 32.550781 49 33 48.554688 33 48 L 33 46 C 33 45.445313 32.550781 45 32 45 Z M 57 46 C 56.746094 46 56.488281 46.097656 56.292969 46.292969 L 49 53.585938 L 45.707031 50.292969 C 45.316406 49.902344 44.683594 49.902344 44.292969 50.292969 C 43.902344 50.683594 43.902344 51.316406 44.292969 51.707031 L 48.292969 55.707031 C 48.488281 55.902344 48.742188 56 49 56 C 49.257813 56 49.511719 55.902344 49.707031 55.707031 L 57.707031 47.707031 C 58.097656 47.316406 58.097656 46.683594 57.707031 46.292969 C 57.511719 46.097656 57.253906 46 57 46 Z"/></svg>