<svg fill="#000000" xmlns="http://www.w3.org/2000/svg"  viewBox="0 0 64 64" width="64px" height="64px"><path d="M 32 2.921875 C 31.203125 2.921875 30.40625 3.21875 29.832031 3.8125 L 9.898438 24.613281 C 9.34375 25.195313 9.1875 26.046875 9.503906 26.785156 C 9.820313 27.523438 10.542969 28 11.34375 28 L 20 28 L 20 45 C 20 46.652344 21.347656 48 23 48 L 41 48 C 42.652344 48 44 46.652344 44 45 L 44 28 L 52.65625 28 C 53.457031 28 54.179688 27.523438 54.496094 26.785156 C 54.8125 26.046875 54.65625 25.195313 54.097656 24.613281 L 34.167969 3.8125 C 33.59375 3.21875 32.796875 2.921875 32 2.921875 Z M 32 4.898438 C 32.265625 4.898438 32.53125 5 32.71875 5.199219 L 52.65625 26 L 44 26 C 42.898438 26 42 26.898438 42 28 L 42 45 C 42 45.550781 41.550781 46 41 46 L 23 46 C 22.449219 46 22 45.550781 22 45 L 22 28 C 22 26.898438 21.101563 26 20 26 L 11.34375 26 L 31.277344 5.199219 C 31.46875 5 31.734375 4.898438 32 4.898438 Z M 23 50 C 21.347656 50 20 51.347656 20 53 L 20 59 C 20 60.652344 21.347656 62 23 62 L 41 62 C 42.652344 62 44 60.652344 44 59 L 44 53 C 44 51.347656 42.652344 50 41 50 Z M 23 52 L 41 52 C 41.550781 52 42 52.449219 42 53 L 42 54 C 41.449219 54 41 54.449219 41 55 L 41 57 C 41 57.550781 41.449219 58 42 58 L 42 59 C 42 59.550781 41.550781 60 41 60 L 23 60 C 22.449219 60 22 59.550781 22 59 L 22 58 C 22.550781 58 23 57.550781 23 57 L 23 55 C 23 54.449219 22.550781 54 22 54 L 22 53 C 22 52.449219 22.449219 52 23 52 Z M 27 54 C 26.449219 54 26 54.449219 26 55 L 26 57 C 26 57.550781 26.449219 58 27 58 C 27.550781 58 28 57.550781 28 57 L 28 55 C 28 54.449219 27.550781 54 27 54 Z M 32 54 C 31.449219 54 31 54.449219 31 55 L 31 57 C 31 57.550781 31.449219 58 32 58 C 32.550781 58 33 57.550781 33 57 L 33 55 C 33 54.449219 32.550781 54 32 54 Z M 37 54 C 36.449219 54 36 54.449219 36 55 L 36 57 C 36 57.550781 36.449219 58 37 58 C 37.550781 58 38 57.550781 38 57 L 38 55 C 38 54.449219 37.550781 54 37 54 Z"/></svg>