<svg fill="#000000" xmlns="http://www.w3.org/2000/svg"  viewBox="0 0 64 64" width="64px" height="64px"><path d="M 5 2 C 3.351563 2 2 3.351563 2 5 L 2 37 C 2 38.648438 3.351563 40 5 40 L 18 40 L 18 59 C 18 60.648438 19.351563 62 21 62 L 59 62 C 60.648438 62 62 60.648438 62 59 L 62 27 C 62 25.351563 60.648438 24 59 24 L 46 24 L 46 5 C 46 3.351563 44.648438 2 43 2 Z M 5 4 L 43 4 C 43.550781 4 44 4.449219 44 5 L 44 24 L 40 24 L 40 19 C 40 18.445313 39.554688 18 39 18 L 27 18 C 26.445313 18 26 18.445313 26 19 L 26 24 L 22 24 L 22 19 C 22 18.445313 21.554688 18 21 18 L 9 18 C 8.445313 18 8 18.445313 8 19 L 8 33 C 8 33.554688 8.445313 34 9 34 L 18 34 L 18 38 L 5 38 C 4.449219 38 4 37.550781 4 37 L 4 14 L 33 14 C 33.554688 14 34 13.554688 34 13 C 34 12.445313 33.554688 12 33 12 L 4 12 L 4 5 C 4 4.449219 4.449219 4 5 4 Z M 6 6 C 5.445313 6 5 6.445313 5 7 L 5 9 C 5 9.554688 5.445313 10 6 10 C 6.554688 10 7 9.554688 7 9 L 7 7 C 7 6.445313 6.554688 6 6 6 Z M 11 6 C 10.445313 6 10 6.445313 10 7 L 10 9 C 10 9.554688 10.445313 10 11 10 C 11.554688 10 12 9.554688 12 9 L 12 7 C 12 6.445313 11.554688 6 11 6 Z M 16 6 C 15.445313 6 15 6.445313 15 7 L 15 9 C 15 9.554688 15.445313 10 16 10 C 16.554688 10 17 9.554688 17 9 L 17 7 C 17 6.445313 16.554688 6 16 6 Z M 21 6 C 20.445313 6 20 6.445313 20 7 L 20 9 C 20 9.554688 20.445313 10 21 10 C 21.554688 10 22 9.554688 22 9 L 22 7 C 22 6.445313 21.554688 6 21 6 Z M 26 6 C 25.445313 6 25 6.445313 25 7 L 25 9 C 25 9.554688 25.445313 10 26 10 C 26.554688 10 27 9.554688 27 9 L 27 7 C 27 6.445313 26.554688 6 26 6 Z M 31 6 C 30.445313 6 30 6.445313 30 7 L 30 9 C 30 9.554688 30.445313 10 31 10 C 31.554688 10 32 9.554688 32 9 L 32 7 C 32 6.445313 31.554688 6 31 6 Z M 36 6 C 35.445313 6 35 6.445313 35 7 L 35 9 C 35 9.554688 35.445313 10 36 10 C 36.554688 10 37 9.554688 37 9 L 37 7 C 37 6.445313 36.554688 6 36 6 Z M 41 6 C 40.445313 6 40 6.445313 40 7 L 40 9 C 40 9.554688 40.445313 10 41 10 C 41.554688 10 42 9.554688 42 9 L 42 7 C 42 6.445313 41.554688 6 41 6 Z M 37 12 C 36.445313 12 36 12.445313 36 13 C 36 13.554688 36.445313 14 37 14 L 41 14 C 41.554688 14 42 13.554688 42 13 C 42 12.445313 41.554688 12 41 12 Z M 10 20 L 20 20 L 20 24.1875 C 18.839844 24.601563 18 25.703125 18 27 L 18 32 L 10 32 Z M 28 20 L 38 20 L 38 24 L 28 24 Z M 21 26 L 59 26 C 59.550781 26 60 26.449219 60 27 L 60 59 C 60 59.550781 59.550781 60 59 60 L 21 60 C 20.449219 60 20 59.550781 20 59 L 20 36 L 49 36 C 49.554688 36 50 35.554688 50 35 C 50 34.445313 49.554688 34 49 34 L 20 34 L 20 27 C 20 26.449219 20.449219 26 21 26 Z M 22 28 C 21.445313 28 21 28.445313 21 29 L 21 31 C 21 31.554688 21.445313 32 22 32 C 22.554688 32 23 31.554688 23 31 L 23 29 C 23 28.445313 22.554688 28 22 28 Z M 27 28 C 26.445313 28 26 28.445313 26 29 L 26 31 C 26 31.554688 26.445313 32 27 32 C 27.554688 32 28 31.554688 28 31 L 28 29 C 28 28.445313 27.554688 28 27 28 Z M 32 28 C 31.445313 28 31 28.445313 31 29 L 31 31 C 31 31.554688 31.445313 32 32 32 C 32.554688 32 33 31.554688 33 31 L 33 29 C 33 28.445313 32.554688 28 32 28 Z M 37 28 C 36.445313 28 36 28.445313 36 29 L 36 31 C 36 31.554688 36.445313 32 37 32 C 37.554688 32 38 31.554688 38 31 L 38 29 C 38 28.445313 37.554688 28 37 28 Z M 42 28 C 41.445313 28 41 28.445313 41 29 L 41 31 C 41 31.554688 41.445313 32 42 32 C 42.554688 32 43 31.554688 43 31 L 43 29 C 43 28.445313 42.554688 28 42 28 Z M 47 28 C 46.445313 28 46 28.445313 46 29 L 46 31 C 46 31.554688 46.445313 32 47 32 C 47.554688 32 48 31.554688 48 31 L 48 29 C 48 28.445313 47.554688 28 47 28 Z M 52 28 C 51.445313 28 51 28.445313 51 29 L 51 31 C 51 31.554688 51.445313 32 52 32 C 52.554688 32 53 31.554688 53 31 L 53 29 C 53 28.445313 52.554688 28 52 28 Z M 57 28 C 56.445313 28 56 28.445313 56 29 L 56 31 C 56 31.554688 56.445313 32 57 32 C 57.554688 32 58 31.554688 58 31 L 58 29 C 58 28.445313 57.554688 28 57 28 Z M 53 34 C 52.445313 34 52 34.445313 52 35 C 52 35.554688 52.445313 36 53 36 L 57 36 C 57.554688 36 58 35.554688 58 35 C 58 34.445313 57.554688 34 57 34 Z M 25 40 C 24.445313 40 24 40.445313 24 41 L 24 55 C 24 55.554688 24.445313 56 25 56 L 37 56 C 37.554688 56 38 55.554688 38 55 L 38 41 C 38 40.445313 37.554688 40 37 40 Z M 43 40 C 42.445313 40 42 40.445313 42 41 L 42 55 C 42 55.554688 42.445313 56 43 56 L 55 56 C 55.554688 56 56 55.554688 56 55 L 56 41 C 56 40.445313 55.554688 40 55 40 Z M 26 42 L 36 42 L 36 54 L 26 54 Z M 44 42 L 54 42 L 54 54 L 44 54 Z"/></svg>