<?xml version="1.0"?><svg fill="#000000" xmlns="http://www.w3.org/2000/svg"  viewBox="0 0 64 64" width="64px" height="64px">    <path d="M 8 6 C 6.897 6 6 6.897 6 8 L 6 56 C 6 57.103 6.897 58 8 58 L 56 58 C 57.103 58 58 57.103 58 56 L 58 8 C 58 6.897 57.103 6 56 6 L 8 6 z M 8 8 L 56 8 L 56.001953 56 L 8 56 L 8 8 z M 14 14 C 12.897 14 12 14.897 12 16 L 12 24 C 12 25.103 12.897 26 14 26 L 22 26 C 23.103 26 24 25.103 24 24 L 24 21.082031 C 24 20.530031 23.552 20.082031 23 20.082031 C 22.448 20.082031 22 20.530031 22 21.082031 L 22 24 L 14 24 L 14 16 L 20 16 C 20.552 16 21 15.552 21 15 C 21 14.448 20.552 14 20 14 L 14 14 z M 24.5 14.5 C 24.24425 14.5 23.988469 14.597469 23.792969 14.792969 L 18 20.585938 L 16.707031 19.292969 C 16.316031 18.901969 15.683969 18.901969 15.292969 19.292969 C 14.901969 19.683969 14.901969 20.316031 15.292969 20.707031 L 17.292969 22.707031 C 17.487969 22.902031 17.744 23 18 23 C 18.256 23 18.512031 22.902031 18.707031 22.707031 L 25.207031 16.207031 C 25.598031 15.816031 25.598031 15.183969 25.207031 14.792969 C 25.011531 14.597469 24.75575 14.5 24.5 14.5 z M 29 16 C 28.448 16 28 16.448 28 17 C 28 17.552 28.448 18 29 18 L 51 18 C 51.552 18 52 17.552 52 17 C 52 16.448 51.552 16 51 16 L 29 16 z M 29 20 C 28.448 20 28 20.448 28 21 C 28 21.552 28.448 22 29 22 L 45 22 C 45.552 22 46 21.552 46 21 C 46 20.448 45.552 20 45 20 L 29 20 z M 14 32 C 12.897 32 12 32.897 12 34 L 12 42 C 12 43.103 12.897 44 14 44 L 22 44 C 23.103 44 24 43.103 24 42 L 24 39.082031 C 24 38.530031 23.552 38.082031 23 38.082031 C 22.448 38.082031 22 38.530031 22 39.082031 L 22 42 L 14 42 L 14 34 L 20 34 C 20.552 34 21 33.552 21 33 C 21 32.448 20.552 32 20 32 L 14 32 z M 24.5 32.5 C 24.24425 32.5 23.988469 32.597469 23.792969 32.792969 L 18 38.585938 L 16.707031 37.292969 C 16.316031 36.901969 15.683969 36.901969 15.292969 37.292969 C 14.901969 37.683969 14.901969 38.316031 15.292969 38.707031 L 17.292969 40.707031 C 17.487969 40.902031 17.744 41 18 41 C 18.256 41 18.512031 40.902031 18.707031 40.707031 L 25.207031 34.207031 C 25.598031 33.816031 25.598031 33.183969 25.207031 32.792969 C 25.011531 32.597469 24.75575 32.5 24.5 32.5 z M 29 34 C 28.448 34 28 34.448 28 35 C 28 35.552 28.448 36 29 36 L 39 36 C 39.552 36 40 35.552 40 35 C 40 34.448 39.552 34 39 34 L 29 34 z M 43 34 C 42.448 34 42 34.448 42 35 C 42 35.552 42.448 36 43 36 L 51 36 C 51.552 36 52 35.552 52 35 C 52 34.448 51.552 34 51 34 L 43 34 z M 29 38 C 28.448 38 28 38.448 28 39 C 28 39.552 28.448 40 29 40 L 37 40 C 37.552 40 38 39.552 38 39 C 38 38.448 37.552 38 37 38 L 29 38 z M 12 50 C 11.448 50 11 50.448 11 51 L 11 53 C 11 53.552 11.448 54 12 54 C 12.552 54 13 53.552 13 53 L 13 51 C 13 50.448 12.552 50 12 50 z M 17 50 C 16.448 50 16 50.448 16 51 L 16 53 C 16 53.552 16.448 54 17 54 C 17.552 54 18 53.552 18 53 L 18 51 C 18 50.448 17.552 50 17 50 z M 22 50 C 21.448 50 21 50.448 21 51 L 21 53 C 21 53.552 21.448 54 22 54 C 22.552 54 23 53.552 23 53 L 23 51 C 23 50.448 22.552 50 22 50 z M 27 50 C 26.448 50 26 50.448 26 51 L 26 53 C 26 53.552 26.448 54 27 54 C 27.552 54 28 53.552 28 53 L 28 51 C 28 50.448 27.552 50 27 50 z M 32 50 C 31.448 50 31 50.448 31 51 L 31 53 C 31 53.552 31.448 54 32 54 C 32.552 54 33 53.552 33 53 L 33 51 C 33 50.448 32.552 50 32 50 z M 37 50 C 36.448 50 36 50.448 36 51 L 36 53 C 36 53.552 36.448 54 37 54 C 37.552 54 38 53.552 38 53 L 38 51 C 38 50.448 37.552 50 37 50 z M 42 50 C 41.448 50 41 50.448 41 51 L 41 53 C 41 53.552 41.448 54 42 54 C 42.552 54 43 53.552 43 53 L 43 51 C 43 50.448 42.552 50 42 50 z M 47 50 C 46.448 50 46 50.448 46 51 L 46 53 C 46 53.552 46.448 54 47 54 C 47.552 54 48 53.552 48 53 L 48 51 C 48 50.448 47.552 50 47 50 z M 52 50 C 51.448 50 51 50.448 51 51 L 51 53 C 51 53.552 51.448 54 52 54 C 52.552 54 53 53.552 53 53 L 53 51 C 53 50.448 52.552 50 52 50 z"/></svg>