<svg fill="#000000" xmlns="http://www.w3.org/2000/svg"  viewBox="0 0 64 64" width="64px" height="64px"><path d="M 9 6 C 7.347656 6 6 7.347656 6 9 L 6 55 C 6 56.652344 7.347656 58 9 58 L 55 58 C 56.652344 58 58 56.652344 58 55 L 58 9 C 58 7.347656 56.652344 6 55 6 Z M 9 8 L 55 8 C 55.550781 8 56 8.449219 56 9 L 56 55 C 56 55.550781 55.550781 56 55 56 L 9 56 C 8.449219 56 8 55.550781 8 55 L 8 9 C 8 8.449219 8.449219 8 9 8 Z M 14 12 C 12.898438 12 12 12.898438 12 14 L 12 50 C 12 51.101563 12.898438 52 14 52 L 17 52 C 17.550781 52 18 51.550781 18 51 C 18 50.449219 17.550781 50 17 50 L 14 50 L 14 14 L 50 14 L 50 50 L 47 50 C 46.449219 50 46 50.449219 46 51 C 46 51.550781 46.449219 52 47 52 L 50 52 C 51.101563 52 52 51.101563 52 50 L 52 14 C 52 12.898438 51.101563 12 50 12 Z M 45 21 C 44.746094 21 44.488281 21.097656 44.292969 21.292969 L 27 38.585938 L 19.707031 31.292969 C 19.316406 30.902344 18.683594 30.902344 18.292969 31.292969 C 17.902344 31.683594 17.902344 32.316406 18.292969 32.707031 L 26.292969 40.707031 C 26.488281 40.902344 26.742188 41 27 41 C 27.257813 41 27.511719 40.902344 27.707031 40.707031 L 45.707031 22.707031 C 46.097656 22.316406 46.097656 21.683594 45.707031 21.292969 C 45.511719 21.097656 45.253906 21 45 21 Z M 22 48 C 21.449219 48 21 48.449219 21 49 L 21 51 C 21 51.550781 21.449219 52 22 52 C 22.550781 52 23 51.550781 23 51 L 23 49 C 23 48.449219 22.550781 48 22 48 Z M 27 48 C 26.449219 48 26 48.449219 26 49 L 26 51 C 26 51.550781 26.449219 52 27 52 C 27.550781 52 28 51.550781 28 51 L 28 49 C 28 48.449219 27.550781 48 27 48 Z M 32 48 C 31.449219 48 31 48.449219 31 49 L 31 51 C 31 51.550781 31.449219 52 32 52 C 32.550781 52 33 51.550781 33 51 L 33 49 C 33 48.449219 32.550781 48 32 48 Z M 37 48 C 36.449219 48 36 48.449219 36 49 L 36 51 C 36 51.550781 36.449219 52 37 52 C 37.550781 52 38 51.550781 38 51 L 38 49 C 38 48.449219 37.550781 48 37 48 Z M 42 48 C 41.449219 48 41 48.449219 41 49 L 41 51 C 41 51.550781 41.449219 52 42 52 C 42.550781 52 43 51.550781 43 51 L 43 49 C 43 48.449219 42.550781 48 42 48 Z"/></svg>