<svg fill="#000000" xmlns="http://www.w3.org/2000/svg"  viewBox="0 0 64 64" width="64px" height="64px"><path d="M 29 0 C 28.449219 0 28 0.449219 28 1 L 28 14 L 5 14 C 3.351563 14 2 15.351563 2 17 L 2 55 C 2 56.648438 3.351563 58 5 58 L 59 58 C 60.648438 58 62 56.648438 62 55 L 62 17 C 62 15.351563 60.648438 14 59 14 L 36 14 L 36 1 C 36 0.449219 35.550781 0 35 0 Z M 30 2 L 34 2 L 34 28 C 34 28.398438 34.238281 28.769531 34.621094 28.921875 C 34.988281 29.078125 35.421875 28.992188 35.710938 28.710938 L 39 25.410156 L 41.589844 28 L 32 37.589844 L 22.410156 28 L 25 25.410156 L 28.289063 28.710938 C 28.578125 28.992188 29.011719 29.078125 29.378906 28.921875 C 29.761719 28.769531 30 28.398438 30 28 Z M 5 16 L 28 16 L 28 25.589844 L 25.710938 23.289063 C 25.320313 22.898438 24.679688 22.898438 24.289063 23.289063 L 20.289063 27.289063 C 19.898438 27.679688 19.898438 28.320313 20.289063 28.710938 L 31.289063 39.710938 C 31.488281 39.902344 31.738281 40 32 40 C 32.261719 40 32.511719 39.902344 32.710938 39.710938 L 43.710938 28.710938 C 44.101563 28.320313 44.101563 27.679688 43.710938 27.289063 L 39.710938 23.289063 C 39.320313 22.898438 38.679688 22.898438 38.289063 23.289063 L 36 25.589844 L 36 16 L 59 16 C 59.550781 16 60 16.449219 60 17 L 60 18 C 59.449219 18 59 18.449219 59 19 L 59 21 C 59 21.550781 59.449219 22 60 22 L 60 55 C 60 55.550781 59.550781 56 59 56 L 52 56 L 52 49 C 52 47.347656 50.652344 46 49 46 L 15 46 C 13.347656 46 12 47.347656 12 49 L 12 56 L 5 56 C 4.449219 56 4 55.550781 4 55 L 4 22 C 4.550781 22 5 21.550781 5 21 L 5 19 C 5 18.449219 4.550781 18 4 18 L 4 17 C 4 16.449219 4.449219 16 5 16 Z M 9 18 C 8.449219 18 8 18.449219 8 19 L 8 21 C 8 21.550781 8.449219 22 9 22 C 9.550781 22 10 21.550781 10 21 L 10 19 C 10 18.449219 9.550781 18 9 18 Z M 14 18 C 13.449219 18 13 18.449219 13 19 L 13 21 C 13 21.550781 13.449219 22 14 22 C 14.550781 22 15 21.550781 15 21 L 15 19 C 15 18.449219 14.550781 18 14 18 Z M 19 18 C 18.449219 18 18 18.449219 18 19 L 18 21 C 18 21.550781 18.449219 22 19 22 C 19.550781 22 20 21.550781 20 21 L 20 19 C 20 18.449219 19.550781 18 19 18 Z M 24 18 C 23.449219 18 23 18.449219 23 19 L 23 21 C 23 21.550781 23.449219 22 24 22 C 24.550781 22 25 21.550781 25 21 L 25 19 C 25 18.449219 24.550781 18 24 18 Z M 40 18 C 39.449219 18 39 18.449219 39 19 L 39 21 C 39 21.550781 39.449219 22 40 22 C 40.550781 22 41 21.550781 41 21 L 41 19 C 41 18.449219 40.550781 18 40 18 Z M 45 18 C 44.449219 18 44 18.449219 44 19 L 44 21 C 44 21.550781 44.449219 22 45 22 C 45.550781 22 46 21.550781 46 21 L 46 19 C 46 18.449219 45.550781 18 45 18 Z M 50 18 C 49.449219 18 49 18.449219 49 19 L 49 21 C 49 21.550781 49.449219 22 50 22 C 50.550781 22 51 21.550781 51 21 L 51 19 C 51 18.449219 50.550781 18 50 18 Z M 55 18 C 54.449219 18 54 18.449219 54 19 L 54 21 C 54 21.550781 54.449219 22 55 22 C 55.550781 22 56 21.550781 56 21 L 56 19 C 56 18.449219 55.550781 18 55 18 Z M 15 48 L 49 48 C 49.550781 48 50 48.449219 50 49 L 50 56 L 14 56 L 14 49 C 14 48.449219 14.449219 48 15 48 Z M 20 50 C 18.894531 50 18 50.894531 18 52 C 18 53.105469 18.894531 54 20 54 C 21.105469 54 22 53.105469 22 52 C 22 50.894531 21.105469 50 20 50 Z M 28 50 C 26.894531 50 26 50.894531 26 52 C 26 53.105469 26.894531 54 28 54 C 29.105469 54 30 53.105469 30 52 C 30 50.894531 29.105469 50 28 50 Z M 36 50 C 34.894531 50 34 50.894531 34 52 C 34 53.105469 34.894531 54 36 54 C 37.105469 54 38 53.105469 38 52 C 38 50.894531 37.105469 50 36 50 Z M 44 50 C 42.894531 50 42 50.894531 42 52 C 42 53.105469 42.894531 54 44 54 C 45.105469 54 46 53.105469 46 52 C 46 50.894531 45.105469 50 44 50 Z"/></svg>