<svg fill="#000000" xmlns="http://www.w3.org/2000/svg"  viewBox="0 0 64 64" width="64px" height="64px"><path d="M 16 5 C 9.382813 5 4 10.382813 4 17 C 4 23.617188 9.382813 29 16 29 C 22.617188 29 28 23.617188 28 17 C 28 10.382813 22.617188 5 16 5 Z M 39 6 C 37.347656 6 36 7.347656 36 9 L 36 25 C 36 26.652344 37.347656 28 39 28 L 57 28 C 58.652344 28 60 26.652344 60 25 L 60 9 C 60 7.347656 58.652344 6 57 6 Z M 16 7 C 21.515625 7 26 11.484375 26 17 C 26 22.515625 21.515625 27 16 27 C 10.484375 27 6 22.515625 6 17 C 6 11.484375 10.484375 7 16 7 Z M 39 8 L 57 8 C 57.550781 8 58 8.449219 58 9 L 58 15 C 57.449219 15 57 15.449219 57 16 L 57 18 C 57 18.550781 57.449219 19 58 19 L 58 25 C 58 25.550781 57.550781 26 57 26 L 39 26 C 38.449219 26 38 25.550781 38 25 L 38 19 C 38.550781 19 39 18.550781 39 18 L 39 16 C 39 15.449219 38.550781 15 38 15 L 38 9 C 38 8.449219 38.449219 8 39 8 Z M 43 15 C 42.449219 15 42 15.449219 42 16 L 42 18 C 42 18.550781 42.449219 19 43 19 C 43.550781 19 44 18.550781 44 18 L 44 16 C 44 15.449219 43.550781 15 43 15 Z M 48 15 C 47.449219 15 47 15.449219 47 16 L 47 18 C 47 18.550781 47.449219 19 48 19 C 48.550781 19 49 18.550781 49 18 L 49 16 C 49 15.449219 48.550781 15 48 15 Z M 53 15 C 52.449219 15 52 15.449219 52 16 L 52 18 C 52 18.550781 52.449219 19 53 19 C 53.550781 19 54 18.550781 54 18 L 54 16 C 54 15.449219 53.550781 15 53 15 Z M 16 35 C 9.382813 35 4 40.382813 4 47 C 4 53.617188 9.382813 59 16 59 C 22.617188 59 28 53.617188 28 47 C 28 40.382813 22.617188 35 16 35 Z M 48 35 C 41.382813 35 36 40.382813 36 47 C 36 53.617188 41.382813 59 48 59 C 54.617188 59 60 53.617188 60 47 C 60 40.382813 54.617188 35 48 35 Z M 16 37 C 21.515625 37 26 41.484375 26 47 C 26 52.515625 21.515625 57 16 57 C 10.484375 57 6 52.515625 6 47 C 6 41.484375 10.484375 37 16 37 Z M 48 37 C 53.515625 37 58 41.484375 58 47 C 58 52.515625 53.515625 57 48 57 C 42.484375 57 38 52.515625 38 47 C 38 41.484375 42.484375 37 48 37 Z"/></svg>