<svg fill="#000000" xmlns="http://www.w3.org/2000/svg"  viewBox="0 0 64 64" width="64px" height="64px"><path d="M 7 4 C 5.347656 4 4 5.347656 4 7 L 4 57 C 4 58.652344 5.347656 60 7 60 L 57 60 C 58.652344 60 60 58.652344 60 57 L 60 7 C 60 5.347656 58.652344 4 57 4 Z M 7 6 L 57 6 C 57.550781 6 58 6.449219 58 7 L 58 57 C 58 57.550781 57.550781 58 57 58 L 7 58 C 6.449219 58 6 57.550781 6 57 L 6 7 C 6 6.449219 6.449219 6 7 6 Z M 23.671875 12 C 22.589844 12 21.585938 12.589844 21.054688 13.535156 L 12.671875 28.535156 C 12.160156 29.453125 12.160156 30.546875 12.671875 31.464844 L 21.054688 46.464844 C 21.585938 47.410156 22.589844 48 23.671875 48 L 40.328125 48 C 41.410156 48 42.414063 47.410156 42.945313 46.464844 L 51.328125 31.464844 C 51.839844 30.546875 51.839844 29.453125 51.328125 28.535156 L 42.945313 13.535156 C 42.414063 12.589844 41.410156 12 40.328125 12 Z M 23.671875 14 L 40.328125 14 C 40.6875 14 41.023438 14.195313 41.199219 14.511719 L 49.578125 29.511719 C 49.75 29.816406 49.753906 30.183594 49.582031 30.488281 L 41.199219 45.488281 C 41.023438 45.804688 40.6875 46 40.328125 46 L 23.671875 46 C 23.3125 46 22.976563 45.804688 22.800781 45.488281 L 14.417969 30.488281 C 14.246094 30.183594 14.246094 29.816406 14.417969 29.511719 L 22.800781 14.511719 C 22.976563 14.195313 23.3125 14 23.671875 14 Z M 32 18 C 31.277344 18 30.628906 18.371094 30.269531 18.996094 L 21 35.027344 C 20.640625 35.652344 20.640625 36.398438 21 37.027344 C 21.363281 37.652344 22.011719 38.027344 22.734375 38.027344 L 41.265625 38.027344 C 41.992188 38.027344 42.636719 37.652344 43 37.027344 C 43.359375 36.398438 43.359375 35.652344 43 35.027344 L 33.730469 18.996094 C 33.367188 18.371094 32.722656 18 32 18 Z M 32 20 L 41.265625 36.027344 L 22.734375 36.027344 Z M 9 52 C 8.449219 52 8 52.449219 8 53 L 8 55 C 8 55.550781 8.449219 56 9 56 C 9.550781 56 10 55.550781 10 55 L 10 53 C 10 52.449219 9.550781 52 9 52 Z M 14 52 C 13.449219 52 13 52.449219 13 53 L 13 55 C 13 55.550781 13.449219 56 14 56 C 14.550781 56 15 55.550781 15 55 L 15 53 C 15 52.449219 14.550781 52 14 52 Z M 19 52 C 18.449219 52 18 52.449219 18 53 L 18 55 C 18 55.550781 18.449219 56 19 56 C 19.550781 56 20 55.550781 20 55 L 20 53 C 20 52.449219 19.550781 52 19 52 Z M 24 52 C 23.449219 52 23 52.449219 23 53 L 23 55 C 23 55.550781 23.449219 56 24 56 C 24.550781 56 25 55.550781 25 55 L 25 53 C 25 52.449219 24.550781 52 24 52 Z M 29 52 C 28.449219 52 28 52.449219 28 53 L 28 55 C 28 55.550781 28.449219 56 29 56 C 29.550781 56 30 55.550781 30 55 L 30 53 C 30 52.449219 29.550781 52 29 52 Z M 35 52 C 34.449219 52 34 52.449219 34 53 L 34 55 C 34 55.550781 34.449219 56 35 56 C 35.550781 56 36 55.550781 36 55 L 36 53 C 36 52.449219 35.550781 52 35 52 Z M 40 52 C 39.449219 52 39 52.449219 39 53 L 39 55 C 39 55.550781 39.449219 56 40 56 C 40.550781 56 41 55.550781 41 55 L 41 53 C 41 52.449219 40.550781 52 40 52 Z M 45 52 C 44.449219 52 44 52.449219 44 53 L 44 55 C 44 55.550781 44.449219 56 45 56 C 45.550781 56 46 55.550781 46 55 L 46 53 C 46 52.449219 45.550781 52 45 52 Z M 50 52 C 49.449219 52 49 52.449219 49 53 L 49 55 C 49 55.550781 49.449219 56 50 56 C 50.550781 56 51 55.550781 51 55 L 51 53 C 51 52.449219 50.550781 52 50 52 Z M 55 52 C 54.449219 52 54 52.449219 54 53 L 54 55 C 54 55.550781 54.449219 56 55 56 C 55.550781 56 56 55.550781 56 55 L 56 53 C 56 52.449219 55.550781 52 55 52 Z"/></svg>