<svg fill="#000000" xmlns="http://www.w3.org/2000/svg"  viewBox="0 0 64 64" width="64px" height="64px"><path d="M 37.96875 8.617188 C 37.714844 8.617188 37.460938 8.710938 37.265625 8.90625 C 36.871094 9.300781 36.871094 9.929688 37.265625 10.324219 L 38.675781 11.734375 C 38.871094 11.929688 39.128906 12.03125 39.386719 12.03125 C 39.640625 12.03125 39.898438 11.929688 40.09375 11.734375 C 40.484375 11.34375 40.484375 10.714844 40.09375 10.324219 L 38.675781 8.90625 C 38.480469 8.710938 38.226563 8.617188 37.96875 8.617188 Z M 34.4375 12.152344 C 34.179688 12.152344 33.925781 12.246094 33.730469 12.441406 C 33.335938 12.835938 33.335938 13.464844 33.730469 13.859375 L 35.140625 15.269531 C 35.335938 15.464844 35.59375 15.5625 35.847656 15.5625 C 36.105469 15.5625 36.363281 15.464844 36.558594 15.269531 C 36.949219 14.878906 36.949219 14.25 36.558594 13.859375 L 35.140625 12.441406 C 34.945313 12.246094 34.691406 12.152344 34.4375 12.152344 Z M 43 14 C 42.746094 14 42.488281 14.097656 42.292969 14.292969 L 15 41.585938 L 5.707031 32.292969 C 5.316406 31.902344 4.683594 31.902344 4.292969 32.292969 L 0.292969 36.292969 C -0.0976563 36.683594 -0.0976563 37.316406 0.292969 37.707031 L 14.292969 51.707031 C 14.488281 51.902344 14.742188 52 15 52 C 15.257813 52 15.511719 51.902344 15.707031 51.707031 L 23 44.414063 L 30.292969 51.707031 C 30.488281 51.902344 30.742188 52 31 52 C 31.257813 52 31.511719 51.902344 31.707031 51.707031 L 63.707031 19.707031 C 64.097656 19.316406 64.097656 18.683594 63.707031 18.292969 L 59.707031 14.292969 C 59.316406 13.902344 58.683594 13.902344 58.292969 14.292969 L 31 41.585938 L 28.414063 39 L 47.707031 19.707031 C 48.097656 19.316406 48.097656 18.683594 47.707031 18.292969 L 43.707031 14.292969 C 43.511719 14.097656 43.253906 14 43 14 Z M 30.898438 15.6875 C 30.644531 15.6875 30.386719 15.785156 30.191406 15.980469 C 29.800781 16.371094 29.800781 17.003906 30.191406 17.394531 L 31.605469 18.808594 C 31.800781 19.003906 32.054688 19.101563 32.3125 19.101563 C 32.570313 19.101563 32.824219 19.003906 33.019531 18.808594 C 33.410156 18.417969 33.410156 17.785156 33.019531 17.394531 L 31.605469 15.980469 C 31.410156 15.785156 31.152344 15.6875 30.898438 15.6875 Z M 43 16.414063 L 45.585938 19 L 15 49.585938 L 2.414063 37 L 5 34.414063 L 14.292969 43.707031 C 14.683594 44.097656 15.316406 44.097656 15.707031 43.707031 Z M 59 16.414063 L 61.585938 19 L 31 49.585938 L 24.414063 43 L 27 40.414063 L 30.292969 43.707031 C 30.683594 44.097656 31.316406 44.097656 31.707031 43.707031 Z M 27.363281 19.222656 C 27.109375 19.222656 26.851563 19.320313 26.65625 19.515625 C 26.265625 19.90625 26.265625 20.539063 26.65625 20.929688 L 28.070313 22.34375 C 28.265625 22.539063 28.519531 22.636719 28.777344 22.636719 C 29.035156 22.636719 29.289063 22.539063 29.484375 22.34375 C 29.875 21.953125 29.875 21.320313 29.484375 20.929688 L 28.070313 19.515625 C 27.875 19.320313 27.617188 19.222656 27.363281 19.222656 Z M 23.828125 22.757813 C 23.574219 22.757813 23.316406 22.855469 23.121094 23.050781 C 22.730469 23.441406 22.730469 24.074219 23.121094 24.464844 L 24.535156 25.878906 C 24.730469 26.074219 24.984375 26.171875 25.242188 26.171875 C 25.5 26.171875 25.753906 26.074219 25.949219 25.878906 C 26.339844 25.488281 26.339844 24.855469 25.949219 24.464844 L 24.535156 23.050781 C 24.339844 22.855469 24.082031 22.757813 23.828125 22.757813 Z M 20.292969 26.292969 C 20.039063 26.292969 19.78125 26.390625 19.585938 26.585938 C 19.195313 26.976563 19.195313 27.609375 19.585938 28 L 21 29.414063 C 21.195313 29.609375 21.449219 29.707031 21.707031 29.707031 C 21.964844 29.707031 22.21875 29.609375 22.414063 29.414063 C 22.804688 29.023438 22.804688 28.390625 22.414063 28 L 21 26.585938 C 20.804688 26.390625 20.546875 26.292969 20.292969 26.292969 Z M 16.757813 29.828125 C 16.503906 29.828125 16.246094 29.925781 16.050781 30.121094 C 15.660156 30.511719 15.660156 31.144531 16.050781 31.535156 L 17.464844 32.949219 C 17.660156 33.144531 17.914063 33.242188 18.171875 33.242188 C 18.429688 33.242188 18.683594 33.144531 18.878906 32.949219 C 19.269531 32.558594 19.269531 31.925781 18.878906 31.535156 L 17.464844 30.121094 C 17.269531 29.925781 17.011719 29.828125 16.757813 29.828125 Z M 13.222656 33.363281 C 12.96875 33.363281 12.710938 33.460938 12.515625 33.65625 C 12.125 34.046875 12.125 34.679688 12.515625 35.070313 L 13.929688 36.484375 C 14.125 36.679688 14.378906 36.777344 14.636719 36.777344 C 14.894531 36.777344 15.148438 36.679688 15.34375 36.484375 C 15.734375 36.09375 15.734375 35.460938 15.34375 35.070313 L 13.929688 33.65625 C 13.734375 33.460938 13.476563 33.363281 13.222656 33.363281 Z"/></svg>