<svg fill="#000000" xmlns="http://www.w3.org/2000/svg"  viewBox="0 0 64 64" width="64px" height="64px"><path d="M 10.234375 2 C 9.09375 2 8.0625 2.636719 7.554688 3.65625 L 2.527344 13.707031 C 2.183594 14.398438 2 15.171875 2 15.941406 L 2 59 C 2 60.652344 3.347656 62 5 62 L 59 62 C 60.652344 62 62 60.652344 62 59 L 62 15.941406 C 62 15.171875 61.816406 14.398438 61.472656 13.707031 L 56.449219 3.65625 C 55.933594 2.636719 54.90625 2 53.765625 2 Z M 10.234375 4 L 53.765625 4 C 54.144531 4 54.488281 4.210938 54.65625 4.554688 L 59.382813 14 L 41.828125 14 C 41.027344 14 40.273438 14.3125 39.707031 14.878906 L 36.878906 17.707031 C 36.691406 17.894531 36.433594 18 36.171875 18 L 27.828125 18 C 27.566406 18 27.308594 17.894531 27.121094 17.707031 L 24.292969 14.878906 C 23.726563 14.3125 22.972656 14 22.171875 14 L 4.617188 14 L 9.34375 4.554688 C 9.511719 4.210938 9.855469 4 10.234375 4 Z M 4 16 L 22.171875 16 C 22.433594 16 22.691406 16.105469 22.878906 16.292969 L 25.707031 19.121094 C 26.273438 19.6875 27.027344 20 27.828125 20 L 36.171875 20 C 36.972656 20 37.726563 19.6875 38.292969 19.121094 L 41.121094 16.292969 C 41.308594 16.105469 41.566406 16 41.828125 16 L 60 16 L 60 59 C 60 59.550781 59.550781 60 59 60 L 5 60 C 4.449219 60 4 59.550781 4 59 Z M 29 24 C 28.445313 24 28 24.449219 28 25 L 28 37.585938 L 25.707031 35.292969 C 25.316406 34.902344 24.683594 34.902344 24.292969 35.292969 L 20.292969 39.292969 C 19.902344 39.683594 19.902344 40.316406 20.292969 40.707031 L 31.292969 51.707031 C 31.488281 51.902344 31.742188 52 32 52 C 32.257813 52 32.511719 51.902344 32.707031 51.707031 L 43.707031 40.707031 C 44.097656 40.316406 44.097656 39.683594 43.707031 39.292969 L 39.707031 35.292969 C 39.316406 34.902344 38.683594 34.902344 38.292969 35.292969 L 36 37.585938 L 36 25 C 36 24.449219 35.554688 24 35 24 Z M 30 26 L 34 26 L 34 40 C 34 40.402344 34.242188 40.769531 34.617188 40.921875 C 34.992188 41.078125 35.421875 40.992188 35.707031 40.707031 L 39 37.414063 L 41.585938 40 L 32 49.585938 L 22.414063 40 L 25 37.414063 L 28.292969 40.707031 C 28.578125 40.992188 29.007813 41.078125 29.382813 40.921875 C 29.757813 40.769531 30 40.402344 30 40 Z M 7 54 C 6.445313 54 6 54.449219 6 55 L 6 57 C 6 57.550781 6.445313 58 7 58 C 7.554688 58 8 57.550781 8 57 L 8 55 C 8 54.449219 7.554688 54 7 54 Z M 12 54 C 11.445313 54 11 54.449219 11 55 L 11 57 C 11 57.550781 11.445313 58 12 58 C 12.554688 58 13 57.550781 13 57 L 13 55 C 13 54.449219 12.554688 54 12 54 Z M 17 54 C 16.445313 54 16 54.449219 16 55 L 16 57 C 16 57.550781 16.445313 58 17 58 C 17.554688 58 18 57.550781 18 57 L 18 55 C 18 54.449219 17.554688 54 17 54 Z M 22 54 C 21.445313 54 21 54.449219 21 55 L 21 57 C 21 57.550781 21.445313 58 22 58 C 22.554688 58 23 57.550781 23 57 L 23 55 C 23 54.449219 22.554688 54 22 54 Z M 27 54 C 26.445313 54 26 54.449219 26 55 L 26 57 C 26 57.550781 26.445313 58 27 58 C 27.554688 58 28 57.550781 28 57 L 28 55 C 28 54.449219 27.554688 54 27 54 Z M 32 54 C 31.445313 54 31 54.449219 31 55 L 31 57 C 31 57.550781 31.445313 58 32 58 C 32.554688 58 33 57.550781 33 57 L 33 55 C 33 54.449219 32.554688 54 32 54 Z M 37 54 C 36.445313 54 36 54.449219 36 55 L 36 57 C 36 57.550781 36.445313 58 37 58 C 37.554688 58 38 57.550781 38 57 L 38 55 C 38 54.449219 37.554688 54 37 54 Z M 42 54 C 41.445313 54 41 54.449219 41 55 L 41 57 C 41 57.550781 41.445313 58 42 58 C 42.554688 58 43 57.550781 43 57 L 43 55 C 43 54.449219 42.554688 54 42 54 Z M 47 54 C 46.445313 54 46 54.449219 46 55 L 46 57 C 46 57.550781 46.445313 58 47 58 C 47.554688 58 48 57.550781 48 57 L 48 55 C 48 54.449219 47.554688 54 47 54 Z M 52 54 C 51.445313 54 51 54.449219 51 55 L 51 57 C 51 57.550781 51.445313 58 52 58 C 52.554688 58 53 57.550781 53 57 L 53 55 C 53 54.449219 52.554688 54 52 54 Z M 57 54 C 56.445313 54 56 54.449219 56 55 L 56 57 C 56 57.550781 56.445313 58 57 58 C 57.554688 58 58 57.550781 58 57 L 58 55 C 58 54.449219 57.554688 54 57 54 Z"/></svg>