<svg fill="#000000" xmlns="http://www.w3.org/2000/svg"  viewBox="0 0 64 64" width="64px" height="64px"><path d="M 5 4 C 3.347656 4 2 5.347656 2 7 L 2 46 C 2 48.207031 3.792969 50 6 50 L 21.585938 50 L 20.292969 51.292969 C 20.097656 51.488281 20 51.742188 20 52 C 20 52.257813 20.097656 52.511719 20.292969 52.707031 L 31.292969 63.707031 C 31.683594 64.097656 32.316406 64.097656 32.707031 63.707031 L 43.707031 52.707031 C 44.097656 52.316406 44.097656 51.683594 43.707031 51.292969 L 42.414063 50 L 60 50 C 62.207031 50 64 48.207031 64 46 L 64 17 C 64 15.347656 62.652344 14 61 14 L 58 14 L 58 13 C 58 11.347656 56.652344 10 55 10 L 29.707031 10 C 28.910156 10 28.164063 9.691406 27.597656 9.132813 L 23.875 5.445313 C 22.929688 4.515625 21.679688 4 20.355469 4 Z M 5 6 L 20.355469 6 C 21.152344 6 21.898438 6.308594 22.464844 6.867188 L 26.1875 10.554688 C 27.132813 11.484375 28.382813 12 29.707031 12 L 55 12 C 55.550781 12 56 12.449219 56 13 L 56 38 L 39 38 C 38.449219 38 38 38.449219 38 39 C 38 39.550781 38.449219 40 39 40 L 56 40 L 56 46 C 56 46.617188 56.222656 47.339844 56.632813 48 L 40.414063 48 L 39.707031 47.292969 C 39.316406 46.902344 38.683594 46.902344 38.292969 47.292969 L 37.585938 48 L 36 48 L 36 27 C 36 26.449219 35.550781 26 35 26 L 29 26 C 28.449219 26 28 26.449219 28 27 L 28 48 L 26.414063 48 L 25.707031 47.292969 C 25.316406 46.902344 24.683594 46.902344 24.292969 47.292969 L 23.585938 48 L 6 48 C 4.898438 48 4 47.101563 4 46 L 4 40 L 25 40 C 25.550781 40 26 39.550781 26 39 C 26 38.449219 25.550781 38 25 38 L 4 38 L 4 7 C 4 6.449219 4.449219 6 5 6 Z M 58 16 L 61 16 C 61.550781 16 62 16.449219 62 17 L 62 46 C 62 47.101563 61.101563 48 60 48 C 58.753906 48 58 46.609375 58 46 Z M 30 28 L 34 28 L 34 52 C 34 52.402344 34.246094 52.769531 34.617188 52.921875 C 34.992188 53.078125 35.421875 52.992188 35.707031 52.707031 L 39 49.414063 L 41.585938 52 L 32 61.585938 L 22.414063 52 L 25 49.414063 L 28.292969 52.707031 C 28.578125 52.992188 29.007813 53.078125 29.382813 52.921875 C 29.753906 52.769531 30 52.402344 30 52 Z M 6 42 C 5.449219 42 5 42.449219 5 43 L 5 45 C 5 45.550781 5.449219 46 6 46 C 6.550781 46 7 45.550781 7 45 L 7 43 C 7 42.449219 6.550781 42 6 42 Z M 11 42 C 10.449219 42 10 42.449219 10 43 L 10 45 C 10 45.550781 10.449219 46 11 46 C 11.550781 46 12 45.550781 12 45 L 12 43 C 12 42.449219 11.550781 42 11 42 Z M 16 42 C 15.449219 42 15 42.449219 15 43 L 15 45 C 15 45.550781 15.449219 46 16 46 C 16.550781 46 17 45.550781 17 45 L 17 43 C 17 42.449219 16.550781 42 16 42 Z M 21 42 C 20.449219 42 20 42.449219 20 43 L 20 45 C 20 45.550781 20.449219 46 21 46 C 21.550781 46 22 45.550781 22 45 L 22 43 C 22 42.449219 21.550781 42 21 42 Z M 26 42 C 25.449219 42 25 42.449219 25 43 L 25 45 C 25 45.550781 25.449219 46 26 46 C 26.550781 46 27 45.550781 27 45 L 27 43 C 27 42.449219 26.550781 42 26 42 Z M 38 42 C 37.449219 42 37 42.449219 37 43 L 37 45 C 37 45.550781 37.449219 46 38 46 C 38.550781 46 39 45.550781 39 45 L 39 43 C 39 42.449219 38.550781 42 38 42 Z M 43 42 C 42.449219 42 42 42.449219 42 43 L 42 45 C 42 45.550781 42.449219 46 43 46 C 43.550781 46 44 45.550781 44 45 L 44 43 C 44 42.449219 43.550781 42 43 42 Z M 48 42 C 47.449219 42 47 42.449219 47 43 L 47 45 C 47 45.550781 47.449219 46 48 46 C 48.550781 46 49 45.550781 49 45 L 49 43 C 49 42.449219 48.550781 42 48 42 Z M 53 42 C 52.449219 42 52 42.449219 52 43 L 52 45 C 52 45.550781 52.449219 46 53 46 C 53.550781 46 54 45.550781 54 45 L 54 43 C 54 42.449219 53.550781 42 53 42 Z"/></svg>