<svg fill="#000000" xmlns="http://www.w3.org/2000/svg"  viewBox="0 0 64 64" width="64px" height="64px"><path d="M 54.5 2 C 51.628906 2 49.128906 3.621094 47.878906 6 L 7 6 C 5.351563 6 4 7.351563 4 9 L 4 55 C 4 56.648438 5.351563 58 7 58 L 55 58 C 56.648438 58 58 56.648438 58 55 L 58 16.121094 C 60.378906 14.871094 62 12.371094 62 9.5 C 62 5.359375 58.640625 2 54.5 2 Z M 54.5 4 C 57.53125 4 60 6.46875 60 9.5 C 60 11.199219 59.21875 12.730469 58 13.738281 C 57.421875 14.21875 56.738281 14.578125 56 14.789063 C 55.519531 14.929688 55.019531 15 54.5 15 C 51.46875 15 49 12.53125 49 9.5 C 49 8.980469 49.070313 8.480469 49.210938 8 C 49.421875 7.261719 49.78125 6.578125 50.261719 6 C 51.269531 4.78125 52.800781 4 54.5 4 Z M 7 8 L 47.152344 8 C 47.050781 8.480469 47 8.988281 47 9.5 C 47 13.640625 50.359375 17 54.5 17 C 55.011719 17 55.519531 16.949219 56 16.847656 L 56 50 C 55.445313 50 55 50.445313 55 51 L 55 53 C 55 53.554688 55.445313 54 56 54 L 56 55 C 56 55.550781 55.550781 56 55 56 L 7 56 C 6.449219 56 6 55.550781 6 55 L 6 54 C 6.554688 54 7 53.554688 7 53 L 7 51 C 7 50.445313 6.554688 50 6 50 L 6 9 C 6 8.449219 6.449219 8 7 8 Z M 31 14 C 30.445313 14 30 14.445313 30 15 L 30 19 C 30 19.554688 30.445313 20 31 20 C 31.554688 20 32 19.554688 32 19 L 32 15 C 32 14.445313 31.554688 14 31 14 Z M 31 22 C 30.445313 22 30 22.445313 30 23 L 30 36.585938 L 25.707031 32.292969 C 25.316406 31.902344 24.683594 31.902344 24.292969 32.292969 C 23.902344 32.683594 23.902344 33.316406 24.292969 33.707031 L 30.292969 39.703125 C 30.386719 39.796875 30.496094 39.871094 30.617188 39.921875 C 30.738281 39.976563 30.871094 40 31 40 C 31.128906 40 31.261719 39.976563 31.382813 39.921875 C 31.503906 39.871094 31.613281 39.796875 31.707031 39.703125 L 37.707031 33.707031 C 38.097656 33.316406 38.097656 32.683594 37.707031 32.292969 C 37.316406 31.902344 36.683594 31.902344 36.292969 32.292969 L 32 36.585938 L 32 23 C 32 22.445313 31.554688 22 31 22 Z M 15 34 C 14.445313 34 14 34.445313 14 35 L 14 43 C 14 44.652344 15.347656 46 17 46 L 45 46 C 46.652344 46 48 44.652344 48 43 L 48 35 C 48 34.445313 47.554688 34 47 34 C 46.445313 34 46 34.445313 46 35 L 46 43 C 46 43.550781 45.550781 44 45 44 L 17 44 C 16.449219 44 16 43.550781 16 43 L 16 35 C 16 34.445313 15.554688 34 15 34 Z M 11 50 C 10.445313 50 10 50.445313 10 51 L 10 53 C 10 53.554688 10.445313 54 11 54 C 11.554688 54 12 53.554688 12 53 L 12 51 C 12 50.445313 11.554688 50 11 50 Z M 16 50 C 15.445313 50 15 50.445313 15 51 L 15 53 C 15 53.554688 15.445313 54 16 54 C 16.554688 54 17 53.554688 17 53 L 17 51 C 17 50.445313 16.554688 50 16 50 Z M 21 50 C 20.445313 50 20 50.445313 20 51 L 20 53 C 20 53.554688 20.445313 54 21 54 C 21.554688 54 22 53.554688 22 53 L 22 51 C 22 50.445313 21.554688 50 21 50 Z M 26 50 C 25.445313 50 25 50.445313 25 51 L 25 53 C 25 53.554688 25.445313 54 26 54 C 26.554688 54 27 53.554688 27 53 L 27 51 C 27 50.445313 26.554688 50 26 50 Z M 31 50 C 30.445313 50 30 50.445313 30 51 L 30 53 C 30 53.554688 30.445313 54 31 54 C 31.554688 54 32 53.554688 32 53 L 32 51 C 32 50.445313 31.554688 50 31 50 Z M 36 50 C 35.445313 50 35 50.445313 35 51 L 35 53 C 35 53.554688 35.445313 54 36 54 C 36.554688 54 37 53.554688 37 53 L 37 51 C 37 50.445313 36.554688 50 36 50 Z M 41 50 C 40.445313 50 40 50.445313 40 51 L 40 53 C 40 53.554688 40.445313 54 41 54 C 41.554688 54 42 53.554688 42 53 L 42 51 C 42 50.445313 41.554688 50 41 50 Z M 46 50 C 45.445313 50 45 50.445313 45 51 L 45 53 C 45 53.554688 45.445313 54 46 54 C 46.554688 54 47 53.554688 47 53 L 47 51 C 47 50.445313 46.554688 50 46 50 Z M 51 50 C 50.445313 50 50 50.445313 50 51 L 50 53 C 50 53.554688 50.445313 54 51 54 C 51.554688 54 52 53.554688 52 53 L 52 51 C 52 50.445313 51.554688 50 51 50 Z"/></svg>