<svg fill="#000000" xmlns="http://www.w3.org/2000/svg"  viewBox="0 0 64 64" width="64px" height="64px"><path d="M 23 4 C 21.347656 4 20 5.347656 20 7 L 20 28 L 7 28 C 6.449219 28 6 28.449219 6 29 L 6 35 C 6 35.550781 6.449219 36 7 36 L 20 36 L 20 57 C 20 58.652344 21.347656 60 23 60 L 57 60 C 58.652344 60 60 58.652344 60 57 L 60 7 C 60 5.347656 58.652344 4 57 4 Z M 23 6 L 57 6 C 57.550781 6 58 6.449219 58 7 L 58 57 C 58 57.550781 57.550781 58 57 58 L 23 58 C 22.449219 58 22 57.550781 22 57 L 22 36 L 35.585938 36 L 33.292969 38.292969 C 32.902344 38.683594 32.902344 39.316406 33.292969 39.707031 L 37.292969 43.707031 C 37.488281 43.902344 37.742188 44 38 44 C 38.257813 44 38.511719 43.902344 38.707031 43.707031 L 49.707031 32.707031 C 50.097656 32.316406 50.097656 31.683594 49.707031 31.292969 L 38.707031 20.292969 C 38.316406 19.902344 37.683594 19.902344 37.292969 20.292969 L 33.292969 24.292969 C 32.902344 24.683594 32.902344 25.316406 33.292969 25.707031 L 35.585938 28 L 22 28 L 22 7 C 22 6.449219 22.449219 6 23 6 Z M 38 22.414063 L 47.585938 32 L 38 41.585938 L 35.414063 39 L 38.707031 35.707031 C 38.992188 35.421875 39.078125 34.992188 38.921875 34.617188 C 38.769531 34.246094 38.402344 34 38 34 L 8 34 L 8 30 L 38 30 C 38.402344 30 38.769531 29.753906 38.921875 29.382813 C 39.078125 29.007813 38.992188 28.578125 38.707031 28.292969 L 35.414063 25 Z M 25 52 C 24.449219 52 24 52.445313 24 53 L 24 55 C 24 55.554688 24.449219 56 25 56 C 25.550781 56 26 55.554688 26 55 L 26 53 C 26 52.445313 25.550781 52 25 52 Z M 30 52 C 29.449219 52 29 52.445313 29 53 L 29 55 C 29 55.554688 29.449219 56 30 56 C 30.550781 56 31 55.554688 31 55 L 31 53 C 31 52.445313 30.550781 52 30 52 Z M 35 52 C 34.449219 52 34 52.445313 34 53 L 34 55 C 34 55.554688 34.449219 56 35 56 C 35.550781 56 36 55.554688 36 55 L 36 53 C 36 52.445313 35.550781 52 35 52 Z M 40 52 C 39.449219 52 39 52.445313 39 53 L 39 55 C 39 55.554688 39.449219 56 40 56 C 40.550781 56 41 55.554688 41 55 L 41 53 C 41 52.445313 40.550781 52 40 52 Z M 45 52 C 44.449219 52 44 52.445313 44 53 L 44 55 C 44 55.554688 44.449219 56 45 56 C 45.550781 56 46 55.554688 46 55 L 46 53 C 46 52.445313 45.550781 52 45 52 Z M 50 52 C 49.449219 52 49 52.445313 49 53 L 49 55 C 49 55.554688 49.449219 56 50 56 C 50.550781 56 51 55.554688 51 55 L 51 53 C 51 52.445313 50.550781 52 50 52 Z M 55 52 C 54.449219 52 54 52.445313 54 53 L 54 55 C 54 55.554688 54.449219 56 55 56 C 55.550781 56 56 55.554688 56 55 L 56 53 C 56 52.445313 55.550781 52 55 52 Z"/></svg>