<svg fill="#000000" xmlns="http://www.w3.org/2000/svg"  viewBox="0 0 64 64" width="64px" height="64px"><path d="M 13.160156 6 C 11.441406 6 9.910156 7.101563 9.367188 8.730469 L 4.507813 23.320313 C 4.371094 23.730469 3.992188 24 3.5625 24 L 3 24 C 1.351563 24 0 25.351563 0 27 L 0 51 C 0 54.859375 3.140625 58 7 58 L 57 58 C 60.859375 58 64 54.859375 64 51 L 64 27 C 64 25.351563 62.648438 24 61 24 L 59.71875 24 L 54.628906 8.742188 C 54.089844 7.101563 52.558594 6 50.839844 6 Z M 13.160156 8 L 32.839844 8 C 33.699219 8 34.460938 8.550781 34.730469 9.367188 L 39.597656 23.949219 C 39.609375 23.96875 39.609375 23.980469 39.621094 24 C 40.027344 25.199219 41.167969 26 42.4375 26 L 61 26 C 61.550781 26 62 26.449219 62 27 L 62 51 C 62 53.761719 59.761719 56 57 56 L 7 56 C 4.238281 56 2 53.761719 2 51 L 2 27 C 2 26.449219 2.449219 26 3 26 L 3.5625 26 C 4.851563 26 6 25.179688 6.398438 23.949219 L 11.269531 9.367188 C 11.539063 8.550781 12.300781 8 13.160156 8 Z M 36.300781 8 L 50.839844 8 C 51.699219 8 52.460938 8.550781 52.730469 9.367188 L 57.609375 24 L 42.4375 24 C 42.007813 24 41.628906 23.730469 41.488281 23.320313 L 36.628906 8.742188 C 36.539063 8.480469 36.429688 8.230469 36.300781 8 Z M 16 12 C 15.449219 12 15 12.449219 15 13 C 15 13.550781 15.449219 14 16 14 L 30 14 C 30.550781 14 31 13.550781 31 13 C 31 12.449219 30.550781 12 30 12 Z M 16 16 C 15.449219 16 15 16.449219 15 17 C 15 17.550781 15.449219 18 16 18 L 30 18 C 30.550781 18 31 17.550781 31 17 C 31 16.449219 30.550781 16 30 16 Z M 16 20 C 15.449219 20 15 20.449219 15 21 C 15 21.550781 15.449219 22 16 22 L 30 22 C 30.550781 22 31 21.550781 31 21 C 31 20.449219 30.550781 20 30 20 Z M 7 48 C 6.449219 48 6 48.449219 6 49 L 6 51 C 6 51.550781 6.449219 52 7 52 C 7.550781 52 8 51.550781 8 51 L 8 49 C 8 48.449219 7.550781 48 7 48 Z M 12 48 C 11.449219 48 11 48.449219 11 49 L 11 51 C 11 51.550781 11.449219 52 12 52 C 12.550781 52 13 51.550781 13 51 L 13 49 C 13 48.449219 12.550781 48 12 48 Z M 17 48 C 16.449219 48 16 48.449219 16 49 L 16 51 C 16 51.550781 16.449219 52 17 52 C 17.550781 52 18 51.550781 18 51 L 18 49 C 18 48.449219 17.550781 48 17 48 Z M 22 48 C 21.449219 48 21 48.449219 21 49 L 21 51 C 21 51.550781 21.449219 52 22 52 C 22.550781 52 23 51.550781 23 51 L 23 49 C 23 48.449219 22.550781 48 22 48 Z M 27 48 C 26.449219 48 26 48.449219 26 49 L 26 51 C 26 51.550781 26.449219 52 27 52 C 27.550781 52 28 51.550781 28 51 L 28 49 C 28 48.449219 27.550781 48 27 48 Z M 32 48 C 31.449219 48 31 48.449219 31 49 L 31 51 C 31 51.550781 31.449219 52 32 52 C 32.550781 52 33 51.550781 33 51 L 33 49 C 33 48.449219 32.550781 48 32 48 Z M 37 48 C 36.449219 48 36 48.449219 36 49 L 36 51 C 36 51.550781 36.449219 52 37 52 C 37.550781 52 38 51.550781 38 51 L 38 49 C 38 48.449219 37.550781 48 37 48 Z M 42 48 C 41.449219 48 41 48.449219 41 49 L 41 51 C 41 51.550781 41.449219 52 42 52 C 42.550781 52 43 51.550781 43 51 L 43 49 C 43 48.449219 42.550781 48 42 48 Z M 47 48 C 46.449219 48 46 48.449219 46 49 L 46 51 C 46 51.550781 46.449219 52 47 52 C 47.550781 52 48 51.550781 48 51 L 48 49 C 48 48.449219 47.550781 48 47 48 Z M 52 48 C 51.449219 48 51 48.449219 51 49 L 51 51 C 51 51.550781 51.449219 52 52 52 C 52.550781 52 53 51.550781 53 51 L 53 49 C 53 48.449219 52.550781 48 52 48 Z M 57 48 C 56.449219 48 56 48.449219 56 49 L 56 51 C 56 51.550781 56.449219 52 57 52 C 57.550781 52 58 51.550781 58 51 L 58 49 C 58 48.449219 57.550781 48 57 48 Z"/></svg>