<svg fill="#000000" xmlns="http://www.w3.org/2000/svg"  viewBox="0 0 64 64" width="64px" height="64px"><path d="M 25 0 C 11.214844 0 0 11.214844 0 25 C 0 38.785156 11.214844 50 25 50 C 30.515625 50 35.613281 48.203125 39.75 45.167969 L 42.292969 47.707031 C 42.402344 47.816406 42.53125 47.886719 42.667969 47.9375 C 42.648438 49.238281 43.128906 50.542969 44.121094 51.535156 L 54.464844 61.878906 C 55.410156 62.824219 56.664063 63.34375 58 63.34375 C 59.335938 63.34375 60.59375 62.824219 61.535156 61.878906 L 61.878906 61.535156 C 63.828125 59.585938 63.828125 56.414063 61.878906 54.464844 L 51.535156 44.121094 C 50.59375 43.175781 49.335938 42.65625 48 42.65625 C 47.976563 42.65625 47.957031 42.660156 47.933594 42.660156 C 47.886719 42.527344 47.8125 42.402344 47.707031 42.292969 L 45.167969 39.75 C 48.203125 35.613281 50 30.515625 50 25 C 50 11.214844 38.785156 0 25 0 Z M 25 2 C 37.683594 2 48 12.316406 48 25 C 48 37.683594 37.683594 48 25 48 C 12.316406 48 2 37.683594 2 25 C 2 12.316406 12.316406 2 25 2 Z M 25 8 C 16.058594 8 8.722656 14.945313 8.0625 23.722656 L 5.636719 21.292969 C 5.246094 20.902344 4.613281 20.902344 4.222656 21.292969 C 3.832031 21.683594 3.832031 22.316406 4.222656 22.707031 L 8.292969 26.777344 C 8.488281 26.972656 8.742188 27.070313 9 27.070313 C 9.257813 27.070313 9.511719 26.972656 9.707031 26.777344 L 13.777344 22.707031 C 14.167969 22.316406 14.167969 21.683594 13.777344 21.292969 C 13.386719 20.902344 12.753906 20.902344 12.363281 21.292969 L 10.070313 23.585938 C 10.785156 15.976563 17.207031 10 25 10 C 26.519531 10 28.023438 10.226563 29.460938 10.671875 C 29.988281 10.839844 30.546875 10.542969 30.714844 10.015625 C 30.875 9.488281 30.582031 8.925781 30.054688 8.765625 C 28.421875 8.257813 26.722656 8 25 8 Z M 34.609375 9.269531 C 34.359375 9.3125 34.121094 9.453125 33.964844 9.679688 L 32.804688 11.308594 C 32.484375 11.757813 32.589844 12.382813 33.042969 12.703125 C 33.21875 12.828125 33.417969 12.886719 33.621094 12.886719 C 33.933594 12.886719 34.242188 12.738281 34.4375 12.464844 L 35.59375 10.832031 C 35.914063 10.382813 35.808594 9.757813 35.359375 9.4375 C 35.132813 9.277344 34.863281 9.226563 34.609375 9.269531 Z M 38.316406 12.453125 C 38.0625 12.429688 37.800781 12.503906 37.585938 12.683594 L 36.046875 13.957031 C 35.617188 14.308594 35.5625 14.941406 35.910156 15.363281 C 36.109375 15.605469 36.394531 15.726563 36.683594 15.726563 C 36.910156 15.726563 37.132813 15.652344 37.320313 15.496094 L 38.859375 14.222656 C 39.285156 13.871094 39.34375 13.242188 38.992188 12.8125 C 38.816406 12.601563 38.570313 12.480469 38.316406 12.453125 Z M 40.691406 16.433594 C 40.5625 16.4375 40.429688 16.464844 40.304688 16.523438 L 38.484375 17.355469 C 37.984375 17.585938 37.765625 18.179688 37.996094 18.683594 C 38.164063 19.046875 38.523438 19.265625 38.90625 19.265625 C 39.042969 19.265625 39.183594 19.234375 39.320313 19.171875 L 41.140625 18.34375 C 41.640625 18.113281 41.863281 17.519531 41.628906 17.015625 C 41.457031 16.640625 41.082031 16.421875 40.691406 16.433594 Z M 41 21 C 40.746094 21 40.488281 21.097656 40.292969 21.292969 L 36.222656 25.363281 C 35.832031 25.753906 35.832031 26.386719 36.222656 26.777344 C 36.613281 27.167969 37.246094 27.167969 37.636719 26.777344 L 39.96875 24.445313 C 39.976563 24.632813 40 24.816406 40 25 C 40 33.269531 33.269531 40 25 40 C 23.371094 40 21.769531 39.738281 20.238281 39.230469 C 19.714844 39.054688 19.148438 39.335938 18.972656 39.859375 C 18.796875 40.382813 19.078125 40.949219 19.605469 41.125 C 21.339844 41.707031 23.152344 42 25 42 C 34.375 42 42 34.375 42 25 C 42 24.792969 41.972656 24.585938 41.964844 24.378906 L 44.363281 26.777344 C 44.558594 26.972656 44.8125 27.070313 45.070313 27.070313 C 45.328125 27.070313 45.582031 26.972656 45.777344 26.777344 C 46.167969 26.386719 46.167969 25.753906 45.777344 25.363281 L 41.707031 21.292969 C 41.511719 21.097656 41.253906 21 41 21 Z M 10.949219 29.332031 C 10.816406 29.339844 10.6875 29.367188 10.5625 29.425781 L 8.75 30.273438 C 8.25 30.507813 8.03125 31.101563 8.265625 31.601563 C 8.4375 31.964844 8.796875 32.179688 9.171875 32.179688 C 9.316406 32.179688 9.457031 32.148438 9.59375 32.085938 L 11.40625 31.238281 C 11.90625 31.007813 12.125 30.410156 11.890625 29.910156 C 11.714844 29.535156 11.335938 29.320313 10.949219 29.332031 Z M 13.3125 32.859375 C 13.058594 32.839844 12.796875 32.914063 12.582031 33.09375 L 11.050781 34.375 C 10.628906 34.730469 10.574219 35.363281 10.925781 35.785156 C 11.125 36.019531 11.410156 36.140625 11.695313 36.140625 C 11.921875 36.140625 12.148438 36.0625 12.339844 35.90625 L 13.871094 34.625 C 14.292969 34.269531 14.347656 33.636719 13.992188 33.214844 C 13.816406 33.003906 13.570313 32.882813 13.3125 32.859375 Z M 16.128906 35.695313 C 15.878906 35.738281 15.644531 35.882813 15.484375 36.109375 L 14.339844 37.746094 C 14.023438 38.195313 14.128906 38.820313 14.582031 39.140625 C 14.757813 39.261719 14.957031 39.316406 15.15625 39.316406 C 15.472656 39.316406 15.78125 39.171875 15.976563 38.890625 L 17.125 37.253906 C 17.4375 36.804688 17.332031 36.179688 16.878906 35.859375 C 16.652344 35.703125 16.382813 35.652344 16.128906 35.695313 Z M 43.910156 41.324219 L 45.78125 43.195313 C 45.304688 43.433594 44.851563 43.730469 44.464844 44.121094 L 44.121094 44.464844 C 43.726563 44.859375 43.433594 45.3125 43.199219 45.785156 L 41.324219 43.910156 C 42.25 43.113281 43.113281 42.25 43.910156 41.324219 Z M 48 44.65625 C 48.800781 44.65625 49.554688 44.96875 50.121094 45.535156 L 60.464844 55.878906 C 61.636719 57.046875 61.636719 58.949219 60.464844 60.121094 L 60.121094 60.464844 C 58.988281 61.597656 57.011719 61.597656 55.878906 60.464844 L 45.535156 50.121094 C 44.367188 48.949219 44.367188 47.050781 45.535156 45.878906 L 45.878906 45.535156 C 46.445313 44.96875 47.199219 44.65625 48 44.65625 Z"/></svg>