<svg fill="#000000" xmlns="http://www.w3.org/2000/svg"  viewBox="0 0 64 64" width="64px" height="64px"><path d="M 11.140625 7 C 8.865625 7 7.0195313 8.7388125 7.0195312 10.882812 L 7.0195312 25.117188 C 7.0195312 27.261187 8.865625 29 11.140625 29 L 24.878906 29 C 27.153906 29 29 27.261188 29 25.117188 L 29 10.882812 C 29 8.7388125 27.153906 7 24.878906 7 L 11.140625 7 z M 38.882812 7 C 36.738812 7 35 8.7388125 35 10.882812 L 35 25.117188 C 35 27.260188 36.738813 29 38.882812 29 L 53.117188 29 C 55.260188 29 57 27.261188 57 25.117188 L 57 10.882812 C 57 8.7388125 55.261187 7 53.117188 7 L 38.882812 7 z M 11.140625 9 L 24.878906 9 C 26.047906 9 27 9.8448125 27 10.882812 L 27 25.117188 C 27 26.155188 26.047906 27 24.878906 27 L 11.140625 27 C 9.970625 27 9.0195313 26.155187 9.0195312 25.117188 L 9.0195312 10.882812 C 9.0185313 9.8448125 9.970625 9 11.140625 9 z M 38.882812 9 L 53.117188 9 C 54.155188 9 55 9.8448125 55 10.882812 L 55 25.117188 C 55 26.155188 54.155187 27 53.117188 27 L 38.882812 27 C 37.844812 27 37 26.155187 37 25.117188 L 37 10.882812 C 37 9.8448125 37.844812 9 38.882812 9 z M 13 16 C 12.4 16 12 16.4 12 17 L 12 19 C 12 19.6 12.4 20 13 20 C 13.6 20 14 19.6 14 19 L 14 17 C 14 16.4 13.6 16 13 16 z M 18 16 C 17.4 16 17 16.4 17 17 L 17 19 C 17 19.6 17.4 20 18 20 C 18.6 20 19 19.6 19 19 L 19 17 C 19 16.4 18.6 16 18 16 z M 23 16 C 22.4 16 22 16.4 22 17 L 22 19 C 22 19.6 22.4 20 23 20 C 23.6 20 24 19.6 24 19 L 24 17 C 24 16.4 23.6 16 23 16 z M 10.898438 35 C 8.7564375 35 7.0195313 36.738859 7.0195312 38.880859 L 7.0195312 53.101562 C 7.0195312 55.243563 8.7564375 56.980469 10.898438 56.980469 L 25.119141 56.980469 C 27.261141 56.980469 29 55.243563 29 53.101562 L 29 38.880859 C 29 36.738859 27.261094 35 25.121094 35 L 10.898438 35 z M 38.882812 35 C 36.738812 35 35 36.738859 35 38.880859 L 35 53.101562 C 35 55.243563 36.738813 56.980469 38.882812 56.980469 L 53.117188 56.980469 C 55.261187 56.980469 57 55.243563 57 53.101562 L 57 38.880859 C 57 36.738859 55.260187 35 53.117188 35 L 38.882812 35 z M 10.898438 37 L 25.121094 37 C 26.156094 37 27 37.843859 27 38.880859 L 27 53.101562 C 27 54.137563 26.156141 54.980469 25.119141 54.980469 L 10.898438 54.980469 C 9.8624375 54.980469 9.0195312 54.138563 9.0195312 53.101562 L 9.0195312 38.880859 C 9.0195312 37.844859 9.8614375 37 10.898438 37 z M 38.882812 37 L 53.117188 37 C 54.155187 37 55 37.843859 55 38.880859 L 55 53.101562 C 55 54.137563 54.155188 54.980469 53.117188 54.980469 L 38.882812 54.980469 C 37.844813 54.980469 37 54.138563 37 53.101562 L 37 38.880859 C 37 37.844859 37.844812 37 38.882812 37 z M 41 44 C 40.4 44 40 44.4 40 45 L 40 47 C 40 47.6 40.4 48 41 48 C 41.6 48 42 47.6 42 47 L 42 45 C 42 44.4 41.6 44 41 44 z M 46 44 C 45.4 44 45 44.4 45 45 L 45 47 C 45 47.6 45.4 48 46 48 C 46.6 48 47 47.6 47 47 L 47 45 C 47 44.4 46.6 44 46 44 z M 51 44 C 50.4 44 50 44.4 50 45 L 50 47 C 50 47.6 50.4 48 51 48 C 51.6 48 52 47.6 52 47 L 52 45 C 52 44.4 51.6 44 51 44 z"/></svg>