<svg fill="#000000" xmlns="http://www.w3.org/2000/svg"  viewBox="0 0 64 64" width="64px" height="64px"><path d="M 29.560547 2 C 28.190332 2 26.984312 2.9412992 26.650391 4.2695312 L 25.478516 8.9375 C 23.654352 9.453442 21.922284 10.178086 20.302734 11.085938 L 16.179688 8.6113281 A 1.0001 1.0001 0 0 0 16.177734 8.609375 C 15.714103 8.332661 15.182497 8.1835936 14.638672 8.1835938 C 13.846245 8.1835938 13.080967 8.4991114 12.519531 9.0605469 L 9.0605469 12.509766 A 1.0001 1.0001 0 0 0 9.0585938 12.511719 C 8.0882552 13.482057 7.9014317 15.002987 8.6113281 16.179688 L 11.083984 20.306641 C 10.17421 21.930327 9.4491361 23.668303 8.9335938 25.498047 L 4.2695312 26.660156 A 1.0001 1.0001 0 0 0 4.2675781 26.660156 C 2.942744 26.993183 2.0044796 28.194266 2 29.560547 A 1.0001 1.0001 0 0 0 2 29.5625 L 2 34.439453 C 2 35.809668 2.9412993 37.015688 4.2695312 37.349609 L 8.9375 38.521484 C 9.4534402 40.345608 10.176153 42.077748 11.083984 43.697266 L 8.609375 47.820312 C 7.9009972 48.99747 8.0865798 50.519711 9.0585938 51.490234 L 12.509766 54.939453 A 1.0001 1.0001 0 0 0 12.509766 54.941406 C 13.071101 55.501252 13.836479 55.816406 14.628906 55.816406 C 15.170885 55.816406 15.703989 55.668231 16.169922 55.388672 L 20.300781 52.914062 C 21.919314 53.821798 23.650624 54.547063 25.474609 55.0625 L 26.638672 59.730469 A 1.0001 1.0001 0 0 0 26.638672 59.732422 C 26.97296 61.060527 28.180566 62 29.550781 62 L 34.439453 62 C 35.809668 62 37.015688 61.058701 37.349609 59.730469 L 38.521484 55.0625 C 40.346104 54.54661 42.07776 53.824476 43.697266 52.916016 L 47.830078 55.390625 L 47.830078 55.388672 C 48.296011 55.668231 48.827162 55.816406 49.369141 55.816406 C 50.161568 55.816406 50.928387 55.499814 51.490234 54.939453 L 54.939453 51.490234 C 55.910302 50.519386 56.098568 48.997012 55.388672 47.820312 L 52.916016 43.693359 C 53.82579 42.069673 54.550864 40.331697 55.066406 38.501953 L 59.728516 37.341797 A 1.0001 1.0001 0 0 0 59.730469 37.341797 C 61.056127 37.010009 61.99357 35.808197 61.998047 34.441406 A 1.0001 1.0001 0 0 0 61.998047 34.4375 L 61.998047 29.560547 C 61.999547 28.189703 61.060208 26.983199 59.730469 26.650391 L 55.0625 25.478516 C 54.54661 23.653896 53.824476 21.92224 52.916016 20.302734 L 55.388672 16.171875 C 56.09705 14.994718 55.910663 13.47121 54.939453 12.5 A 1.0001 1.0001 0 0 0 54.939453 12.498047 L 51.490234 9.0605469 C 50.928387 8.5001857 50.161568 8.1835938 49.369141 8.1835938 C 48.827162 8.1835938 48.296011 8.3317687 47.830078 8.6113281 L 47.830078 8.609375 L 43.697266 11.083984 C 42.078934 10.176464 40.34715 9.4528317 38.523438 8.9375 L 37.359375 4.2695312 C 37.026372 2.9405057 35.819434 2 34.449219 2 L 29.560547 2 z M 29.560547 4 L 34.449219 4 C 34.917004 4 35.306925 4.3048849 35.419922 4.7558594 L 36.714844 9.9511719 A 1.0001 1.0001 0 0 0 37.439453 10.679688 C 39.501062 11.203451 41.447985 12.021934 43.232422 13.083984 A 1.0001 1.0001 0 0 0 44.257812 13.082031 L 48.857422 10.326172 A 1.0001 1.0001 0 0 0 48.859375 10.326172 C 49.013443 10.233732 49.189119 10.183594 49.369141 10.183594 C 49.644714 10.183594 49.883973 10.282925 50.078125 10.476562 L 53.525391 13.914062 C 53.85818 14.246853 53.919403 14.735782 53.675781 15.140625 A 1.0001 1.0001 0 0 0 53.673828 15.142578 L 50.917969 19.742188 A 1.0001 1.0001 0 0 0 50.916016 20.769531 C 51.978974 22.554842 52.797412 24.499415 53.322266 26.5625 A 1.0001 1.0001 0 0 0 54.046875 27.285156 L 59.244141 28.589844 C 59.696401 28.703036 59.998555 29.091438 59.998047 29.558594 A 1.0001 1.0001 0 0 0 59.998047 29.560547 L 59.998047 34.4375 C 59.995747 34.901932 59.691918 35.28832 59.244141 35.400391 L 54.052734 36.695312 A 1.0001 1.0001 0 0 0 53.324219 37.419922 C 52.800343 39.487701 51.981899 41.437399 50.917969 43.226562 A 1.0001 1.0001 0 0 0 50.919922 44.251953 L 53.675781 48.849609 A 1.0001 1.0001 0 0 0 53.675781 48.853516 C 53.917885 49.254817 53.858542 49.743021 53.525391 50.076172 L 50.076172 53.525391 C 49.882374 53.717754 49.643797 53.816406 49.369141 53.816406 C 49.189119 53.816406 49.013443 53.766266 48.859375 53.673828 A 1.0001 1.0001 0 0 0 48.857422 53.673828 L 44.257812 50.917969 A 1.0001 1.0001 0 0 0 43.230469 50.916016 C 41.445158 51.978974 39.500585 52.797412 37.4375 53.322266 A 1.0001 1.0001 0 0 0 36.714844 54.046875 L 35.410156 59.244141 C 35.296125 59.697916 34.907238 60 34.439453 60 L 29.550781 60 C 29.084037 60 28.694762 59.696234 28.580078 59.246094 L 27.283203 54.048828 A 1.0001 1.0001 0 0 0 26.558594 53.320312 C 24.496984 52.796549 22.552015 51.978066 20.767578 50.916016 A 1.0001 1.0001 0 0 0 19.742188 50.917969 L 15.140625 53.673828 C 14.986557 53.766268 14.808927 53.816406 14.628906 53.816406 C 14.353984 53.816406 14.116255 53.716646 13.923828 53.525391 L 13.921875 53.525391 L 10.472656 50.076172 C 10.14067 49.744695 10.080597 49.256405 10.324219 48.851562 A 1.0001 1.0001 0 0 0 10.324219 48.849609 L 13.080078 44.255859 A 1.0001 1.0001 0 0 0 13.082031 43.230469 C 12.019916 41.444968 11.202585 39.499616 10.677734 37.4375 A 1.0001 1.0001 0 0 0 9.953125 36.714844 L 4.7558594 35.410156 C 4.3020914 35.296078 4 34.907238 4 34.439453 L 4 29.566406 C 4.00152 29.102687 4.3066873 28.712535 4.7558594 28.599609 L 9.9472656 27.304688 A 1.0001 1.0001 0 0 0 10.675781 26.580078 C 11.199657 24.512299 12.018101 22.5626 13.082031 20.773438 A 1.0001 1.0001 0 0 0 13.080078 19.748047 L 10.324219 15.150391 A 1.0001 1.0001 0 0 0 10.324219 15.146484 C 10.082115 14.745183 10.140995 14.257443 10.472656 13.925781 L 13.931641 10.476562 A 1.0001 1.0001 0 0 0 13.933594 10.474609 C 14.126158 10.282045 14.363099 10.183594 14.638672 10.183594 C 14.816217 10.183594 14.994461 10.233524 15.150391 10.326172 L 19.744141 13.082031 A 1.0001 1.0001 0 0 0 20.769531 13.083984 C 22.555032 12.021863 24.500384 11.204536 26.5625 10.679688 A 1.0001 1.0001 0 0 0 27.285156 9.953125 L 28.589844 4.7558594 C 28.703922 4.3020914 29.092762 4 29.560547 4 z M 37.566406 13.867188 A 1.0001 1.0001 0 0 0 36.611328 14.572266 L 35.992188 16.474609 A 1.0001 1.0001 0 1 0 37.894531 17.091797 L 38.513672 15.189453 A 1.0001 1.0001 0 0 0 37.566406 13.867188 z M 32 14 C 30.158851 14 28.380879 14.28038 26.707031 14.794922 A 1.0001 1.0001 0 1 0 27.292969 16.705078 C 28.781121 16.24762 30.361149 16 32 16 A 1.0001 1.0001 0 1 0 32 14 z M 42.601562 16.425781 A 1.0001 1.0001 0 0 0 41.771484 16.849609 L 40.595703 18.46875 A 1.0005097 1.0005097 0 1 0 42.214844 19.644531 L 43.388672 18.025391 A 1.0001 1.0001 0 0 0 42.601562 16.425781 z M 22.037109 17.265625 A 1.0001 1.0001 0 0 0 21.410156 17.466797 C 16.927809 20.738614 14 26.027633 14 32 C 14 41.92942 22.07058 50 32 50 A 1.0001 1.0001 0 1 0 32 48 C 23.15142 48 16 40.84858 16 32 C 16 26.680367 18.600191 21.994214 22.589844 19.082031 A 1.0001 1.0001 0 0 0 22.037109 17.265625 z M 28.96875 19.394531 A 1.0001 1.0001 0 0 0 28.75 19.425781 C 23.145325 20.870296 19 25.95359 19 32 C 19 33.209722 19.177781 34.372506 19.482422 35.472656 A 1.0001 1.0001 0 0 0 20.445312 36.205078 A 1.0001 1.0001 0 0 0 20.945312 36.072266 L 27.560547 32.253906 A 1.0001 1.0001 0 0 0 28.052734 31.509766 C 28.18943 30.404143 28.759674 29.456531 29.601562 28.820312 A 1.0001 1.0001 0 0 0 29.998047 28.023438 L 29.998047 20.394531 A 1.0001 1.0001 0 0 0 28.96875 19.394531 z M 34.953125 19.394531 A 1.0001 1.0001 0 0 0 34 20.392578 L 34 28.023438 A 1.0001 1.0001 0 0 0 34.396484 28.820312 C 35.238051 29.456287 35.808651 30.40522 35.945312 31.509766 A 1.0001 1.0001 0 0 0 36.4375 32.253906 L 43.037109 36.0625 L 43.052734 36.072266 A 1.0001 1.0001 0 0 0 43.095703 36.09375 A 1.0001 1.0001 0 0 0 43.136719 36.113281 A 1.0001 1.0001 0 0 0 43.181641 36.132812 A 1.0001 1.0001 0 0 0 43.222656 36.150391 A 1.0001 1.0001 0 0 0 43.275391 36.166016 A 1.0001 1.0001 0 0 0 43.324219 36.179688 A 1.0001 1.0001 0 0 0 43.332031 36.181641 A 1.0001 1.0001 0 0 0 43.412109 36.195312 A 1.0001 1.0001 0 0 0 43.484375 36.203125 A 1.0001 1.0001 0 0 0 43.511719 36.205078 A 1.0001 1.0001 0 0 0 43.529297 36.205078 A 1.0001 1.0001 0 0 0 43.552734 36.205078 A 1.0001 1.0001 0 0 0 43.652344 36.201172 A 1.0001 1.0001 0 0 0 43.751953 36.185547 A 1.0001 1.0001 0 0 0 44.515625 35.474609 L 44.515625 35.472656 A 1.0001 1.0001 0 0 0 44.515625 35.470703 A 1.0001 1.0001 0 0 0 44.552734 35.212891 C 44.817424 34.186464 45 33.118572 45 32 C 45 25.95359 40.855483 20.869356 35.25 19.423828 A 1.0001 1.0001 0 0 0 34.953125 19.394531 z M 46.601562 20.412109 A 1.0001 1.0001 0 0 0 45.974609 20.611328 L 44.355469 21.785156 A 1.0005097 1.0005097 0 1 0 45.53125 23.404297 L 47.150391 22.228516 A 1.0001 1.0001 0 0 0 46.601562 20.412109 z M 27.998047 21.916016 L 27.998047 27.673828 C 27.133868 28.476407 26.531676 29.507139 26.259766 30.695312 L 21.222656 33.601562 C 21.140298 33.069351 21 32.552591 21 32 C 21 27.354366 23.939451 23.529937 27.998047 21.916016 z M 36 21.916016 C 40.059563 23.530631 43 27.354299 43 32 C 43 32.553706 42.858192 33.070451 42.775391 33.603516 L 37.738281 30.695312 C 37.466176 29.506701 36.865321 28.474878 36 27.671875 L 36 21.916016 z M 49.074219 25.433594 A 1.0001 1.0001 0 0 0 48.810547 25.486328 L 46.908203 26.105469 A 1.0001 1.0001 0 1 0 47.525391 28.007812 L 49.427734 27.388672 A 1.0001 1.0001 0 0 0 49.173828 25.433594 A 1.0001 1.0001 0 0 0 49.074219 25.433594 z M 32 30 A 2 2 0 0 0 30 32 A 2 2 0 0 0 32 34 A 2 2 0 0 0 34 32 A 2 2 0 0 0 32 30 z M 48 31 A 1.0001 1.0001 0 1 0 48 33 L 50 33 A 1.0001 1.0001 0 1 0 50 31 L 48 31 z M 30.041016 35.597656 A 1.0001 1.0001 0 0 0 29.537109 35.732422 L 23.162109 39.412109 A 1.0001 1.0001 0 0 0 22.699219 41.074219 C 22.714069 41.089439 22.733127 41.100084 22.748047 41.115234 L 22.746094 41.119141 C 22.766354 41.137381 22.758131 41.124542 22.775391 41.138672 A 1.0001 1.0001 0 0 0 22.777344 41.140625 C 22.782044 41.144425 22.780656 41.142884 22.785156 41.146484 A 1.0001 1.0001 0 0 0 22.789062 41.150391 C 25.14181 43.518301 28.399938 45 32 45 C 35.492058 45 38.622076 43.555254 40.957031 41.310547 A 1.0001 1.0001 0 0 0 41.025391 41.277344 A 1.0001 1.0001 0 0 0 41.144531 41.203125 C 41.170161 41.186605 41.153033 41.202804 41.195312 41.169922 L 41.191406 41.166016 A 1.0001 1.0001 0 0 0 41.257812 41.105469 C 41.268972 41.094129 41.285765 41.089505 41.296875 41.078125 A 1.0001 1.0001 0 0 0 40.853516 39.419922 L 34.464844 35.732422 A 1.0001 1.0001 0 0 0 33.570312 35.677734 C 33.0858 35.884683 32.559267 36 32 36 C 31.440733 36 30.912686 35.88439 30.429688 35.677734 A 1.0001 1.0001 0 0 0 30.041016 35.597656 z M 47.232422 35.939453 A 1.0001 1.0001 0 0 0 46.908203 37.894531 L 48.810547 38.513672 A 1.0001 1.0001 0 1 0 49.427734 36.611328 L 47.525391 35.992188 A 1.0001 1.0001 0 0 0 47.232422 35.939453 z M 30.236328 37.638672 C 30.804273 37.817346 31.374981 38 32 38 C 32.625186 38 33.197354 37.817329 33.765625 37.638672 L 38.697266 40.486328 C 36.82503 41.968208 34.577582 43 32 43 C 29.422447 43 27.174913 41.968121 25.302734 40.486328 L 30.236328 37.638672 z M 40.101562 39.501953 C 40.100834 39.502333 40.09455 39.509366 40.09375 39.509766 A 1.0001 1.0001 0 0 0 40.082031 39.513672 C 40.080731 39.514772 40.105213 39.500053 40.101562 39.501953 z M 44.875 40.398438 A 1.0001 1.0001 0 0 0 44.355469 42.214844 L 45.974609 43.388672 A 1.0001 1.0001 0 1 0 47.150391 41.771484 L 45.53125 40.595703 A 1.0001 1.0001 0 0 0 44.875 40.398438 z M 41.353516 43.933594 A 1.0001 1.0001 0 0 0 40.595703 45.53125 L 41.771484 47.150391 A 1.0001 1.0001 0 1 0 43.388672 45.974609 L 42.214844 44.355469 A 1.0001 1.0001 0 0 0 41.353516 43.933594 z M 36.910156 46.203125 A 1.0001 1.0001 0 0 0 35.992188 47.525391 L 36.611328 49.427734 A 1.0001 1.0001 0 1 0 38.513672 48.810547 L 37.894531 46.908203 A 1.0001 1.0001 0 0 0 36.910156 46.203125 z"/></svg>