<svg fill="#000000" xmlns="http://www.w3.org/2000/svg"  viewBox="0 0 64 64" width="64px" height="64px"><path d="M 11 12 C 9.347656 12 8 13.347656 8 15 L 8 25.078125 C 8 25.371094 7.871094 25.648438 7.648438 25.839844 L 2.234375 30.480469 C 1.789063 30.859375 1.535156 31.414063 1.535156 32 C 1.535156 32.585938 1.789063 33.140625 2.234375 33.519531 L 7.648438 38.160156 C 7.871094 38.351563 8 38.628906 8 38.921875 L 8 49 C 8 50.652344 9.347656 52 11 52 L 61 52 C 62.652344 52 64 50.652344 64 49 L 64 15 C 64 13.347656 62.652344 12 61 12 Z M 11 14 L 61 14 C 61.550781 14 62 14.449219 62 15 L 62 49 C 62 49.550781 61.550781 50 61 50 L 11 50 C 10.449219 50 10 49.550781 10 49 L 10 38.921875 C 10 38.042969 9.617188 37.210938 8.953125 36.640625 L 3.535156 32 L 8.953125 27.359375 C 9.617188 26.789063 10 25.957031 10 25.078125 L 10 15 C 10 14.449219 10.449219 14 11 14 Z M 21 24 C 20.445313 24 20 24.449219 20 25 C 20 25.550781 20.445313 26 21 26 L 43 26 C 43.554688 26 44 25.550781 44 25 C 44 24.449219 43.554688 24 43 24 Z M 47 24 C 46.445313 24 46 24.449219 46 25 C 46 25.550781 46.445313 26 47 26 L 51 26 C 51.554688 26 52 25.550781 52 25 C 52 24.449219 51.554688 24 51 24 Z M 21 30 C 20.445313 30 20 30.449219 20 31 C 20 31.550781 20.445313 32 21 32 L 41 32 C 41.554688 32 42 31.550781 42 31 C 42 30.449219 41.554688 30 41 30 Z M 21 36 C 20.445313 36 20 36.449219 20 37 C 20 37.550781 20.445313 38 21 38 L 49 38 C 49.554688 38 50 37.550781 50 37 C 50 36.449219 49.554688 36 49 36 Z M 13 44 C 12.445313 44 12 44.449219 12 45 L 12 47 C 12 47.550781 12.445313 48 13 48 C 13.554688 48 14 47.550781 14 47 L 14 45 C 14 44.449219 13.554688 44 13 44 Z M 18 44 C 17.445313 44 17 44.449219 17 45 L 17 47 C 17 47.550781 17.445313 48 18 48 C 18.554688 48 19 47.550781 19 47 L 19 45 C 19 44.449219 18.554688 44 18 44 Z M 23 44 C 22.445313 44 22 44.449219 22 45 L 22 47 C 22 47.550781 22.445313 48 23 48 C 23.554688 48 24 47.550781 24 47 L 24 45 C 24 44.449219 23.554688 44 23 44 Z M 28 44 C 27.445313 44 27 44.449219 27 45 L 27 47 C 27 47.550781 27.445313 48 28 48 C 28.554688 48 29 47.550781 29 47 L 29 45 C 29 44.449219 28.554688 44 28 44 Z M 33 44 C 32.445313 44 32 44.449219 32 45 L 32 47 C 32 47.550781 32.445313 48 33 48 C 33.554688 48 34 47.550781 34 47 L 34 45 C 34 44.449219 33.554688 44 33 44 Z M 38 44 C 37.445313 44 37 44.449219 37 45 L 37 47 C 37 47.550781 37.445313 48 38 48 C 38.554688 48 39 47.550781 39 47 L 39 45 C 39 44.449219 38.554688 44 38 44 Z M 43 44 C 42.445313 44 42 44.449219 42 45 L 42 47 C 42 47.550781 42.445313 48 43 48 C 43.554688 48 44 47.550781 44 47 L 44 45 C 44 44.449219 43.554688 44 43 44 Z M 48 44 C 47.445313 44 47 44.449219 47 45 L 47 47 C 47 47.550781 47.445313 48 48 48 C 48.554688 48 49 47.550781 49 47 L 49 45 C 49 44.449219 48.554688 44 48 44 Z M 53 44 C 52.445313 44 52 44.449219 52 45 L 52 47 C 52 47.550781 52.445313 48 53 48 C 53.554688 48 54 47.550781 54 47 L 54 45 C 54 44.449219 53.554688 44 53 44 Z M 58 44 C 57.445313 44 57 44.449219 57 45 L 57 47 C 57 47.550781 57.445313 48 58 48 C 58.554688 48 59 47.550781 59 47 L 59 45 C 59 44.449219 58.554688 44 58 44 Z"/></svg>