<svg fill="#000000" xmlns="http://www.w3.org/2000/svg"  viewBox="0 0 64 64" width="64px" height="64px"><path d="M 3 4 C 1.347656 4 0 5.347656 0 7 L 0 55 C 0 56.652344 1.347656 58 3 58 L 61 58 C 62.652344 58 64 56.652344 64 55 L 64 7 C 64 5.347656 62.652344 4 61 4 Z M 3 6 L 61 6 C 61.550781 6 62 6.449219 62 7 L 62 55 C 62 55.550781 61.550781 56 61 56 L 3 56 C 2.449219 56 2 55.550781 2 55 L 2 7 C 2 6.449219 2.449219 6 3 6 Z M 5 10 C 4.449219 10 4 10.445313 4 11 C 4 11.554688 4.449219 12 5 12 L 7 12 C 7.550781 12 8 11.554688 8 11 C 8 10.445313 7.550781 10 7 10 Z M 12 10 C 10.898438 10 10 10.898438 10 12 L 10 50 C 10 51.101563 10.898438 52 12 52 L 56 52 C 57.101563 52 58 51.101563 58 50 L 58 12 C 58 10.898438 57.101563 10 56 10 Z M 12 12 L 56 12 L 56 50 L 12 50 Z M 5 15 C 4.449219 15 4 15.445313 4 16 C 4 16.554688 4.449219 17 5 17 L 7 17 C 7.550781 17 8 16.554688 8 16 C 8 15.445313 7.550781 15 7 15 Z M 42 16 C 40.898438 16 40 16.898438 40 18 L 40 23.949219 C 40 25.050781 40.898438 25.949219 42 25.949219 L 44 25.949219 C 45.101563 25.949219 46 25.050781 46 23.949219 L 46 22 L 51 22 C 51.550781 22 52 21.554688 52 21 C 52 20.445313 51.550781 20 51 20 L 46 20 L 46 18 C 46 16.898438 45.101563 16 44 16 Z M 42 18 L 44 18 L 44 23.949219 L 42 23.949219 Z M 5 20 C 4.449219 20 4 20.445313 4 21 C 4 21.554688 4.449219 22 5 22 L 7 22 C 7.550781 22 8 21.554688 8 21 C 8 20.445313 7.550781 20 7 20 Z M 19 20 C 18.449219 20 18 20.445313 18 21 C 18 21.554688 18.449219 22 19 22 L 37 22 C 37.550781 22 38 21.554688 38 21 C 38 20.445313 37.550781 20 37 20 Z M 5 25 C 4.449219 25 4 25.445313 4 26 C 4 26.554688 4.449219 27 5 27 L 7 27 C 7.550781 27 8 26.554688 8 26 C 8 25.445313 7.550781 25 7 25 Z M 28 26 C 26.898438 26 26 26.898438 26 28 L 26 33.949219 C 26 35.050781 26.898438 35.949219 28 35.949219 L 30 35.949219 C 31.101563 35.949219 32 35.050781 32 33.949219 L 32 32 L 51 32 C 51.550781 32 52 31.554688 52 31 C 52 30.445313 51.550781 30 51 30 L 32 30 L 32 28 C 32 26.898438 31.101563 26 30 26 Z M 28 28 L 30 28 L 30 33.949219 L 28 33.949219 Z M 5 30 C 4.449219 30 4 30.445313 4 31 C 4 31.554688 4.449219 32 5 32 L 7 32 C 7.550781 32 8 31.554688 8 31 C 8 30.445313 7.550781 30 7 30 Z M 19 30 C 18.449219 30 18 30.445313 18 31 C 18 31.554688 18.449219 32 19 32 L 23 32 C 23.550781 32 24 31.554688 24 31 C 24 30.445313 23.550781 30 23 30 Z M 5 35 C 4.449219 35 4 35.445313 4 36 C 4 36.554688 4.449219 37 5 37 L 7 37 C 7.550781 37 8 36.554688 8 36 C 8 35.445313 7.550781 35 7 35 Z M 38 36 C 36.898438 36 36 36.898438 36 38 L 36 43.949219 C 36 45.050781 36.898438 45.949219 38 45.949219 L 40 45.949219 C 41.101563 45.949219 42 45.050781 42 43.949219 L 42 42 L 51 42 C 51.550781 42 52 41.554688 52 41 C 52 40.445313 51.550781 40 51 40 L 42 40 L 42 38 C 42 36.898438 41.101563 36 40 36 Z M 38 38 L 40 38 L 40 43.949219 L 38 43.949219 Z M 5 40 C 4.449219 40 4 40.445313 4 41 C 4 41.554688 4.449219 42 5 42 L 7 42 C 7.550781 42 8 41.554688 8 41 C 8 40.445313 7.550781 40 7 40 Z M 19 40 C 18.449219 40 18 40.445313 18 41 C 18 41.554688 18.449219 42 19 42 L 33 42 C 33.550781 42 34 41.554688 34 41 C 34 40.445313 33.550781 40 33 40 Z M 5 45 C 4.449219 45 4 45.445313 4 46 C 4 46.554688 4.449219 47 5 47 L 7 47 C 7.550781 47 8 46.554688 8 46 C 8 45.445313 7.550781 45 7 45 Z M 5 50 C 4.449219 50 4 50.445313 4 51 C 4 51.554688 4.449219 52 5 52 L 7 52 C 7.550781 52 8 51.554688 8 51 C 8 50.445313 7.550781 50 7 50 Z"/></svg>