<svg fill="#000000" xmlns="http://www.w3.org/2000/svg"  viewBox="0 0 64 64" width="64px" height="64px"><path d="M 4 2 C 2.898438 2 2 2.898438 2 4 L 2 60 C 2 61.101563 2.898438 62 4 62 L 28 62 C 29.101563 62 30 61.101563 30 60 L 30 4 C 30 2.898438 29.101563 2 28 2 Z M 4 4 L 28 4 L 28 60 L 4 60 Z M 15 6 C 14.445313 6 14 6.449219 14 7 C 14 7.550781 14.445313 8 15 8 L 17 8 C 17.554688 8 18 7.550781 18 7 C 18 6.449219 17.554688 6 17 6 Z M 15 11 C 14.445313 11 14 11.449219 14 12 C 14 12.550781 14.445313 13 15 13 L 17 13 C 17.554688 13 18 12.550781 18 12 C 18 11.449219 17.554688 11 17 11 Z M 39 12 C 36.242188 12 34 14.242188 34 17 L 34 47 C 34 49.757813 36.242188 52 39 52 L 57 52 C 59.757813 52 62 49.757813 62 47 L 62 17 C 62 14.242188 59.757813 12 57 12 Z M 39 14 L 57 14 C 58.652344 14 60 15.347656 60 17 L 60 47 C 60 48.652344 58.652344 50 57 50 L 39 50 C 37.347656 50 36 48.652344 36 47 L 36 17 C 36 15.347656 37.347656 14 39 14 Z M 15 16 C 14.445313 16 14 16.449219 14 17 C 14 17.550781 14.445313 18 15 18 L 17 18 C 17.554688 18 18 17.550781 18 17 C 18 16.449219 17.554688 16 17 16 Z M 15 21 C 14.445313 21 14 21.449219 14 22 C 14 22.550781 14.445313 23 15 23 L 17 23 C 17.554688 23 18 22.550781 18 22 C 18 21.449219 17.554688 21 17 21 Z M 15 26 C 14.445313 26 14 26.449219 14 27 C 14 27.550781 14.445313 28 15 28 L 17 28 C 17.554688 28 18 27.550781 18 27 C 18 26.449219 17.554688 26 17 26 Z M 15 31 C 14.445313 31 14 31.449219 14 32 C 14 32.550781 14.445313 33 15 33 L 17 33 C 17.554688 33 18 32.550781 18 32 C 18 31.449219 17.554688 31 17 31 Z M 15 36 C 14.445313 36 14 36.449219 14 37 C 14 37.550781 14.445313 38 15 38 L 17 38 C 17.554688 38 18 37.550781 18 37 C 18 36.449219 17.554688 36 17 36 Z M 15 41 C 14.445313 41 14 41.449219 14 42 C 14 42.550781 14.445313 43 15 43 L 17 43 C 17.554688 43 18 42.550781 18 42 C 18 41.449219 17.554688 41 17 41 Z M 15 46 C 14.445313 46 14 46.449219 14 47 C 14 47.550781 14.445313 48 15 48 L 17 48 C 17.554688 48 18 47.550781 18 47 C 18 46.449219 17.554688 46 17 46 Z M 15 51 C 14.445313 51 14 51.449219 14 52 C 14 52.550781 14.445313 53 15 53 L 17 53 C 17.554688 53 18 52.550781 18 52 C 18 51.449219 17.554688 51 17 51 Z M 15 56 C 14.445313 56 14 56.449219 14 57 C 14 57.550781 14.445313 58 15 58 L 17 58 C 17.554688 58 18 57.550781 18 57 C 18 56.449219 17.554688 56 17 56 Z"/></svg>