<svg fill="#000000" xmlns="http://www.w3.org/2000/svg"  viewBox="0 0 64 64" width="64px" height="64px"><path d="M 9 6 C 7.347656 6 6 7.347656 6 9 L 6 55 C 6 56.652344 7.347656 58 9 58 L 55 58 C 56.652344 58 58 56.652344 58 55 L 58 9 C 58 7.347656 56.652344 6 55 6 Z M 9 8 L 55 8 C 55.550781 8 56 8.449219 56 9 L 56 55 C 56 55.550781 55.550781 56 55 56 L 9 56 C 8.449219 56 8 55.550781 8 55 L 8 9 C 8 8.449219 8.449219 8 9 8 Z M 14 12 C 12.898438 12 12 12.898438 12 14 L 12 50 C 12 51.101563 12.898438 52 14 52 L 17 52 C 17.554688 52 18 51.550781 18 51 C 18 50.449219 17.554688 50 17 50 L 14 50 L 14 14 L 50 14 L 50 50 L 47 50 C 46.445313 50 46 50.449219 46 51 C 46 51.550781 46.445313 52 47 52 L 50 52 C 51.101563 52 52 51.101563 52 50 L 52 14 C 52 12.898438 51.101563 12 50 12 Z M 19 28 C 18.445313 28 18 28.449219 18 29 L 18 35 C 18 35.550781 18.445313 36 19 36 L 45 36 C 45.554688 36 46 35.550781 46 35 L 46 29 C 46 28.449219 45.554688 28 45 28 Z M 20 30 L 44 30 L 44 34 L 20 34 Z M 22 48 C 21.445313 48 21 48.449219 21 49 L 21 51 C 21 51.550781 21.445313 52 22 52 C 22.554688 52 23 51.550781 23 51 L 23 49 C 23 48.449219 22.554688 48 22 48 Z M 27 48 C 26.445313 48 26 48.449219 26 49 L 26 51 C 26 51.550781 26.445313 52 27 52 C 27.554688 52 28 51.550781 28 51 L 28 49 C 28 48.449219 27.554688 48 27 48 Z M 32 48 C 31.445313 48 31 48.449219 31 49 L 31 51 C 31 51.550781 31.445313 52 32 52 C 32.554688 52 33 51.550781 33 51 L 33 49 C 33 48.449219 32.554688 48 32 48 Z M 37 48 C 36.445313 48 36 48.449219 36 49 L 36 51 C 36 51.550781 36.445313 52 37 52 C 37.554688 52 38 51.550781 38 51 L 38 49 C 38 48.449219 37.554688 48 37 48 Z M 42 48 C 41.445313 48 41 48.449219 41 49 L 41 51 C 41 51.550781 41.445313 52 42 52 C 42.554688 52 43 51.550781 43 51 L 43 49 C 43 48.449219 42.554688 48 42 48 Z"/></svg>