<?xml version="1.0"?><svg fill="#000000" xmlns="http://www.w3.org/2000/svg"  viewBox="0 0 64 64" width="64px" height="64px">    <path d="M 29.560547 2 C 28.181547 2 26.985391 2.9344844 26.650391 4.2714844 L 25.765625 7.7910156 C 23.489625 8.3750156 21.311016 9.2774688 19.291016 10.480469 L 16.175781 8.6113281 C 14.993781 7.9033281 13.485766 8.0875 12.509766 9.0625 L 9.0605469 12.511719 C 8.0845469 13.486719 7.899375 14.992781 8.609375 16.175781 L 10.472656 19.289062 C 9.2766563 21.311062 8.374875 23.491531 7.796875 25.769531 L 4.2714844 26.650391 C 2.9344844 26.985391 2 28.1835 2 29.5625 L 2 34.439453 C 2 35.818453 2.9344844 37.014609 4.2714844 37.349609 L 7.7910156 38.234375 C 8.3750156 40.510375 9.2774688 42.688984 10.480469 44.708984 L 8.6113281 47.824219 C 7.9023281 49.006219 8.0875 50.514234 9.0625 51.490234 L 12.511719 54.939453 C 13.486719 55.915453 14.992781 56.099625 16.175781 55.390625 L 19.289062 53.527344 C 21.311062 54.723344 23.490531 55.625125 25.769531 56.203125 L 26.650391 59.728516 C 26.984391 61.064516 28.1825 62 29.5625 62 L 34.439453 62 C 35.818453 62 37.014609 61.065516 37.349609 59.728516 L 38.234375 56.208984 C 40.510375 55.624984 42.688984 54.722531 44.708984 53.519531 L 47.824219 55.388672 C 49.005219 56.097672 50.514234 55.9125 51.490234 54.9375 L 54.939453 51.488281 C 55.915453 50.513281 56.100625 49.007219 55.390625 47.824219 L 53.527344 44.710938 C 54.723344 42.688938 55.625125 40.508469 56.203125 38.230469 L 59.728516 37.349609 C 61.064516 37.014609 62 35.8175 62 34.4375 L 62 29.560547 C 62 28.182547 61.066516 26.984391 59.728516 26.650391 L 56.208984 25.767578 C 55.624984 23.491578 54.722531 21.312969 53.519531 19.292969 L 55.388672 16.175781 C 56.097672 14.993781 55.9125 13.487719 54.9375 12.511719 L 51.488281 9.0625 C 50.512281 8.0865 49.005219 7.9023281 47.824219 8.6113281 L 44.710938 10.474609 C 42.688938 9.2786094 40.508469 8.374875 38.230469 7.796875 L 37.349609 4.2714844 C 37.014609 2.9344844 35.8175 2 34.4375 2 L 29.560547 2 z M 29.5625 4 L 34.439453 4 C 34.899453 4 35.297203 4.3118125 35.408203 4.7578125 L 36.289062 8.28125 C 36.466062 8.98925 37.020328 9.5445156 37.736328 9.7285156 C 39.828328 10.265516 41.832406 11.095312 43.691406 12.195312 C 44.325406 12.571312 45.110281 12.571312 45.738281 12.195312 L 48.853516 10.326172 C 49.247516 10.088172 49.749219 10.152563 50.074219 10.476562 L 53.523438 13.925781 C 53.848438 14.250781 53.910828 14.752484 53.673828 15.146484 L 51.804688 18.263672 C 51.429688 18.889672 51.429688 19.672641 51.804688 20.306641 C 52.904688 22.165641 53.734484 24.170672 54.271484 26.263672 C 54.455484 26.978672 55.008797 27.533937 55.716797 27.710938 L 59.242188 28.591797 C 59.688187 28.702797 59.998047 29.100547 59.998047 29.560547 L 59.998047 34.4375 L 60 34.4375 C 60 34.8975 59.688187 35.297203 59.242188 35.408203 L 55.71875 36.289062 C 55.01075 36.466062 54.455484 37.018375 54.271484 37.734375 C 53.734484 39.826375 52.904688 41.832406 51.804688 43.691406 C 51.428688 44.326406 51.428688 45.108328 51.804688 45.736328 L 53.673828 48.853516 C 53.909828 49.247516 53.848438 49.749219 53.523438 50.074219 L 50.074219 53.523438 C 49.748219 53.847437 49.246516 53.909828 48.853516 53.673828 L 45.736328 51.802734 C 45.110328 51.427734 44.327359 51.427734 43.693359 51.802734 C 41.834359 52.902734 39.828328 53.732531 37.736328 54.269531 C 37.021328 54.453531 36.467062 55.007797 36.289062 55.716797 L 35.408203 59.240234 C 35.296203 59.687234 34.8975 60 34.4375 60 L 29.560547 60 C 29.100547 60 28.702797 59.688187 28.591797 59.242188 L 27.710938 55.716797 C 27.532937 55.008797 26.978672 54.454484 26.263672 54.271484 C 24.171672 53.734484 22.165641 52.904687 20.306641 51.804688 C 19.989641 51.616687 19.63525 51.523437 19.28125 51.523438 C 18.92725 51.523438 18.575719 51.616688 18.261719 51.804688 L 15.144531 53.675781 C 14.749531 53.911781 14.248828 53.849391 13.923828 53.525391 L 10.474609 50.076172 C 10.149609 49.751172 10.087219 49.249469 10.324219 48.855469 L 12.195312 45.738281 C 12.570312 45.112281 12.570312 44.327359 12.195312 43.693359 C 11.095313 41.834359 10.265516 39.829328 9.7285156 37.736328 C 9.5445156 37.021328 8.98925 36.468016 8.28125 36.291016 L 4.7578125 35.410156 C 4.3128125 35.297156 4 34.8975 4 34.4375 L 4 29.560547 C 4 29.100547 4.3128125 28.702797 4.7578125 28.591797 L 8.28125 27.710938 C 8.98925 27.533938 9.5445156 26.979672 9.7285156 26.263672 C 10.265516 24.171672 11.095312 22.167594 12.195312 20.308594 C 12.571312 19.673594 12.571312 18.889719 12.195312 18.261719 L 10.324219 15.146484 C 10.088219 14.752484 10.149609 14.250781 10.474609 13.925781 L 13.923828 10.476562 C 14.248828 10.152563 14.751531 10.087172 15.144531 10.326172 L 18.261719 12.195312 C 18.888719 12.571312 19.673641 12.570312 20.306641 12.195312 C 22.165641 11.095313 24.170672 10.265516 26.263672 9.7285156 C 26.978672 9.5445156 27.531984 8.9912031 27.708984 8.2832031 L 28.589844 4.7578125 C 28.702844 4.3118125 29.1025 4 29.5625 4 z M 32 11 C 31.448 11 31 11.448 31 12 L 31 14 C 31 14.552 31.448 15 32 15 C 32.552 15 33 14.552 33 14 L 33 12 C 33 11.448 32.552 11 32 11 z M 26.958984 11.689453 C 26.830328 11.671656 26.69575 11.678344 26.5625 11.714844 C 26.0285 11.857844 25.712469 12.405453 25.855469 12.939453 L 26.375 14.871094 C 26.495 15.318094 26.897844 15.613281 27.339844 15.613281 C 27.424844 15.613281 27.513609 15.602125 27.599609 15.578125 C 28.133609 15.435125 28.449641 14.887516 28.306641 14.353516 L 27.787109 12.421875 C 27.679859 12.022125 27.344953 11.742844 26.958984 11.689453 z M 37.039062 11.689453 C 36.652953 11.742984 36.318188 12.022125 36.210938 12.421875 L 35.691406 14.353516 C 35.549406 14.887516 35.866391 15.435125 36.400391 15.578125 C 36.487391 15.601125 36.573203 15.613281 36.658203 15.613281 C 37.099203 15.613281 37.504047 15.318094 37.623047 14.871094 L 38.142578 12.939453 C 38.285578 12.406453 37.969547 11.857844 37.435547 11.714844 C 37.302047 11.678594 37.167766 11.671609 37.039062 11.689453 z M 21.875 13.6875 C 21.746141 13.703594 21.61925 13.745203 21.5 13.814453 C 21.021 14.090453 20.858766 14.701688 21.134766 15.179688 L 22.134766 16.912109 C 22.320766 17.233109 22.655953 17.412109 23.001953 17.412109 C 23.170953 17.412109 23.343 17.368344 23.5 17.277344 C 23.979 17.001344 24.141234 16.390109 23.865234 15.912109 L 22.865234 14.179688 C 22.658234 13.820438 22.261578 13.639219 21.875 13.6875 z M 42.123047 13.6875 C 41.736328 13.639453 41.341766 13.821187 41.134766 14.179688 L 40.134766 15.912109 C 39.858766 16.390109 40.021 17.000344 40.5 17.277344 C 40.657 17.368344 40.829047 17.412109 40.998047 17.412109 C 41.344047 17.412109 41.680234 17.233109 41.865234 16.912109 L 42.865234 15.179688 C 43.141234 14.701688 42.978 14.090453 42.5 13.814453 C 42.3805 13.745203 42.251953 13.703516 42.123047 13.6875 z M 29 18 C 28.448 18 28 18.448 28 19 L 28 32.585938 L 25.707031 30.292969 C 25.316031 29.901969 24.683969 29.901969 24.292969 30.292969 L 20.292969 34.292969 C 19.901969 34.683969 19.901969 35.316031 20.292969 35.707031 L 31.292969 46.707031 C 31.487969 46.902031 31.744 47 32 47 C 32.256 47 32.512031 46.902031 32.707031 46.707031 L 43.707031 35.707031 C 44.098031 35.316031 44.098031 34.683969 43.707031 34.292969 L 39.707031 30.292969 C 39.316031 29.901969 38.683969 29.901969 38.292969 30.292969 L 36 32.585938 L 36 19 C 36 18.448 35.552 18 35 18 L 29 18 z M 30 20 L 34 20 L 34 35 C 34 35.404 34.244188 35.768828 34.617188 35.923828 C 34.990187 36.077828 35.420031 35.994031 35.707031 35.707031 L 39 32.414062 L 41.585938 35 L 32 44.585938 L 22.414062 35 L 25 32.414062 L 28.292969 35.707031 C 28.578969 35.994031 29.006812 36.077828 29.382812 35.923828 C 29.755813 35.768828 30 35.404 30 35 L 30 20 z M 40.875 46.59375 C 40.746266 46.609891 40.619 46.653156 40.5 46.722656 C 40.021 46.998656 39.858766 47.609891 40.134766 48.087891 L 41.134766 49.820312 C 41.320766 50.141312 41.655953 50.320312 42.001953 50.320312 C 42.170953 50.320312 42.343 50.276547 42.5 50.185547 C 42.979 49.909547 43.141234 49.298313 42.865234 48.820312 L 41.865234 47.087891 C 41.657484 46.728641 41.261203 46.545328 40.875 46.59375 z M 23.123047 46.595703 C 22.735953 46.547656 22.341016 46.729391 22.134766 47.087891 L 21.134766 48.820312 C 20.858766 49.298313 21.022 49.909547 21.5 50.185547 C 21.657 50.276547 21.829047 50.320312 21.998047 50.320312 C 22.344047 50.320312 22.680234 50.141312 22.865234 49.820312 L 23.865234 48.087891 C 24.141234 47.609891 23.979 46.999656 23.5 46.722656 C 23.38025 46.653406 23.252078 46.611719 23.123047 46.595703 z M 27.203125 48.394531 C 26.816875 48.448062 26.48225 48.729156 26.375 49.128906 L 25.857422 51.060547 C 25.714422 51.593547 26.030453 52.142156 26.564453 52.285156 C 26.651453 52.308156 26.737266 52.320312 26.822266 52.320312 C 27.263266 52.320312 27.668109 52.025125 27.787109 51.578125 L 28.306641 49.646484 C 28.450641 49.112484 28.133609 48.564875 27.599609 48.421875 C 27.465859 48.385625 27.331875 48.376688 27.203125 48.394531 z M 36.796875 48.394531 C 36.668172 48.376766 36.533891 48.385625 36.400391 48.421875 C 35.866391 48.564875 35.550359 49.112484 35.693359 49.646484 L 36.210938 51.578125 C 36.330937 52.025125 36.733781 52.320312 37.175781 52.320312 C 37.260781 52.320312 37.349547 52.309156 37.435547 52.285156 C 37.969547 52.142156 38.285578 51.594547 38.142578 51.060547 L 37.625 49.128906 C 37.51775 48.728406 37.182984 48.447828 36.796875 48.394531 z M 32 49 C 31.448 49 31 49.448 31 50 L 31 52 C 31 52.552 31.448 53 32 53 C 32.552 53 33 52.552 33 52 L 33 50 C 33 49.448 32.552 49 32 49 z"/></svg>