<svg fill="#000000" xmlns="http://www.w3.org/2000/svg"  viewBox="0 0 64 64" width="64px" height="64px"><path d="M 32 0.121094 C 29.9375 0.121094 27.875 0.761719 26.117188 2.039063 L 23.425781 4 L 9 4 C 7.347656 4 6 5.347656 6 7 L 6 59 C 6 60.652344 7.347656 62 9 62 L 55 62 C 56.652344 62 58 60.652344 58 59 L 58 7 C 58 5.347656 56.652344 4 55 4 L 40.574219 4 L 37.882813 2.039063 C 36.125 0.761719 34.0625 0.121094 32 0.121094 Z M 32 2.125 C 33.648438 2.125 35.296875 2.636719 36.703125 3.65625 L 40.765625 6.609375 C 41.539063 7.171875 42 8.082031 42 9.039063 L 42 11 C 42 11.550781 41.550781 12 41 12 L 23 12 C 22.449219 12 22 11.550781 22 11 L 22 9.039063 C 22 8.082031 22.460938 7.171875 23.234375 6.609375 L 27.296875 3.65625 C 28.703125 2.632813 30.351563 2.121094 32 2.125 Z M 32 4 C 30.894531 4 30 4.894531 30 6 C 30 7.105469 30.894531 8 32 8 C 33.105469 8 34 7.105469 34 6 C 34 4.894531 33.105469 4 32 4 Z M 9 6 L 21.039063 6 C 20.378906 6.863281 20 7.929688 20 9.039063 L 20 10 L 14 10 C 12.898438 10 12 10.898438 12 12 L 12 54 C 12 55.101563 12.898438 56 14 56 L 42.171875 56 C 42.972656 56 43.726563 55.6875 44.292969 55.121094 L 51.121094 48.292969 C 51.6875 47.726563 52 46.972656 52 46.171875 L 52 12 C 52 10.898438 51.101563 10 50 10 L 44 10 L 44 9.039063 C 44 7.929688 43.621094 6.863281 42.960938 6 L 55 6 C 55.550781 6 56 6.449219 56 7 L 56 59 C 56 59.550781 55.550781 60 55 60 L 9 60 C 8.449219 60 8 59.550781 8 59 L 8 7 C 8 6.449219 8.449219 6 9 6 Z M 14 12 L 20.183594 12 C 20.597656 13.160156 21.699219 14 23 14 L 41 14 C 42.300781 14 43.402344 13.160156 43.816406 12 L 50 12 L 50 46 L 44 46 C 42.898438 46 42 46.898438 42 48 L 42 54 L 14 54 Z M 17 16 C 16.445313 16 16 16.449219 16 17 L 16 19 C 16 19.550781 16.445313 20 17 20 C 17.554688 20 18 19.550781 18 19 L 18 17 C 18 16.449219 17.554688 16 17 16 Z M 22 16 C 21.445313 16 21 16.449219 21 17 L 21 19 C 21 19.550781 21.445313 20 22 20 C 22.554688 20 23 19.550781 23 19 L 23 17 C 23 16.449219 22.554688 16 22 16 Z M 27 16 C 26.445313 16 26 16.449219 26 17 L 26 19 C 26 19.550781 26.445313 20 27 20 C 27.554688 20 28 19.550781 28 19 L 28 17 C 28 16.449219 27.554688 16 27 16 Z M 32 16 C 31.445313 16 31 16.449219 31 17 L 31 19 C 31 19.550781 31.445313 20 32 20 C 32.554688 20 33 19.550781 33 19 L 33 17 C 33 16.449219 32.554688 16 32 16 Z M 37 16 C 36.445313 16 36 16.449219 36 17 L 36 19 C 36 19.550781 36.445313 20 37 20 C 37.554688 20 38 19.550781 38 19 L 38 17 C 38 16.449219 37.554688 16 37 16 Z M 42 16 C 41.445313 16 41 16.449219 41 17 L 41 19 C 41 19.550781 41.445313 20 42 20 C 42.554688 20 43 19.550781 43 19 L 43 17 C 43 16.449219 42.554688 16 42 16 Z M 47 16 C 46.445313 16 46 16.449219 46 17 L 46 19 C 46 19.550781 46.445313 20 47 20 C 47.554688 20 48 19.550781 48 19 L 48 17 C 48 16.449219 47.554688 16 47 16 Z M 22 25 C 21.746094 25 21.488281 25.097656 21.292969 25.292969 L 20 26.585938 L 19.707031 26.292969 C 19.316406 25.902344 18.683594 25.902344 18.292969 26.292969 C 17.902344 26.683594 17.902344 27.316406 18.292969 27.707031 L 19.292969 28.707031 C 19.488281 28.902344 19.742188 29 20 29 C 20.257813 29 20.511719 28.902344 20.707031 28.707031 L 22.707031 26.707031 C 23.097656 26.316406 23.097656 25.683594 22.707031 25.292969 C 22.511719 25.097656 22.253906 25 22 25 Z M 27 26 C 26.445313 26 26 26.449219 26 27 C 26 27.550781 26.445313 28 27 28 L 45 28 C 45.554688 28 46 27.550781 46 27 C 46 26.449219 45.554688 26 45 26 Z M 22 31 C 21.746094 31 21.488281 31.097656 21.292969 31.292969 L 20 32.585938 L 19.707031 32.292969 C 19.316406 31.902344 18.683594 31.902344 18.292969 32.292969 C 17.902344 32.683594 17.902344 33.316406 18.292969 33.707031 L 19.292969 34.707031 C 19.488281 34.902344 19.742188 35 20 35 C 20.257813 35 20.511719 34.902344 20.707031 34.707031 L 22.707031 32.707031 C 23.097656 32.316406 23.097656 31.683594 22.707031 31.292969 C 22.511719 31.097656 22.253906 31 22 31 Z M 27 32 C 26.445313 32 26 32.449219 26 33 C 26 33.550781 26.445313 34 27 34 L 41 34 C 41.554688 34 42 33.550781 42 33 C 42 32.449219 41.554688 32 41 32 Z M 22 37 C 21.746094 37 21.488281 37.097656 21.292969 37.292969 L 20 38.585938 L 19.707031 38.292969 C 19.316406 37.902344 18.683594 37.902344 18.292969 38.292969 C 17.902344 38.683594 17.902344 39.316406 18.292969 39.707031 L 19.292969 40.707031 C 19.488281 40.902344 19.742188 41 20 41 C 20.257813 41 20.511719 40.902344 20.707031 40.707031 L 22.707031 38.707031 C 23.097656 38.316406 23.097656 37.683594 22.707031 37.292969 C 22.511719 37.097656 22.253906 37 22 37 Z M 27 38 C 26.445313 38 26 38.449219 26 39 C 26 39.550781 26.445313 40 27 40 L 43 40 C 43.554688 40 44 39.550781 44 39 C 44 38.449219 43.554688 38 43 38 Z M 22 43 C 21.746094 43 21.488281 43.097656 21.292969 43.292969 L 20 44.585938 L 19.707031 44.292969 C 19.316406 43.902344 18.683594 43.902344 18.292969 44.292969 C 17.902344 44.683594 17.902344 45.316406 18.292969 45.707031 L 19.292969 46.707031 C 19.488281 46.902344 19.742188 47 20 47 C 20.257813 47 20.511719 46.902344 20.707031 46.707031 L 22.707031 44.707031 C 23.097656 44.316406 23.097656 43.683594 22.707031 43.292969 C 22.511719 43.097656 22.253906 43 22 43 Z M 27 44 C 26.445313 44 26 44.449219 26 45 C 26 45.550781 26.445313 46 27 46 L 33 46 C 33.554688 46 34 45.550781 34 45 C 34 44.449219 33.554688 44 33 44 Z M 44 48 L 48.585938 48 L 44 52.585938 Z"/></svg>