<?xml version="1.0"?><svg fill="#000000" xmlns="http://www.w3.org/2000/svg"  viewBox="0 0 64 64" width="64px" height="64px">    <path d="M 6 12 C 3.794 12 2 13.794 2 16 L 2 48 C 2 50.206 3.794 52 6 52 L 58 52 C 60.206 52 62 50.206 62 48 L 62 16 C 62 13.794 60.206 12 58 12 L 6 12 z M 6 14 L 39 14 L 39 39 C 39 39.552 39.447 40 40 40 C 40.553 40 41 39.552 41 39 L 41 14 L 58 14 C 59.103 14 60 14.897 60 16 L 60 48 C 60 49.103 59.103 50 58 50 L 6 50 C 4.897 50 4 49.103 4 48 L 4 16 C 4 14.897 4.897 14 6 14 z M 6.9941406 16 C 6.4421406 16 5.9941406 16.448 5.9941406 17 C 5.9941406 17.552 6.4421406 18 6.9941406 18 L 8.9941406 18 C 9.5461406 18 9.9941406 17.552 9.9941406 17 C 9.9941406 16.448 9.5461406 16 8.9941406 16 L 6.9941406 16 z M 6.9941406 21 C 6.4421406 21 5.9941406 21.448 5.9941406 22 C 5.9941406 22.552 6.4421406 23 6.9941406 23 L 8.9941406 23 C 9.5461406 23 9.9941406 22.552 9.9941406 22 C 9.9941406 21.448 9.5461406 21 8.9941406 21 L 6.9941406 21 z M 6.9941406 26 C 6.4421406 26 5.9941406 26.448 5.9941406 27 C 5.9941406 27.552 6.4421406 28 6.9941406 28 L 8.9941406 28 C 9.5461406 28 9.9941406 27.552 9.9941406 27 C 9.9941406 26.448 9.5461406 26 8.9941406 26 L 6.9941406 26 z M 6.9941406 31 C 6.4421406 31 5.9941406 31.448 5.9941406 32 C 5.9941406 32.552 6.4421406 33 6.9941406 33 L 8.9941406 33 C 9.5461406 33 9.9941406 32.552 9.9941406 32 C 9.9941406 31.448 9.5461406 31 8.9941406 31 L 6.9941406 31 z M 6.9941406 36 C 6.4421406 36 5.9941406 36.448 5.9941406 37 C 5.9941406 37.552 6.4421406 38 6.9941406 38 L 8.9941406 38 C 9.5461406 38 9.9941406 37.552 9.9941406 37 C 9.9941406 36.448 9.5461406 36 8.9941406 36 L 6.9941406 36 z M 6.9941406 41 C 6.4421406 41 5.9941406 41.448 5.9941406 42 C 5.9941406 42.552 6.4421406 43 6.9941406 43 L 8.9941406 43 C 9.5461406 43 9.9941406 42.552 9.9941406 42 C 9.9941406 41.448 9.5461406 41 8.9941406 41 L 6.9941406 41 z M 40 42 C 39.447 42 39 42.448 39 43 L 39 47 C 39 47.552 39.447 48 40 48 C 40.553 48 41 47.552 41 47 L 41 43 C 41 42.448 40.553 42 40 42 z M 6.9941406 46 C 6.4421406 46 5.9941406 46.448 5.9941406 47 C 5.9941406 47.552 6.4421406 48 6.9941406 48 L 8.9941406 48 C 9.5461406 48 9.9941406 47.552 9.9941406 47 C 9.9941406 46.448 9.5461406 46 8.9941406 46 L 6.9941406 46 z"/></svg>