<svg fill="#000000" xmlns="http://www.w3.org/2000/svg"  viewBox="0 0 64 64" width="64px" height="64px"><path d="M 30 0 C 14.011719 0 1 13.007813 1 29 C 1 43.632813 11.898438 55.746094 26 57.703125 L 26 63 C 26 63.550781 26.449219 64 27 64 L 33 64 C 33.550781 64 34 63.550781 34 63 L 34 57.703125 C 48.101563 55.746094 59 43.632813 59 29 C 59 13.007813 45.988281 0 30 0 Z M 30 2 C 44.886719 2 57 14.113281 57 29 C 57 42.527344 46.996094 53.742188 34 55.683594 L 34 36.414063 L 36.292969 38.707031 C 36.683594 39.097656 37.316406 39.097656 37.707031 38.707031 L 41.707031 34.707031 C 41.902344 34.511719 42 34.257813 42 34 C 42 33.742188 41.902344 33.488281 41.707031 33.292969 L 30.707031 22.292969 C 30.316406 21.902344 29.683594 21.902344 29.292969 22.292969 L 18.292969 33.292969 C 17.902344 33.683594 17.902344 34.316406 18.292969 34.707031 L 22.292969 38.707031 C 22.683594 39.097656 23.316406 39.097656 23.707031 38.707031 L 26 36.414063 L 26 55.683594 C 13.003906 53.742188 3 42.527344 3 29 C 3 14.113281 15.113281 2 30 2 Z M 30 6 C 17.316406 6 7 16.316406 7 29 C 7 35.148438 9.394531 40.929688 13.75 45.277344 C 13.941406 45.46875 14.199219 45.566406 14.453125 45.566406 C 14.710938 45.566406 14.96875 45.46875 15.160156 45.273438 C 15.550781 44.882813 15.554688 44.25 15.160156 43.859375 C 11.1875 39.890625 9 34.617188 9 29 C 9 17.421875 18.421875 8 30 8 C 31.128906 8 32.253906 8.089844 33.355469 8.265625 C 33.898438 8.355469 34.414063 7.984375 34.5 7.4375 C 34.589844 6.890625 34.21875 6.382813 33.671875 6.292969 C 32.46875 6.097656 31.234375 6 30 6 Z M 37.65625 7.386719 C 37.269531 7.402344 36.910156 7.648438 36.765625 8.035156 C 36.570313 8.554688 36.832031 9.128906 37.351563 9.320313 C 38.066406 9.589844 38.769531 9.898438 39.453125 10.238281 C 39.597656 10.3125 39.75 10.347656 39.902344 10.347656 C 40.265625 10.347656 40.617188 10.148438 40.796875 9.796875 C 41.042969 9.304688 40.84375 8.703125 40.351563 8.453125 C 39.609375 8.078125 38.832031 7.742188 38.050781 7.449219 C 37.921875 7.402344 37.789063 7.382813 37.65625 7.386719 Z M 43.433594 10.675781 C 43.179688 10.707031 42.9375 10.832031 42.765625 11.050781 C 42.425781 11.484375 42.5 12.113281 42.9375 12.453125 C 43.605469 12.976563 44.246094 13.546875 44.847656 14.152344 C 53.039063 22.339844 53.039063 35.660156 44.847656 43.847656 C 44.457031 44.242188 44.457031 44.871094 44.847656 45.265625 C 45.042969 45.457031 45.300781 45.558594 45.558594 45.558594 C 45.8125 45.558594 46.070313 45.457031 46.265625 45.265625 C 55.230469 36.296875 55.230469 21.703125 46.265625 12.734375 C 45.605469 12.078125 44.902344 11.453125 44.171875 10.878906 C 43.953125 10.710938 43.683594 10.644531 43.433594 10.675781 Z M 30 24.414063 L 39.585938 34 L 37 36.585938 L 33.707031 33.292969 C 33.421875 33.007813 32.992188 32.921875 32.617188 33.078125 C 32.246094 33.230469 32 33.597656 32 34 L 32 62 L 28 62 L 28 34 C 28 33.597656 27.753906 33.230469 27.382813 33.078125 C 27.007813 32.921875 26.578125 33.007813 26.292969 33.292969 L 23 36.585938 L 20.414063 34 Z M 40.625 45.394531 C 40.496094 45.410156 40.367188 45.453125 40.25 45.519531 C 39.769531 45.796875 39.609375 46.410156 39.886719 46.890625 L 40.886719 48.621094 C 41.070313 48.941406 41.40625 49.121094 41.75 49.121094 C 41.921875 49.121094 42.09375 49.078125 42.25 48.984375 C 42.730469 48.710938 42.890625 48.097656 42.613281 47.621094 L 41.613281 45.890625 C 41.40625 45.53125 41.011719 45.347656 40.625 45.394531 Z M 19.375 45.394531 C 18.984375 45.347656 18.589844 45.53125 18.386719 45.890625 L 17.386719 47.621094 C 17.109375 48.097656 17.269531 48.710938 17.75 48.984375 C 17.90625 49.078125 18.078125 49.121094 18.25 49.121094 C 18.59375 49.121094 18.929688 48.941406 19.113281 48.621094 L 20.113281 46.890625 C 20.390625 46.410156 20.226563 45.796875 19.75 45.519531 C 19.628906 45.453125 19.503906 45.414063 19.375 45.394531 Z M 23.816406 47.34375 C 23.429688 47.398438 23.09375 47.675781 22.988281 48.078125 L 22.46875 50.007813 C 22.328125 50.542969 22.644531 51.089844 23.175781 51.234375 C 23.265625 51.253906 23.351563 51.265625 23.4375 51.265625 C 23.878906 51.265625 24.285156 50.972656 24.402344 50.527344 L 24.921875 48.59375 C 25.0625 48.058594 24.746094 47.511719 24.214844 47.371094 C 24.078125 47.332031 23.945313 47.324219 23.816406 47.34375 Z M 36.1875 47.34375 C 36.058594 47.328125 35.921875 47.332031 35.785156 47.371094 C 35.253906 47.511719 34.9375 48.0625 35.078125 48.59375 L 35.597656 50.527344 C 35.71875 50.972656 36.121094 51.269531 36.5625 51.269531 C 36.652344 51.269531 36.738281 51.257813 36.824219 51.234375 C 37.355469 51.089844 37.675781 50.542969 37.53125 50.011719 L 37.015625 48.078125 C 36.90625 47.675781 36.570313 47.398438 36.1875 47.34375 Z"/></svg>