<svg fill="#000000" xmlns="http://www.w3.org/2000/svg"  viewBox="0 0 64 64" width="64px" height="64px"><path d="M 35 5 C 20.367188 5 8.253906 15.898438 6.296875 30 L 1 30 C 0.449219 30 0 30.449219 0 31 L 0 37 C 0 37.550781 0.449219 38 1 38 L 6.296875 38 C 8.253906 52.101563 20.367188 63 35 63 C 50.988281 63 64 49.992188 64 34 C 64 18.007813 50.988281 5 35 5 Z M 35 7 C 49.886719 7 62 19.113281 62 34 C 62 48.886719 49.886719 61 35 61 C 21.472656 61 10.257813 50.996094 8.316406 38 L 27.585938 38 L 25.292969 40.292969 C 24.902344 40.683594 24.902344 41.316406 25.292969 41.707031 L 29.292969 45.707031 C 29.488281 45.902344 29.742188 46 30 46 C 30.257813 46 30.511719 45.902344 30.707031 45.707031 L 41.707031 34.707031 C 42.097656 34.316406 42.097656 33.683594 41.707031 33.292969 L 30.707031 22.292969 C 30.316406 21.902344 29.683594 21.902344 29.292969 22.292969 L 25.292969 26.292969 C 24.902344 26.683594 24.902344 27.316406 25.292969 27.707031 L 27.585938 30 L 8.316406 30 C 10.257813 17.003906 21.472656 7 35 7 Z M 34.5625 11.007813 C 28.671875 11.128906 22.960938 13.511719 18.734375 17.734375 C 16.015625 20.457031 14.035156 23.785156 12.953125 27.441406 C 12.644531 28.667969 14.480469 29.207031 14.90625 27.875 C 15.90625 24.59375 17.699219 21.597656 20.152344 19.152344 C 24.898438 14.402344 31.699219 12.203125 38.339844 13.265625 C 38.882813 13.355469 39.398438 12.980469 39.484375 12.4375 C 39.570313 11.890625 39.199219 11.378906 38.65625 11.292969 C 37.292969 11.074219 35.921875 10.980469 34.5625 11.007813 Z M 42.65625 12.386719 C 42.269531 12.402344 41.910156 12.648438 41.765625 13.035156 C 41.570313 13.554688 41.832031 14.128906 42.351563 14.324219 C 43.066406 14.589844 43.769531 14.898438 44.453125 15.238281 C 44.59375 15.3125 44.746094 15.347656 44.898438 15.347656 C 45.261719 15.347656 45.617188 15.148438 45.792969 14.796875 C 46.042969 14.304688 45.84375 13.703125 45.351563 13.453125 C 44.609375 13.078125 43.832031 12.742188 43.050781 12.449219 C 42.921875 12.402344 42.789063 12.378906 42.65625 12.386719 Z M 48.433594 15.675781 C 48.179688 15.707031 47.9375 15.832031 47.765625 16.050781 C 47.425781 16.484375 47.5 17.113281 47.9375 17.453125 C 48.605469 17.976563 49.246094 18.546875 49.847656 19.152344 C 58.039063 27.339844 58.039063 40.660156 49.847656 48.847656 C 49.457031 49.242188 49.457031 49.871094 49.847656 50.265625 C 50.042969 50.457031 50.300781 50.558594 50.558594 50.558594 C 50.8125 50.558594 51.070313 50.457031 51.265625 50.265625 C 60.230469 41.296875 60.230469 26.703125 51.265625 17.734375 C 50.605469 17.078125 49.902344 16.453125 49.171875 15.878906 C 48.953125 15.710938 48.683594 15.644531 48.433594 15.675781 Z M 30 24.414063 L 39.585938 34 L 30 43.585938 L 27.414063 41 L 30.707031 37.707031 C 30.992188 37.421875 31.078125 36.992188 30.921875 36.617188 C 30.769531 36.246094 30.402344 36 30 36 L 2 36 L 2 32 L 30 32 C 30.402344 32 30.769531 31.753906 30.921875 31.382813 C 31.078125 31.007813 30.992188 30.578125 30.707031 30.292969 L 27.414063 27 Z M 14.011719 39.171875 C 13.386719 39.097656 12.707031 39.632813 12.917969 40.441406 C 13.992188 44.140625 15.988281 47.515625 18.734375 50.265625 C 18.929688 50.457031 19.1875 50.558594 19.441406 50.558594 C 19.699219 50.558594 19.957031 50.457031 20.152344 50.265625 C 20.542969 49.875 20.542969 49.242188 20.152344 48.847656 C 17.671875 46.375 15.867188 43.34375 14.875 40.019531 C 14.742188 39.472656 14.386719 39.210938 14.011719 39.171875 Z M 25.375 50.394531 C 24.984375 50.347656 24.589844 50.527344 24.386719 50.886719 L 23.386719 52.621094 C 23.109375 53.097656 23.273438 53.707031 23.75 53.984375 C 23.90625 54.074219 24.078125 54.121094 24.25 54.121094 C 24.59375 54.121094 24.929688 53.941406 25.113281 53.621094 L 26.113281 51.886719 C 26.390625 51.410156 26.230469 50.796875 25.75 50.519531 C 25.628906 50.453125 25.5 50.410156 25.375 50.394531 Z M 44.625 50.394531 C 44.496094 50.410156 44.367188 50.453125 44.25 50.519531 C 43.769531 50.796875 43.609375 51.410156 43.886719 51.890625 L 44.886719 53.621094 C 45.070313 53.941406 45.40625 54.121094 45.75 54.121094 C 45.921875 54.121094 46.09375 54.078125 46.25 53.984375 C 46.730469 53.710938 46.890625 53.097656 46.613281 52.621094 L 45.613281 50.890625 C 45.40625 50.53125 45.011719 50.347656 44.625 50.394531 Z M 29.816406 52.34375 C 29.429688 52.398438 29.09375 52.675781 28.984375 53.078125 L 28.46875 55.011719 C 28.324219 55.542969 28.644531 56.089844 29.175781 56.234375 C 29.261719 56.257813 29.347656 56.269531 29.4375 56.269531 C 29.875 56.269531 30.28125 55.972656 30.402344 55.527344 L 30.921875 53.59375 C 31.0625 53.0625 30.746094 52.511719 30.214844 52.371094 C 30.078125 52.332031 29.945313 52.324219 29.816406 52.34375 Z M 40.1875 52.34375 C 40.058594 52.324219 39.921875 52.332031 39.785156 52.371094 C 39.253906 52.511719 38.9375 53.0625 39.078125 53.59375 L 39.597656 55.527344 C 39.71875 55.972656 40.121094 56.269531 40.5625 56.269531 C 40.652344 56.269531 40.738281 56.257813 40.824219 56.234375 C 41.355469 56.089844 41.675781 55.542969 41.53125 55.011719 L 41.015625 53.078125 C 40.90625 52.675781 40.570313 52.398438 40.1875 52.34375 Z M 35 53 C 34.445313 53 34 53.449219 34 54 L 34 56 C 34 56.550781 34.445313 57 35 57 C 35.554688 57 36 56.550781 36 56 L 36 54 C 36 53.449219 35.554688 53 35 53 Z"/></svg>