<svg fill="#000000" xmlns="http://www.w3.org/2000/svg"  viewBox="0 0 64 64" width="64px" height="64px"><path d="M 29 3 C 13.011719 3 0 16.007813 0 32 C 0 47.992188 13.011719 61 29 61 C 42.441406 61 53.761719 51.804688 57.035156 39.378906 L 63.707031 32.707031 C 64.097656 32.316406 64.097656 31.683594 63.707031 31.292969 L 57.035156 24.621094 C 53.761719 12.195313 42.441406 3 29 3 Z M 29 5 C 40.125 5 49.683594 11.769531 53.8125 21.402344 L 52.707031 20.292969 C 52.316406 19.902344 51.683594 19.902344 51.292969 20.292969 L 49.640625 21.945313 C 48.554688 19.707031 47.121094 17.59375 45.265625 15.734375 C 44.605469 15.078125 43.902344 14.453125 43.171875 13.878906 C 42.734375 13.539063 42.105469 13.617188 41.765625 14.050781 C 41.425781 14.484375 41.5 15.113281 41.9375 15.453125 C 42.605469 15.976563 43.246094 16.546875 43.847656 17.152344 C 45.71875 19.019531 47.125 21.164063 48.136719 23.449219 L 47.292969 24.292969 C 46.902344 24.683594 46.902344 25.3125 47.292969 25.703125 L 49.578125 27.992188 C 49.578125 27.996094 49.578125 27.996094 49.578125 28 L 23 28 C 22.449219 28 22 28.445313 22 29 L 22 35 C 22 35.550781 22.449219 36 23 36 L 49.578125 36 C 49.578125 36 49.578125 36.003906 49.578125 36.003906 L 47.292969 38.292969 C 46.902344 38.683594 46.902344 39.3125 47.292969 39.703125 L 48.136719 40.550781 C 47.125 42.832031 45.71875 44.980469 43.847656 46.847656 C 43.457031 47.238281 43.457031 47.871094 43.847656 48.261719 C 44.042969 48.457031 44.300781 48.554688 44.558594 48.554688 C 44.8125 48.554688 45.070313 48.457031 45.265625 48.261719 C 47.121094 46.40625 48.554688 44.292969 49.640625 42.050781 L 51.292969 43.703125 C 51.488281 43.902344 51.742188 44 52 44 C 52.257813 44 52.511719 43.902344 52.707031 43.707031 L 53.8125 42.597656 C 49.683594 52.230469 40.125 59 29 59 C 14.113281 59 2 46.886719 2 32 C 2 17.113281 14.113281 5 29 5 Z M 28.5625 9.007813 C 22.671875 9.125 16.960938 11.511719 12.734375 15.734375 C 3.769531 24.703125 3.769531 39.292969 12.734375 48.261719 C 12.929688 48.457031 13.1875 48.554688 13.441406 48.554688 C 13.699219 48.554688 13.957031 48.457031 14.152344 48.261719 C 14.542969 47.871094 14.542969 47.238281 14.152344 46.847656 C 5.960938 38.660156 5.964844 25.339844 14.152344 17.152344 C 18.898438 12.402344 25.699219 10.203125 32.339844 11.265625 C 32.882813 11.355469 33.398438 10.980469 33.484375 10.4375 C 33.574219 9.890625 33.199219 9.375 32.65625 9.289063 C 31.292969 9.070313 29.925781 8.976563 28.5625 9.007813 Z M 36.65625 10.386719 C 36.269531 10.402344 35.910156 10.648438 35.765625 11.035156 C 35.570313 11.554688 35.832031 12.128906 36.351563 12.324219 C 37.066406 12.589844 37.769531 12.898438 38.453125 13.238281 C 38.597656 13.3125 38.75 13.347656 38.902344 13.347656 C 39.265625 13.347656 39.617188 13.148438 39.796875 12.796875 C 40.042969 12.304688 39.84375 11.703125 39.351563 11.453125 C 38.609375 11.078125 37.832031 10.742188 37.050781 10.449219 C 36.921875 10.402344 36.789063 10.382813 36.65625 10.386719 Z M 52 22.414063 L 61.585938 32 L 52 41.585938 L 49.414063 39 L 52.707031 35.707031 C 52.992188 35.421875 53.078125 34.992188 52.921875 34.617188 C 52.769531 34.246094 52.402344 34 52 34 L 24 34 L 24 30 L 52 30 C 52.402344 30 52.769531 29.753906 52.921875 29.382813 C 53.078125 29.007813 52.992188 28.578125 52.707031 28.292969 L 49.414063 25 Z M 19.375 48.394531 C 18.984375 48.347656 18.589844 48.527344 18.386719 48.886719 L 17.386719 50.621094 C 17.109375 51.097656 17.273438 51.707031 17.75 51.984375 C 17.90625 52.074219 18.078125 52.121094 18.25 52.121094 C 18.59375 52.121094 18.929688 51.941406 19.113281 51.621094 L 20.113281 49.886719 C 20.390625 49.410156 20.230469 48.796875 19.75 48.519531 C 19.628906 48.453125 19.5 48.410156 19.375 48.394531 Z M 38.625 48.394531 C 38.496094 48.410156 38.367188 48.453125 38.25 48.519531 C 37.769531 48.796875 37.609375 49.410156 37.886719 49.890625 L 38.886719 51.621094 C 39.070313 51.941406 39.40625 52.121094 39.75 52.121094 C 39.921875 52.121094 40.09375 52.078125 40.25 51.984375 C 40.730469 51.710938 40.890625 51.097656 40.613281 50.621094 L 39.613281 48.890625 C 39.40625 48.53125 39.011719 48.347656 38.625 48.394531 Z M 23.816406 50.34375 C 23.429688 50.398438 23.09375 50.675781 22.984375 51.078125 L 22.46875 53.011719 C 22.324219 53.542969 22.644531 54.089844 23.175781 54.234375 C 23.261719 54.257813 23.347656 54.269531 23.4375 54.269531 C 23.875 54.269531 24.28125 53.972656 24.402344 53.527344 L 24.921875 51.59375 C 25.0625 51.0625 24.746094 50.511719 24.214844 50.371094 C 24.078125 50.332031 23.945313 50.324219 23.816406 50.34375 Z M 34.1875 50.34375 C 34.058594 50.324219 33.921875 50.332031 33.785156 50.371094 C 33.253906 50.511719 32.9375 51.0625 33.078125 51.59375 L 33.597656 53.527344 C 33.71875 53.972656 34.121094 54.269531 34.5625 54.269531 C 34.652344 54.269531 34.738281 54.257813 34.824219 54.234375 C 35.355469 54.089844 35.675781 53.542969 35.53125 53.011719 L 35.015625 51.078125 C 34.90625 50.675781 34.570313 50.398438 34.1875 50.34375 Z M 29 51 C 28.445313 51 28 51.449219 28 52 L 28 54 C 28 54.550781 28.445313 55 29 55 C 29.554688 55 30 54.550781 30 54 L 30 52 C 30 51.449219 29.554688 51 29 51 Z"/></svg>