<svg fill="#000000" xmlns="http://www.w3.org/2000/svg"  viewBox="0 0 64 64" width="64px" height="64px"><path d="M 32 0 C 16.011719 0 3 13.007813 3 29 C 3 42.441406 12.195313 53.761719 24.621094 57.035156 L 31.292969 63.707031 C 31.683594 64.097656 32.316406 64.097656 32.707031 63.707031 L 39.378906 57.035156 C 51.804688 53.761719 61 42.441406 61 29 C 61 13.007813 47.988281 0 32 0 Z M 32 2 C 46.886719 2 59 14.113281 59 29 C 59 40.125 52.230469 49.683594 42.597656 53.8125 L 43.707031 52.707031 C 44.097656 52.316406 44.097656 51.683594 43.707031 51.292969 L 39.707031 47.292969 C 39.316406 46.902344 38.683594 46.902344 38.292969 47.292969 L 36 49.585938 L 36 23 C 36 22.449219 35.550781 22 35 22 L 29 22 C 28.449219 22 28 22.449219 28 23 L 28 49.585938 L 25.707031 47.292969 C 25.316406 46.902344 24.683594 46.902344 24.292969 47.292969 L 20.292969 51.292969 C 20.097656 51.488281 20 51.742188 20 52 C 20 52.257813 20.097656 52.511719 20.292969 52.707031 L 21.402344 53.8125 C 11.769531 49.683594 5 40.125 5 29 C 5 14.113281 17.113281 2 32 2 Z M 31.5625 6.007813 C 25.671875 6.128906 19.960938 8.511719 15.734375 12.734375 C 6.769531 21.703125 6.769531 36.296875 15.734375 45.265625 C 15.929688 45.457031 16.1875 45.558594 16.441406 45.558594 C 16.699219 45.558594 16.957031 45.457031 17.152344 45.265625 C 17.542969 44.871094 17.542969 44.242188 17.152344 43.847656 C 8.960938 35.660156 8.960938 22.339844 17.152344 14.152344 C 21.898438 9.402344 28.699219 7.203125 35.339844 8.265625 C 35.882813 8.355469 36.398438 7.980469 36.484375 7.4375 C 36.570313 6.890625 36.199219 6.378906 35.65625 6.289063 C 34.292969 6.070313 32.921875 5.980469 31.5625 6.007813 Z M 39.65625 7.386719 C 39.269531 7.402344 38.910156 7.648438 38.765625 8.035156 C 38.570313 8.554688 38.832031 9.128906 39.351563 9.320313 C 40.066406 9.589844 40.769531 9.898438 41.453125 10.238281 C 41.597656 10.3125 41.75 10.347656 41.902344 10.347656 C 42.265625 10.347656 42.617188 10.148438 42.796875 9.796875 C 43.042969 9.304688 42.84375 8.703125 42.351563 8.453125 C 41.609375 8.078125 40.832031 7.742188 40.050781 7.449219 C 39.921875 7.402344 39.789063 7.382813 39.65625 7.386719 Z M 45.433594 10.675781 C 45.179688 10.707031 44.9375 10.832031 44.765625 11.050781 C 44.425781 11.484375 44.5 12.113281 44.9375 12.453125 C 45.605469 12.976563 46.246094 13.546875 46.847656 14.152344 C 55.039063 22.339844 55.039063 35.660156 46.847656 43.847656 C 46.457031 44.242188 46.457031 44.871094 46.847656 45.265625 C 47.042969 45.457031 47.300781 45.558594 47.558594 45.558594 C 47.8125 45.558594 48.070313 45.457031 48.265625 45.265625 C 57.230469 36.296875 57.230469 21.703125 48.265625 12.734375 C 47.605469 12.078125 46.902344 11.453125 46.171875 10.878906 C 45.953125 10.710938 45.683594 10.644531 45.433594 10.675781 Z M 30 24 L 34 24 L 34 52 C 34 52.402344 34.246094 52.769531 34.617188 52.921875 C 34.992188 53.078125 35.421875 52.992188 35.707031 52.707031 L 39 49.414063 L 41.585938 52 L 32 61.585938 L 22.414063 52 L 25 49.414063 L 28.292969 52.707031 C 28.578125 52.992188 29.007813 53.078125 29.382813 52.921875 C 29.753906 52.769531 30 52.402344 30 52 Z"/></svg>