<svg fill="#000000" xmlns="http://www.w3.org/2000/svg"  viewBox="0 0 64 64" width="64px" height="64px"><path d="M 32 0 C 31.746094 0 31.488281 0.0976563 31.292969 0.292969 L 24.621094 6.964844 C 12.195313 10.238281 3 21.558594 3 35 C 3 50.992188 16.011719 64 32 64 C 47.988281 64 61 50.992188 61 35 C 61 21.558594 51.804688 10.238281 39.378906 6.964844 L 32.707031 0.292969 C 32.511719 0.0976563 32.253906 0 32 0 Z M 32 2.414063 L 41.585938 12 L 39 14.585938 L 35.707031 11.292969 C 35.421875 11.007813 34.992188 10.921875 34.617188 11.078125 C 34.246094 11.230469 34 11.597656 34 12 L 34 40 L 30 40 L 30 12 C 30 11.597656 29.753906 11.230469 29.382813 11.078125 C 29.007813 10.921875 28.578125 11.007813 28.292969 11.292969 L 25 14.585938 L 22.414063 12 Z M 21.402344 10.1875 L 20.292969 11.292969 C 19.902344 11.683594 19.902344 12.316406 20.292969 12.707031 L 21.945313 14.359375 C 19.671875 15.460938 17.558594 16.914063 15.734375 18.734375 C 6.769531 27.703125 6.769531 42.296875 15.734375 51.265625 C 15.929688 51.457031 16.1875 51.558594 16.441406 51.558594 C 16.699219 51.558594 16.957031 51.457031 17.152344 51.265625 C 17.542969 50.871094 17.542969 50.242188 17.152344 49.847656 C 8.960938 41.660156 8.960938 28.339844 17.152344 20.152344 C 18.980469 18.320313 21.132813 16.894531 23.449219 15.859375 L 24.292969 16.707031 C 24.683594 17.097656 25.316406 17.097656 25.707031 16.707031 L 28 14.414063 L 28 41 C 28 41.550781 28.449219 42 29 42 L 35 42 C 35.550781 42 36 41.550781 36 41 L 36 14.414063 L 38.292969 16.707031 C 38.683594 17.097656 39.316406 17.097656 39.707031 16.707031 L 43.707031 12.707031 C 43.902344 12.511719 44 12.257813 44 12 C 44 11.742188 43.902344 11.488281 43.707031 11.292969 L 42.597656 10.1875 C 52.230469 14.316406 59 23.875 59 35 C 59 49.886719 46.886719 62 32 62 C 17.113281 62 5 49.886719 5 35 C 5 23.875 11.769531 14.316406 21.402344 10.1875 Z M 45.433594 16.675781 C 45.179688 16.707031 44.9375 16.832031 44.765625 17.050781 C 44.425781 17.484375 44.5 18.113281 44.9375 18.453125 C 45.605469 18.976563 46.246094 19.546875 46.847656 20.152344 C 55.039063 28.339844 55.039063 41.660156 46.847656 49.847656 C 46.457031 50.242188 46.457031 50.871094 46.847656 51.265625 C 47.042969 51.457031 47.300781 51.558594 47.558594 51.558594 C 47.8125 51.558594 48.070313 51.457031 48.265625 51.265625 C 57.230469 42.296875 57.230469 27.703125 48.265625 18.734375 C 47.605469 18.078125 46.902344 17.453125 46.171875 16.878906 C 45.953125 16.710938 45.683594 16.644531 45.433594 16.675781 Z M 22.375 51.394531 C 21.984375 51.347656 21.589844 51.527344 21.386719 51.886719 L 20.386719 53.621094 C 20.109375 54.097656 20.273438 54.707031 20.75 54.984375 C 20.90625 55.074219 21.078125 55.121094 21.25 55.121094 C 21.59375 55.121094 21.929688 54.941406 22.113281 54.621094 L 23.113281 52.886719 C 23.390625 52.410156 23.230469 51.796875 22.75 51.519531 C 22.628906 51.453125 22.5 51.410156 22.375 51.394531 Z M 41.625 51.394531 C 41.496094 51.410156 41.367188 51.453125 41.25 51.519531 C 40.769531 51.796875 40.609375 52.410156 40.886719 52.890625 L 41.886719 54.621094 C 42.070313 54.941406 42.40625 55.121094 42.75 55.121094 C 42.921875 55.121094 43.09375 55.078125 43.25 54.984375 C 43.730469 54.710938 43.890625 54.097656 43.613281 53.621094 L 42.613281 51.890625 C 42.40625 51.53125 42.011719 51.347656 41.625 51.394531 Z M 26.816406 53.34375 C 26.429688 53.398438 26.09375 53.675781 25.984375 54.078125 L 25.46875 56.011719 C 25.324219 56.542969 25.644531 57.089844 26.175781 57.234375 C 26.261719 57.257813 26.347656 57.269531 26.4375 57.269531 C 26.875 57.269531 27.28125 56.972656 27.402344 56.527344 L 27.921875 54.59375 C 28.0625 54.0625 27.746094 53.511719 27.214844 53.371094 C 27.078125 53.332031 26.945313 53.324219 26.816406 53.34375 Z M 37.1875 53.34375 C 37.058594 53.324219 36.921875 53.332031 36.785156 53.371094 C 36.253906 53.511719 35.9375 54.0625 36.078125 54.59375 L 36.597656 56.527344 C 36.71875 56.972656 37.121094 57.269531 37.5625 57.269531 C 37.652344 57.269531 37.738281 57.257813 37.824219 57.234375 C 38.355469 57.089844 38.675781 56.542969 38.53125 56.011719 L 38.015625 54.078125 C 37.90625 53.675781 37.570313 53.398438 37.1875 53.34375 Z M 32 54 C 31.445313 54 31 54.449219 31 55 L 31 57 C 31 57.550781 31.445313 58 32 58 C 32.554688 58 33 57.550781 33 57 L 33 55 C 33 54.449219 32.554688 54 32 54 Z"/></svg>