<svg fill="#000000" xmlns="http://www.w3.org/2000/svg"  viewBox="0 0 64 64" width="64px" height="64px"><path d="M 35 3 C 21.558594 3 10.238281 12.195313 6.964844 24.621094 L 0.292969 31.292969 C -0.0976563 31.683594 -0.0976563 32.316406 0.292969 32.707031 L 6.964844 39.378906 C 10.238281 51.804688 21.558594 61 35 61 C 50.988281 61 64 47.992188 64 32 C 64 16.007813 50.988281 3 35 3 Z M 35 5 C 49.886719 5 62 17.113281 62 32 C 62 46.886719 49.886719 59 35 59 C 23.875 59 14.316406 52.230469 10.1875 42.597656 L 11.292969 43.707031 C 11.683594 44.097656 12.316406 44.097656 12.707031 43.707031 L 14.359375 42.054688 C 15.445313 44.292969 16.878906 46.40625 18.734375 48.265625 C 18.929688 48.457031 19.1875 48.558594 19.441406 48.558594 C 19.699219 48.558594 19.957031 48.457031 20.152344 48.265625 C 20.542969 47.871094 20.542969 47.242188 20.152344 46.847656 C 18.28125 44.980469 16.875 42.835938 15.863281 40.550781 L 16.707031 39.707031 C 17.097656 39.316406 17.097656 38.6875 16.707031 38.296875 L 14.421875 36.007813 C 14.421875 36.003906 14.421875 36.003906 14.421875 36 L 41 36 C 41.550781 36 42 35.554688 42 35 L 42 29 C 42 28.449219 41.550781 28 41 28 L 14.421875 28 C 14.421875 28 14.421875 27.996094 14.421875 27.996094 L 16.707031 25.707031 C 17.097656 25.316406 17.097656 24.6875 16.707031 24.296875 L 15.863281 23.449219 C 16.875 21.167969 18.28125 19.019531 20.152344 17.152344 C 24.898438 12.40625 31.699219 10.203125 38.339844 11.265625 C 38.882813 11.355469 39.398438 10.984375 39.484375 10.4375 C 39.574219 9.890625 39.199219 9.378906 38.65625 9.289063 C 31.386719 8.125 23.9375 10.535156 18.734375 15.734375 C 16.878906 17.59375 15.445313 19.703125 14.359375 21.945313 L 12.707031 20.296875 C 12.511719 20.097656 12.257813 20 12 20 C 11.742188 20 11.488281 20.097656 11.292969 20.292969 L 10.1875 21.402344 C 14.316406 11.769531 23.875 5 35 5 Z M 42.65625 10.386719 C 42.269531 10.402344 41.910156 10.648438 41.765625 11.035156 C 41.570313 11.554688 41.832031 12.128906 42.351563 12.324219 C 43.066406 12.589844 43.769531 12.898438 44.453125 13.238281 C 44.59375 13.3125 44.746094 13.347656 44.898438 13.347656 C 45.261719 13.347656 45.617188 13.148438 45.792969 12.796875 C 46.042969 12.304688 45.84375 11.703125 45.351563 11.453125 C 44.609375 11.078125 43.832031 10.742188 43.050781 10.449219 C 42.921875 10.402344 42.789063 10.382813 42.65625 10.386719 Z M 48.433594 13.675781 C 48.179688 13.707031 47.9375 13.832031 47.765625 14.050781 C 47.425781 14.484375 47.5 15.113281 47.9375 15.453125 C 48.605469 15.976563 49.246094 16.546875 49.847656 17.152344 C 58.039063 25.339844 58.039063 38.660156 49.847656 46.847656 C 49.457031 47.242188 49.457031 47.871094 49.847656 48.265625 C 50.042969 48.457031 50.300781 48.558594 50.558594 48.558594 C 50.8125 48.558594 51.070313 48.457031 51.265625 48.265625 C 60.230469 39.296875 60.230469 24.703125 51.265625 15.734375 C 50.605469 15.078125 49.902344 14.453125 49.171875 13.878906 C 48.953125 13.710938 48.683594 13.644531 48.433594 13.675781 Z M 12 22.414063 L 14.585938 25 L 11.292969 28.292969 C 11.007813 28.578125 10.921875 29.007813 11.078125 29.382813 C 11.230469 29.753906 11.597656 30 12 30 L 40 30 L 40 34 L 12 34 C 11.597656 34 11.230469 34.246094 11.078125 34.617188 C 10.921875 34.992188 11.007813 35.421875 11.292969 35.707031 L 14.585938 39 L 12 41.585938 L 2.414063 32 Z M 25.375 48.394531 C 24.984375 48.347656 24.589844 48.527344 24.386719 48.886719 L 23.386719 50.621094 C 23.109375 51.097656 23.273438 51.707031 23.75 51.984375 C 23.90625 52.074219 24.078125 52.121094 24.25 52.121094 C 24.59375 52.121094 24.929688 51.941406 25.113281 51.621094 L 26.113281 49.886719 C 26.390625 49.410156 26.230469 48.796875 25.75 48.519531 C 25.628906 48.453125 25.5 48.410156 25.375 48.394531 Z M 44.625 48.394531 C 44.496094 48.410156 44.367188 48.453125 44.25 48.519531 C 43.769531 48.796875 43.609375 49.410156 43.886719 49.890625 L 44.886719 51.621094 C 45.070313 51.941406 45.40625 52.121094 45.75 52.121094 C 45.921875 52.121094 46.09375 52.078125 46.25 51.984375 C 46.730469 51.710938 46.890625 51.097656 46.613281 50.621094 L 45.613281 48.890625 C 45.40625 48.53125 45.011719 48.347656 44.625 48.394531 Z M 29.816406 50.34375 C 29.429688 50.398438 29.09375 50.675781 28.984375 51.078125 L 28.46875 53.011719 C 28.324219 53.542969 28.644531 54.089844 29.175781 54.234375 C 29.261719 54.257813 29.347656 54.269531 29.4375 54.269531 C 29.875 54.269531 30.28125 53.972656 30.402344 53.527344 L 30.921875 51.59375 C 31.0625 51.0625 30.746094 50.511719 30.214844 50.371094 C 30.078125 50.332031 29.945313 50.324219 29.816406 50.34375 Z M 40.1875 50.34375 C 40.058594 50.324219 39.921875 50.332031 39.785156 50.371094 C 39.253906 50.511719 38.9375 51.0625 39.078125 51.59375 L 39.597656 53.527344 C 39.71875 53.972656 40.121094 54.269531 40.5625 54.269531 C 40.652344 54.269531 40.738281 54.257813 40.824219 54.234375 C 41.355469 54.089844 41.675781 53.542969 41.53125 53.011719 L 41.015625 51.078125 C 40.90625 50.675781 40.570313 50.398438 40.1875 50.34375 Z M 35 51 C 34.445313 51 34 51.449219 34 52 L 34 54 C 34 54.550781 34.445313 55 35 55 C 35.554688 55 36 54.550781 36 54 L 36 52 C 36 51.449219 35.554688 51 35 51 Z"/></svg>