<?xml version="1.0"?><svg fill="#000000" xmlns="http://www.w3.org/2000/svg"  viewBox="0 0 64 64" width="64px" height="64px">    <path d="M 21 0 C 17.134 0 14 3.134 14 7 L 14 57 C 14 60.866 17.134 64 21 64 L 43 64 C 46.866 64 50 60.866 50 57 L 50 46.330078 L 50 14 L 50 7 C 50 3.134 46.866 0 43 0 L 21 0 z M 21 2 L 43 2 C 45.761 2 48 4.239 48 7 L 48 8 L 16 8 L 16 7 C 16 4.239 18.239 2 21 2 z M 27 4 C 26.448 4 26 4.448 26 5 C 26 5.552 26.448 6 27 6 L 29 6 C 29.552 6 30 5.552 30 5 C 30 4.448 29.552 4 29 4 L 27 4 z M 33 4 C 32.448 4 32 4.448 32 5 C 32 5.552 32.448 6 33 6 L 37 6 C 37.552 6 38 5.552 38 5 C 38 4.448 37.552 4 37 4 L 33 4 z M 16 10 L 48 10 L 48 52 L 16 52 L 16 10 z M 25 12 C 21.141 12 18 15.141 18 19 C 18 20.901208 18.764965 22.625759 20 23.888672 L 20 38 C 20 38.553 20.447 39 21 39 L 43 39 C 43.553 39 44 38.553 44 38 L 44 33 L 44 16 C 44 15.447 43.553 15 43 15 L 30.734375 15 C 29.467523 13.189945 27.371467 12 25 12 z M 25 14 C 27.757 14 30 16.243 30 19 C 30 21.757 27.757 24 25 24 C 22.243 24 20 21.757 20 19 C 20 16.243 22.243 14 25 14 z M 25 16 C 23.897 16 23 16.897 23 18 C 23 18.513 23.200531 18.978031 23.519531 19.332031 C 22.852531 19.645031 22.388969 20.115313 22.167969 20.445312 C 21.963969 20.752312 21.943187 21.145703 22.117188 21.470703 C 22.291187 21.795703 22.631 22 23 22 L 27 22 C 27.369 22 27.708812 21.797656 27.882812 21.472656 C 28.056813 21.147656 28.036031 20.752312 27.832031 20.445312 C 27.612031 20.115313 27.147469 19.645031 26.480469 19.332031 C 26.800469 18.978031 27 18.513 27 18 C 27 16.897 26.103 16 25 16 z M 31.705078 17 L 42 17 L 42 30 L 37.800781 24.400391 C 37.423781 23.896391 36.576219 23.896391 36.199219 24.400391 L 30.660156 31.787109 L 26.371094 30.072266 C 26.083094 29.955266 25.752375 29.981578 25.484375 30.142578 L 22 32.232422 L 22 25.314453 C 22.910746 25.749047 23.92568 26 25 26 C 28.859 26 32 22.859 32 19 C 32 18.30452 31.894936 17.634655 31.705078 17 z M 37 26.667969 L 42 33.332031 L 42 37 L 22 37 L 22 34.566406 L 26.089844 32.113281 L 30.628906 33.929688 C 31.044906 34.095688 31.529781 33.961609 31.800781 33.599609 L 37 26.667969 z M 21 42 C 20.447 42 20 42.447 20 43 C 20 43.553 20.447 44 21 44 L 43 44 C 43.553 44 44 43.553 44 43 C 44 42.447 43.553 42 43 42 L 21 42 z M 21 47 C 20.447 47 20 47.447 20 48 C 20 48.553 20.447 49 21 49 L 37 49 C 37.553 49 38 48.553 38 48 C 38 47.447 37.553 47 37 47 L 21 47 z M 16 54 L 48 54 L 48 57 C 48 59.761 45.761 62 43 62 L 21 62 C 18.239 62 16 59.761 16 57 L 16 54 z M 32 56 A 2 2 0 0 0 30 58 A 2 2 0 0 0 32 60 A 2 2 0 0 0 34 58 A 2 2 0 0 0 32 56 z"/></svg>