<svg fill="#000000" xmlns="http://www.w3.org/2000/svg"  viewBox="0 0 64 64" width="64px" height="64px"><path d="M 7 6 C 5.343 6 4 7.343 4 9 L 4 55 C 4 56.657 5.343 58 7 58 L 57 58 C 58.657 58 60 56.657 60 55 L 60 9 C 60 7.343 58.657 6 57 6 L 7 6 z M 7 8 L 57 8 C 57.552 8 58 8.448 58 9 L 58 55 C 58 55.552 57.552 56 57 56 L 7 56 C 6.448 56 6 55.552 6 55 L 6 9 C 6 8.448 6.448 8 7 8 z M 9 10 C 8.448 10 8 10.448 8 11 L 8 13 C 8 13.552 8.448 14 9 14 C 9.552 14 10 13.552 10 13 L 10 11 C 10 10.448 9.552 10 9 10 z M 14 10 C 13.448 10 13 10.448 13 11 L 13 13 C 13 13.552 13.448 14 14 14 C 14.552 14 15 13.552 15 13 L 15 11 C 15 10.448 14.552 10 14 10 z M 19 10 C 18.448 10 18 10.448 18 11 L 18 13 C 18 13.552 18.448 14 19 14 C 19.552 14 20 13.552 20 13 L 20 11 C 20 10.448 19.552 10 19 10 z M 24 10 C 23.448 10 23 10.448 23 11 L 23 13 C 23 13.552 23.448 14 24 14 C 24.552 14 25 13.552 25 13 L 25 11 C 25 10.448 24.552 10 24 10 z M 29 10 C 28.448 10 28 10.448 28 11 L 28 13 C 28 13.552 28.448 14 29 14 C 29.552 14 30 13.552 30 13 L 30 11 C 30 10.448 29.552 10 29 10 z M 34 10 C 33.448 10 33 10.448 33 11 L 33 13 C 33 13.552 33.448 14 34 14 C 34.552 14 35 13.552 35 13 L 35 11 C 35 10.448 34.552 10 34 10 z M 39 10 C 38.448 10 38 10.448 38 11 L 38 13 C 38 13.552 38.448 14 39 14 C 39.552 14 40 13.552 40 13 L 40 11 C 40 10.448 39.552 10 39 10 z M 44 10 C 43.448 10 43 10.448 43 11 L 43 13 C 43 13.552 43.448 14 44 14 C 44.552 14 45 13.552 45 13 L 45 11 C 45 10.448 44.552 10 44 10 z M 49 10 C 48.448 10 48 10.448 48 11 L 48 13 C 48 13.552 48.448 14 49 14 C 49.552 14 50 13.552 50 13 L 50 11 C 50 10.448 49.552 10 49 10 z M 54 10 C 53.448 10 53 10.448 53 11 L 53 13 C 53 13.552 53.448 14 54 14 C 54.552 14 55 13.552 55 13 L 55 11 C 55 10.448 54.552 10 54 10 z M 15 25 C 14.448 25 14 25.448 14 26 C 14 26.552 14.448 27 15 27 L 33 27 C 33.552 27 34 26.552 34 26 C 34 25.448 33.552 25 33 25 L 15 25 z M 37 25 C 36.448 25 36 25.448 36 26 C 36 26.552 36.448 27 37 27 L 43 27 C 43.552 27 44 26.552 44 26 C 44 25.448 43.552 25 43 25 L 37 25 z M 15 31 C 14.448 31 14 31.448 14 32 C 14 32.552 14.448 33 15 33 L 45 33 C 45.552 33 46 32.552 46 32 C 46 31.448 45.552 31 45 31 L 15 31 z M 15 37 C 14.448 37 14 37.448 14 38 C 14 38.552 14.448 39 15 39 L 49 39 C 49.552 39 50 38.552 50 38 C 50 37.448 49.552 37 49 37 L 15 37 z M 15 43 C 14.448 43 14 43.448 14 44 C 14 44.552 14.448 45 15 45 L 45 45 C 45.552 45 46 44.552 46 44 C 46 43.448 45.552 43 45 43 L 15 43 z"/></svg>