<svg fill="#000000" xmlns="http://www.w3.org/2000/svg"  viewBox="0 0 64 64" width="64px" height="64px"><path d="M 31 2 C 15.011719 2 2 15.007813 2 31 C 2 46.992188 15.011719 60 31 60 C 46.988281 60 60 46.992188 60 31 C 60 15.007813 46.988281 2 31 2 Z M 31 4 C 45.886719 4 58 16.113281 58 31 C 58 45.886719 45.886719 58 31 58 C 16.113281 58 4 45.886719 4 31 C 4 16.113281 16.113281 4 31 4 Z M 30.5625 8.007813 C 24.671875 8.125 18.960938 10.511719 14.734375 14.734375 C 5.769531 23.703125 5.769531 38.292969 14.734375 47.261719 C 14.929688 47.457031 15.1875 47.554688 15.441406 47.554688 C 15.699219 47.554688 15.957031 47.457031 16.152344 47.261719 C 16.542969 46.871094 16.542969 46.238281 16.152344 45.847656 C 7.960938 37.660156 7.964844 24.339844 16.152344 16.152344 C 20.898438 11.402344 27.699219 9.199219 34.339844 10.265625 C 34.882813 10.355469 35.398438 9.980469 35.484375 9.4375 C 35.574219 8.890625 35.199219 8.375 34.65625 8.289063 C 33.292969 8.070313 31.921875 7.976563 30.5625 8.007813 Z M 38.660156 9.386719 C 38.269531 9.402344 37.910156 9.648438 37.765625 10.035156 C 37.570313 10.554688 37.832031 11.128906 38.351563 11.324219 C 39.066406 11.589844 39.769531 11.898438 40.453125 12.238281 C 40.597656 12.3125 40.75 12.347656 40.902344 12.347656 C 41.265625 12.347656 41.617188 12.148438 41.796875 11.796875 C 42.042969 11.304688 41.84375 10.703125 41.351563 10.453125 C 40.609375 10.078125 39.832031 9.742188 39.050781 9.449219 C 38.921875 9.402344 38.789063 9.382813 38.660156 9.386719 Z M 44.433594 12.675781 C 44.179688 12.707031 43.9375 12.832031 43.765625 13.050781 C 43.425781 13.484375 43.5 14.113281 43.9375 14.453125 C 44.605469 14.976563 45.246094 15.546875 45.847656 16.152344 C 54.039063 24.339844 54.039063 37.660156 45.847656 45.847656 C 45.457031 46.242188 45.457031 46.871094 45.847656 47.265625 C 46.042969 47.457031 46.300781 47.558594 46.558594 47.558594 C 46.8125 47.558594 47.070313 47.457031 47.265625 47.265625 C 56.230469 38.296875 56.230469 23.703125 47.265625 14.734375 C 46.605469 14.078125 45.902344 13.453125 45.171875 12.878906 C 44.953125 12.710938 44.683594 12.644531 44.433594 12.675781 Z M 41.875 18.007813 C 41.621094 18.039063 41.378906 18.167969 41.210938 18.386719 L 27.90625 35.492188 L 20.707031 28.292969 C 20.316406 27.902344 19.683594 27.902344 19.292969 28.292969 C 18.902344 28.683594 18.902344 29.316406 19.292969 29.707031 L 27.292969 37.707031 C 27.480469 37.894531 27.734375 38 28 38 C 28.019531 38 28.042969 38 28.0625 38 C 28.347656 37.980469 28.613281 37.839844 28.789063 37.613281 L 42.789063 19.613281 C 43.128906 19.175781 43.050781 18.550781 42.613281 18.210938 C 42.394531 18.042969 42.132813 17.976563 41.875 18.007813 Z M 21 40 C 20.445313 40 20 40.449219 20 41 C 20 41.550781 20.445313 42 21 42 L 41 42 C 41.554688 42 42 41.550781 42 41 C 42 40.449219 41.554688 40 41 40 Z M 21.375 48.394531 C 20.984375 48.347656 20.589844 48.527344 20.386719 48.886719 L 19.386719 50.621094 C 19.109375 51.097656 19.273438 51.707031 19.75 51.984375 C 19.90625 52.074219 20.078125 52.121094 20.25 52.121094 C 20.59375 52.121094 20.929688 51.941406 21.113281 51.621094 L 22.113281 49.886719 C 22.390625 49.410156 22.230469 48.796875 21.75 48.519531 C 21.628906 48.453125 21.503906 48.410156 21.375 48.394531 Z M 40.625 48.394531 C 40.496094 48.410156 40.367188 48.453125 40.25 48.519531 C 39.769531 48.796875 39.609375 49.410156 39.886719 49.890625 L 40.886719 51.621094 C 41.070313 51.941406 41.40625 52.121094 41.75 52.121094 C 41.921875 52.121094 42.09375 52.078125 42.25 51.984375 C 42.730469 51.710938 42.890625 51.097656 42.613281 50.621094 L 41.613281 48.890625 C 41.40625 48.53125 41.011719 48.347656 40.625 48.394531 Z M 25.816406 50.34375 C 25.429688 50.398438 25.09375 50.675781 24.984375 51.078125 L 24.46875 53.011719 C 24.324219 53.542969 24.644531 54.089844 25.175781 54.234375 C 25.261719 54.257813 25.347656 54.269531 25.4375 54.269531 C 25.875 54.269531 26.28125 53.972656 26.402344 53.527344 L 26.921875 51.59375 C 27.0625 51.0625 26.746094 50.511719 26.214844 50.371094 C 26.082031 50.332031 25.945313 50.328125 25.816406 50.34375 Z M 36.1875 50.34375 C 36.058594 50.328125 35.921875 50.332031 35.785156 50.371094 C 35.253906 50.511719 34.9375 51.0625 35.078125 51.59375 L 35.597656 53.527344 C 35.71875 53.972656 36.121094 54.269531 36.5625 54.269531 C 36.652344 54.269531 36.738281 54.257813 36.824219 54.234375 C 37.355469 54.089844 37.675781 53.542969 37.53125 53.011719 L 37.015625 51.078125 C 36.90625 50.675781 36.570313 50.398438 36.1875 50.34375 Z M 31 51 C 30.445313 51 30 51.449219 30 52 L 30 54 C 30 54.550781 30.445313 55 31 55 C 31.554688 55 32 54.550781 32 54 L 32 52 C 32 51.449219 31.554688 51 31 51 Z"/></svg>