<svg fill="#000000" xmlns="http://www.w3.org/2000/svg"  viewBox="0 0 64 64" width="64px" height="64px"><path d="M 32 6 C 31.742188 6 31.484375 6.09375 31.289063 6.289063 L 29.578125 8 L 5 8 C 3.351563 8 2 9.351563 2 11 L 2 29.578125 L 0.289063 31.289063 C -0.101563 31.679688 -0.101563 32.320313 0.289063 32.710938 L 2 34.421875 L 2 53 C 2 54.648438 3.351563 56 5 56 L 29.578125 56 L 31.289063 57.710938 C 31.488281 57.902344 31.738281 58 32 58 C 32.261719 58 32.511719 57.902344 32.710938 57.710938 L 34.421875 56 L 59 56 C 60.648438 56 62 54.648438 62 53 L 62 34.421875 L 63.710938 32.710938 C 64.101563 32.320313 64.101563 31.679688 63.710938 31.289063 L 62 29.578125 L 62 11 C 62 9.351563 60.648438 8 59 8 L 34.421875 8 L 32.710938 6.289063 C 32.515625 6.09375 32.257813 6 32 6 Z M 32 8.410156 L 37.589844 14 L 36 15.589844 L 32.710938 12.289063 C 32.511719 12.097656 32.261719 12 32 12 C 31.738281 12 31.488281 12.097656 31.289063 12.289063 L 28 15.589844 L 26.410156 14 Z M 5 10 L 27.578125 10 L 24.289063 13.289063 C 23.898438 13.679688 23.898438 14.320313 24.289063 14.710938 L 27.289063 17.710938 C 27.679688 18.101563 28.320313 18.101563 28.710938 17.710938 L 32 14.410156 L 35.289063 17.710938 C 35.488281 17.902344 35.738281 18 36 18 C 36.261719 18 36.511719 17.902344 36.710938 17.710938 L 39.710938 14.710938 C 40.101563 14.320313 40.101563 13.679688 39.710938 13.289063 L 36.421875 10 L 59 10 C 59.550781 10 60 10.449219 60 11 L 60 27.578125 L 56.710938 24.289063 C 56.320313 23.898438 55.679688 23.898438 55.289063 24.289063 L 52.289063 27.289063 C 51.898438 27.679688 51.898438 28.320313 52.289063 28.710938 L 55.589844 32 L 52.289063 35.289063 C 51.898438 35.679688 51.898438 36.320313 52.289063 36.710938 L 55.289063 39.710938 C 55.488281 39.902344 55.738281 40 56 40 C 56.261719 40 56.511719 39.902344 56.710938 39.710938 L 60 36.421875 L 60 48 C 59.445313 48 59 48.449219 59 49 L 59 51 C 59 51.550781 59.445313 52 60 52 L 60 53 C 60 53.550781 59.550781 54 59 54 L 36.421875 54 L 39.710938 50.710938 C 40.101563 50.320313 40.101563 49.679688 39.710938 49.289063 L 36.710938 46.289063 C 36.320313 45.898438 35.679688 45.898438 35.289063 46.289063 L 32 49.589844 L 28.710938 46.289063 C 28.320313 45.898438 27.679688 45.898438 27.289063 46.289063 L 24.289063 49.289063 C 23.898438 49.679688 23.898438 50.320313 24.289063 50.710938 L 27.578125 54 L 5 54 C 4.449219 54 4 53.550781 4 53 L 4 52 C 4.554688 52 5 51.550781 5 51 L 5 49 C 5 48.449219 4.554688 48 4 48 L 4 36.421875 L 7.289063 39.710938 C 7.488281 39.902344 7.738281 40 8 40 C 8.261719 40 8.511719 39.902344 8.710938 39.710938 L 11.710938 36.710938 C 12.101563 36.320313 12.101563 35.679688 11.710938 35.289063 L 8.410156 32 L 11.710938 28.710938 C 12.101563 28.320313 12.101563 27.679688 11.710938 27.289063 L 8.710938 24.289063 C 8.320313 23.898438 7.679688 23.898438 7.289063 24.289063 L 4 27.578125 L 4 11 C 4 10.449219 4.449219 10 5 10 Z M 8 26.410156 L 9.589844 28 L 6.289063 31.289063 C 5.898438 31.679688 5.898438 32.320313 6.289063 32.710938 L 9.589844 36 L 8 37.589844 L 2.410156 32 Z M 56 26.410156 L 61.589844 32 L 56 37.589844 L 54.410156 36 L 57.710938 32.710938 C 58.101563 32.320313 58.101563 31.679688 57.710938 31.289063 L 54.410156 28 Z M 9 48 C 8.445313 48 8 48.449219 8 49 L 8 51 C 8 51.550781 8.445313 52 9 52 C 9.554688 52 10 51.550781 10 51 L 10 49 C 10 48.449219 9.554688 48 9 48 Z M 14 48 C 13.445313 48 13 48.449219 13 49 L 13 51 C 13 51.550781 13.445313 52 14 52 C 14.554688 52 15 51.550781 15 51 L 15 49 C 15 48.449219 14.554688 48 14 48 Z M 19 48 C 18.445313 48 18 48.449219 18 49 L 18 51 C 18 51.550781 18.445313 52 19 52 C 19.554688 52 20 51.550781 20 51 L 20 49 C 20 48.449219 19.554688 48 19 48 Z M 45 48 C 44.445313 48 44 48.449219 44 49 L 44 51 C 44 51.550781 44.445313 52 45 52 C 45.554688 52 46 51.550781 46 51 L 46 49 C 46 48.449219 45.554688 48 45 48 Z M 50 48 C 49.445313 48 49 48.449219 49 49 L 49 51 C 49 51.550781 49.445313 52 50 52 C 50.554688 52 51 51.550781 51 51 L 51 49 C 51 48.449219 50.554688 48 50 48 Z M 55 48 C 54.445313 48 54 48.449219 54 49 L 54 51 C 54 51.550781 54.445313 52 55 52 C 55.554688 52 56 51.550781 56 51 L 56 49 C 56 48.449219 55.554688 48 55 48 Z M 28 48.410156 L 31.289063 51.710938 C 31.679688 52.101563 32.320313 52.101563 32.710938 51.710938 L 36 48.410156 L 37.589844 50 L 32 55.589844 L 26.410156 50 Z"/></svg>