<svg fill="#000000" xmlns="http://www.w3.org/2000/svg"  viewBox="0 0 64 64" width="64px" height="64px"><path d="M 9 6 C 7.347656 6 6 7.347656 6 9 L 6 55 C 6 56.652344 7.347656 58 9 58 L 55 58 C 56.652344 58 58 56.652344 58 55 L 58 9 C 58 7.347656 56.652344 6 55 6 Z M 9 8 L 55 8 C 55.550781 8 56 8.449219 56 9 L 56 55 C 56 55.550781 55.550781 56 55 56 L 9 56 C 8.449219 56 8 55.550781 8 55 L 8 9 C 8 8.449219 8.449219 8 9 8 Z M 32 12 C 23.949219 12 16.71875 16.789063 13.578125 24.199219 C 13.363281 24.707031 13.601563 25.292969 14.109375 25.511719 C 14.238281 25.5625 14.367188 25.589844 14.5 25.589844 C 14.890625 25.589844 15.261719 25.359375 15.421875 24.980469 C 18.25 18.308594 24.757813 14 32 14 C 38.082031 14 43.699219 17.0625 47.015625 22.082031 L 41 22.082031 C 40.445313 22.082031 40 22.527344 40 23.082031 C 40 23.636719 40.445313 24.082031 41 24.082031 L 49 24.082031 C 49.554688 24.082031 50 23.636719 50 23.082031 L 50 15 C 50 14.445313 49.554688 14 49 14 C 48.445313 14 48 14.445313 48 15 L 48 20.003906 C 44.253906 15.011719 38.355469 12 32 12 Z M 32 18 C 31.445313 18 31 18.445313 31 19 L 31 21 C 31 21.554688 31.445313 22 32 22 C 32.554688 22 33 21.554688 33 21 L 33 19 C 33 18.445313 32.554688 18 32 18 Z M 25.375 19.75 C 25.246094 19.765625 25.121094 19.804688 25 19.875 C 24.519531 20.152344 24.359375 20.761719 24.636719 21.238281 L 25.636719 22.972656 C 25.820313 23.292969 26.15625 23.472656 26.5 23.472656 C 26.671875 23.472656 26.84375 23.429688 27 23.339844 C 27.480469 23.0625 27.640625 22.449219 27.363281 21.972656 L 26.363281 20.238281 C 26.15625 19.882813 25.761719 19.699219 25.375 19.75 Z M 20.863281 24.507813 C 20.480469 24.460938 20.082031 24.640625 19.875 25 C 19.601563 25.476563 19.765625 26.089844 20.242188 26.363281 L 21.972656 27.363281 C 22.132813 27.457031 22.300781 27.5 22.472656 27.5 C 22.816406 27.5 23.152344 27.320313 23.339844 27 C 23.617188 26.519531 23.453125 25.910156 22.972656 25.636719 L 21.242188 24.636719 C 21.121094 24.566406 20.996094 24.523438 20.863281 24.507813 Z M 13.46875 27.675781 C 12.914063 27.574219 12.40625 27.941406 12.308594 28.484375 C 12.105469 29.636719 12 30.820313 12 32 C 12 32.554688 12.445313 33 13 33 C 13.554688 33 14 32.554688 14 32 C 14 30.9375 14.09375 29.871094 14.277344 28.832031 C 14.375 28.289063 14.011719 27.773438 13.46875 27.675781 Z M 19 31 C 18.445313 31 18 31.445313 18 32 C 18 32.554688 18.445313 33 19 33 L 21 33 C 21.554688 33 22 32.554688 22 32 C 22 31.445313 21.554688 31 21 31 Z M 43 31 C 42.445313 31 42 31.445313 42 32 C 42 32.554688 42.445313 33 43 33 L 45 33 C 45.554688 33 46 32.554688 46 32 C 46 31.445313 45.554688 31 45 31 Z M 51 31 C 50.445313 31 50 31.445313 50 32 C 50 33.222656 49.875 34.441406 49.636719 35.628906 C 49.523438 36.167969 49.875 36.699219 50.414063 36.808594 C 50.480469 36.824219 50.550781 36.828125 50.613281 36.828125 C 51.082031 36.828125 51.496094 36.503906 51.59375 36.03125 C 51.863281 34.710938 52 33.355469 52 32 C 52 31.445313 51.554688 31 51 31 Z M 41.652344 36.507813 C 41.265625 36.460938 40.867188 36.640625 40.660156 37 C 40.382813 37.476563 40.546875 38.089844 41.027344 38.363281 L 42.757813 39.363281 C 42.914063 39.457031 43.085938 39.5 43.257813 39.5 C 43.605469 39.5 43.9375 39.320313 44.125 39 C 44.398438 38.519531 44.234375 37.910156 43.757813 37.636719 L 42.027344 36.636719 C 41.90625 36.566406 41.78125 36.523438 41.652344 36.507813 Z M 49.453125 38.535156 C 49.0625 38.53125 48.691406 38.757813 48.53125 39.140625 C 45.675781 45.738281 39.1875 50 32 50 C 25.953125 50 20.367188 46.96875 17.042969 42 L 23 42 C 23.554688 42 24 41.554688 24 41 C 24 40.445313 23.554688 40 23 40 L 15 40 C 14.445313 40 14 40.445313 14 41 L 14 49.082031 C 14 49.636719 14.445313 50.082031 15 50.082031 C 15.554688 50.082031 16 49.636719 16 49.082031 L 16 43.996094 C 19.746094 48.988281 25.644531 52 32 52 C 39.984375 52 47.191406 47.265625 50.363281 39.933594 C 50.582031 39.425781 50.351563 38.835938 49.84375 38.617188 C 49.714844 38.5625 49.582031 38.535156 49.453125 38.535156 Z M 37.375 40.53125 C 37.246094 40.550781 37.121094 40.589844 37 40.660156 C 36.519531 40.9375 36.359375 41.546875 36.636719 42.027344 L 37.636719 43.757813 C 37.820313 44.078125 38.15625 44.257813 38.5 44.257813 C 38.671875 44.257813 38.84375 44.214844 39 44.125 C 39.480469 43.847656 39.640625 43.234375 39.363281 42.757813 L 38.363281 41.027344 C 38.15625 40.667969 37.761719 40.484375 37.375 40.53125 Z M 32 42 C 31.445313 42 31 42.445313 31 43 L 31 45 C 31 45.554688 31.445313 46 32 46 C 32.554688 46 33 45.554688 33 45 L 33 43 C 33 42.445313 32.554688 42 32 42 Z"/></svg>