<?xml version="1.0"?><svg fill="#000000" xmlns="http://www.w3.org/2000/svg"  viewBox="0 0 64 64" width="64px" height="64px">    <path d="M 46.707031 1.3945312 C 46.195031 1.3945312 45.682969 1.5894688 45.292969 1.9804688 L 42.464844 4.8085938 C 41.683844 5.5895937 41.683844 6.8557188 42.464844 7.6367188 L 45.828125 11 L 6 11 C 4.895 11 4 11.895 4 13 L 4 40.787109 C 4 41.596109 4.486375 42.324766 5.234375 42.634766 C 5.481375 42.736766 5.742 42.787109 6 42.787109 C 6.521 42.787109 7.0310625 42.584172 7.4140625 42.201172 L 11.414062 38.201172 C 11.788063 37.826172 12 37.318109 12 36.787109 L 12 19 L 45.242188 19 L 42.464844 21.777344 C 41.683844 22.558344 41.683844 23.824469 42.464844 24.605469 L 45.292969 27.433594 C 45.683969 27.824594 46.195031 28.019531 46.707031 28.019531 C 47.219031 28.019531 47.731094 27.824594 48.121094 27.433594 L 59.433594 16.121094 C 60.214594 15.340094 60.214594 14.073969 59.433594 13.292969 L 58.019531 11.878906 L 56.605469 10.464844 L 48.121094 1.9804688 C 47.731094 1.5894688 47.219031 1.3945313 46.707031 1.3945312 z M 46.707031 3.3945312 L 55.191406 11.878906 L 56.605469 13.292969 L 58.019531 14.707031 L 46.707031 26.021484 L 43.878906 23.193359 L 50.070312 17 L 10 17 L 10 36.787109 L 6 40.787109 L 6 13 L 50.65625 13 L 43.878906 6.2226562 L 46.707031 3.3945312 z M 58 21.212891 C 57.479 21.212891 56.968938 21.415828 56.585938 21.798828 L 52.585938 25.798828 C 52.211937 26.173828 52 26.681891 52 27.212891 L 52 45 L 18.757812 45 L 21.535156 42.222656 C 22.316156 41.441656 22.316156 40.175531 21.535156 39.394531 L 18.707031 36.566406 C 18.316031 36.175406 17.804969 35.980469 17.292969 35.980469 C 16.780969 35.980469 16.268906 36.175406 15.878906 36.566406 L 4.5644531 47.878906 C 3.7834531 48.659906 3.7834531 49.926031 4.5644531 50.707031 L 5.9785156 52.121094 L 7.3925781 53.535156 L 15.878906 62.019531 C 16.269906 62.410531 16.780969 62.605469 17.292969 62.605469 C 17.804969 62.605469 18.315078 62.410531 18.705078 62.019531 L 21.533203 59.191406 C 22.314203 58.410406 22.314203 57.144281 21.533203 56.363281 L 18.171875 53 L 58 53 C 59.105 53 60 52.105 60 51 L 60 23.212891 C 60 22.403891 59.513625 21.675234 58.765625 21.365234 C 58.518625 21.263234 58.258 21.212891 58 21.212891 z M 17 22 C 16.448 22 16 22.448 16 23 L 16 25 C 16 25.552 16.448 26 17 26 C 17.552 26 18 25.552 18 25 L 18 23 C 18 22.448 17.552 22 17 22 z M 22 22 C 21.448 22 21 22.448 21 23 L 21 25 C 21 25.552 21.448 26 22 26 C 22.552 26 23 25.552 23 25 L 23 23 C 23 22.448 22.552 22 22 22 z M 27 22 C 26.448 22 26 22.448 26 23 L 26 25 C 26 25.552 26.448 26 27 26 C 27.552 26 28 25.552 28 25 L 28 23 C 28 22.448 27.552 22 27 22 z M 32 22 C 31.448 22 31 22.448 31 23 L 31 25 C 31 25.552 31.448 26 32 26 C 32.552 26 33 25.552 33 25 L 33 23 C 33 22.448 32.552 22 32 22 z M 37 22 C 36.448 22 36 22.448 36 23 L 36 25 C 36 25.552 36.448 26 37 26 C 37.552 26 38 25.552 38 25 L 38 23 C 38 22.448 37.552 22 37 22 z M 58 23.212891 L 58 51 L 13.34375 51 L 20.121094 57.777344 L 17.292969 60.605469 L 8.8085938 52.121094 L 7.3945312 50.707031 L 5.9804688 49.292969 L 17.292969 37.980469 L 20.121094 40.808594 L 13.929688 47 L 54 47 L 54 27.212891 L 58 23.212891 z M 26 40 C 25.448 40 25 40.448 25 41 C 25 41.552 25.448 42 26 42 L 41 42 C 41.552 42 42 41.552 42 41 C 42 40.448 41.552 40 41 40 L 26 40 z M 45 40 C 44.448 40 44 40.448 44 41 C 44 41.552 44.448 42 45 42 L 49 42 C 49.552 42 50 41.552 50 41 C 50 40.448 49.552 40 49 40 L 45 40 z"/></svg>