<svg fill="#000000" xmlns="http://www.w3.org/2000/svg"  viewBox="0 0 64 64" width="64px" height="64px"><path d="M 31 4 C 15.011719 4 2 17.011719 2 33 C 2 48.988281 15.011719 62 31 62 C 46.988281 62 60 48.988281 60 33 C 60 17.011719 46.988281 4 31 4 Z M 31 6 C 45.886719 6 58 18.113281 58 33 C 58 47.886719 45.886719 60 31 60 C 16.113281 60 4 47.886719 4 33 C 4 18.113281 16.113281 6 31 6 Z M 31 13 C 30.445313 13 30 13.445313 30 14 C 30 14.554688 30.445313 15 31 15 C 32.0625 15 33.128906 15.09375 34.167969 15.277344 C 34.226563 15.289063 34.285156 15.292969 34.34375 15.292969 C 34.816406 15.292969 35.238281 14.953125 35.324219 14.46875 C 35.421875 13.925781 35.058594 13.40625 34.515625 13.308594 C 33.363281 13.105469 32.179688 13 31 13 Z M 38.410156 14.5 C 38.019531 14.5 37.648438 14.726563 37.484375 15.109375 C 37.269531 15.617188 37.507813 16.203125 38.015625 16.421875 C 44.691406 19.246094 49 25.753906 49 33 C 49 42.925781 40.925781 51 31 51 C 21.074219 51 13 42.925781 13 33 C 13 27.011719 16.046875 21.363281 21 18.039063 L 21 23 C 21 23.554688 21.445313 24 22 24 C 22.554688 24 23 23.554688 23 23 L 23 16 C 23 15.445313 22.554688 15 22 15 L 14.917969 15 C 14.363281 15 13.917969 15.445313 13.917969 16 C 13.917969 16.554688 14.363281 17 14.917969 17 L 19.015625 17 C 14.03125 20.75 11 26.703125 11 33 C 11 44.027344 19.972656 53 31 53 C 42.027344 53 51 44.027344 51 33 C 51 24.949219 46.210938 17.71875 38.796875 14.578125 C 38.671875 14.523438 38.539063 14.5 38.410156 14.5 Z M 31 19 C 30.445313 19 30 19.445313 30 20 L 30 22 C 30 22.554688 30.445313 23 31 23 C 31.554688 23 32 22.554688 32 22 L 32 20 C 32 19.445313 31.554688 19 31 19 Z M 37.625 20.75 C 37.234375 20.703125 36.839844 20.882813 36.636719 21.242188 L 35.636719 22.972656 C 35.359375 23.453125 35.519531 24.0625 36 24.339844 C 36.15625 24.429688 36.328125 24.472656 36.5 24.472656 C 36.84375 24.472656 37.179688 24.292969 37.363281 23.972656 L 38.363281 22.242188 C 38.640625 21.761719 38.476563 21.152344 38 20.875 C 37.878906 20.808594 37.753906 20.765625 37.625 20.75 Z M 42.136719 25.507813 C 42.007813 25.523438 41.878906 25.566406 41.761719 25.636719 L 40.027344 26.636719 C 39.546875 26.910156 39.382813 27.519531 39.660156 28 C 39.847656 28.320313 40.179688 28.5 40.527344 28.5 C 40.699219 28.5 40.867188 28.457031 41.027344 28.363281 L 42.757813 27.363281 C 43.238281 27.089844 43.398438 26.476563 43.125 26 C 42.917969 25.640625 42.519531 25.460938 42.136719 25.507813 Z M 18 32 C 17.445313 32 17 32.445313 17 33 C 17 33.554688 17.445313 34 18 34 L 20 34 C 20.554688 34 21 33.554688 21 33 C 21 32.445313 20.554688 32 20 32 Z M 42 32 C 41.445313 32 41 32.445313 41 33 C 41 33.554688 41.445313 34 42 34 L 44 34 C 44.554688 34 45 33.554688 45 33 C 45 32.445313 44.554688 32 44 32 Z M 21.347656 37.507813 C 21.21875 37.523438 21.089844 37.566406 20.972656 37.636719 L 19.238281 38.636719 C 18.761719 38.910156 18.597656 39.523438 18.875 40 C 19.0625 40.320313 19.394531 40.5 19.742188 40.5 C 19.914063 40.5 20.082031 40.457031 20.238281 40.363281 L 21.972656 39.363281 C 22.453125 39.089844 22.617188 38.476563 22.339844 38 C 22.132813 37.640625 21.734375 37.460938 21.347656 37.507813 Z M 25.625 41.535156 C 25.234375 41.488281 24.839844 41.667969 24.636719 42.027344 L 23.636719 43.761719 C 23.359375 44.238281 23.519531 44.847656 24 45.125 C 24.15625 45.214844 24.328125 45.261719 24.5 45.261719 C 24.84375 45.261719 25.179688 45.078125 25.363281 44.761719 L 26.363281 43.027344 C 26.640625 42.546875 26.476563 41.9375 26 41.660156 C 25.878906 41.589844 25.75 41.550781 25.625 41.535156 Z M 31 43 C 30.445313 43 30 43.445313 30 44 L 30 46 C 30 46.554688 30.445313 47 31 47 C 31.554688 47 32 46.554688 32 46 L 32 44 C 32 43.445313 31.554688 43 31 43 Z"/></svg>