<?xml version="1.0"?><svg fill="#000000" xmlns="http://www.w3.org/2000/svg"  viewBox="0 0 64 64" width="64px" height="64px">    <path d="M 13 4 C 11.346 4 10 5.346 10 7 L 10 10 L 7 10 C 5.346 10 4 11.346 4 13 L 4 57 C 4 58.654 5.346 60 7 60 L 12 60 L 46 60 L 51 60 C 52.654 60 54 58.654 54 57 L 54 54 L 57 54 C 58.654 54 60 52.654 60 51 L 60 15.65625 C 60 14.32025 59.479156 13.065094 58.535156 12.121094 L 51.878906 5.4648438 C 50.935906 4.5208437 49.68075 4 48.34375 4 L 13 4 z M 13 6 L 48.34375 6 C 49.14575 6 49.898844 6.3119062 50.464844 6.8789062 L 57.121094 13.535156 C 57.680094 14.094156 58 14.86625 58 15.65625 L 58 51 C 58 51.552 57.551 52 57 52 L 54 52 L 54 21.65625 C 54 20.32025 53.479156 19.065094 52.535156 18.121094 L 45.878906 11.464844 C 44.935906 10.520844 43.68075 10 42.34375 10 L 42 10 L 12 10 L 12 7 C 12 6.448 12.449 6 13 6 z M 7 12 L 12 12 L 12 27 C 12 28.654 13.346 30 15 30 L 39 30 C 40.654 30 42 28.654 42 27 L 42 12 L 42.34375 12 C 43.14575 12 43.898844 12.311906 44.464844 12.878906 L 51.121094 19.535156 C 51.680094 20.094156 52 20.86625 52 21.65625 L 52 57 C 52 57.552 51.551 58 51 58 L 46 58 L 46 37 C 46 35.346 44.654 34 43 34 L 15 34 C 13.346 34 12 35.346 12 37 L 12 58 L 7 58 C 6.449 58 6 57.552 6 57 L 6 13 C 6 12.448 6.449 12 7 12 z M 14 12 L 40 12 L 40 27 C 40 27.552 39.551 28 39 28 L 15 28 C 14.449 28 14 27.552 14 27 L 14 12 z M 35 14 C 33.346 14 32 15.346 32 17 L 32 23 C 32 24.654 33.346 26 35 26 C 36.654 26 38 24.654 38 23 L 38 17 C 38 15.346 36.654 14 35 14 z M 35 16 C 35.551 16 36 16.448 36 17 L 36 23 C 36 23.552 35.551 24 35 24 C 34.449 24 34 23.552 34 23 L 34 17 C 34 16.448 34.449 16 35 16 z M 15 36 L 43 36 C 43.551 36 44 36.448 44 37 L 44 58 L 14 58 L 14 37 C 14 36.448 14.449 36 15 36 z M 19 40 C 18.448 40 18 40.447 18 41 C 18 41.553 18.448 42 19 42 L 31 42 C 31.552 42 32 41.553 32 41 C 32 40.447 31.552 40 31 40 L 19 40 z M 35 40 C 34.448 40 34 40.447 34 41 C 34 41.553 34.448 42 35 42 L 39 42 C 39.552 42 40 41.553 40 41 C 40 40.447 39.552 40 39 40 L 35 40 z M 19 44 C 18.448 44 18 44.447 18 45 C 18 45.553 18.448 46 19 46 L 35 46 C 35.552 46 36 45.553 36 45 C 36 44.447 35.552 44 35 44 L 19 44 z M 19 50 C 18.448 50 18 50.447 18 51 L 18 53 C 18 53.553 18.448 54 19 54 C 19.552 54 20 53.553 20 53 L 20 51 C 20 50.447 19.552 50 19 50 z M 24 50 C 23.448 50 23 50.447 23 51 L 23 53 C 23 53.553 23.448 54 24 54 C 24.552 54 25 53.553 25 53 L 25 51 C 25 50.447 24.552 50 24 50 z M 29 50 C 28.448 50 28 50.447 28 51 L 28 53 C 28 53.553 28.448 54 29 54 C 29.552 54 30 53.553 30 53 L 30 51 C 30 50.447 29.552 50 29 50 z M 34 50 C 33.448 50 33 50.447 33 51 L 33 53 C 33 53.553 33.448 54 34 54 C 34.552 54 35 53.553 35 53 L 35 51 C 35 50.447 34.552 50 34 50 z M 39 50 C 38.448 50 38 50.447 38 51 L 38 53 C 38 53.553 38.448 54 39 54 C 39.552 54 40 53.553 40 53 L 40 51 C 40 50.447 39.552 50 39 50 z"/></svg>