<svg fill="#000000" xmlns="http://www.w3.org/2000/svg"  viewBox="0 0 64 64" width="64px" height="64px"><path d="M 9 6 C 7.351563 6 6 7.351563 6 9 L 6 55 C 6 56.648438 7.351563 58 9 58 L 40.050781 58 C 42.359375 61.609375 46.398438 64 51 64 C 58.171875 64 64 58.171875 64 51 C 64 46.398438 61.609375 42.359375 58 40.050781 L 58 17.660156 C 58 16.320313 57.480469 15.070313 56.539063 14.121094 L 49.878906 7.460938 C 48.929688 6.519531 47.679688 6 46.339844 6 Z M 9 8 L 14 8 L 14 23 C 14 24.652344 15.347656 26 17 26 L 43 26 C 44.652344 26 46 24.652344 46 23 L 46 8 L 46.339844 8 C 47.128906 8 47.910156 8.320313 48.460938 8.882813 L 55.121094 15.539063 C 55.6875 16.097656 56 16.859375 56 17.660156 L 56 39 C 54.460938 38.359375 52.769531 38 51 38 C 50.660156 38 50.328125 38.011719 50 38.050781 L 50 33 C 50 31.351563 48.648438 30 47 30 L 17 30 C 15.351563 30 14 31.351563 14 33 L 14 56 L 9 56 C 8.449219 56 8 55.550781 8 55 L 8 9 C 8 8.449219 8.449219 8 9 8 Z M 16 8 L 44 8 L 44 23 C 44 23.550781 43.550781 24 43 24 L 17 24 C 16.449219 24 16 23.550781 16 23 Z M 39 10 C 37.347656 10 36 11.347656 36 13 L 36 19 C 36 20.652344 37.347656 22 39 22 C 40.652344 22 42 20.652344 42 19 L 42 13 C 42 11.347656 40.652344 10 39 10 Z M 39 12 C 39.550781 12 40 12.449219 40 13 L 40 19 C 40 19.550781 39.550781 20 39 20 C 38.449219 20 38 19.550781 38 19 L 38 13 C 38 12.449219 38.449219 12 39 12 Z M 17 32 L 47 32 C 47.550781 32 48 32.449219 48 33 L 48 38.347656 C 42.269531 39.710938 38 44.859375 38 51 C 38 52.769531 38.359375 54.460938 39 56 L 16 56 L 16 33 C 16 32.449219 16.449219 32 17 32 Z M 21 36 C 20.449219 36 20 36.449219 20 37 C 20 37.550781 20.449219 38 21 38 L 35 38 C 35.550781 38 36 37.550781 36 37 C 36 36.449219 35.550781 36 35 36 Z M 39 36 C 38.449219 36 38 36.449219 38 37 C 38 37.550781 38.449219 38 39 38 L 43 38 C 43.550781 38 44 37.550781 44 37 C 44 36.449219 43.550781 36 43 36 Z M 21 40 C 20.449219 40 20 40.449219 20 41 C 20 41.550781 20.449219 42 21 42 L 39 42 C 39.550781 42 40 41.550781 40 41 C 40 40.449219 39.550781 40 39 40 Z M 51 40 C 52.800781 40 54.5 40.429688 56 41.199219 C 56.710938 41.558594 57.378906 42 58 42.511719 C 60.441406 44.53125 62 47.589844 62 51 C 62 57.070313 57.070313 62 51 62 C 47.589844 62 44.53125 60.441406 42.511719 58 C 42 57.378906 41.558594 56.710938 41.199219 56 C 40.429688 54.5 40 52.800781 40 51 C 40 45.96875 43.390625 41.71875 48 40.421875 C 48.648438 40.230469 49.320313 40.109375 50 40.050781 C 50.328125 40.019531 50.660156 40 51 40 Z M 57 46 C 56.746094 46 56.488281 46.097656 56.292969 46.292969 L 49 53.585938 L 45.707031 50.292969 C 45.316406 49.902344 44.683594 49.902344 44.292969 50.292969 C 43.902344 50.683594 43.902344 51.316406 44.292969 51.707031 L 48.292969 55.707031 C 48.488281 55.902344 48.742188 56 49 56 C 49.257813 56 49.511719 55.902344 49.707031 55.707031 L 57.707031 47.707031 C 58.097656 47.316406 58.097656 46.683594 57.707031 46.292969 C 57.511719 46.097656 57.253906 46 57 46 Z M 19 48 C 18.449219 48 18 48.449219 18 49 L 18 51 C 18 51.550781 18.449219 52 19 52 C 19.550781 52 20 51.550781 20 51 L 20 49 C 20 48.449219 19.550781 48 19 48 Z M 24 48 C 23.449219 48 23 48.449219 23 49 L 23 51 C 23 51.550781 23.449219 52 24 52 C 24.550781 52 25 51.550781 25 51 L 25 49 C 25 48.449219 24.550781 48 24 48 Z M 29 48 C 28.449219 48 28 48.449219 28 49 L 28 51 C 28 51.550781 28.449219 52 29 52 C 29.550781 52 30 51.550781 30 51 L 30 49 C 30 48.449219 29.550781 48 29 48 Z M 34 48 C 33.449219 48 33 48.449219 33 49 L 33 51 C 33 51.550781 33.449219 52 34 52 C 34.550781 52 35 51.550781 35 51 L 35 49 C 35 48.449219 34.550781 48 34 48 Z"/></svg>