<svg fill="#000000" xmlns="http://www.w3.org/2000/svg"  viewBox="0 0 64 64" width="64px" height="64px"><path d="M 3 6 C 1.347656 6 0 7.347656 0 9 L 0 55 C 0 56.652344 1.347656 58 3 58 L 49 58 C 50.652344 58 52 56.652344 52 55 L 52 40.339844 L 59.296875 33.019531 L 62.121094 30.191406 C 64.070313 28.242188 64.070313 25.070313 62.121094 23.121094 L 57.878906 18.878906 C 56.289063 17.289063 53.890625 17.019531 52 18.027344 L 52 17.65625 C 52 16.320313 51.480469 15.066406 50.535156 14.121094 L 43.878906 7.464844 C 42.933594 6.519531 41.679688 6 40.34375 6 Z M 3 8 L 8 8 L 8 23 C 8 24.652344 9.347656 26 11 26 L 37 26 C 38.652344 26 40 24.652344 40 23 L 40 8 L 40.34375 8 C 41.132813 8 41.90625 8.320313 42.464844 8.878906 L 49.121094 15.535156 C 49.6875 16.101563 50 16.855469 50 17.65625 L 50 19.65625 C 50 19.664063 50.003906 19.671875 50.003906 19.683594 L 47.980469 21.707031 C 47.976563 21.710938 47.976563 21.710938 47.972656 21.714844 L 44.941406 24.753906 C 44.933594 24.765625 44.917969 24.769531 44.90625 24.78125 C 44.898438 24.789063 44.894531 24.804688 44.886719 24.8125 L 39.714844 30 L 11 30 C 9.347656 30 8 31.347656 8 33 L 8 56 L 3 56 C 2.449219 56 2 55.550781 2 55 L 2 9 C 2 8.449219 2.449219 8 3 8 Z M 10 8 L 38 8 L 38 23 C 38 23.550781 37.550781 24 37 24 L 11 24 C 10.449219 24 10 23.550781 10 23 Z M 33 10 C 31.347656 10 30 11.347656 30 13 L 30 19 C 30 20.652344 31.347656 22 33 22 C 34.652344 22 36 20.652344 36 19 L 36 13 C 36 11.347656 34.652344 10 33 10 Z M 33 12 C 33.550781 12 34 12.449219 34 13 L 34 19 C 34 19.550781 33.550781 20 33 20 C 32.449219 20 32 19.550781 32 19 L 32 13 C 32 12.449219 32.449219 12 33 12 Z M 54.34375 19.417969 C 55.109375 19.414063 55.878906 19.707031 56.464844 20.292969 L 60.707031 24.535156 C 61.875 25.707031 61.875 27.605469 60.707031 28.777344 L 58.585938 30.898438 L 50.101563 22.414063 L 52.222656 20.292969 C 52.808594 19.707031 53.574219 19.417969 54.34375 19.417969 Z M 48.6875 23.828125 L 57.171875 32.3125 L 55.515625 33.972656 L 47.03125 25.488281 Z M 45.625 26.90625 L 54.109375 35.390625 L 50.296875 39.21875 L 50.292969 39.21875 L 41.457031 48.082031 L 41.003906 43.71875 C 40.953125 43.207031 40.523438 42.820313 40.011719 42.820313 L 38.179688 42.820313 L 38.179688 41.40625 L 43.546875 36.042969 C 43.9375 35.648438 43.9375 35.019531 43.546875 34.625 C 43.152344 34.234375 42.523438 34.234375 42.128906 34.625 L 36.8125 39.945313 L 33.019531 39.546875 Z M 11 32 L 37.71875 32 L 30.140625 39.609375 C 29.980469 39.765625 29.878906 39.972656 29.855469 40.199219 L 29.117188 46.519531 L 28.410156 51.453125 C 28.367188 51.765625 28.472656 52.082031 28.695313 52.304688 C 28.882813 52.492188 29.140625 52.597656 29.402344 52.597656 C 29.449219 52.597656 29.496094 52.59375 29.546875 52.589844 L 34.464844 51.886719 L 40.847656 51.207031 C 41.078125 51.183594 41.292969 51.082031 41.453125 50.921875 L 42 50.371094 L 42 56 L 10 56 L 10 33 C 10 32.449219 10.449219 32 11 32 Z M 15 36 C 14.449219 36 14 36.449219 14 37 C 14 37.550781 14.449219 38 15 38 L 21 38 C 21.550781 38 22 37.550781 22 37 C 22 36.449219 21.550781 36 21 36 Z M 25 36 C 24.449219 36 24 36.449219 24 37 C 24 37.550781 24.449219 38 25 38 L 29 38 C 29.550781 38 30 37.550781 30 37 C 30 36.449219 29.550781 36 29 36 Z M 15 40 C 14.449219 40 14 40.449219 14 41 C 14 41.550781 14.449219 42 15 42 L 26 42 C 26.550781 42 27 41.550781 27 41 C 27 40.449219 26.550781 40 26 40 Z M 31.722656 41.421875 L 36.183594 41.890625 L 36.183594 43.816406 C 36.179688 44.371094 36.628906 44.820313 37.179688 44.820313 L 39.109375 44.820313 L 39.574219 49.332031 L 34.722656 49.84375 L 31.15625 46.28125 Z M 50 42.34375 L 50 55 C 50 55.550781 49.550781 56 49 56 L 44 56 L 44 48.363281 Z M 14 48 C 13.449219 48 13 48.449219 13 49 L 13 51 C 13 51.550781 13.449219 52 14 52 C 14.550781 52 15 51.550781 15 51 L 15 49 C 15 48.449219 14.550781 48 14 48 Z M 19 48 C 18.449219 48 18 48.449219 18 49 L 18 51 C 18 51.550781 18.449219 52 19 52 C 19.550781 52 20 51.550781 20 51 L 20 49 C 20 48.449219 19.550781 48 19 48 Z M 24 48 C 23.449219 48 23 48.449219 23 49 L 23 51 C 23 51.550781 23.449219 52 24 52 C 24.550781 52 25 51.550781 25 51 L 25 49 C 25 48.449219 24.550781 48 24 48 Z"/></svg>