<svg fill="#000000" xmlns="http://www.w3.org/2000/svg"  viewBox="0 0 64 64" width="64px" height="64px"><path d="M 5 6 C 3.347656 6 2 7.347656 2 9 L 2 45 C 2 46.652344 3.347656 48 5 48 L 25.65625 48 L 23.253906 56 L 18 56 C 17.449219 56 17 56.445313 17 57 C 17 57.554688 17.449219 58 18 58 L 46 58 C 46.550781 58 47 57.554688 47 57 C 47 56.445313 46.550781 56 46 56 L 40.746094 56 L 38.34375 48 L 59 48 C 60.652344 48 62 46.652344 62 45 L 62 9 C 62 7.347656 60.652344 6 59 6 Z M 5 8 L 59 8 C 59.550781 8 60 8.449219 60 9 L 60 10 L 4 10 L 4 9 C 4 8.449219 4.449219 8 5 8 Z M 4 12 L 60 12 L 60 38 L 38.082031 38 C 37.53125 38 37.082031 38.445313 37.082031 39 C 37.082031 39.554688 37.53125 40 38.082031 40 L 60 40 L 60 45 C 60 45.550781 59.550781 46 59 46 L 5 46 C 4.449219 46 4 45.550781 4 45 L 4 40 L 26.082031 40 C 26.632813 40 27.082031 39.554688 27.082031 39 C 27.082031 38.445313 26.632813 38 26.082031 38 L 4 38 Z M 22.003906 14 C 21.875 13.996094 21.742188 14.023438 21.613281 14.078125 C 21.105469 14.289063 20.863281 14.875 21.078125 15.386719 L 21.128906 15.503906 C 17.042969 16.65625 13.179688 18.441406 9.640625 20.832031 C 8.960938 21.292969 8.507813 21.988281 8.359375 22.796875 C 8.214844 23.605469 8.398438 24.414063 8.875 25.078125 L 15.886719 34.839844 C 16.46875 35.648438 17.378906 36.082031 18.3125 36.082031 C 18.878906 36.082031 19.453125 35.921875 19.964844 35.589844 C 22.46875 33.949219 25.21875 32.863281 28.144531 32.34375 L 29.996094 36.785156 C 29.386719 37.335938 29 38.121094 29 39 C 29 40.652344 30.347656 42 32 42 C 33.652344 42 35 40.652344 35 39 C 35 37.347656 33.652344 36 32 36 C 31.945313 36 31.894531 36.011719 31.839844 36.015625 L 22.921875 14.613281 C 22.765625 14.234375 22.394531 14 22.003906 14 Z M 32 14 C 31.449219 14 31 14.445313 31 15 L 31 17 C 31 17.554688 31.449219 18 32 18 C 32.550781 18 33 17.554688 33 17 L 33 15 C 33 14.445313 32.550781 14 32 14 Z M 27.125 14.296875 C 26.578125 14.367188 26.1875 14.863281 26.253906 15.410156 L 26.5 17.394531 C 26.5625 17.902344 26.992188 18.277344 27.488281 18.277344 C 27.527344 18.277344 27.570313 18.273438 27.613281 18.265625 C 28.160156 18.199219 28.550781 17.703125 28.484375 17.152344 L 28.238281 15.171875 C 28.171875 14.621094 27.671875 14.226563 27.125 14.296875 Z M 36.875 14.300781 C 36.332031 14.226563 35.828125 14.621094 35.761719 15.171875 L 35.515625 17.15625 C 35.449219 17.703125 35.839844 18.199219 36.386719 18.265625 C 36.429688 18.273438 36.472656 18.277344 36.511719 18.277344 C 37.007813 18.277344 37.441406 17.90625 37.5 17.398438 L 37.746094 15.414063 C 37.8125 14.863281 37.421875 14.367188 36.875 14.300781 Z M 41.28125 15.171875 C 40.894531 15.234375 40.566406 15.515625 40.464844 15.917969 L 39.980469 17.855469 C 39.847656 18.390625 40.171875 18.933594 40.707031 19.066406 C 40.789063 19.089844 40.871094 19.097656 40.953125 19.097656 C 41.398438 19.097656 41.808594 18.792969 41.921875 18.339844 L 42.40625 16.402344 C 42.539063 15.863281 42.214844 15.320313 41.675781 15.1875 C 41.542969 15.15625 41.40625 15.152344 41.28125 15.171875 Z M 45.4375 16.394531 C 45.046875 16.414063 44.6875 16.660156 44.546875 17.050781 C 44.355469 17.570313 44.621094 18.144531 45.140625 18.332031 C 47.988281 19.382813 50.714844 20.78125 53.238281 22.488281 C 53.46875 22.644531 53.621094 22.878906 53.671875 23.152344 C 53.71875 23.421875 53.65625 23.691406 53.5 23.914063 L 46.496094 33.671875 C 46.183594 34.105469 45.585938 34.210938 45.136719 33.917969 C 41.226563 31.355469 36.683594 30 32 30 C 31.449219 30 31 30.445313 31 31 C 31 31.554688 31.449219 32 32 32 C 36.292969 32 40.453125 33.242188 44.035156 35.589844 C 44.546875 35.925781 45.121094 36.082031 45.6875 36.082031 C 46.621094 36.082031 47.535156 35.648438 48.117188 34.839844 L 55.125 25.078125 C 55.601563 24.414063 55.78125 23.605469 55.640625 22.796875 C 55.492188 21.988281 55.039063 21.292969 54.359375 20.832031 C 51.699219 19.035156 48.828125 17.5625 45.828125 16.457031 C 45.699219 16.410156 45.566406 16.390625 45.4375 16.394531 Z M 21.902344 17.363281 L 27.355469 30.453125 C 24.324219 31.050781 21.472656 32.207031 18.867188 33.914063 C 18.414063 34.210938 17.816406 34.105469 17.507813 33.671875 L 10.5 23.914063 C 10.34375 23.691406 10.28125 23.421875 10.328125 23.152344 C 10.378906 22.878906 10.53125 22.644531 10.761719 22.488281 C 14.1875 20.171875 17.933594 18.457031 21.902344 17.363281 Z M 32 38 C 32.550781 38 33 38.449219 33 39 C 33 39.550781 32.550781 40 32 40 C 31.449219 40 31 39.550781 31 39 C 31 38.589844 31.25 38.234375 31.609375 38.078125 C 31.609375 38.078125 31.613281 38.078125 31.617188 38.078125 C 31.617188 38.078125 31.621094 38.078125 31.621094 38.078125 C 31.734375 38.027344 31.863281 38 32 38 Z M 27.746094 48 L 36.253906 48 L 38.65625 56 L 25.34375 56 Z"/></svg>