<svg fill="#000000" xmlns="http://www.w3.org/2000/svg"  viewBox="0 0 64 64" width="64px" height="64px"><path d="M 12 6 C 8.6983746 6 6 8.6983746 6 12 L 6 52 C 6 55.301625 8.6983746 58 12 58 L 52 58 C 55.301625 58 58 55.301625 58 52 L 58 12 C 58 8.6983746 55.301625 6 52 6 L 12 6 z M 12 8 L 52 8 C 54.220375 8 56 9.7796254 56 12 L 56 52 C 56 54.220375 54.220375 56 52 56 L 12 56 C 9.7796254 56 8 54.220375 8 52 L 8 12 C 8 9.7796254 9.7796254 8 12 8 z M 32 10 C 27.027149 10 23 14.151505 23 19.214844 L 23 24.787109 C 23 26.426818 23.427709 27.968329 24.167969 29.306641 C 17.896524 31.49701 13.153525 36.277031 12.017578 42.195312 A 1.0001 1.0001 0 0 0 12 42.384766 C 12 42.942082 12.171271 43.080889 12.271484 43.259766 C 12.371698 43.438643 12.46875 43.576172 12.46875 43.576172 A 1.0001 1.0001 0 0 0 13.285156 44 L 50.570312 44 A 1.0001 1.0001 0 0 0 51.287109 43.697266 C 51.287109 43.697266 51.426287 43.556714 51.572266 43.371094 C 51.645256 43.278284 51.723157 43.17353 51.802734 43.033203 C 51.882311 42.892877 52 42.741222 52 42.349609 A 1.0001 1.0001 0 0 0 51.982422 42.166016 C 50.884932 36.271121 46.091622 31.524932 39.816406 29.330078 C 40.565644 27.985471 41 26.435827 41 24.785156 L 41 19.212891 C 41 14.150436 36.972851 10 32 10 z M 32 12 C 35.863149 12 39 15.203346 39 19.212891 L 39 24.785156 C 39 28.795817 35.863149 32 32 32 C 28.136851 32 25 28.796654 25 24.787109 L 25 19.214844 C 25 15.204183 28.136851 12 32 12 z M 25.380859 31.003906 C 27.025405 32.837706 29.377342 34 32 34 C 34.611819 34 36.955982 32.848373 38.599609 31.027344 C 44.383152 32.871202 48.652189 37.033792 49.824219 42 L 14.191406 42 C 15.408566 37.003114 19.620541 32.833543 25.380859 31.003906 z M 12 49 C 11.448 49 11 49.448 11 50 L 11 52 C 11 52.552 11.448 53 12 53 C 12.552 53 13 52.552 13 52 L 13 50 C 13 49.448 12.552 49 12 49 z M 17 49 C 16.448 49 16 49.448 16 50 L 16 52 C 16 52.552 16.448 53 17 53 C 17.552 53 18 52.552 18 52 L 18 50 C 18 49.448 17.552 49 17 49 z M 22 49 C 21.448 49 21 49.448 21 50 L 21 52 C 21 52.552 21.448 53 22 53 C 22.552 53 23 52.552 23 52 L 23 50 C 23 49.448 22.552 49 22 49 z M 27 49 C 26.448 49 26 49.448 26 50 L 26 52 C 26 52.552 26.448 53 27 53 C 27.552 53 28 52.552 28 52 L 28 50 C 28 49.448 27.552 49 27 49 z M 32 49 C 31.448 49 31 49.448 31 50 L 31 52 C 31 52.552 31.448 53 32 53 C 32.552 53 33 52.552 33 52 L 33 50 C 33 49.448 32.552 49 32 49 z M 37 49 C 36.448 49 36 49.448 36 50 L 36 52 C 36 52.552 36.448 53 37 53 C 37.552 53 38 52.552 38 52 L 38 50 C 38 49.448 37.552 49 37 49 z M 42 49 C 41.448 49 41 49.448 41 50 L 41 52 C 41 52.552 41.448 53 42 53 C 42.552 53 43 52.552 43 52 L 43 50 C 43 49.448 42.552 49 42 49 z M 47 49 C 46.448 49 46 49.448 46 50 L 46 52 C 46 52.552 46.448 53 47 53 C 47.552 53 48 52.552 48 52 L 48 50 C 48 49.448 47.552 49 47 49 z M 52 49 C 51.448 49 51 49.448 51 50 L 51 52 C 51 52.552 51.448 53 52 53 C 52.552 53 53 52.552 53 52 L 53 50 C 53 49.448 52.552 49 52 49 z"/></svg>