<svg fill="#000000" xmlns="http://www.w3.org/2000/svg"  viewBox="0 0 64 64" width="64px" height="64px"><path d="M 23 12 C 21.351563 12 20 13.351563 20 15 L 20 28 L 14.410156 28 L 16.710938 25.710938 C 17.101563 25.320313 17.101563 24.679688 16.710938 24.289063 L 12.710938 20.289063 C 12.320313 19.898438 11.679688 19.898438 11.289063 20.289063 L 0.289063 31.289063 C -0.101563 31.679688 -0.101563 32.320313 0.289063 32.710938 L 11.289063 43.710938 C 11.488281 43.902344 11.738281 44 12 44 C 12.261719 44 12.511719 43.902344 12.710938 43.710938 L 16.710938 39.710938 C 17.101563 39.320313 17.101563 38.679688 16.710938 38.289063 L 14.410156 36 L 20 36 L 20 49 C 20 50.648438 21.351563 52 23 52 L 61 52 C 62.648438 52 64 50.648438 64 49 L 64 15 C 64 13.351563 62.648438 12 61 12 Z M 23 14 L 61 14 C 61.550781 14 62 14.449219 62 15 L 62 49 C 62 49.550781 61.550781 50 61 50 L 23 50 C 22.449219 50 22 49.550781 22 49 L 22 36 L 35.078125 36 C 36.5 38.449219 39.148438 40 42 40 C 46.410156 40 50 36.410156 50 32 C 50 27.589844 46.410156 24 42 24 C 39.148438 24 36.5 25.550781 35.078125 28 L 22 28 L 22 15 C 22 14.449219 22.449219 14 23 14 Z M 57 18 C 56.449219 18 56 18.449219 56 19 C 56 19.550781 56.449219 20 57 20 L 59 20 C 59.550781 20 60 19.550781 60 19 C 60 18.449219 59.550781 18 59 18 Z M 12 22.410156 L 14.589844 25 L 11.289063 28.289063 C 11.007813 28.578125 10.921875 29.011719 11.078125 29.378906 C 11.230469 29.761719 11.601563 30 12 30 L 35.679688 30 C 36.070313 30 36.417969 29.78125 36.589844 29.429688 C 37.578125 27.351563 39.699219 26 42 26 C 45.308594 26 48 28.691406 48 32 C 48 35.308594 45.308594 38 42 38 C 39.699219 38 37.578125 36.648438 36.589844 34.570313 C 36.417969 34.21875 36.070313 34 35.679688 34 L 12 34 C 11.601563 34 11.230469 34.238281 11.078125 34.621094 C 10.921875 34.988281 11.007813 35.421875 11.289063 35.710938 L 14.589844 39 L 12 41.589844 L 2.410156 32 Z M 57 23 C 56.449219 23 56 23.449219 56 24 C 56 24.550781 56.449219 25 57 25 L 59 25 C 59.550781 25 60 24.550781 60 24 C 60 23.449219 59.550781 23 59 23 Z M 57 28 C 56.449219 28 56 28.449219 56 29 C 56 29.550781 56.449219 30 57 30 L 59 30 C 59.550781 30 60 29.550781 60 29 C 60 28.449219 59.550781 28 59 28 Z M 42 30 C 40.894531 30 40 30.894531 40 32 C 40 33.105469 40.894531 34 42 34 C 43.105469 34 44 33.105469 44 32 C 44 30.894531 43.105469 30 42 30 Z M 57 34 C 56.449219 34 56 34.449219 56 35 C 56 35.550781 56.449219 36 57 36 L 59 36 C 59.550781 36 60 35.550781 60 35 C 60 34.449219 59.550781 34 59 34 Z M 57 39 C 56.449219 39 56 39.449219 56 40 C 56 40.550781 56.449219 41 57 41 L 59 41 C 59.550781 41 60 40.550781 60 40 C 60 39.449219 59.550781 39 59 39 Z M 57 44 C 56.449219 44 56 44.449219 56 45 C 56 45.550781 56.449219 46 57 46 L 59 46 C 59.550781 46 60 45.550781 60 45 C 60 44.449219 59.550781 44 59 44 Z"/></svg>