<svg fill="#000000" xmlns="http://www.w3.org/2000/svg"  viewBox="0 0 64 64" width="64px" height="64px"><path d="M 7 6.046875 C 5.347656 6.046875 4 7.390625 4 9.046875 L 4 55.046875 C 4 56.699219 5.347656 58.046875 7 58.046875 L 57 58.046875 C 58.652344 58.046875 60 56.699219 60 55.046875 L 60 9.046875 C 60 7.390625 58.652344 6.046875 57 6.046875 Z M 7 8.046875 L 57 8.046875 C 57.550781 8.046875 58 8.492188 58 9.046875 L 58 55.046875 C 58 55.597656 57.550781 56.046875 57 56.046875 L 7 56.046875 C 6.449219 56.046875 6 55.597656 6 55.046875 L 6 9.046875 C 6 8.492188 6.449219 8.046875 7 8.046875 Z M 10 10.046875 C 8.894531 10.046875 8 10.941406 8 12.046875 C 8 13.148438 8.894531 14.046875 10 14.046875 C 11.105469 14.046875 12 13.148438 12 12.046875 C 12 10.941406 11.105469 10.046875 10 10.046875 Z M 54 10.046875 C 52.894531 10.046875 52 10.941406 52 12.046875 C 52 13.148438 52.894531 14.046875 54 14.046875 C 55.105469 14.046875 56 13.148438 56 12.046875 C 56 10.941406 55.105469 10.046875 54 10.046875 Z M 22 14.046875 C 20.898438 14.046875 20 14.941406 20 16.046875 L 20 44.046875 C 20 45.148438 20.898438 46.046875 22 46.046875 L 42 46.046875 C 43.101563 46.046875 44 45.148438 44 44.046875 L 44 16.046875 C 44 14.941406 43.101563 14.046875 42 14.046875 Z M 22 16.046875 L 42 16.046875 L 42 44.046875 L 22 44.046875 Z M 25 18.046875 C 24.449219 18.046875 24 18.492188 24 19.046875 L 24 41.046875 C 24 41.597656 24.449219 42.046875 25 42.046875 L 39 42.046875 C 39.550781 42.046875 40 41.597656 40 41.046875 L 40 19.046875 C 40 18.492188 39.550781 18.046875 39 18.046875 Z M 26 20.046875 L 38 20.046875 L 38 30.046875 L 26 30.046875 Z M 32 22.046875 C 30.34375 22.046875 29 23.386719 29 25.046875 C 29 26.703125 30.34375 28.046875 32 28.046875 C 33.65625 28.046875 35 26.703125 35 25.046875 C 35 23.386719 33.65625 22.046875 32 22.046875 Z M 26 32.046875 L 38 32.046875 L 38 40.046875 L 26 40.046875 Z M 10 50.046875 C 8.894531 50.046875 8 50.941406 8 52.046875 C 8 53.148438 8.894531 54.046875 10 54.046875 C 11.105469 54.046875 12 53.148438 12 52.046875 C 12 50.941406 11.105469 50.046875 10 50.046875 Z M 17 50.046875 C 16.449219 50.046875 16 50.492188 16 51.046875 L 16 53.046875 C 16 53.597656 16.449219 54.046875 17 54.046875 C 17.550781 54.046875 18 53.597656 18 53.046875 L 18 51.046875 C 18 50.492188 17.550781 50.046875 17 50.046875 Z M 22 50.046875 C 21.449219 50.046875 21 50.492188 21 51.046875 L 21 53.046875 C 21 53.597656 21.449219 54.046875 22 54.046875 C 22.550781 54.046875 23 53.597656 23 53.046875 L 23 51.046875 C 23 50.492188 22.550781 50.046875 22 50.046875 Z M 27 50.046875 C 26.449219 50.046875 26 50.492188 26 51.046875 L 26 53.046875 C 26 53.597656 26.449219 54.046875 27 54.046875 C 27.550781 54.046875 28 53.597656 28 53.046875 L 28 51.046875 C 28 50.492188 27.550781 50.046875 27 50.046875 Z M 32 50.046875 C 31.449219 50.046875 31 50.492188 31 51.046875 L 31 53.046875 C 31 53.597656 31.449219 54.046875 32 54.046875 C 32.550781 54.046875 33 53.597656 33 53.046875 L 33 51.046875 C 33 50.492188 32.550781 50.046875 32 50.046875 Z M 37 50.046875 C 36.449219 50.046875 36 50.492188 36 51.046875 L 36 53.046875 C 36 53.597656 36.449219 54.046875 37 54.046875 C 37.550781 54.046875 38 53.597656 38 53.046875 L 38 51.046875 C 38 50.492188 37.550781 50.046875 37 50.046875 Z M 42 50.046875 C 41.449219 50.046875 41 50.492188 41 51.046875 L 41 53.046875 C 41 53.597656 41.449219 54.046875 42 54.046875 C 42.550781 54.046875 43 53.597656 43 53.046875 L 43 51.046875 C 43 50.492188 42.550781 50.046875 42 50.046875 Z M 47 50.046875 C 46.449219 50.046875 46 50.492188 46 51.046875 L 46 53.046875 C 46 53.597656 46.449219 54.046875 47 54.046875 C 47.550781 54.046875 48 53.597656 48 53.046875 L 48 51.046875 C 48 50.492188 47.550781 50.046875 47 50.046875 Z M 54 50.046875 C 52.894531 50.046875 52 50.941406 52 52.046875 C 52 53.148438 52.894531 54.046875 54 54.046875 C 55.105469 54.046875 56 53.148438 56 52.046875 C 56 50.941406 55.105469 50.046875 54 50.046875 Z"/></svg>