<?xml version="1.0"?><svg fill="#000000" xmlns="http://www.w3.org/2000/svg"  viewBox="0 0 64 64" width="64px" height="64px">    <path d="M 32 4 C 23.296 4 15.285 7.9453125 10 14.695312 L 10 11 C 10 10.448 9.553 10 9 10 L 3 10 C 2.447 10 2 10.448 2 11 L 2 27 C 2 27.552 2.447 28 3 28 L 19 28 C 19.553 28 20 27.552 20 27 L 20 21 C 20 20.448 19.553 20 19 20 L 16.021484 20 C 19.792484 14.959 25.64 12 32 12 C 41.87 12 50.370484 19.370578 51.771484 29.142578 C 51.843484 29.634578 52.264719 30 52.761719 30 L 58.830078 30 C 59.114078 30 59.385219 29.879969 59.574219 29.667969 C 59.763219 29.455969 59.855219 29.173625 59.824219 28.890625 C 58.255219 14.700625 46.293 4 32 4 z M 32 6 C 44.896 6 55.749453 15.381 57.689453 28 L 53.611328 28 C 51.708328 17.679 42.567 10 32 10 C 24.324 10 17.328203 13.915609 13.283203 20.474609 C 13.094203 20.783609 13.084719 21.170328 13.261719 21.486328 C 13.438719 21.802328 13.771766 22 14.134766 22 L 18 22 L 18 26 L 4 26 L 4 12 L 8 12 L 8 17.882812 C 8 18.329812 8.2975156 18.723703 8.7285156 18.845703 C 9.1605156 18.966703 9.6185625 18.78725 9.8515625 18.40625 C 14.627562 10.63725 22.907 6 32 6 z M 31.419922 15.021484 C 28.754072 15.118584 26.103984 15.829219 23.771484 17.121094 C 23.288484 17.389094 23.113859 17.997469 23.380859 18.480469 C 23.563859 18.809469 23.903859 18.994141 24.255859 18.994141 C 24.419859 18.994141 24.585281 18.954141 24.738281 18.869141 C 28.031281 17.046141 32.040641 16.538078 35.681641 17.455078 C 36.216641 17.588078 36.761484 17.265469 36.896484 16.730469 C 37.031484 16.194469 36.706922 15.650625 36.169922 15.515625 C 34.623797 15.125625 33.019432 14.963225 31.419922 15.021484 z M 39.255859 16.703125 C 38.866797 16.677016 38.482875 16.882203 38.296875 17.251953 C 38.047875 17.744953 38.245281 18.346703 38.738281 18.595703 C 39.708281 19.084703 40.627797 19.678281 41.466797 20.363281 C 41.652797 20.515281 41.875656 20.589844 42.097656 20.589844 C 42.387656 20.589844 42.676047 20.463703 42.873047 20.220703 C 43.223047 19.792703 43.159469 19.163453 42.730469 18.814453 C 41.779469 18.038453 40.740625 17.363594 39.640625 16.808594 C 39.517125 16.746094 39.385547 16.711828 39.255859 16.703125 z M 5.1699219 34 C 4.8859219 34 4.6147813 34.120031 4.4257812 34.332031 C 4.2367812 34.544031 4.1447812 34.826375 4.1757812 35.109375 C 5.7447812 49.299375 17.707 60 32 60 C 40.704 60 48.715 56.054688 54 49.304688 L 54 53 C 54 53.552 54.447 54 55 54 L 61 54 C 61.553 54 62 53.552 62 53 L 62 37 C 62 36.448 61.553 36 61 36 L 45 36 C 44.447 36 44 36.448 44 37 L 44 43 C 44 43.552 44.447 44 45 44 L 47.978516 44 C 44.207516 49.041 38.36 52 32 52 C 22.13 52 13.629516 44.629422 12.228516 34.857422 C 12.156516 34.365422 11.735281 34 11.238281 34 L 5.1699219 34 z M 6.3105469 36 L 10.388672 36 C 12.291672 46.321 21.433 54 32 54 C 39.676 54 46.671797 50.084391 50.716797 43.525391 C 50.905797 43.216391 50.915281 42.829672 50.738281 42.513672 C 50.561281 42.197672 50.228234 42 49.865234 42 L 46 42 L 46 38 L 60 38 L 60 52 L 56 52 L 56 46.117188 C 56 45.670187 55.702484 45.276297 55.271484 45.154297 C 54.840484 45.033297 54.381438 45.21275 54.148438 45.59375 C 49.372438 53.36275 41.093 58 32 58 C 19.104 58 8.2505469 48.619 6.3105469 36 z M 19.095703 36.566406 C 18.966031 36.566562 18.834984 36.590781 18.708984 36.644531 L 16.580078 37.548828 C 16.071078 37.764828 15.834781 38.351375 16.050781 38.859375 C 16.212781 39.240375 16.581703 39.470703 16.970703 39.470703 C 17.101703 39.470703 17.234328 39.444625 17.361328 39.390625 L 19.490234 38.486328 C 19.999234 38.270328 20.237484 37.683781 20.021484 37.175781 C 19.858734 36.794031 19.484719 36.565938 19.095703 36.566406 z M 22.054688 40.945312 C 21.798938 40.945312 21.543156 41.042781 21.347656 41.238281 L 19.712891 42.873047 C 19.321891 43.263047 19.321891 43.896109 19.712891 44.287109 C 19.907891 44.482109 20.163922 44.580078 20.419922 44.580078 C 20.675922 44.580078 20.931953 44.482109 21.126953 44.287109 L 22.761719 42.652344 C 23.152719 42.262344 23.152719 41.629281 22.761719 41.238281 C 22.566219 41.042781 22.310437 40.945312 22.054688 40.945312 z M 26.642578 43.992188 C 26.253047 43.99875 25.885719 44.233187 25.730469 44.617188 L 24.863281 46.761719 C 24.656281 47.273719 24.904016 47.857453 25.416016 48.064453 C 25.539016 48.113453 25.666016 48.136719 25.791016 48.136719 C 26.187016 48.136719 26.56175 47.900719 26.71875 47.511719 L 27.583984 45.367188 C 27.790984 44.855187 27.54325 44.271453 27.03125 44.064453 C 26.9035 44.012953 26.772422 43.99 26.642578 43.992188 z M 37.308594 44.042969 C 37.178922 44.043172 37.047875 44.069047 36.921875 44.123047 C 36.412875 44.339047 36.176578 44.925594 36.392578 45.433594 L 37.234375 47.419922 C 37.396375 47.800922 37.76725 48.029297 38.15625 48.029297 C 38.28725 48.029297 38.419875 48.003219 38.546875 47.949219 C 39.055875 47.733219 39.292172 47.146672 39.076172 46.638672 L 38.234375 44.652344 C 38.071625 44.270594 37.697609 44.042359 37.308594 44.042969 z M 31.84375 45 C 31.29075 45 30.84375 45.448 30.84375 46 L 30.84375 48.3125 C 30.84375 48.8645 31.29075 49.3125 31.84375 49.3125 C 32.39675 49.3125 32.84375 48.8645 32.84375 48.3125 L 32.84375 46 C 32.84375 45.448 32.39675 45 31.84375 45 z"/></svg>