<svg fill="#000000" xmlns="http://www.w3.org/2000/svg"  viewBox="0 0 64 64" width="64px" height="64px"><path d="M 20 12 C 8.972656 12 0 20.972656 0 32 C 0 43.027344 8.972656 52 20 52 C 23.152344 52 26.125 51.246094 28.777344 49.941406 C 28.871094 49.96875 28.960938 50 29.0625 50 L 46.125 50 C 56.050781 50 64.125 41.925781 64.125 32 C 64.125 22.074219 56.050781 14 46.125 14 L 29 14 C 28.914063 14 28.839844 14.027344 28.761719 14.046875 C 26.109375 12.75 23.144531 12 20 12 Z M 20 14 C 29.925781 14 38 22.074219 38 32 C 38 41.925781 29.925781 50 20 50 C 10.074219 50 2 41.925781 2 32 C 2 22.074219 10.074219 14 20 14 Z M 31.949219 16 L 46.125 16 C 54.945313 16 62.125 23.179688 62.125 32 C 62.125 40.820313 54.945313 48 46.125 48 L 31.949219 48 C 36.824219 44.347656 40 38.546875 40 32 C 40 25.453125 36.824219 19.652344 31.949219 16 Z M 20 17 C 11.730469 17 5 23.730469 5 32 C 5 34.046875 5.402344 36.03125 6.203125 37.894531 C 6.367188 38.277344 6.734375 38.503906 7.125 38.503906 C 7.253906 38.503906 7.390625 38.476563 7.515625 38.421875 C 8.027344 38.203125 8.261719 37.617188 8.042969 37.109375 C 7.351563 35.492188 7 33.773438 7 32 C 7 24.832031 12.832031 19 20 19 C 20.621094 19 21.246094 19.042969 21.855469 19.128906 C 22.394531 19.203125 22.910156 18.828125 22.984375 18.28125 C 23.0625 17.734375 22.6875 17.230469 22.140625 17.152344 C 21.433594 17.050781 20.714844 17 20 17 Z M 26.078125 18.363281 C 25.6875 18.34375 25.308594 18.558594 25.128906 18.933594 C 24.890625 19.429688 25.101563 20.027344 25.597656 20.265625 C 26.265625 20.582031 26.910156 20.960938 27.515625 21.390625 C 27.691406 21.515625 27.894531 21.574219 28.09375 21.574219 C 28.40625 21.574219 28.714844 21.429688 28.90625 21.15625 C 29.226563 20.703125 29.121094 20.078125 28.671875 19.761719 C 27.976563 19.265625 27.234375 18.828125 26.464844 18.460938 C 26.339844 18.402344 26.207031 18.371094 26.078125 18.363281 Z M 31.128906 22.359375 C 30.875 22.332031 30.613281 22.394531 30.394531 22.566406 C 29.960938 22.90625 29.886719 23.535156 30.226563 23.96875 C 32.042969 26.28125 33 29.054688 33 32 C 33 35.460938 31.65625 38.722656 29.214844 41.171875 C 28.824219 41.566406 28.824219 42.199219 29.214844 42.589844 C 29.410156 42.78125 29.664063 42.878906 29.921875 42.878906 C 30.179688 42.878906 30.433594 42.78125 30.628906 42.585938 C 33.449219 39.753906 35 35.992188 35 32 C 35 28.605469 33.894531 25.398438 31.796875 22.734375 C 31.628906 22.515625 31.386719 22.390625 31.128906 22.359375 Z M 11.644531 39.632813 C 11.390625 39.636719 11.136719 39.738281 10.945313 39.9375 L 9.554688 41.375 C 9.171875 41.773438 9.183594 42.40625 9.578125 42.792969 C 9.773438 42.980469 10.027344 43.074219 10.277344 43.074219 C 10.539063 43.074219 10.796875 42.96875 10.996094 42.765625 L 12.382813 41.328125 C 12.765625 40.929688 12.753906 40.296875 12.359375 39.910156 C 12.160156 39.71875 11.902344 39.628906 11.644531 39.632813 Z M 24.511719 42.125 C 24.382813 42.121094 24.246094 42.144531 24.121094 42.199219 C 23.605469 42.402344 23.359375 42.988281 23.566406 43.5 L 24.316406 45.355469 C 24.472656 45.742188 24.847656 45.980469 25.246094 45.980469 C 25.371094 45.980469 25.496094 45.957031 25.621094 45.90625 C 26.132813 45.699219 26.378906 45.117188 26.171875 44.605469 L 25.421875 42.75 C 25.265625 42.367188 24.902344 42.132813 24.511719 42.125 Z M 15.488281 42.125 C 15.097656 42.132813 14.730469 42.367188 14.578125 42.75 L 13.828125 44.605469 C 13.621094 45.117188 13.867188 45.703125 14.378906 45.90625 C 14.503906 45.957031 14.628906 45.980469 14.753906 45.980469 C 15.148438 45.980469 15.523438 45.746094 15.683594 45.355469 L 16.433594 43.5 C 16.636719 42.988281 16.390625 42.40625 15.878906 42.199219 C 15.75 42.148438 15.617188 42.125 15.488281 42.125 Z M 20 43 C 19.449219 43 19 43.449219 19 44 L 19 46 C 19 46.550781 19.449219 47 20 47 C 20.550781 47 21 46.550781 21 46 L 21 44 C 21 43.449219 20.550781 43 20 43 Z"/></svg>