<svg fill="#000000" xmlns="http://www.w3.org/2000/svg"  viewBox="0 0 64 64" width="64px" height="64px"><path d="M 44 12 C 40.863281 12 37.902344 12.746094 35.257813 14.039063 C 35.191406 14.027344 35.132813 14 35.0625 14 L 18 14 C 8.074219 14 0 22.074219 0 32 C 0 41.925781 8.074219 50 18 50 L 35.125 50 C 35.179688 50 35.226563 49.976563 35.277344 49.96875 C 37.917969 51.257813 40.871094 52 44 52 C 55.027344 52 64 43.027344 64 32 C 64 20.972656 55.027344 12 44 12 Z M 44 14 C 53.925781 14 62 22.074219 62 32 C 62 41.925781 53.925781 50 44 50 C 34.074219 50 26 41.925781 26 32 C 26 22.074219 34.074219 14 44 14 Z M 18 16 L 32.050781 16 C 27.175781 19.652344 24 25.453125 24 32 C 24 38.546875 27.175781 44.347656 32.050781 48 L 18 48 C 9.179688 48 2 40.820313 2 32 C 2 23.179688 9.179688 16 18 16 Z M 44 17 C 35.730469 17 29 23.730469 29 32 C 29 34.046875 29.402344 36.03125 30.203125 37.894531 C 30.367188 38.277344 30.734375 38.503906 31.125 38.503906 C 31.253906 38.503906 31.390625 38.476563 31.515625 38.421875 C 32.027344 38.203125 32.261719 37.617188 32.042969 37.109375 C 31.351563 35.492188 31 33.773438 31 32 C 31 24.832031 36.832031 19 44 19 C 44.621094 19 45.246094 19.042969 45.855469 19.128906 C 46.394531 19.207031 46.910156 18.828125 46.984375 18.28125 C 47.0625 17.734375 46.6875 17.230469 46.140625 17.152344 C 45.433594 17.050781 44.714844 17 44 17 Z M 50.078125 18.363281 C 49.6875 18.34375 49.308594 18.558594 49.128906 18.933594 C 48.890625 19.429688 49.101563 20.027344 49.597656 20.265625 C 50.265625 20.582031 50.910156 20.960938 51.515625 21.390625 C 51.691406 21.515625 51.894531 21.574219 52.09375 21.574219 C 52.40625 21.574219 52.714844 21.429688 52.90625 21.15625 C 53.226563 20.703125 53.121094 20.078125 52.671875 19.761719 C 51.976563 19.265625 51.234375 18.828125 50.464844 18.460938 C 50.339844 18.402344 50.207031 18.371094 50.078125 18.363281 Z M 55.128906 22.359375 C 54.875 22.332031 54.609375 22.394531 54.394531 22.566406 C 53.960938 22.90625 53.886719 23.535156 54.226563 23.96875 C 56.042969 26.28125 57 29.054688 57 32 C 57 35.460938 55.65625 38.722656 53.214844 41.171875 C 52.824219 41.566406 52.824219 42.199219 53.214844 42.589844 C 53.410156 42.78125 53.664063 42.878906 53.921875 42.878906 C 54.179688 42.878906 54.433594 42.78125 54.628906 42.585938 C 57.449219 39.753906 59 35.992188 59 32 C 59 28.605469 57.894531 25.398438 55.796875 22.734375 C 55.628906 22.515625 55.386719 22.390625 55.128906 22.359375 Z M 35.644531 39.632813 C 35.390625 39.636719 35.136719 39.738281 34.945313 39.9375 L 33.558594 41.375 C 33.171875 41.773438 33.183594 42.40625 33.578125 42.792969 C 33.773438 42.980469 34.027344 43.074219 34.277344 43.074219 C 34.539063 43.074219 34.796875 42.96875 34.996094 42.765625 L 36.382813 41.328125 C 36.765625 40.929688 36.753906 40.296875 36.359375 39.910156 C 36.160156 39.71875 35.902344 39.628906 35.644531 39.632813 Z M 39.488281 42.125 C 39.097656 42.132813 38.730469 42.367188 38.578125 42.75 L 37.828125 44.605469 C 37.621094 45.117188 37.867188 45.703125 38.378906 45.90625 C 38.503906 45.957031 38.628906 45.980469 38.753906 45.980469 C 39.148438 45.980469 39.523438 45.746094 39.683594 45.355469 L 40.433594 43.5 C 40.636719 42.988281 40.390625 42.40625 39.878906 42.199219 C 39.75 42.148438 39.617188 42.125 39.488281 42.125 Z M 48.511719 42.125 C 48.378906 42.125 48.246094 42.144531 48.121094 42.199219 C 47.605469 42.402344 47.359375 42.988281 47.566406 43.5 L 48.316406 45.355469 C 48.472656 45.742188 48.847656 45.980469 49.246094 45.980469 C 49.371094 45.980469 49.496094 45.957031 49.621094 45.90625 C 50.132813 45.699219 50.378906 45.117188 50.171875 44.605469 L 49.421875 42.75 C 49.265625 42.367188 48.898438 42.132813 48.511719 42.125 Z M 44 43 C 43.449219 43 43 43.449219 43 44 L 43 46 C 43 46.550781 43.449219 47 44 47 C 44.550781 47 45 46.550781 45 46 L 45 44 C 45 43.449219 44.550781 43 44 43 Z"/></svg>