<svg fill="#000000" xmlns="http://www.w3.org/2000/svg"  viewBox="0 0 64 64" width="64px" height="64px"><path d="M 5 4 C 3.347656 4 2 5.347656 2 7 L 2 49 C 2 50.652344 3.347656 52 5 52 L 10 52 L 10 57 C 10 58.652344 11.347656 60 13 60 L 59 60 C 60.652344 60 62 58.652344 62 57 L 62 15 C 62 13.347656 60.652344 12 59 12 L 54 12 L 54 7 C 54 5.347656 52.652344 4 51 4 Z M 5 6 L 51 6 C 51.550781 6 52 6.449219 52 7 L 52 49 C 52 49.550781 51.550781 50 51 50 L 5 50 C 4.449219 50 4 49.550781 4 49 L 4 7 C 4 6.449219 4.449219 6 5 6 Z M 9 10 C 8.445313 10 8 10.449219 8 11 L 8 45 C 8 45.550781 8.445313 46 9 46 L 47 46 C 47.554688 46 48 45.550781 48 45 L 48 11 C 48 10.449219 47.554688 10 47 10 Z M 10 12 L 46 12 L 46 44 L 10 44 Z M 54 14 L 59 14 C 59.550781 14 60 14.449219 60 15 L 60 57 C 60 57.550781 59.550781 58 59 58 L 13 58 C 12.449219 58 12 57.550781 12 57 L 12 52 L 51 52 C 52.652344 52 54 50.652344 54 49 Z M 13 38 C 12.445313 38 12 38.449219 12 39 L 12 41 C 12 41.550781 12.445313 42 13 42 C 13.554688 42 14 41.550781 14 41 L 14 39 C 14 38.449219 13.554688 38 13 38 Z M 18 38 C 17.445313 38 17 38.449219 17 39 L 17 41 C 17 41.550781 17.445313 42 18 42 C 18.554688 42 19 41.550781 19 41 L 19 39 C 19 38.449219 18.554688 38 18 38 Z M 23 38 C 22.445313 38 22 38.449219 22 39 L 22 41 C 22 41.550781 22.445313 42 23 42 C 23.554688 42 24 41.550781 24 41 L 24 39 C 24 38.449219 23.554688 38 23 38 Z M 28 38 C 27.445313 38 27 38.449219 27 39 L 27 41 C 27 41.550781 27.445313 42 28 42 C 28.554688 42 29 41.550781 29 41 L 29 39 C 29 38.449219 28.554688 38 28 38 Z M 33 38 C 32.445313 38 32 38.449219 32 39 L 32 41 C 32 41.550781 32.445313 42 33 42 C 33.554688 42 34 41.550781 34 41 L 34 39 C 34 38.449219 33.554688 38 33 38 Z M 38 38 C 37.445313 38 37 38.449219 37 39 L 37 41 C 37 41.550781 37.445313 42 38 42 C 38.554688 42 39 41.550781 39 41 L 39 39 C 39 38.449219 38.554688 38 38 38 Z M 43 38 C 42.445313 38 42 38.449219 42 39 L 42 41 C 42 41.550781 42.445313 42 43 42 C 43.554688 42 44 41.550781 44 41 L 44 39 C 44 38.449219 43.554688 38 43 38 Z"/></svg>