<svg fill="#000000" xmlns="http://www.w3.org/2000/svg"  viewBox="0 0 64 64" width="64px" height="64px"><path d="M 5 8 C 3.347656 8 2 9.347656 2 11 L 2 50 C 2 52.207031 3.792969 54 6 54 L 28 54 L 28 61 C 28 61.550781 28.449219 62 29 62 L 35 62 C 35.550781 62 36 61.550781 36 61 L 36 54 L 60 54 C 62.207031 54 64 52.207031 64 50 L 64 21 C 64 19.347656 62.652344 18 61 18 L 58 18 L 58 17 C 58 15.347656 56.652344 14 55 14 L 29.707031 14 C 28.910156 14 28.164063 13.691406 27.597656 13.132813 L 23.875 9.445313 C 22.929688 8.511719 21.679688 8 20.355469 8 Z M 5 10 L 20.355469 10 C 21.152344 10 21.898438 10.308594 22.464844 10.867188 L 26.1875 14.554688 C 27.132813 15.488281 28.382813 16 29.707031 16 L 55 16 C 55.550781 16 56 16.449219 56 17 L 56 42 L 39 42 C 38.449219 42 38 42.445313 38 43 C 38 43.554688 38.449219 44 39 44 L 56 44 L 56 50 C 56 50.617188 56.222656 51.339844 56.632813 52 L 36 52 L 36 36.414063 L 38.292969 38.707031 C 38.683594 39.097656 39.316406 39.097656 39.707031 38.707031 L 43.707031 34.707031 C 43.902344 34.511719 44 34.257813 44 34 C 44 33.742188 43.902344 33.488281 43.707031 33.292969 L 32.707031 22.292969 C 32.316406 21.902344 31.683594 21.902344 31.292969 22.292969 L 20.292969 33.292969 C 19.902344 33.683594 19.902344 34.316406 20.292969 34.707031 L 24.292969 38.707031 C 24.683594 39.097656 25.316406 39.097656 25.707031 38.707031 L 28 36.414063 L 28 52 L 6 52 C 4.898438 52 4 51.101563 4 50 L 4 44 L 25 44 C 25.550781 44 26 43.554688 26 43 C 26 42.445313 25.550781 42 25 42 L 4 42 L 4 11 C 4 10.449219 4.449219 10 5 10 Z M 58 20 L 61 20 C 61.550781 20 62 20.449219 62 21 L 62 50 C 62 51.101563 61.101563 52 60 52 C 58.753906 52 58 50.609375 58 50 Z M 32 24.414063 L 41.585938 34 L 39 36.585938 L 35.707031 33.292969 C 35.421875 33.007813 34.992188 32.921875 34.617188 33.078125 C 34.246094 33.230469 34 33.597656 34 34 L 34 60 L 30 60 L 30 34 C 30 33.597656 29.753906 33.230469 29.382813 33.078125 C 29.007813 32.921875 28.578125 33.007813 28.292969 33.292969 L 25 36.585938 L 22.414063 34 Z M 6 46 C 5.449219 46 5 46.445313 5 47 L 5 49 C 5 49.554688 5.449219 50 6 50 C 6.550781 50 7 49.554688 7 49 L 7 47 C 7 46.445313 6.550781 46 6 46 Z M 11 46 C 10.449219 46 10 46.445313 10 47 L 10 49 C 10 49.554688 10.449219 50 11 50 C 11.550781 50 12 49.554688 12 49 L 12 47 C 12 46.445313 11.550781 46 11 46 Z M 16 46 C 15.449219 46 15 46.445313 15 47 L 15 49 C 15 49.554688 15.449219 50 16 50 C 16.550781 50 17 49.554688 17 49 L 17 47 C 17 46.445313 16.550781 46 16 46 Z M 21 46 C 20.449219 46 20 46.445313 20 47 L 20 49 C 20 49.554688 20.449219 50 21 50 C 21.550781 50 22 49.554688 22 49 L 22 47 C 22 46.445313 21.550781 46 21 46 Z M 26 46 C 25.449219 46 25 46.445313 25 47 L 25 49 C 25 49.554688 25.449219 50 26 50 C 26.550781 50 27 49.554688 27 49 L 27 47 C 27 46.445313 26.550781 46 26 46 Z M 38 46 C 37.449219 46 37 46.445313 37 47 L 37 49 C 37 49.554688 37.449219 50 38 50 C 38.550781 50 39 49.554688 39 49 L 39 47 C 39 46.445313 38.550781 46 38 46 Z M 43 46 C 42.449219 46 42 46.445313 42 47 L 42 49 C 42 49.554688 42.449219 50 43 50 C 43.550781 50 44 49.554688 44 49 L 44 47 C 44 46.445313 43.550781 46 43 46 Z M 48 46 C 47.449219 46 47 46.445313 47 47 L 47 49 C 47 49.554688 47.449219 50 48 50 C 48.550781 50 49 49.554688 49 49 L 49 47 C 49 46.445313 48.550781 46 48 46 Z M 53 46 C 52.449219 46 52 46.445313 52 47 L 52 49 C 52 49.554688 52.449219 50 53 50 C 53.550781 50 54 49.554688 54 49 L 54 47 C 54 46.445313 53.550781 46 53 46 Z"/></svg>