<svg fill="#000000" xmlns="http://www.w3.org/2000/svg"  viewBox="0 0 64 64" width="64px" height="64px"><path d="M 3 4 C 1.347656 4 0 5.347656 0 7 L 0 55 C 0 56.652344 1.347656 58 3 58 L 61 58 C 62.652344 58 64 56.652344 64 55 L 64 7 C 64 5.347656 62.652344 4 61 4 Z M 3 6 L 61 6 C 61.550781 6 62 6.449219 62 7 L 62 55 C 62 55.550781 61.550781 56 61 56 L 3 56 C 2.449219 56 2 55.550781 2 55 L 2 7 C 2 6.449219 2.449219 6 3 6 Z M 5 10 C 4.449219 10 4 10.445313 4 11 C 4 11.554688 4.449219 12 5 12 L 7 12 C 7.550781 12 8 11.554688 8 11 C 8 10.445313 7.550781 10 7 10 Z M 12 10 C 10.898438 10 10 10.898438 10 12 L 10 50 C 10 51.101563 10.898438 52 12 52 L 56 52 C 57.101563 52 58 51.101563 58 50 L 58 12 C 58 10.898438 57.101563 10 56 10 Z M 12 12 L 56 12 L 56 50 L 12 50 Z M 5 15 C 4.449219 15 4 15.445313 4 16 C 4 16.554688 4.449219 17 5 17 L 7 17 C 7.550781 17 8 16.554688 8 16 C 8 15.445313 7.550781 15 7 15 Z M 21.027344 15.972656 C 20.472656 15.972656 20.027344 16.421875 20.027344 16.972656 L 20.027344 20.136719 C 18.292969 20.574219 17 22.132813 17 24 C 17 26.207031 18.792969 28 21 28 C 23.207031 28 25 26.207031 25 24 C 25 22.148438 23.730469 20.605469 22.027344 20.152344 L 22.027344 16.972656 C 22.027344 16.421875 21.578125 15.972656 21.027344 15.972656 Z M 33.027344 15.972656 C 32.472656 15.972656 32.027344 16.421875 32.027344 16.972656 L 32.027344 30.136719 C 30.292969 30.574219 29 32.132813 29 34 C 29 36.207031 30.792969 38 33 38 C 35.207031 38 37 36.207031 37 34 C 37 32.148438 35.730469 30.605469 34.027344 30.152344 L 34.027344 16.972656 C 34.027344 16.421875 33.578125 15.972656 33.027344 15.972656 Z M 45.027344 15.972656 C 44.472656 15.972656 44.027344 16.421875 44.027344 16.972656 L 44.027344 22.136719 C 42.292969 22.574219 41 24.132813 41 26 C 41 28.207031 42.792969 30 45 30 C 47.207031 30 49 28.207031 49 26 C 49 24.148438 47.730469 22.605469 46.027344 22.152344 L 46.027344 16.972656 C 46.027344 16.421875 45.578125 15.972656 45.027344 15.972656 Z M 5 20 C 4.449219 20 4 20.445313 4 21 C 4 21.554688 4.449219 22 5 22 L 7 22 C 7.550781 22 8 21.554688 8 21 C 8 20.445313 7.550781 20 7 20 Z M 21 22 C 22.101563 22 23 22.898438 23 24 C 23 25.101563 22.101563 26 21 26 C 19.898438 26 19 25.101563 19 24 C 19 22.898438 19.898438 22 21 22 Z M 45 24 C 46.101563 24 47 24.898438 47 26 C 47 27.101563 46.101563 28 45 28 C 43.898438 28 43 27.101563 43 26 C 43 24.898438 43.898438 24 45 24 Z M 5 25 C 4.449219 25 4 25.445313 4 26 C 4 26.554688 4.449219 27 5 27 L 7 27 C 7.550781 27 8 26.554688 8 26 C 8 25.445313 7.550781 25 7 25 Z M 21.027344 29.972656 C 20.472656 29.972656 20.027344 30.421875 20.027344 30.972656 L 20.027344 44.972656 C 20.027344 45.527344 20.472656 45.972656 21.027344 45.972656 C 21.578125 45.972656 22.027344 45.527344 22.027344 44.972656 L 22.027344 30.972656 C 22.027344 30.421875 21.578125 29.972656 21.027344 29.972656 Z M 5 30 C 4.449219 30 4 30.445313 4 31 C 4 31.554688 4.449219 32 5 32 L 7 32 C 7.550781 32 8 31.554688 8 31 C 8 30.445313 7.550781 30 7 30 Z M 45.027344 31.972656 C 44.472656 31.972656 44.027344 32.421875 44.027344 32.972656 L 44.027344 44.972656 C 44.027344 45.527344 44.472656 45.972656 45.027344 45.972656 C 45.578125 45.972656 46.027344 45.527344 46.027344 44.972656 L 46.027344 32.972656 C 46.027344 32.421875 45.578125 31.972656 45.027344 31.972656 Z M 33 32 C 34.101563 32 35 32.898438 35 34 C 35 35.101563 34.101563 36 33 36 C 31.898438 36 31 35.101563 31 34 C 31 32.898438 31.898438 32 33 32 Z M 5 35 C 4.449219 35 4 35.445313 4 36 C 4 36.554688 4.449219 37 5 37 L 7 37 C 7.550781 37 8 36.554688 8 36 C 8 35.445313 7.550781 35 7 35 Z M 33.027344 39.972656 C 32.472656 39.972656 32.027344 40.421875 32.027344 40.972656 L 32.027344 44.972656 C 32.027344 45.527344 32.472656 45.972656 33.027344 45.972656 C 33.578125 45.972656 34.027344 45.527344 34.027344 44.972656 L 34.027344 40.972656 C 34.027344 40.421875 33.578125 39.972656 33.027344 39.972656 Z M 5 40 C 4.449219 40 4 40.445313 4 41 C 4 41.554688 4.449219 42 5 42 L 7 42 C 7.550781 42 8 41.554688 8 41 C 8 40.445313 7.550781 40 7 40 Z M 5 45 C 4.449219 45 4 45.445313 4 46 C 4 46.554688 4.449219 47 5 47 L 7 47 C 7.550781 47 8 46.554688 8 46 C 8 45.445313 7.550781 45 7 45 Z M 5 50 C 4.449219 50 4 50.445313 4 51 C 4 51.554688 4.449219 52 5 52 L 7 52 C 7.550781 52 8 51.554688 8 51 C 8 50.445313 7.550781 50 7 50 Z"/></svg>