<?xml version="1.0" standalone="no"?>
<!DOCTYPE svg PUBLIC "-//W3C//DTD SVG 20010904//EN"
 "http://www.w3.org/TR/2001/REC-SVG-20010904/DTD/svg10.dtd">
<svg version="1.0" xmlns="http://www.w3.org/2000/svg"
 width="1299.000000pt" height="1548.000000pt" viewBox="0 0 1299.000000 1548.000000"
 preserveAspectRatio="xMidYMid meet">

<g transform="translate(0.000000,1548.000000) scale(0.100000,-0.100000)"
fill="#000000" stroke="none">
<path d="M6399 15444 c-46 -23 -339 -312 -1928 -1899 l-1874 -1873 183 -201
c100 -111 186 -201 190 -201 4 0 124 133 266 296 l259 296 5 -1964 c5 -1808 6
-1966 22 -2005 38 -95 89 -134 198 -153 46 -8 851 -10 2820 -8 3061 4 2797 -3
2876 73 80 77 74 -90 74 2080 l0 1932 21 19 c21 19 21 18 57 -21 198 -219 457
-495 464 -495 4 0 91 75 192 167 l184 167 -28 36 c-16 19 -860 866 -1877 1881
-1997 1995 -1896 1899 -2003 1899 -29 0 -66 -10 -101 -26z m158 -643 c32 -26
583 -574 1224 -1218 862 -865 1171 -1181 1187 -1214 l22 -45 0 -2042 0 -2042
-2489 0 -2489 0 -7 73 c-3 39 -5 956 -3 2037 l3 1965 22 49 c19 39 257 282
1240 1267 669 670 1220 1219 1224 1219 5 0 34 -22 66 -49z"/>
<path d="M5347 11969 c-111 -12 -188 -34 -302 -89 -247 -119 -431 -336 -511
-605 -24 -79 -27 -108 -28 -235 0 -119 4 -161 22 -235 30 -118 104 -270 180
-370 35 -46 395 -414 849 -867 853 -852 837 -838 944 -838 102 0 90 -11 960
859 832 831 858 860 936 1016 120 240 129 536 24 786 -117 278 -386 501 -684
565 -158 34 -376 16 -537 -47 -172 -66 -299 -165 -528 -411 -90 -99 -169 -177
-174 -176 -4 2 -79 78 -166 169 -169 180 -244 249 -335 311 -187 128 -431 190
-650 167z m242 -515 c87 -25 160 -87 456 -381 321 -319 352 -343 454 -343 97
0 120 18 451 345 292 289 309 303 390 343 192 94 361 70 510 -73 171 -166 193
-384 59 -583 -35 -52 -1387 -1412 -1404 -1412 -5 0 -330 319 -721 708 -829
825 -779 765 -779 957 0 106 1 113 37 188 103 215 325 317 547 251z"/>
<path d="M905 10719 c-121 -12 -229 -43 -340 -98 -270 -133 -448 -353 -528
-655 l-22 -81 0 -2200 c0 -2143 0 -2202 19 -2259 35 -105 -51 4 1251 -1591
363 -445 716 -877 784 -960 68 -82 135 -175 149 -205 l27 -55 7 -560 c4 -308
4 -785 0 -1060 l-7 -500 -237 -3 -238 -2 0 -240 0 -240 2235 0 2235 0 0 245 0
245 -245 0 -245 0 0 1853 c0 2019 3 1901 -56 2020 -21 42 -284 311 -1392 1420
-752 753 -1398 1394 -1437 1426 -210 172 -393 248 -620 258 -66 3 -146 1 -177
-5 l-58 -9 -1 871 c-1 1026 -10 1489 -34 1591 -24 110 -54 193 -101 285 -179
349 -562 551 -969 509z m208 -504 c180 -38 320 -178 375 -378 16 -57 17 -159
16 -1327 -1 -1443 9 -1292 -98 -1474 -109 -182 -156 -344 -156 -533 0 -165 33
-289 111 -420 38 -63 253 -290 549 -578 208 -202 937 -888 949 -893 9 -3 301
302 301 314 0 5 -294 303 -653 664 -703 705 -695 696 -731 836 -40 153 -1 298
110 414 97 101 209 145 355 138 76 -4 97 -9 166 -42 77 -38 92 -52 1429 -1389
1091 -1092 1357 -1363 1380 -1407 l29 -55 3 -1765 c1 -971 0 -1775 -3 -1787
l-5 -23 -1246 0 -1246 0 2 1113 3 1112 -22 67 c-30 94 -69 148 -387 533 -620
752 -1716 2097 -1771 2172 -68 95 -64 -57 -61 2243 l3 2075 23 59 c98 258 320
385 575 331z"/>
<path d="M11827 10715 c-398 -76 -700 -351 -805 -732 l-27 -98 -3 -1211 -3
-1211 -57 10 c-85 13 -284 2 -376 -22 -105 -28 -243 -95 -348 -171 -67 -48
-416 -391 -1480 -1455 -923 -924 -1401 -1409 -1420 -1441 -65 -112 -61 31 -62
-2024 l-1 -1865 -242 -3 -243 -2 0 -240 0 -240 2235 0 2235 0 0 245 0 245
-239 0 -240 0 -6 43 c-3 23 -5 499 -3 1057 l3 1015 27 51 c15 28 350 447 745
930 1011 1239 1361 1671 1391 1718 14 23 37 73 51 111 l25 70 1 2160 c0 2302
2 2214 -47 2375 -97 321 -381 589 -709 670 -112 28 -297 35 -402 15z m266
-500 c140 -29 275 -133 337 -258 64 -131 60 0 58 -2269 l-3 -2063 -26 -55
c-28 -61 -7 -34 -849 -1065 -982 -1203 -1260 -1547 -1291 -1600 -16 -27 -39
-79 -51 -115 -21 -65 -21 -69 -26 -1178 l-4 -1112 -1241 2 -1242 3 0 1785 0
1785 28 60 c25 54 158 190 1375 1406 1321 1320 1348 1347 1422 1382 204 96
396 67 533 -83 126 -138 160 -329 86 -493 -32 -70 -55 -94 -701 -743 -367
-369 -668 -675 -667 -680 0 -8 275 -261 340 -313 l29 -24 571 569 c314 313
614 616 667 674 207 227 288 402 299 645 9 203 -38 370 -162 580 -37 63 -69
130 -75 160 -8 35 -10 434 -8 1330 l3 1280 27 69 c66 171 194 285 362 321 80
18 127 18 209 0z"/>
</g>
</svg>
