<svg xmlns="http://www.w3.org/2000/svg"  viewBox="0 0 64 64" width="64px" height="64px"><path fill="#f9e3ae" d="M60,25.09a.94.94,0,0,0-.8-.64l-20-1.82-7.36-18a.94.94,0,0,0-1.73,0l-7.36,18-20,1.82a.94.94,0,0,0-.53,1.64l15.09,13.2-4.64,19a.94.94,0,0,0,1.4,1L30.92,48.8l16.9,10.46a.94.94,0,0,0,1.4-1l-4.64-19,15.09-13.2A.94.94,0,0,0,60,25.09Z"/><path fill="#f6d397" d="M60,25.09a.94.94,0,0,0-.8-.64l-20-1.82-7.36-18A.93.93,0,0,0,31,4V48.84L47.82,59.26a.94.94,0,0,0,1.4-1l-4.64-19,15.09-13.2A.94.94,0,0,0,60,25.09Z"/><path fill="#8d6c9f" d="M62 24.69a1 1 0 0 0-.86-.69L39.72 22.06 31.85 2.77a1 1 0 0 0-1.85 0L22.13 22.06.76 24a1 1 0 0 0-.57 1.75l16.13 14.1-5 20.26a1 1 0 0 0 1.5 1.09L30.92 50 49 61.21a1 1 0 0 0 1.5-1.09l-5-20.26 16.13-14.1A1 1 0 0 0 62 24.69zM43.75 38.75a1 1 0 0 0-.31 1L48 58.22 31.45 48a1 1 0 0 0-1.05 0L13.89 58.22l4.52-18.48a1 1 0 0 0-.31-1l-14.83-13L22.92 24a1 1 0 0 0 .83-.62L30.92 5.8 38.1 23.38a1 1 0 0 0 .83.62l19.65 1.79zM3 39a1 1 0 0 0-1 1v2a1 1 0 0 0 2 0V40A1 1 0 0 0 3 39z"/><path fill="#8d6c9f" d="M8 39a1 1 0 0 0-1 1v2a1 1 0 0 0 2 0V40A1 1 0 0 0 8 39zM14 42V40a1 1 0 0 0-2 0v2a1 1 0 0 0 2 0zM48 40v2a1 1 0 0 0 2 0V40a1 1 0 0 0-2 0zM54 39a1 1 0 0 0-1 1v2a1 1 0 0 0 2 0V40A1 1 0 0 0 54 39zM59 39a1 1 0 0 0-1 1v2a1 1 0 0 0 2 0V40A1 1 0 0 0 59 39zM32 24a1 1 0 0 0-2 0v8H22a1 1 0 0 0 0 2h8v8a1 1 0 0 0 2 0V34h8a1 1 0 0 0 0-2H32z"/></svg>