<svg xmlns="http://www.w3.org/2000/svg"  viewBox="0 0 64 64" width="64px" height="64px"><path fill="#c5e4fa" d="M63,11v34c0,1.1-0.9,2-2,2H3c-1.1,0-2-0.9-2-2V11c0-1.1,0.9-2,2-2h58C62.1,9,63,9.9,63,11z"/><path fill="#e3f2ff" d="M38.929 47L63 22.929 63 9 60.857 9 22.857 47zM11.893 47.25L18.321 47.25 56.571 9 50.143 9zM8.107 46.75L45.857 9 40.5 9 2.75 46.75z"/><path fill="#fff8f8" d="M11.502 22.996L12.74 25.26 15.004 26.498 12.74 27.736 11.502 30 10.264 27.736 8 26.498 10.264 25.26zM52.419 20.162L53.274 21.726 54.838 22.581 53.274 23.436 52.419 25 51.564 23.436 50 22.581 51.564 21.726zM43.648 34.704L44.231 35.769 45.296 36.352 44.231 36.935 43.648 38 43.065 36.935 42 36.352 43.065 35.769z"/><path fill="#a8b7d1" d="M31.27,33.245L10.579,55.316C9.98,55.955,10.433,57,11.308,57h41.384 c0.875,0,1.328-1.045,0.73-1.684L32.73,33.245C32.334,32.823,31.666,32.823,31.27,33.245z"/><path fill="#8d6c9f" d="M61,8H3c-1.65,0-3,1.35-3,3v34c0,1.65,1.35,3,3,3h13.07l-6.22,6.63c-0.55,0.59-0.7,1.42-0.38,2.16 C9.79,57.54,10.5,58,11.31,58h41.38c0.81,0,1.52-0.46,1.84-1.21c0.32-0.74,0.17-1.57-0.38-2.16L47.93,48H61c1.65,0,3-1.35,3-3V11 C64,9.35,62.65,8,61,8z M52.69,56H11.31l7.5-8l1.87-2L32,33.93L43.32,46l1.87,2L52.69,56z M62,45c0,0.55-0.45,1-1,1H46.06 l-12.6-13.44c-0.75-0.8-2.17-0.8-2.92,0L17.94,46H3c-0.55,0-1-0.45-1-1V18c0.553,0,1-0.448,1-1v-2c0-0.552-0.447-1-1-1v-3 c0-0.55,0.45-1,1-1h58c0.55,0,1,0.45,1,1v3c-0.553,0-1,0.448-1,1v2c0,0.552,0.447,1,1,1V45z"/><path fill="#8d6c9f" d="M17 14c-.553 0-1 .448-1 1v2c0 .552.447 1 1 1s1-.448 1-1v-2C18 14.448 17.553 14 17 14zM12 14c-.553 0-1 .448-1 1v2c0 .552.447 1 1 1s1-.448 1-1v-2C13 14.448 12.553 14 12 14zM7 14c-.553 0-1 .448-1 1v2c0 .552.447 1 1 1s1-.448 1-1v-2C8 14.448 7.553 14 7 14zM32 14c-.553 0-1 .448-1 1v2c0 .552.447 1 1 1s1-.448 1-1v-2C33 14.448 32.553 14 32 14zM37 14c-.553 0-1 .448-1 1v2c0 .552.447 1 1 1s1-.448 1-1v-2C38 14.448 37.553 14 37 14zM42 14c-.553 0-1 .448-1 1v2c0 .552.447 1 1 1s1-.448 1-1v-2C43 14.448 42.553 14 42 14zM47 14c-.553 0-1 .448-1 1v2c0 .552.447 1 1 1s1-.448 1-1v-2C48 14.448 47.553 14 47 14zM52 14c-.553 0-1 .448-1 1v2c0 .552.447 1 1 1s1-.448 1-1v-2C53 14.448 52.553 14 52 14zM57 14c-.553 0-1 .448-1 1v2c0 .552.447 1 1 1s1-.448 1-1v-2C58 14.448 57.553 14 57 14zM22 14c-.553 0-1 .448-1 1v2c0 .552.447 1 1 1s1-.448 1-1v-2C23 14.448 22.553 14 22 14zM27 14c-.553 0-1 .448-1 1v2c0 .552.447 1 1 1s1-.448 1-1v-2C28 14.448 27.553 14 27 14z"/></svg>