<svg xmlns="http://www.w3.org/2000/svg"  viewBox="0 0 64 64" width="64px" height="64px"><path fill="#f9e3ae" d="M32,53c-11.99,0-21.633-10.048-20.968-22.183c0.598-10.902,9.762-19.668,20.679-19.815 c7.042-0.095,13.282,3.286,17.152,8.527l-3.839,1.977c-0.874,0.45-0.642,1.758,0.333,1.881l12.368,1.557 c0.648,0.082,1.199-0.469,1.117-1.117l-1.554-12.34c-0.123-0.978-1.437-1.207-1.883-0.329l-2.059,4.047l-0.12,0.117 C47.756,8.364,38.94,4.16,29.197,5.142C16.691,6.402,6.566,16.405,5.173,28.897C3.356,45.198,16.066,59,32,59 c8.468,0,16.021-3.901,20.972-10h-8.677C40.836,51.506,36.597,53,32,53z"/><path fill="#f6d397" d="M58.6,24.61c-0.21,0.24-0.53,0.38-0.87,0.33l-12.37-1.55c-0.98-0.13-1.21-1.43-0.33-1.88l3.83-1.98 c-3.87-5.24-10.11-8.62-17.15-8.53c-10.92,0.15-20.08,8.92-20.68,19.82C10.37,42.95,20.01,53,32,53c4.6,0,8.84-1.49,12.29-4h4.65 c-4.35,4.32-10.33,7-16.94,7C18.75,56,8,45.25,8,32S18.75,8,32,8c6.74,0,12.84,2.79,17.2,7.27L58.6,24.61z"/><path fill="#72caaf" d="M51 39A12 12 0 1 0 51 63A12 12 0 1 0 51 39Z"/><path fill="#8d6c9f" d="M51,38c-7.17,0-13,5.83-13,13v0.08C36.08,51.69,34.06,52,32,52c-5.55,0-10.71-2.22-14.53-6.25 c-3.81-4.03-5.74-9.32-5.44-14.88C12.6,20.43,21.25,12.14,31.73,12c5.97-0.07,11.76,2.59,15.6,7.19l-2.76,1.43 c-0.79,0.4-1.21,1.26-1.06,2.12c0.16,0.87,0.85,1.53,1.72,1.64l12.37,1.56c0.62,0.07,1.23-0.13,1.67-0.57s0.64-1.05,0.57-1.67 l-1.56-12.34c-0.11-0.87-0.77-1.57-1.64-1.72c-0.87-0.15-1.72,0.28-2.12,1.07l-1.46,2.85C47.09,6.73,38.24,3.23,29.1,4.15 C16.1,5.46,5.62,15.82,4.18,28.79c-0.9,8.09,1.56,15.86,6.95,21.87C16.44,56.6,24.04,60,32,60c2.94,0,5.81-0.45,8.52-1.32 C42.88,61.9,46.7,64,51,64c7.17,0,13-5.83,13-13C64,43.83,58.17,38,51,38z M32,58c-7.39,0-14.45-3.16-19.38-8.67 c-5-5.59-7.29-12.8-6.45-20.32C7.51,16.97,17.24,7.35,29.3,6.14C30.19,6.05,31.09,6,31.97,6c7.98,0,15.49,3.6,20.47,9.94 c0.18,0.23,0.44,0.36,0.72,0.38c0.28,0.01,0.57-0.08,0.77-0.28l0.12-0.12c0.08-0.08,0.14-0.17,0.19-0.26l2.06-4.05l1.55,12.34 l-12.37-1.56l3.84-1.97c0.26-0.14,0.45-0.38,0.52-0.66c0.06-0.29,0-0.59-0.17-0.82C45.47,13.25,38.78,9.95,31.7,10 c-11.52,0.16-21.04,9.28-21.67,20.76c-0.33,6.12,1.79,11.93,5.99,16.36C20.22,51.56,25.89,54,32,54c2.11,0,4.18-0.29,6.17-0.89 c0.22,1.35,0.65,2.63,1.26,3.81C37.05,57.63,34.55,58,32,58z M51,62c-3.43,0-6.49-1.57-8.51-4.03c-0.43-0.53-0.82-1.1-1.14-1.7 c-0.64-1.16-1.08-2.45-1.25-3.82C40.03,51.97,40,51.49,40,51c0-0.23,0.01-0.46,0.02-0.69C40.38,44.56,45.16,40,51,40 c6.07,0,11,4.93,11,11S57.07,62,51,62z"/><path fill="#faefde" d="M56.293,46.293L49,53.586l-3.293-3.293c-0.391-0.391-1.023-0.391-1.414,0s-0.391,1.023,0,1.414l4,4 C48.488,55.902,48.744,56,49,56s0.512-0.098,0.707-0.293l8-8c0.391-0.391,0.391-1.023,0-1.414S56.684,45.902,56.293,46.293z"/><path fill="#8d6c9f" d="M32 45c-.552 0-1 .447-1 1v2c0 .553.448 1 1 1s1-.447 1-1v-2C33 45.447 32.552 45 32 45zM33 16c0-.553-.448-1-1-1s-1 .447-1 1v2c0 .553.448 1 1 1s1-.447 1-1V16zM15 32c0 .553.448 1 1 1h2c.552 0 1-.447 1-1s-.448-1-1-1h-2C15.448 31 15 31.447 15 32zM27.683 18.646l-.749-1.854c-.207-.512-.789-.761-1.302-.553-.512.206-.76.789-.553 1.301l.749 1.854c.157.39.532.626.928.626.125 0 .251-.023.374-.073C27.642 19.74 27.89 19.157 27.683 18.646zM17.166 38.994c.125 0 .251-.023.375-.073l1.854-.75c.512-.207.759-.79.552-1.302-.207-.511-.789-.76-1.302-.552l-1.854.75c-.512.207-.759.79-.552 1.302C16.396 38.758 16.77 38.994 17.166 38.994zM22.994 21.235l-1.39-1.439c-.382-.396-1.016-.408-1.414-.025-.397.384-.409 1.017-.025 1.414l1.39 1.439c.196.203.458.306.719.306.25 0 .5-.093.694-.28C23.367 22.266 23.378 21.633 22.994 21.235zM20.491 44.114c.25 0 .5-.093.694-.28l1.438-1.389c.397-.384.409-1.017.025-1.414-.382-.396-1.016-.408-1.414-.025l-1.438 1.389c-.397.384-.409 1.017-.025 1.414C19.967 44.012 20.229 44.114 20.491 44.114zM18.804 27.219c.132.06.271.087.406.087.383 0 .748-.221.914-.594.225-.504-.002-1.095-.507-1.319l-1.827-.813c-.505-.228-1.096.001-1.32.507-.225.504.002 1.095.507 1.319L18.804 27.219zM26.712 43.877c-.504-.227-1.095.001-1.32.507l-.813 1.827c-.225.504.002 1.095.507 1.319.132.06.271.087.406.087.383 0 .748-.221.914-.594l.813-1.827C27.444 44.692 27.217 44.102 26.712 43.877zM37.594 16.977l-.813 1.827c-.225.504.002 1.095.507 1.319.132.06.27.087.406.087.383 0 .748-.221.914-.594l.813-1.827c.225-.504-.002-1.095-.507-1.319C38.41 16.241 37.819 16.472 37.594 16.977z"/></svg>