<svg xmlns="http://www.w3.org/2000/svg"  viewBox="0 0 64 64" width="64px" height="64px"><path fill="#c2cde7" d="M43,53v6c0,1.1-0.9,2-2,2H23c-1.1,0-2-0.9-2-2v-6c0-1.1,0.9-2,2-2h18C42.1,51,43,51.9,43,53z"/><path fill="#acb7d0" d="M43,56v3c0,1.1-0.9,2-2,2H23c-1.1,0-2-0.9-2-2v-3H43z"/><path fill="#72caaf" d="M53.379,25.308L33.444,4.507c-0.787-0.822-2.101-0.822-2.888,0L10.621,25.308 C10.012,25.944,10.463,27,11.343,27H20c0.552,0,1,0.448,1,1v17c0,1.105,0.895,2,2,2h18c1.105,0,2-0.895,2-2V28c0-0.552,0.448-1,1-1 h8.657C53.537,27,53.988,25.944,53.379,25.308z"/><path fill="#97e0bb" d="M31.861,4.217c1.236,1.253,1.243,3.265,0.015,4.527L15.075,26c-0.623,0.64-1.478,1-2.371,1H11.34 c-0.88,0-1.33-1.06-0.72-1.69L29.927,5.143C30.707,4.323,31.081,3.397,31.861,4.217L31.861,4.217z"/><path fill="#8d6c9f" d="M41,50H23c-1.654,0-3,1.346-3,3v6c0,1.654,1.346,3,3,3h18c1.654,0,3-1.346,3-3v-6 C44,51.346,42.654,50,41,50z M42,59c0,0.551-0.449,1-1,1H23c-0.551,0-1-0.449-1-1v-2v-2v-2c0-0.551,0.449-1,1-1h18 c0.551,0,1,0.449,1,1v1c-0.552,0-1,0.448-1,1v2c0,0.552,0.448,1,1,1V59z"/><path fill="#8d6c9f" d="M27 54c-.552 0-1 .448-1 1v2c0 .552.448 1 1 1s1-.448 1-1v-2C28 54.448 27.552 54 27 54zM22 54c-.552 0-1 .448-1 1v2c0 .552.448 1 1 1s1-.448 1-1v-2C23 54.448 22.552 54 22 54zM32 54c-.552 0-1 .448-1 1v2c0 .552.448 1 1 1s1-.448 1-1v-2C33 54.448 32.552 54 32 54zM37 54c-.552 0-1 .448-1 1v2c0 .552.448 1 1 1s1-.448 1-1v-2C38 54.448 37.552 54 37 54zM54.1 24.616L54.1 24.616 34.166 3.815c-1.143-1.192-3.189-1.192-4.332 0L9.9 24.616c-.556.579-.711 1.431-.396 2.169C9.819 27.523 10.541 28 11.343 28H20v17c0 1.654 1.346 3 3 3h18c1.654 0 3-1.346 3-3V28h8.657c.802 0 1.524-.477 1.839-1.215C54.811 26.047 54.656 25.195 54.1 24.616zM44 26c-1.103 0-2 .897-2 2v17c0 .551-.449 1-1 1H23c-.551 0-1-.449-1-1V28c0-1.103-.897-2-2-2h-8.656L31.278 5.199c.381-.397 1.062-.397 1.443 0L52.656 26H44z"/></svg>