<svg xmlns="http://www.w3.org/2000/svg"  viewBox="0 0 64 64" width="64px" height="64px"><path fill="#ed7899" d="M53.379,25.308L33.444,4.507c-0.787-0.822-2.101-0.822-2.888,0L10.621,25.308 C10.012,25.944,10.463,27,11.343,27H20c0.552,0,1,0.448,1,1v17c0,1.105,0.895,2,2,2h18c1.105,0,2-0.895,2-2V28c0-0.552,0.448-1,1-1 h8.657C53.537,27,53.988,25.944,53.379,25.308z"/><path fill="#c2cde7" d="M43,53v6c0,1.1-0.9,2-2,2H23c-1.1,0-2-0.9-2-2v-6c0-1.1,0.9-2,2-2h18C42.1,51,43,51.9,43,53z"/><path fill="#acb7d0" d="M43,56v3c0,1.1-0.9,2-2,2H23c-1.1,0-2-0.9-2-2v-3H43z"/><path fill="#f283a5" d="M31.861,4.217c1.236,1.253,1.243,3.265,0.015,4.527L15.075,26c-0.623,0.64-1.478,1-2.371,1H11.34 c-0.88,0-1.33-1.06-0.72-1.69L29.927,5.143C30.707,4.323,31.081,3.397,31.861,4.217L31.861,4.217z"/><path fill="#8d6c9f" d="M41,50H23c-1.654,0-3,1.346-3,3v6c0,1.654,1.346,3,3,3h18c1.654,0,3-1.346,3-3v-6 C44,51.346,42.654,50,41,50z M42,59c0,0.551-0.448,1-1,1H23c-0.552,0-1-0.449-1-1v-1c0.553,0,1-0.448,1-1v-2c0-0.552-0.447-1-1-1 v-1c0-0.551,0.448-1,1-1h18c0.552,0,1,0.449,1,1v1c-0.553,0-1,0.448-1,1v2c0,0.552,0.447,1,1,1V59z"/><path fill="#8d6c9f" d="M27 54c-.553 0-1 .448-1 1v2c0 .552.447 1 1 1s1-.448 1-1v-2C28 54.448 27.553 54 27 54zM32 54c-.553 0-1 .448-1 1v2c0 .552.447 1 1 1s1-.448 1-1v-2C33 54.448 32.553 54 32 54zM37 54c-.553 0-1 .448-1 1v2c0 .552.447 1 1 1s1-.448 1-1v-2C38 54.448 37.553 54 37 54zM58.707 4.293c-.391-.391-1.023-.391-1.414 0L45.717 15.868 34.166 3.814c-1.143-1.191-3.189-1.192-4.332 0L9.899 24.616c-.556.579-.711 1.43-.396 2.168C9.818 27.523 10.541 28 11.344 28H20v13.586L3.293 58.293c-.391.391-.391 1.023 0 1.414C3.488 59.902 3.744 60 4 60s.512-.098.707-.293L20 44.414V45c0 1.654 1.346 3 3 3h18c1.654 0 3-1.346 3-3V28h8.656c.803 0 1.525-.477 1.84-1.215.315-.738.16-1.589-.396-2.168l-6.999-7.304L58.707 5.707C59.098 5.316 59.098 4.684 58.707 4.293zM20 26h-8.657L31.277 5.199c.381-.398 1.064-.398 1.445 0l11.581 12.084L22 39.586V28C22 26.897 21.103 26 20 26zM52.657 26L52.657 26H44c-1.103 0-2 .897-2 2v17c0 .551-.448 1-1 1H23c-.552 0-1-.449-1-1v-2.586l23.687-23.687L52.657 26z"/></svg>