<svg xmlns="http://www.w3.org/2000/svg"  viewBox="0 0 64 64" width="64px" height="64px"><rect width="50" height="50" x="7" y="7" fill="#f9e3ae" rx="2" ry="2"/><path fill="#f6d397" d="M11,32H53a4,4,0,0,1,4,4V54a3,3,0,0,1-3,3H10a3,3,0,0,1-3-3V36a4,4,0,0,1,4-4Z"/><rect width="38" height="38" x="13" y="13" fill="#72caaf" rx="2" ry="2"/><path fill="#faefde" d="M45.71,21.29a1,1,0,0,0-1.41,0L27,38.59l-7.29-7.29a1,1,0,0,0-1.41,1.41l8,8a1,1,0,0,0,1.41,0l18-18A1,1,0,0,0,45.71,21.29Z"/><path fill="#8d6c9f" d="M50,12H14a2,2,0,0,0-2,2V50a2,2,0,0,0,2,2h3a1,1,0,0,0,0-2H14V14H50V50H47a1,1,0,0,0,0,2h3a2,2,0,0,0,2-2V14A2,2,0,0,0,50,12Z"/><path fill="#8d6c9f" d="M55,6H9A3,3,0,0,0,6,9V55a3,3,0,0,0,3,3H55a3,3,0,0,0,3-3V9A3,3,0,0,0,55,6Zm1,49a1,1,0,0,1-1,1H9a1,1,0,0,1-1-1V9A1,1,0,0,1,9,8H55a1,1,0,0,1,1,1Z"/><path fill="#8d6c9f" d="M27 48a1 1 0 0 0-1 1v2a1 1 0 0 0 2 0V49A1 1 0 0 0 27 48zM32 48a1 1 0 0 0-1 1v2a1 1 0 0 0 2 0V49A1 1 0 0 0 32 48zM37 48a1 1 0 0 0-1 1v2a1 1 0 0 0 2 0V49A1 1 0 0 0 37 48zM42 48a1 1 0 0 0-1 1v2a1 1 0 0 0 2 0V49A1 1 0 0 0 42 48zM22 48a1 1 0 0 0-1 1v2a1 1 0 0 0 2 0V49A1 1 0 0 0 22 48z"/></svg>