<svg xmlns="http://www.w3.org/2000/svg"  viewBox="0 0 64 64" width="64px" height="64px"><path fill="#85cbf8" d="M57,27H39c-1.105,0-2-0.895-2-2V9c0-1.105,0.895-2,2-2h18c1.105,0,2,0.895,2,2v16 C59,26.105,58.105,27,57,27z"/><path fill="#5dbc9d" d="M16 6A11 11 0 1 0 16 28 11 11 0 1 0 16 6zM48 36A11 11 0 1 0 48 58 11 11 0 1 0 48 36zM16 36A11 11 0 1 0 16 58 11 11 0 1 0 16 36z"/><path fill="#72caaf" d="M16 40A7 7 0 1 0 16 54 7 7 0 1 0 16 40zM48 40A7 7 0 1 0 48 54 7 7 0 1 0 48 40zM16 10A7 7 0 1 0 16 24 7 7 0 1 0 16 10z"/><path fill="#6fc6f0" d="M37 17H59V27H37z"/><path fill="#8d6c9f" d="M57 6H39c-1.654 0-3 1.346-3 3v16c0 1.654 1.346 3 3 3h18c1.654 0 3-1.346 3-3V9C60 7.346 58.654 6 57 6zM58 25c0 .551-.449 1-1 1H39c-.551 0-1-.449-1-1v-6c.552 0 1-.448 1-1v-2c0-.552-.448-1-1-1V9c0-.551.449-1 1-1h18c.551 0 1 .449 1 1v6c-.552 0-1 .448-1 1v2c0 .552.448 1 1 1V25zM16 5C9.383 5 4 10.383 4 17s5.383 12 12 12 12-5.383 12-12S22.617 5 16 5zM16 27c-5.514 0-10-4.486-10-10S10.486 7 16 7s10 4.486 10 10S21.514 27 16 27zM48 35c-6.617 0-12 5.383-12 12s5.383 12 12 12 12-5.383 12-12S54.617 35 48 35zM48 57c-5.514 0-10-4.486-10-10s4.486-10 10-10 10 4.486 10 10S53.514 57 48 57zM16 35C9.383 35 4 40.383 4 47s5.383 12 12 12 12-5.383 12-12S22.617 35 16 35zM16 57c-5.514 0-10-4.486-10-10s4.486-10 10-10 10 4.486 10 10S21.514 57 16 57z"/><path fill="#8d6c9f" d="M43 15c-.552 0-1 .448-1 1v2c0 .552.448 1 1 1s1-.448 1-1v-2C44 15.448 43.552 15 43 15zM48 15c-.552 0-1 .448-1 1v2c0 .552.448 1 1 1s1-.448 1-1v-2C49 15.448 48.552 15 48 15zM53 15c-.552 0-1 .448-1 1v2c0 .552.448 1 1 1s1-.448 1-1v-2C54 15.448 53.552 15 53 15z"/></svg>