<svg xmlns="http://www.w3.org/2000/svg"  viewBox="0 0 64 64" width="64px" height="64px"><path fill="#72caaf" d="M57,59H7c-1.105,0-2-0.895-2-2V7c0-1.105,0.895-2,2-2h50c1.105,0,2,0.895,2,2v50 C59,58.105,58.105,59,57,59z"/><path fill="#f283a5" d="M40.327,13H23.673c-0.725,0-1.392,0.392-1.746,1.024l-8.382,15c-0.339,0.606-0.339,1.345,0,1.951 l8.382,15C22.281,46.608,22.949,47,23.673,47h16.653c0.725,0,1.392-0.392,1.746-1.024l8.382-15c0.339-0.606,0.339-1.345,0-1.951 l-8.382-15C41.719,13.392,41.051,13,40.327,13z"/><path fill="#ed7899" d="M50.45,30.98l-8.38,15C41.72,46.61,41.05,47,40.33,47H23.67c-0.31,0-0.62-0.07-0.89-0.22 l17.95-33.74c0.56,0.11,1.06,0.47,1.34,0.98l8.38,15C50.79,29.63,50.79,30.37,50.45,30.98z"/><path fill="#faefde" d="M41.27,37.03H22.73c-0.77,0-1.25-0.84-0.86-1.5l9.26-16.03C31.32,19.16,31.66,19,32,19 s0.68,0.16,0.87,0.5l9.26,16.03C42.52,36.19,42.04,37.03,41.27,37.03z"/><path fill="#5dbc9d" d="M59,59.22H5V57c0-1.657,1.343-3,3-3h48c1.657,0,3,1.343,3,3V59.22z"/><path fill="#f9e3ae" d="M41.27,37.03H32V19c0.34,0,0.68,0.16,0.87,0.5l9.26,16.03C42.52,36.19,42.04,37.03,41.27,37.03z"/><path fill="#8d6c9f" d="M57,4H7C5.346,4,4,5.346,4,7v50c0,1.654,1.346,3,3,3h50c1.654,0,3-1.346,3-3V7 C60,5.346,58.654,4,57,4z M58,57c0,0.551-0.449,1-1,1H7c-0.551,0-1-0.449-1-1V7c0-0.551,0.449-1,1-1h50c0.551,0,1,0.449,1,1V57z"/><path fill="#8d6c9f" d="M19 52c-.552 0-1 .448-1 1v2c0 .552.448 1 1 1s1-.448 1-1v-2C20 52.448 19.552 52 19 52zM14 52c-.552 0-1 .448-1 1v2c0 .552.448 1 1 1s1-.448 1-1v-2C15 52.448 14.552 52 14 52zM9 52c-.552 0-1 .448-1 1v2c0 .552.448 1 1 1s1-.448 1-1v-2C10 52.448 9.552 52 9 52zM35 52c-.552 0-1 .448-1 1v2c0 .552.448 1 1 1s1-.448 1-1v-2C36 52.448 35.552 52 35 52zM40 52c-.552 0-1 .448-1 1v2c0 .552.448 1 1 1s1-.448 1-1v-2C41 52.448 40.552 52 40 52zM45 52c-.552 0-1 .448-1 1v2c0 .552.448 1 1 1s1-.448 1-1v-2C46 52.448 45.552 52 45 52zM50 52c-.552 0-1 .448-1 1v2c0 .552.448 1 1 1s1-.448 1-1v-2C51 52.448 50.552 52 50 52zM55 52c-.552 0-1 .448-1 1v2c0 .552.448 1 1 1s1-.448 1-1v-2C56 52.448 55.552 52 55 52zM24 52c-.552 0-1 .448-1 1v2c0 .552.448 1 1 1s1-.448 1-1v-2C25 52.448 24.552 52 24 52zM29 52c-.552 0-1 .448-1 1v2c0 .552.448 1 1 1s1-.448 1-1v-2C30 52.448 29.552 52 29 52zM42.945 13.537C42.415 12.589 41.412 12 40.327 12H23.673c-1.085 0-2.088.589-2.619 1.537l-8.382 15c-.512.917-.512 2.01 0 2.927l8.382 15C21.585 47.411 22.588 48 23.673 48h16.653c1.085 0 2.088-.589 2.619-1.537l8.382-15c.512-.917.512-2.01 0-2.927L42.945 13.537zM49.582 30.488l-8.382 15C41.023 45.804 40.688 46 40.327 46H23.673c-.362 0-.696-.196-.873-.512l-8.382-15c-.171-.306-.171-.67 0-.976l8.382-15C22.977 14.196 23.312 14 23.673 14h16.653c.362 0 .696.196.873.512l8.382 15C49.752 29.818 49.752 30.182 49.582 30.488z"/><path fill="#8d6c9f" d="M33.731,18.997c-0.362-0.625-1.009-0.999-1.731-0.999s-1.37,0.374-1.731,0.999l-9.267,16.028 c-0.362,0.626-0.363,1.374-0.001,2c0.362,0.627,1.009,1.001,1.733,1.001h18.533c0.724,0,1.371-0.374,1.733-1.001 c0.361-0.626,0.36-1.375-0.001-2L33.731,18.997z M22.733,36.026L32,19.998l9.267,16.028H22.733z"/></svg>