<svg xmlns="http://www.w3.org/2000/svg"  viewBox="0 0 64 64" width="64px" height="64px"><path fill="#5dbc9d" d="M57,27H41c-1.105,0-2-0.895-2-2V9c0-1.105,0.895-2,2-2h16c1.105,0,2,0.895,2,2v16 C59,26.105,58.105,27,57,27z"/><path fill="#f283a5" d="M58.899,50.414l-8.485,8.485c-0.781,0.781-2.047,0.781-2.828,0l-8.485-8.485 c-0.781-0.781-0.781-2.047,0-2.828l8.485-8.485c0.781-0.781,2.047-0.781,2.828,0l8.485,8.485 C59.681,48.367,59.681,49.633,58.899,50.414z"/><path fill="#f9e3ae" d="M16 6A11 11 0 1 0 16 28A11 11 0 1 0 16 6Z"/><path fill="#85cbf8" d="M14.134,39.497L4.868,55.526c-0.385,0.667,0.096,1.501,0.866,1.501h18.534 c0.77,0,1.251-0.834,0.866-1.501l-9.267-16.028C15.481,38.831,14.519,38.831,14.134,39.497z"/><path fill="#6fc6f0" d="M5.73,57H15V38.97c-0.34,0-0.67,0.16-0.87,0.5L4.87,55.5C4.48,56.16,4.96,57,5.73,57z"/><path fill="#ed7899" d="M58.9,50.41l-8.49,8.49c-0.39,0.39-0.9,0.58-1.41,0.58V38.52c0.51,0,1.02,0.19,1.41,0.58l8.49,8.49 C59.68,48.37,59.68,49.63,58.9,50.41z"/><path fill="#72caaf" d="M41,27h8V7h-8c-1.105,0-2,0.895-2,2v16C39,26.105,39.895,27,41,27z"/><path fill="#faefde" d="M8.339,9.226L24,25c0,0,6.736-8.14,0.589-14.789C17,2,8.339,9.226,8.339,9.226z"/><path fill="#8d6c9f" d="M41 28h16c1.654 0 3-1.346 3-3V9c0-1.654-1.346-3-3-3H41c-1.654 0-3 1.346-3 3v16C38 26.654 39.346 28 41 28zM40 9c0-.551.449-1 1-1h16c.551 0 1 .449 1 1v16c0 .551-.449 1-1 1H41c-.551 0-1-.449-1-1V9zM59.606 46.879l-8.485-8.485c-1.134-1.134-3.11-1.134-4.243 0l-8.485 8.485c-.567.567-.879 1.32-.879 2.122s.312 1.555.879 2.121l8.485 8.485c.567.567 1.32.879 2.122.879s1.555-.312 2.121-.879l8.485-8.485c.567-.566.879-1.32.879-2.121S60.173 47.445 59.606 46.879zM58.192 49.707l-8.486 8.486c-.377.378-1.036.378-1.414 0l-8.485-8.486c-.189-.188-.293-.439-.293-.707s.104-.518.293-.707l8.486-8.485c.188-.189.439-.293.707-.293s.518.104.707.293l8.485 8.486c.189.188.293.439.293.707S58.381 49.518 58.192 49.707zM16 5c-3.295 0-6.283 1.336-8.453 3.493-.01.009-.022.012-.032.021S7.502 8.537 7.493 8.547C5.336 10.717 4 13.705 4 17c0 6.617 5.383 12 12 12 3.295 0 6.283-1.336 8.453-3.493.01-.009.022-.012.032-.021s.012-.022.021-.032C26.664 23.283 28 20.295 28 17 28 10.383 22.617 5 16 5zM23.738 23.324L9.676 9.262c1.082-.886 2.356-1.54 3.745-1.912l12.23 12.23C25.279 20.968 24.624 22.242 23.738 23.324zM18.579 26.651L6.35 14.42c.372-1.389 1.026-2.663 1.912-3.745l14.063 14.063C21.242 25.624 19.968 26.279 18.579 26.651zM6 17c0-.032.005-.064.005-.096l10.091 10.091C16.063 26.995 16.032 27 16 27 10.486 27 6 22.514 6 17zM25.995 17.096L15.904 7.005C15.936 7.005 15.968 7 16 7c5.514 0 10 4.486 10 10C26 17.032 25.995 17.064 25.995 17.096zM16.731 38.997c-.362-.625-1.009-.999-1.731-.999s-1.37.374-1.731.999L4.002 55.025c-.362.626-.363 1.374-.001 2 .362.627 1.009 1.001 1.733 1.001h18.533c.724 0 1.371-.374 1.733-1.001.361-.626.36-1.375-.001-2L16.731 38.997zM5.733 56.026L15 39.998l9.267 16.028H5.733z"/><path fill="#8d6c9f" d="M44 47c-.552 0-1 .448-1 1v2c0 .552.448 1 1 1s1-.448 1-1v-2C45 47.448 44.552 47 44 47zM49 47c-.552 0-1 .448-1 1v2c0 .552.448 1 1 1s1-.448 1-1v-2C50 47.448 49.552 47 49 47zM54 47c-.552 0-1 .448-1 1v2c0 .552.448 1 1 1s1-.448 1-1v-2C55 47.448 54.552 47 54 47z"/></svg>