<svg xmlns="http://www.w3.org/2000/svg"  viewBox="0 0 64 64" width="64px" height="64px"><path fill="#72caaf" d="M1 37L15 51 47 19 43 15 15 43 5 33 1 37z"/><path fill="#97e0bb" d="M15.06,46a2.49,2.49,0,0,1-1.77-.73L3.51,35.49l2.12-2.12,9.43,9.43L42.9,15,45,17.08,16.83,45.27A2.49,2.49,0,0,1,15.06,46Z"/><path fill="#72caaf" d="M23.28 43.28L31 51 63 19 59 15 31 43 27.28 39.28"/><path fill="#97e0bb" d="M30.94,46a2.49,2.49,0,0,1-1.77-.73L25,41.12,27.15,39l3.79,3.79L58.78,15l2.12,2.12L32.71,45.27A2.49,2.49,0,0,1,30.94,46Z"/><path fill="#8d6c9f" d="M63.71,18.29l-4-4a1,1,0,0,0-1.41,0L31,41.59,28.41,39,47.71,19.71a1,1,0,0,0,0-1.41l-4-4a1,1,0,0,0-1.41,0L15,41.59,5.71,32.29a1,1,0,0,0-1.41,0l-4,4a1,1,0,0,0,0,1.41l14,14a1,1,0,0,0,1.41,0L23,44.41l7.29,7.29a1,1,0,0,0,1.41,0l32-32A1,1,0,0,0,63.71,18.29ZM15,49.59,2.41,37,5,34.41l9.29,9.29a1,1,0,0,0,1.41,0L43,16.41,45.59,19Zm16,0L24.41,43,27,40.41l3.29,3.29a1,1,0,0,0,1.41,0L59,16.41,61.59,19Z"/><path fill="#8d6c9f" d="M13.93 36.49a1 1 0 0 0 1.41-1.41l-1.41-1.41a1 1 0 0 0-1.41 1.41zM17.46 32.95a1 1 0 0 0 1.41-1.41l-1.41-1.41a1 1 0 0 0-1.41 1.41zM21 29.41A1 1 0 0 0 22.41 28L21 26.59A1 1 0 0 0 19.59 28zM24.54 25.88a1 1 0 0 0 1.41-1.41l-1.41-1.41a1 1 0 0 0-1.41 1.41zM28.07 22.34a1 1 0 0 0 1.41-1.41l-1.41-1.41a1 1 0 0 0-1.41 1.41zM31.61 18.81A1 1 0 0 0 33 17.39L31.61 16a1 1 0 1 0-1.41 1.41zM35.14 15.27a1 1 0 0 0 1.41-1.41l-1.42-1.42a1 1 0 0 0-1.41 1.41zM38.68 11.74a1 1 0 0 0 1.41-1.41L38.68 8.91a1 1 0 0 0-1.41 1.41z"/></svg>