<svg xmlns="http://www.w3.org/2000/svg"  viewBox="0 0 64 64" width="64px" height="64px"><path fill="#72caaf" d="M61,15.94V59c0,1.1-0.9,2-2,2H5c-1.1,0-2-0.9-2-2V15.94c0-0.32,0.04-0.63,0.11-0.94 c0.07-0.29,0.17-0.57,0.31-0.84L8.45,4.11C8.79,3.43,9.48,3,10.24,3h43.52c0.76,0,1.45,0.43,1.79,1.11l5.03,10.05 c0.14,0.27,0.24,0.55,0.31,0.84C60.96,15.31,61,15.62,61,15.94z"/><path fill="#faefde" d="M35 25L29 25 29 40 25 36 21 40 32 51 43 40 39 36 35 40z"/><path fill="#5dbc9d" d="M60.89 15H40.857L37 19h-9l-4.857-4H3.11c.07-.29.17-.57.31-.84L8.45 4.11C8.79 3.43 9.48 3 10.24 3h43.52c.76 0 1.45.43 1.79 1.11l5.03 10.05C60.72 14.43 60.82 14.71 60.89 15zM61 59c0 1.1-.9 2-2 2H5c-1.1 0-2-.9-2-2 0-1.66 1.34-3 3-3h52C59.66 56 61 57.34 61 59z"/><path fill="#8d6c9f" d="M7 54c-.553 0-1 .448-1 1v2c0 .552.447 1 1 1s1-.448 1-1v-2C8 54.448 7.553 54 7 54zM12 54c-.553 0-1 .448-1 1v2c0 .552.447 1 1 1s1-.448 1-1v-2C13 54.448 12.553 54 12 54zM17 54c-.553 0-1 .448-1 1v2c0 .552.447 1 1 1s1-.448 1-1v-2C18 54.448 17.553 54 17 54zM22 54c-.553 0-1 .448-1 1v2c0 .552.447 1 1 1s1-.448 1-1v-2C23 54.448 22.553 54 22 54zM27 54c-.553 0-1 .448-1 1v2c0 .552.447 1 1 1s1-.448 1-1v-2C28 54.448 27.553 54 27 54zM32 54c-.553 0-1 .448-1 1v2c0 .552.447 1 1 1s1-.448 1-1v-2C33 54.448 32.553 54 32 54zM37 54c-.553 0-1 .448-1 1v2c0 .552.447 1 1 1s1-.448 1-1v-2C38 54.448 37.553 54 37 54zM42 54c-.553 0-1 .448-1 1v2c0 .552.447 1 1 1s1-.448 1-1v-2C43 54.448 42.553 54 42 54zM47 58c.553 0 1-.448 1-1v-2c0-.552-.447-1-1-1s-1 .448-1 1v2C46 57.552 46.447 58 47 58zM52 58c.553 0 1-.448 1-1v-2c0-.552-.447-1-1-1s-1 .448-1 1v2C51 57.552 51.447 58 52 58zM57 58c.553 0 1-.448 1-1v-2c0-.552-.447-1-1-1s-1 .448-1 1v2C56 57.552 56.447 58 57 58zM38.293 35.293L36 37.586V25c0-.552-.447-1-1-1h-6c-.553 0-1 .448-1 1v12.586l-2.293-2.293c-.391-.391-1.023-.391-1.414 0l-4 4c-.391.391-.391 1.023 0 1.414l11 11C31.488 51.902 31.744 52 32 52s.512-.098.707-.293l11-11c.391-.391.391-1.023 0-1.414l-4-4C39.316 34.902 38.684 34.902 38.293 35.293zM32 49.586L22.414 40 25 37.414l3.293 3.293c.287.287.716.373 1.09.217C29.757 40.769 30 40.404 30 40V26h4v14c0 .404.243.769.617.924s.804.07 1.09-.217L39 37.414 41.586 40 32 49.586z"/><path fill="#8d6c9f" d="M61.473,13.708l-5.025-10.05C55.936,2.635,54.907,2,53.764,2H10.236 C9.093,2,8.064,2.635,7.553,3.658l-5.025,10.05C2.183,14.399,2,15.173,2,15.944V59c0,1.654,1.346,3,3,3h54c1.654,0,3-1.346,3-3 V15.944C62,15.173,61.817,14.399,61.473,13.708z M9.342,4.553C9.513,4.212,9.855,4,10.236,4h43.527 c0.381,0,0.724,0.212,0.895,0.553L59.383,14H41.828c-0.801,0-1.555,0.312-2.121,0.879l-2.828,2.828 C36.692,17.893,36.435,18,36.172,18h-8.344c-0.263,0-0.521-0.107-0.707-0.293l-2.828-2.828C23.727,14.312,22.973,14,22.172,14 H4.618L9.342,4.553z M60,59c0,0.551-0.448,1-1,1H5c-0.552,0-1-0.449-1-1V16h18.172c0.263,0,0.521,0.107,0.707,0.293l2.828,2.828 C26.273,19.688,27.027,20,27.828,20h8.344c0.801,0,1.555-0.312,2.121-0.879l2.828-2.828C41.308,16.107,41.565,16,41.828,16H60V59z"/></svg>