<svg xmlns="http://www.w3.org/2000/svg"  viewBox="0 0 64 64" width="64px" height="64px"><rect width="52" height="50" x="5" y="7" fill="#72caaf" rx="2" ry="2"/><path fill="#5dbc9d" d="M56,57H6a1,1,0,0,1-1-1H5c0-2.21.79-4,3-4H54c2.21,0,3,1.79,3,4l-.42.25C56.58,56.8,56.55,57,56,57Z"/><path fill="#f283a5" d="M54.5 3A6.5 6.5 0 1 0 54.5 16A6.5 6.5 0 1 0 54.5 3Z"/><path fill="#8d6c9f" d="M16 50a1 1 0 0 0-1 1v2a1 1 0 0 0 2 0V51A1 1 0 0 0 16 50zM11 50a1 1 0 0 0-1 1v2a1 1 0 0 0 2 0V51A1 1 0 0 0 11 50zM31 50a1 1 0 0 0-1 1v2a1 1 0 0 0 2 0V51A1 1 0 0 0 31 50zM36 50a1 1 0 0 0-1 1v2a1 1 0 0 0 2 0V51A1 1 0 0 0 36 50zM41 50a1 1 0 0 0-1 1v2a1 1 0 0 0 2 0V51A1 1 0 0 0 41 50zM46 50a1 1 0 0 0-1 1v2a1 1 0 0 0 2 0V51A1 1 0 0 0 46 50zM51 50a1 1 0 0 0-1 1v2a1 1 0 0 0 2 0V51A1 1 0 0 0 51 50zM21 50a1 1 0 0 0-1 1v2a1 1 0 0 0 2 0V51A1 1 0 0 0 21 50zM26 50a1 1 0 0 0-1 1v2a1 1 0 0 0 2 0V51A1 1 0 0 0 26 50z"/><path fill="#faefde" d="M30.29 39.71a1 1 0 0 0 1.42 0l6-6a1 1 0 0 0-1.41-1.41L32 36.59V23a1 1 0 0 0-2 0V36.59l-4.29-4.29a1 1 0 0 0-1.41 1.41zM31 20a1 1 0 0 0 1-1V15a1 1 0 0 0-2 0v4A1 1 0 0 0 31 20z"/><path fill="#8d6c9f" d="M54.5,2a7.47,7.47,0,0,0-6.62,4H7A3,3,0,0,0,4,9V55a3,3,0,0,0,3,3H55a3,3,0,0,0,3-3V16.12A7.49,7.49,0,0,0,54.5,2ZM56,50a1,1,0,0,0-1,1v2a1,1,0,0,0,1,1v1a1,1,0,0,1-1,1H7a1,1,0,0,1-1-1V54a1,1,0,0,0,1-1V51a1,1,0,0,0-1-1V9A1,1,0,0,1,7,8H47.15A7.41,7.41,0,0,0,47,9.5,7.5,7.5,0,0,0,54.5,17a7.41,7.41,0,0,0,1.5-.15Zm2-36.26a5.49,5.49,0,0,1-2,1.05,5.33,5.33,0,0,1-1.5.21A5.51,5.51,0,0,1,49,9.5,5.33,5.33,0,0,1,49.21,8,5.5,5.5,0,1,1,58,13.74Z"/><path fill="#faefde" d="M47,34a1,1,0,0,0-1,1v8a1,1,0,0,1-1,1H17a1,1,0,0,1-1-1V35a1,1,0,0,0-2,0v8a3,3,0,0,0,3,3H45a3,3,0,0,0,3-3V35A1,1,0,0,0,47,34Z"/></svg>