<svg xmlns="http://www.w3.org/2000/svg"  viewBox="0 0 64 64" width="64px" height="64px"><path fill="#faefde" d="M13,7h38c3.314,0,6,2.686,6,6v38c0,3.314-2.686,6-6,6H13c-3.314,0-6-2.686-6-6V13 C7,9.686,9.686,7,13,7z"/><path fill="#fff7f0" d="M19.57 57L57 19.57 57 14.35 14.35 57zM57 23.007L23.253 57 36.26 57 57 36.27zM55.043 8.576L8.572 55.038c.524.574 1.157 1.045 1.868 1.382l45.977-45.987C56.082 9.727 55.614 9.098 55.043 8.576z"/><path fill="#fff" d="M14.5 11L15.74 13.26 18 14.5 15.74 15.74 14.5 18 13.26 15.74 11 14.5 13.26 13.26zM26.42 47L27.27 48.56 28.84 49.42 27.27 50.27 26.42 51.84 25.56 50.27 24 49.42 25.56 48.56zM48.65 24L49.23 25.07 50.3 25.65 49.23 26.23 48.65 27.3 48.06 26.23 47 25.65 48.06 25.07z"/><path fill="none" stroke="#8d6c9f" stroke-linecap="round" stroke-linejoin="round" stroke-miterlimit="10" stroke-width="2" d="M57 21v-8c0-3.314-2.686-6-6-6h-8M21 7h-8c-3.314 0-6 2.686-6 6v8M7 43v8c0 3.314 2.686 6 6 6h8M43 57h8c3.314 0 6-2.686 6-6v-8M33 24v11c0 1.657-1.343 3-3 3h-1M21 24L21 28M43 24L43 28M24 43c0 0 2.667 3 8 3s8-3 8-3"/><path fill="#8d6c9f" d="M37 5c-.552 0-1 .447-1 1v2c0 .553.448 1 1 1s1-.447 1-1V6C38 5.447 37.552 5 37 5zM32 5c-.552 0-1 .447-1 1v2c0 .553.448 1 1 1 .552 0 1-.447 1-1V6C33 5.447 32.552 5 32 5zM27 5c-.552 0-1 .447-1 1v2c0 .553.448 1 1 1s1-.447 1-1V6C28 5.447 27.552 5 27 5zM37 55c-.552 0-1 .447-1 1v2c0 .553.448 1 1 1s1-.447 1-1v-2C38 55.447 37.552 55 37 55zM32 55c-.552 0-1 .447-1 1v2c0 .553.448 1 1 1 .552 0 1-.447 1-1v-2C33 55.447 32.552 55 32 55zM27 55c-.552 0-1 .447-1 1v2c0 .553.448 1 1 1s1-.447 1-1v-2C28 55.447 27.552 55 27 55z"/></svg>