<svg xmlns="http://www.w3.org/2000/svg"  viewBox="0 0 64 64" width="64px" height="64px"><rect width="54" height="50" x="5" y="7" fill="#faefde" rx="2" ry="2"/><path fill="#fff7f0" d="M6.89,6.77H57a2,2,0,0,1,2,2h0C59,9.87,60.1,11,59,11H7A2.3,2.3,0,0,1,4.89,8.77h0A2,2,0,0,1,6.89,6.77Z"/><path fill="#efd8be" d="M57,57H7a2,2,0,0,1-2-2v1a4,4,0,0,1,4-4H55a4,4,0,0,1,4,4V55A2,2,0,0,1,57,57Z"/><path fill="#ed7899" d="M26 39A2 2 0 1 0 26 43A2 2 0 1 0 26 39Z"/><rect width="24" height="8" x="25" y="25" fill="#72caaf" rx="1" ry="1"/><rect width="24" height="4" x="25" y="15" fill="#85cbf8" rx="1" ry="1"/><path fill="#8d6c9f" d="M57,6H7A3,3,0,0,0,4,9V55a3,3,0,0,0,3,3H57a3,3,0,0,0,3-3V9A3,3,0,0,0,57,6Zm1,49a1,1,0,0,1-1,1H7a1,1,0,0,1-1-1V9A1,1,0,0,1,7,8H57a1,1,0,0,1,1,1Z"/><path fill="#8d6c9f" d="M14 50a1 1 0 0 0-1 1v2a1 1 0 0 0 2 0V51A1 1 0 0 0 14 50zM9 50a1 1 0 0 0-1 1v2a1 1 0 0 0 2 0V51A1 1 0 0 0 9 50zM29 50a1 1 0 0 0-1 1v2a1 1 0 0 0 2 0V51A1 1 0 0 0 29 50zM34 50a1 1 0 0 0-1 1v2a1 1 0 0 0 2 0V51A1 1 0 0 0 34 50zM39 50a1 1 0 0 0-1 1v2a1 1 0 0 0 2 0V51A1 1 0 0 0 39 50zM44 50a1 1 0 0 0-1 1v2a1 1 0 0 0 2 0V51A1 1 0 0 0 44 50zM49 50a1 1 0 0 0-1 1v2a1 1 0 0 0 2 0V51A1 1 0 0 0 49 50zM54 50a1 1 0 0 0-1 1v2a1 1 0 0 0 2 0V51A1 1 0 0 0 54 50zM19 50a1 1 0 0 0-1 1v2a1 1 0 0 0 2 0V51A1 1 0 0 0 19 50zM24 50a1 1 0 0 0-1 1v2a1 1 0 0 0 2 0V51A1 1 0 0 0 24 50zM49 38H32a1 1 0 0 0 0 2H49a1 1 0 0 0 0-2zM45 42H32a1 1 0 0 0 0 2H45a1 1 0 0 0 0-2zM19 26H13a1 1 0 0 0 0 2h6a1 1 0 0 0 0-2zM29 41a3 3 0 1 0-3 3A3 3 0 0 0 29 41zm-3 1a1 1 0 1 1 1-1A1 1 0 0 1 26 42zM48 24H26a2 2 0 0 0-2 2v6a2 2 0 0 0 2 2H48a2 2 0 0 0 2-2V26A2 2 0 0 0 48 24zM26 32V26H48v6zM19 16H13a1 1 0 0 0 0 2h6a1 1 0 0 0 0-2zM48 14H26a2 2 0 0 0-2 2v2a2 2 0 0 0 2 2H48a2 2 0 0 0 2-2V16A2 2 0 0 0 48 14zM26 18V16H48v2z"/></svg>