<svg xmlns="http://www.w3.org/2000/svg"  viewBox="0 0 64 64" width="64px" height="64px"><path fill="#85cbf8" d="M38.883,55.98c-1.59,0-2.883-1.292-2.883-2.88V38.88c0-1.588,1.293-2.88,2.883-2.88h14.235	C54.707,36,56,37.292,56,38.88v14.221c0,1.588-1.293,2.88-2.883,2.88H38.883z"/><path fill="#85cbf8" d="M38.883,28C37.293,28,36,26.707,36,25.118V10.883C36,9.293,37.293,8,38.883,8h14.234	C54.707,8,56,9.293,56,10.883v14.234C56,26.707,54.707,28,53.118,28H38.883z"/><path fill="#8d6c9f" d="M53.117,9C54.155,9,55,9.845,55,10.883v14.234C55,26.155,54.156,27,53.118,27H38.883	C37.845,27,37,26.156,37,25.118V10.883C37,9.845,37.845,9,38.883,9H53.117 M53.117,7H38.883C36.739,7,35,8.739,35,10.883v14.235	C35,27.261,36.739,29,38.883,29h14.235C55.261,29,57,27.261,57,25.117V10.883C57,8.739,55.261,7,53.117,7L53.117,7z"/><path fill="#85cbf8" d="M11.141,28C9.42,28,8.02,26.707,8.02,25.117V10.883C8.02,9.293,9.42,8,11.141,8h13.738	C26.6,8,28,9.293,28,10.883v14.234C28,26.707,26.6,28,24.879,28H11.141z"/><path fill="#85cbf8" d="M10.899,55.98c-1.588,0-2.88-1.292-2.88-2.88V38.88c0-1.588,1.292-2.88,2.88-2.88h14.223	C26.709,36,28,37.292,28,38.88v14.221c0,1.588-1.292,2.88-2.88,2.88H10.899z"/><path fill="#8d6c9f" d="M25.122,37C26.157,37,27,37.843,27,38.88v14.221c0,1.036-0.843,1.88-1.88,1.88H10.899	c-1.036,0-1.88-0.843-1.88-1.88V38.88c0-1.036,0.843-1.88,1.88-1.88H25.122 M25.122,35H10.899c-2.142,0-3.88,1.738-3.88,3.88v14.221	c0,2.142,1.738,3.88,3.88,3.88H25.12c2.142,0,3.88-1.738,3.88-3.88V38.88C29,36.738,27.262,35,25.122,35L25.122,35z"/><rect width="18" height="9" x="37" y="46" fill="#7bbeeb"/><rect width="18" height="9" x="9" y="18" fill="#7bbeeb"/><path fill="#8d6c9f" d="M41,44c-0.6,0-1,0.4-1,1v2c0,0.6,0.4,1,1,1s1-0.4,1-1v-2C42,44.4,41.6,44,41,44z"/><path fill="#8d6c9f" d="M46,44c-0.6,0-1,0.4-1,1v2c0,0.6,0.4,1,1,1s1-0.4,1-1v-2C47,44.4,46.6,44,46,44z"/><path fill="#8d6c9f" d="M51,44c-0.6,0-1,0.4-1,1v2c0,0.6,0.4,1,1,1s1-0.4,1-1v-2C52,44.4,51.6,44,51,44z"/><path fill="#8d6c9f" d="M53.118,37C54.156,37,55,37.843,55,38.88v14.221c0,1.036-0.845,1.88-1.883,1.88H38.883	c-1.038,0-1.883-0.843-1.883-1.88V38.88c0-1.036,0.845-1.88,1.883-1.88H53.118 M53.118,35H38.883C36.739,35,35,36.738,35,38.88	v14.221c0,2.142,1.739,3.88,3.883,3.88h14.234c2.144,0,3.883-1.738,3.883-3.88V38.88C57,36.738,55.261,35,53.118,35L53.118,35z"/><path fill="#8d6c9f" d="M13,16c-0.6,0-1,0.4-1,1v2c0,0.6,0.4,1,1,1s1-0.4,1-1v-2C14,16.4,13.6,16,13,16z"/><path fill="#8d6c9f" d="M18,16c-0.6,0-1,0.4-1,1v2c0,0.6,0.4,1,1,1s1-0.4,1-1v-2C19,16.4,18.6,16,18,16z"/><path fill="#8d6c9f" d="M23,16c-0.6,0-1,0.4-1,1v2c0,0.6,0.4,1,1,1s1-0.4,1-1v-2C24,16.4,23.6,16,23,16z"/><path fill="#8d6c9f" d="M24.879,9C26.048,9,27,9.845,27,10.883v14.234C27,26.155,26.048,27,24.879,27H11.141	c-1.17,0-2.121-0.845-2.121-1.883V10.883C9.019,9.845,9.971,9,11.141,9H24.879 M24.879,7H11.141c-2.275,0-4.121,1.739-4.121,3.883	v14.234c0,2.144,1.846,3.883,4.121,3.883h13.738C27.154,29,29,27.261,29,25.117V10.883C29,8.739,27.154,7,24.879,7L24.879,7z"/></svg>