<svg xmlns="http://www.w3.org/2000/svg"  viewBox="0 0 64 64" width="64px" height="64px"><path fill="#f9e3ae" d="M63,15v34c0,1.1-0.9,2-2,2H11c-1.1,0-2-0.9-2-2V38.92c0-0.58-0.26-1.14-0.7-1.52l-5.41-4.64 c-0.47-0.4-0.47-1.12,0-1.52L8.3,26.6C8.74,26.22,9,25.66,9,25.08V15c0-1.1,0.9-2,2-2h50c0.29,0,0.57,0.06,0.82,0.18 C62.51,13.49,63,14.19,63,15z"/><path fill="#faefde" d="M63 15v11L41 48H27l34.82-34.82C62.51 13.49 63 14.19 63 15zM18 49L16 48 52 12 56.5 12 57.376 13.187 19 51.562zM47 12L11 48 9 48 9 46 43 12z"/><path fill="#f6d397" d="M63,49L63,49c0,1.1-0.9,2-2,2H11c-1.1,0-2-0.9-2-2v0c0-1.657,1.343-3,3-3h48 C61.657,46,63,47.343,63,49z"/><path fill="#8d6c9f" d="M61,12H11c-1.654,0-3,1.346-3,3v10.08c0,0.292-0.127,0.569-0.349,0.759l-5.416,4.642 C1.791,30.861,1.536,31.415,1.536,32s0.255,1.139,0.699,1.519l5.416,4.643C7.873,38.351,8,38.628,8,38.92V49c0,1.654,1.346,3,3,3 h50c1.654,0,3-1.346,3-3V15C64,13.346,62.654,12,61,12z M62,49c0,0.551-0.448,1-1,1H11c-0.552,0-1-0.449-1-1V38.92 c0-0.877-0.382-1.708-1.048-2.278L3.536,32l5.416-4.642C9.618,26.788,10,25.958,10,25.08V15c0-0.551,0.448-1,1-1h50 c0.552,0,1,0.449,1,1V49z"/><path fill="#8d6c9f" d="M18 44c-.553 0-1 .448-1 1v2c0 .552.447 1 1 1s1-.448 1-1v-2C19 44.448 18.553 44 18 44zM13 44c-.553 0-1 .448-1 1v2c0 .552.447 1 1 1s1-.448 1-1v-2C14 44.448 13.553 44 13 44zM33 44c-.553 0-1 .448-1 1v2c0 .552.447 1 1 1s1-.448 1-1v-2C34 44.448 33.553 44 33 44zM38 44c-.553 0-1 .448-1 1v2c0 .552.447 1 1 1s1-.448 1-1v-2C39 44.448 38.553 44 38 44zM43 44c-.553 0-1 .448-1 1v2c0 .552.447 1 1 1s1-.448 1-1v-2C44 44.448 43.553 44 43 44zM48 44c-.553 0-1 .448-1 1v2c0 .552.447 1 1 1s1-.448 1-1v-2C49 44.448 48.553 44 48 44zM53 44c-.553 0-1 .448-1 1v2c0 .552.447 1 1 1s1-.448 1-1v-2C54 44.448 53.553 44 53 44zM58 44c-.553 0-1 .448-1 1v2c0 .552.447 1 1 1s1-.448 1-1v-2C59 44.448 58.553 44 58 44zM23 44c-.553 0-1 .448-1 1v2c0 .552.447 1 1 1s1-.448 1-1v-2C24 44.448 23.553 44 23 44zM28 44c-.553 0-1 .448-1 1v2c0 .552.447 1 1 1s1-.448 1-1v-2C29 44.448 28.553 44 28 44zM51 24h-4c-.553 0-1 .448-1 1s.447 1 1 1h4c.553 0 1-.448 1-1S51.553 24 51 24zM21 26h22c.553 0 1-.448 1-1s-.447-1-1-1H21c-.553 0-1 .448-1 1S20.447 26 21 26zM49 36H21c-.553 0-1 .448-1 1s.447 1 1 1h28c.553 0 1-.448 1-1S49.553 36 49 36zM21 32h20c.553 0 1-.448 1-1s-.447-1-1-1H21c-.553 0-1 .448-1 1S20.447 32 21 32z"/><path fill="#fff6ef" d="M17.502 15.996L18.74 18.26 21.004 19.498 18.74 20.736 17.502 23 16.264 20.736 14 19.498 16.264 18.26zM54.419 32L55.274 33.564 56.838 34.419 55.274 35.274 54.419 36.838 53.564 35.274 52 34.419 53.564 33.564zM55.648 18L56.231 19.065 57.296 19.648 56.231 20.231 55.648 21.296 55.065 20.231 54 19.648 55.065 19.065z"/></svg>