<svg xmlns="http://www.w3.org/2000/svg"  viewBox="0 0 64 64" width="64px" height="64px"><path fill="#c2cde7" d="M31.308,4.663l-26,22.042C5.111,26.893,5,27.154,5,27.427v3.23c0,0.881,1.056,1.331,1.692,0.722 L32,10l25.307,22.375c0.636,0.61,1.693,0.16,1.693-0.721v-3.228c0-0.272-0.111-0.533-0.307-0.721L32.692,4.663 C32.305,4.292,31.695,4.292,31.308,4.663z"/><path fill="#85cbf8" d="M9,30v26c0,0.552,0.448,1,1,1h14c0.552,0,1-0.448,1-1V40c0-0.552,0.448-1,1-1h12 c0.552,0,1,0.448,1,1v16c0,0.552,0.448,1,1,1h5l10-10V30L32,10L9,30z"/><path fill="#7bbeeb" d="M13.581,32.125l18.344-15.517l17.829,15.756C51.792,34.165,55,32.719,55,30v0L32.652,10.567 l-0.667,0.754l-0.637-0.754L9,30v0C9,32.369,11.772,33.655,13.581,32.125z"/><path fill="#ace3ff" d="M55,47l-9,0.083c-0.552,0-1,0.448-1,1V57"/><path fill="#e3f2ff" d="M32 22A5 5 0 1 0 32 32A5 5 0 1 0 32 22Z"/><g><path fill="#8d6c9f" d="M45 57c-.552 0-1-.448-1-1v-8c0-1.103.897-2 2-2h8c.552 0 1 .448 1 1s-.448 1-1 1h-8v8C46 56.552 45.552 57 45 57zM58 33.654c-.506 0-1.004-.193-1.385-.558l-24.63-21.775L7.337 32.143c-.533.513-1.383.668-2.123.354C4.477 32.181 4 31.459 4 30.657v-3.23c0-.542.224-1.068.615-1.443L30.642 3.917c.778-.719 1.974-.71 2.742.024l25.972 23.015c.42.402.645.929.645 1.47v3.228c0 .803-.478 1.525-1.216 1.84C58.53 33.602 58.264 33.654 58 33.654zM31.984 9.325c.475 0 .95.166 1.325.498L57.97 31.626l.03-3.2L32.029 5.412l-.022.021-.052-.007-26 22.042L6 30.657 30.694 9.793C31.064 9.481 31.524 9.325 31.984 9.325z"/><path fill="#8d6c9f" d="M44.586,58H40c-1.103,0-2-0.897-2-2V40H26v16c0,1.103-0.897,2-2,2H10c-1.103,0-2-0.897-2-2V30 c0-0.552,0.448-1,1-1s1,0.448,1,1v26h14V40c0-1.103,0.897-2,2-2h12c1.103,0,2,0.897,2,2v16h4.586L54,46.586V31 c0-0.552,0.448-1,1-1s1,0.448,1,1v15.586c0,0.534-0.208,1.036-0.586,1.414L46,57.414C45.622,57.792,45.12,58,44.586,58z"/><path fill="#8d6c9f" d="M32 33c-3.309 0-6-2.691-6-6s2.691-6 6-6 6 2.691 6 6S35.309 33 32 33zM32 23c-2.206 0-4 1.794-4 4s1.794 4 4 4 4-1.794 4-4S34.206 23 32 23zM12 54c-.552 0-1-.448-1-1v-2c0-.552.448-1 1-1s1 .448 1 1v2C13 53.552 12.552 54 12 54zM17 54c-.552 0-1-.448-1-1v-2c0-.552.448-1 1-1s1 .448 1 1v2C18 53.552 17.552 54 17 54zM22 54c-.552 0-1-.448-1-1v-2c0-.552.448-1 1-1s1 .448 1 1v2C23 53.552 22.552 54 22 54z"/></g></svg>