<svg xmlns="http://www.w3.org/2000/svg"  viewBox="0 0 64 64" width="64px" height="64px"><rect width="62" height="52" x="1" y="5" fill="#c2cde7" rx="3" ry="3"/><path fill="#acb7d0" d="M1,35V54a3,3,0,0,0,3,3H60a3,3,0,0,0,3-3V35a4,4,0,0,0-4-4H5A4,4,0,0,0,1,35Z"/><rect width="47" height="40" x="10.5" y="10.5" fill="#d3e0e8" rx="3" ry="3"/><path fill="#dce9f0" d="M34.67 51L20 51 51.33 11 55 11 57 12 57 22.37 34.67 51zM11 50L10.5 45.87 38 11 45 11 13.46 51 11 50zM11 34.58L29.67 11 31 11 11 36.26 11 34.58z"/><path fill="#ffeb9b" d="M37 37H41V45H37zM27 27H31V35H27zM41 17H45V25H41z"/><path fill="#8d6c9f" d="M61,4H3A3,3,0,0,0,0,7V55a3,3,0,0,0,3,3H61a3,3,0,0,0,3-3V7A3,3,0,0,0,61,4Zm1,51a1,1,0,0,1-1,1H3a1,1,0,0,1-1-1V7A1,1,0,0,1,3,6H61a1,1,0,0,1,1,1Z"/><path fill="#8d6c9f" d="M56,10H12a2,2,0,0,0-2,2V50a2,2,0,0,0,2,2H56a2,2,0,0,0,2-2V12A2,2,0,0,0,56,10ZM12,50V12H56V50Z"/><path fill="#8d6c9f" d="M51 20H46V18a2 2 0 0 0-2-2H42a2 2 0 0 0-2 2v6a2 2 0 0 0 2 2h2a2 2 0 0 0 2-2V22h5a1 1 0 0 0 0-2zm-7 4H42V18h2zM19 22H37a1 1 0 0 0 0-2H19a1 1 0 0 0 0 2zM19 32h4a1 1 0 0 0 0-2H19a1 1 0 0 0 0 2zM51 30H32V28a2 2 0 0 0-2-2H28a2 2 0 0 0-2 2v6a2 2 0 0 0 2 2h2a2 2 0 0 0 2-2V32H51a1 1 0 0 0 0-2zM30 34H28V28h2zM51 40H42V38a2 2 0 0 0-2-2H38a2 2 0 0 0-2 2v6a2 2 0 0 0 2 2h2a2 2 0 0 0 2-2V42h9a1 1 0 0 0 0-2zM40 44H38V38h2zM33 40H19a1 1 0 0 0 0 2H33a1 1 0 0 0 0-2zM7 15H5a1 1 0 0 0 0 2H7a1 1 0 0 0 0-2zM7 10H5a1 1 0 0 0 0 2H7a1 1 0 0 0 0-2zM7 50H5a1 1 0 0 0 0 2H7a1 1 0 0 0 0-2zM7 20H5a1 1 0 0 0 0 2H7a1 1 0 0 0 0-2zM7 25H5a1 1 0 0 0 0 2H7a1 1 0 0 0 0-2zM7 30H5a1 1 0 0 0 0 2H7a1 1 0 0 0 0-2zM7 35H5a1 1 0 0 0 0 2H7a1 1 0 0 0 0-2zM7 40H5a1 1 0 0 0 0 2H7a1 1 0 0 0 0-2zM7 45H5a1 1 0 0 0 0 2H7a1 1 0 0 0 0-2z"/></svg>