<svg xmlns="http://www.w3.org/2000/svg"  viewBox="0 0 64 64" width="64px" height="64px"><path fill="#ed7899" d="M57,13c2.209,0,4,1.791,4,4v30c0,2.209-1.791,4-4,4H39c-2.209,0-4-1.791-4-4V17c0-2.209,1.791-4,4-4 H57z"/><path fill="#85cbf8" d="M28,3c0.552,0,1,0.448,1,1v56c0,0.552-0.448,1-1,1H4c-0.552,0-1-0.448-1-1V4c0-0.552,0.448-1,1-1H28 z"/><path fill="#ace3ff" d="M3 3H29V27H3z"/><path fill="#f283a5" d="M61,27H35V16c0-1.657,1.343-3,3-3h20c1.657,0,3,1.343,3,3V27z"/><path fill="#8d6c9f" d="M57 12H39c-2.757 0-5 2.243-5 5v30c0 2.757 2.243 5 5 5h18c2.757 0 5-2.243 5-5V17C62 14.243 59.757 12 57 12zM60 47c0 1.654-1.346 3-3 3H39c-1.654 0-3-1.346-3-3V17c0-1.654 1.346-3 3-3h18c1.654 0 3 1.346 3 3V47zM28 2H4C2.897 2 2 2.897 2 4v56c0 1.103.897 2 2 2h24c1.103 0 2-.897 2-2V4C30 2.897 29.103 2 28 2zM28 60H4V4h24V60z"/><path fill="#8d6c9f" d="M15 28h2c.553 0 1-.448 1-1s-.447-1-1-1h-2c-.553 0-1 .448-1 1S14.447 28 15 28zM15 23h2c.553 0 1-.448 1-1s-.447-1-1-1h-2c-.553 0-1 .448-1 1S14.447 23 15 23zM15 18h2c.553 0 1-.448 1-1s-.447-1-1-1h-2c-.553 0-1 .448-1 1S14.447 18 15 18zM15 13h2c.553 0 1-.448 1-1s-.447-1-1-1h-2c-.553 0-1 .448-1 1S14.447 13 15 13zM15 8h2c.553 0 1-.448 1-1s-.447-1-1-1h-2c-.553 0-1 .448-1 1S14.447 8 15 8zM15 33h2c.553 0 1-.448 1-1s-.447-1-1-1h-2c-.553 0-1 .448-1 1S14.447 33 15 33zM15 48h2c.553 0 1-.448 1-1s-.447-1-1-1h-2c-.553 0-1 .448-1 1S14.447 48 15 48zM15 43h2c.553 0 1-.448 1-1s-.447-1-1-1h-2c-.553 0-1 .448-1 1S14.447 43 15 43zM15 38h2c.553 0 1-.448 1-1s-.447-1-1-1h-2c-.553 0-1 .448-1 1S14.447 38 15 38zM15 53h2c.553 0 1-.448 1-1s-.447-1-1-1h-2c-.553 0-1 .448-1 1S14.447 53 15 53zM15 58h2c.553 0 1-.448 1-1s-.447-1-1-1h-2c-.553 0-1 .448-1 1S14.447 58 15 58z"/></svg>