<svg xmlns="http://www.w3.org/2000/svg"  viewBox="0 0 64 64" width="64px" height="64px"><path fill="#c2cde7" d="M61,29.56v4.88c0,0.92-0.62,1.72-1.51,1.94l-3.53,0.88c-0.36,0.09-0.63,0.37-0.72,0.73 c-0.57,2.21-1.44,4.29-2.58,6.21c-0.18,0.32-0.19,0.71,0,1.02l1.87,3.12c0.47,0.79,0.35,1.79-0.3,2.44l-3.45,3.45 c-0.65,0.65-1.65,0.77-2.44,0.3l-3.12-1.87c-0.31-0.19-0.7-0.18-1.02,0c-1.92,1.14-4,2.01-6.22,2.58c-0.35,0.09-0.63,0.36-0.72,0.72 l-0.88,3.53C36.16,60.38,35.36,61,34.44,61h-4.88c-0.92,0-1.72-0.62-1.94-1.51l-0.88-3.53c-0.09-0.36-0.37-0.63-0.72-0.72 c-0.07-0.02-0.13-0.03-0.2-0.06c-2.15-0.56-4.16-1.41-6.02-2.52c-0.32-0.18-0.71-0.19-1.02,0l-3.12,1.87 c-0.79,0.47-1.79,0.35-2.44-0.3l-2.72-2.72l-0.73-0.73c-0.65-0.65-0.77-1.65-0.3-2.44l1.87-3.12c0.12-0.2,0.16-0.44,0.11-0.67 c-0.01-0.12-0.05-0.24-0.11-0.35c-0.45-0.75-0.85-1.53-1.21-2.33c-0.54-1.18-0.98-2.4-1.32-3.68c-0.01-0.07-0.03-0.13-0.05-0.2 c-0.09-0.36-0.36-0.64-0.72-0.73l-3.53-0.88C3.62,36.16,3,35.36,3,34.44v-4.88c0-0.92,0.62-1.72,1.51-1.94l3.53-0.88 c0.36-0.09,0.63-0.37,0.72-0.73c0.57-2.21,1.44-4.29,2.58-6.21c0.18-0.32,0.19-0.71,0-1.02l-1.87-3.12 c-0.47-0.79-0.35-1.79,0.3-2.44l3.45-3.45c0.65-0.65,1.65-0.77,2.44-0.3l3.12,1.87c0.31,0.19,0.7,0.18,1.02,0 c1.92-1.14,4-2.01,6.21-2.58c0.36-0.09,0.64-0.36,0.73-0.72l0.88-3.53C27.84,3.62,28.64,3,29.56,3h4.88c0.92,0,1.72,0.62,1.94,1.51 l0.88,3.53c0.09,0.36,0.37,0.63,0.73,0.72c0.07,0.02,0.13,0.04,0.2,0.05c1.28,0.34,2.51,0.79,3.69,1.32 c0.8,0.36,1.57,0.77,2.32,1.21c0.11,0.06,0.23,0.1,0.35,0.11c0.23,0.05,0.47,0.01,0.67-0.11l3.12-1.87c0.79-0.47,1.79-0.35,2.44,0.3 l0.73,0.73l2.72,2.72c0.65,0.65,0.77,1.65,0.3,2.44l-1.87,3.12c-0.19,0.31-0.18,0.7,0,1.02c1.11,1.86,1.96,3.87,2.53,6.01 c0.01,0.07,0.03,0.13,0.05,0.2c0.09,0.36,0.36,0.64,0.72,0.73l3.53,0.88C60.38,27.84,61,28.64,61,29.56z"/><path fill="#d3dded" d="M55.19 25.81L25.82 55.18c-2.15-.56-4.16-1.41-6.02-2.52-.32-.18-.71-.19-1.02 0l-3.12 1.87c-.79.47-1.79.35-2.44-.3l-.72-.72L53.51 12.5l.72.72c.65.65.77 1.65.3 2.44l-1.87 3.12c-.19.31-.18.7 0 1.02C53.77 21.66 54.62 23.67 55.19 25.81zM51.51 10.5L10.5 51.51l-.73-.73c-.65-.65-.77-1.65-.3-2.44l1.87-3.12c.12-.2.16-.44.11-.67l33.1-33.1c.23.05.47.01.67-.11l3.12-1.87c.79-.47 1.79-.35 2.44.3L51.51 10.5zM41.88 10.13L10.13 41.87c-.54-1.18-.98-2.4-1.32-3.68L38.19 8.81C39.47 9.15 40.7 9.6 41.88 10.13z"/><path fill="#fff8f8" d="M19.809 40L20.664 41.564 22.228 42.419 20.664 43.274 19.809 44.838 18.954 43.274 17.39 42.419 18.954 41.564zM44 20.646L44.583 21.711 45.648 22.294 44.583 22.877 44 23.942 43.417 22.877 42.352 22.294 43.417 21.711zM48 32.646L48.583 33.711 49.648 34.294 48.583 34.877 48 35.942 47.417 34.877 46.352 34.294 47.417 33.711z"/><path fill="#72caaf" d="M35 35L35 19 29 19 29 35 25 31 21 35 32 46 43 35 39 31z"/><path fill="#97e0bb" d="M21.772,35.151L21.772,35.151c1.172-1.172,3.071-1.172,4.243,0L32,41.136l5.985-5.985 c1.172-1.172,3.071-1.172,4.243,0l0,0L32,45.379L21.772,35.151z"/><path fill="#8d6c9f" d="M59.728,26.651l-3.519-0.884c-0.584-2.276-1.487-4.455-2.69-6.475l1.87-3.116 c0.709-1.182,0.524-2.689-0.451-3.665l-3.449-3.449c-0.976-0.976-2.484-1.16-3.665-0.451l-3.113,1.863 c-2.022-1.196-4.202-2.099-6.48-2.677l-0.881-3.525C37.015,2.935,35.818,2,34.438,2h-4.877c-1.379,0-2.576,0.935-2.911,2.272 l-0.884,3.519c-2.276,0.584-4.455,1.487-6.475,2.69l-3.116-1.87c-1.182-0.708-2.689-0.524-3.665,0.451l-3.449,3.449 c-0.976,0.975-1.161,2.482-0.451,3.665l1.863,3.113c-1.196,2.022-2.099,4.202-2.677,6.48l-3.525,0.881 C2.934,26.985,2,28.183,2,29.562v4.877c0,1.379,0.935,2.576,2.272,2.911l3.519,0.884c0.584,2.276,1.487,4.455,2.69,6.475 l-1.87,3.116c-0.709,1.182-0.524,2.689,0.451,3.665l3.449,3.449c0.975,0.976,2.482,1.16,3.665,0.451l3.113-1.863 c2.022,1.196,4.202,2.099,6.481,2.677l0.881,3.525C26.985,61.065,28.182,62,29.562,62h4.877c1.379,0,2.576-0.935,2.911-2.272 l0.884-3.519c2.276-0.584,4.455-1.487,6.475-2.69l3.116,1.87c1.181,0.709,2.689,0.524,3.665-0.451l3.449-3.449 c0.976-0.975,1.161-2.482,0.451-3.665l-1.863-3.113c1.196-2.022,2.099-4.202,2.677-6.48l3.525-0.881 C61.065,37.015,62,35.818,62,34.438v-4.877C62,28.183,61.066,26.985,59.728,26.651z M60,34.438c0,0.46-0.312,0.859-0.758,0.97 l-3.524,0.881c-0.708,0.177-1.263,0.73-1.447,1.446c-0.537,2.092-1.367,4.097-2.467,5.956c-0.376,0.635-0.376,1.418,0,2.046 l1.87,3.116c0.236,0.394,0.175,0.896-0.15,1.221l-3.449,3.449c-0.326,0.324-0.828,0.386-1.221,0.15l-3.117-1.87 c-0.626-0.375-1.41-0.375-2.044,0c-1.859,1.1-3.864,1.93-5.956,2.467c-0.715,0.184-1.269,0.737-1.447,1.446l-0.881,3.525 C35.297,59.688,34.898,60,34.438,60h-4.877c-0.46,0-0.859-0.312-0.97-0.758l-0.881-3.525c-0.178-0.708-0.732-1.262-1.447-1.445 c-2.092-0.537-4.097-1.367-5.956-2.467c-0.317-0.188-0.672-0.282-1.026-0.282c-0.354,0-0.706,0.094-1.02,0.282l-3.116,1.87 c-0.395,0.236-0.896,0.174-1.221-0.15l-3.449-3.449c-0.325-0.325-0.387-0.827-0.15-1.221l1.87-3.117 c0.375-0.626,0.375-1.41,0-2.044c-1.1-1.859-1.93-3.864-2.467-5.957c-0.184-0.715-0.738-1.269-1.446-1.446l-3.525-0.881 C4.312,35.297,4,34.898,4,34.438v-4.877c0-0.46,0.312-0.859,0.757-0.97l3.524-0.881c0.708-0.177,1.263-0.73,1.447-1.446 c0.537-2.092,1.367-4.097,2.467-5.956c0.376-0.635,0.376-1.418,0-2.046l-1.87-3.116c-0.236-0.394-0.175-0.896,0.15-1.221 l3.449-3.449c0.325-0.324,0.828-0.389,1.221-0.15l3.117,1.87c0.627,0.376,1.411,0.375,2.044,0c1.859-1.1,3.864-1.93,5.957-2.467 c0.715-0.184,1.269-0.738,1.446-1.446l0.881-3.525C28.703,4.312,29.102,4,29.562,4h4.877c0.46,0,0.859,0.312,0.97,0.758 l0.881,3.524c0.177,0.708,0.73,1.263,1.446,1.447c2.092,0.537,4.097,1.367,5.956,2.467c0.634,0.376,1.418,0.376,2.046,0l3.116-1.87 c0.394-0.238,0.896-0.174,1.221,0.15l3.449,3.449c0.325,0.325,0.387,0.827,0.15,1.221l-1.87,3.117c-0.375,0.626-0.375,1.41,0,2.044 c1.1,1.859,1.93,3.864,2.467,5.957c0.184,0.715,0.738,1.269,1.446,1.446l3.525,0.881c0.446,0.111,0.757,0.51,0.757,0.97V34.438z"/><path fill="#8d6c9f" d="M32 49c-.552 0-1 .448-1 1v2c0 .552.448 1 1 1s1-.448 1-1v-2C33 49.448 32.552 49 32 49zM32 15c.552 0 1-.448 1-1v-2c0-.552-.448-1-1-1s-1 .448-1 1v2C31 14.552 31.448 15 32 15zM37.625 49.128c-.143-.534-.691-.852-1.225-.707-.534.143-.85.691-.707 1.225l.518 1.932c.12.447.523.742.965.742.085 0 .173-.011.259-.035.534-.143.85-.691.707-1.225L37.625 49.128zM26.375 14.872c.12.447.523.742.965.742.085 0 .173-.011.259-.035.534-.143.85-.691.707-1.225l-.518-1.932c-.143-.533-.692-.853-1.225-.707-.534.143-.85.691-.707 1.225L26.375 14.872zM23.5 46.722c-.479-.277-1.091-.112-1.366.366l-1 1.732c-.276.478-.112 1.09.366 1.366.157.091.33.134.499.134.346 0 .682-.179.867-.5l1-1.732C24.142 47.61 23.979 46.999 23.5 46.722zM40.5 17.278c.157.091.33.134.499.134.346 0 .682-.179.867-.5l1-1.732c.276-.478.112-1.09-.366-1.366-.478-.277-1.09-.112-1.366.366l-1 1.732C39.858 16.39 40.021 17.001 40.5 17.278zM41.866 47.088c-.277-.479-.89-.644-1.366-.366-.479.276-.642.888-.366 1.366l1 1.732c.186.321.521.5.867.5.169 0 .342-.043.499-.134.479-.276.642-.888.366-1.366L41.866 47.088zM22.134 16.912c.186.321.521.5.867.5.169 0 .342-.043.499-.134.479-.276.642-.888.366-1.366l-1-1.732c-.276-.479-.889-.643-1.366-.366-.479.276-.642.888-.366 1.366L22.134 16.912zM27.6 48.421c-.535-.145-1.082.174-1.225.707l-.518 1.932c-.143.533.173 1.082.707 1.225.087.023.174.035.259.035.441 0 .846-.295.965-.742l.518-1.932C28.45 49.112 28.134 48.564 27.6 48.421zM36.4 15.579c.087.023.174.035.259.035.441 0 .846-.295.965-.742l.518-1.932c.143-.533-.173-1.082-.707-1.225-.534-.145-1.082.174-1.225.707l-.518 1.932C35.55 14.888 35.866 15.436 36.4 15.579zM39.707 30.293c-.391-.391-1.023-.391-1.414 0L36 32.586V19c0-.552-.448-1-1-1h-6c-.552 0-1 .448-1 1v13.586l-2.293-2.293c-.391-.391-1.023-.391-1.414 0l-4 4c-.391.391-.391 1.023 0 1.414l11 11C31.488 46.902 31.744 47 32 47s.512-.098.707-.293l11-11c.391-.391.391-1.023 0-1.414L39.707 30.293zM32 44.586L22.414 35 25 32.414l3.293 3.293c.286.287.714.371 1.09.217C29.756 35.769 30 35.404 30 35V20h4v15c0 .404.244.769.617.924.373.154.803.07 1.09-.217L39 32.414 41.586 35 32 44.586z"/><path fill="#fff8f8" d="M21.809 20L23.018 22.21 25.228 23.419 23.018 24.627 21.809 26.838 20.6 24.627 18.39 23.419 20.6 22.21z"/></svg>