<svg xmlns="http://www.w3.org/2000/svg"  viewBox="0 0 64 64" width="64px" height="64px"><path fill="#9bc9f5" d="M3,49.13V15.18C3,13.976,4.29,13,5.881,13l0,0H40l0,0v38l0,0H5.471C4.106,51,3,50.163,3,49.13z"/><path fill="#90bce8" d="M3,48.969V40h37v11H5.031C3.909,51,3,50.091,3,48.969z"/><path fill="#b1dbfd" d="M3,24v-9.4C3,13.716,3.947,13,5.114,13H40l0,0v11l0,0H3L3,24z"/><path fill="#8d6c9f" d="M9.995 17c0-.552-.448-1-1-1h-2c-.552 0-1 .448-1 1s.448 1 1 1h2C9.547 18 9.995 17.552 9.995 17zM9.995 22c0-.552-.448-1-1-1h-2c-.552 0-1 .448-1 1s.448 1 1 1h2C9.547 23 9.995 22.552 9.995 22zM9.995 27c0-.552-.448-1-1-1h-2c-.552 0-1 .448-1 1s.448 1 1 1h2C9.547 28 9.995 27.552 9.995 27zM9.995 32c0-.552-.448-1-1-1h-2c-.552 0-1 .448-1 1s.448 1 1 1h2C9.547 33 9.995 32.552 9.995 32zM9.995 37c0-.552-.448-1-1-1h-2c-.552 0-1 .448-1 1s.448 1 1 1h2C9.547 38 9.995 37.552 9.995 37zM9.995 42c0-.552-.448-1-1-1h-2c-.552 0-1 .448-1 1s.448 1 1 1h2C9.547 43 9.995 42.552 9.995 42zM9.995 47c0-.552-.448-1-1-1h-2c-.552 0-1 .448-1 1s.448 1 1 1h2C9.547 48 9.995 47.552 9.995 47z"/><path fill="#8d6c9f" d="M58,52H6c-2.206,0-4-1.794-4-4V16c0-2.206,1.794-4,4-4h52c2.206,0,4,1.794,4,4v32 C62,50.206,60.206,52,58,52z M6,14c-1.103,0-2,0.897-2,2v32c0,1.103,0.897,2,2,2h52c1.103,0,2-0.897,2-2V16c0-1.103-0.897-2-2-2H6z"/><path fill="#8d6c9f" d="M40 40c-.553 0-1-.448-1-1V14c0-.552.447-1 1-1s1 .448 1 1v25C41 39.552 40.553 40 40 40zM40 48c-.553 0-1-.448-1-1v-4c0-.552.447-1 1-1s1 .448 1 1v4C41 47.552 40.553 48 40 48z"/></svg>