<svg xmlns="http://www.w3.org/2000/svg"  viewBox="0 0 64 64" width="64px" height="64px"><path fill="#acb7d0" d="M21,1h22c3.314,0,6,2.686,6,6v50c0,3.314-2.686,6-6,6H21c-3.314,0-6-2.686-6-6V7 C15,3.686,17.686,1,21,1z"/><path fill="#acb7d0" d="M15,53h34l0,0v4c0,3.314-2.686,6-6,6H21c-3.314,0-6-2.686-6-6V53L15,53z"/><path fill="#c5e4fa" d="M15 9H49V53H15z"/><path fill="#e3f2ff" d="M31 53L49.38 34.63 49 20 16 53zM15 50L49 16 49 10 15 44zM15 40L46 9 41 9 15 35z"/><path fill="#fff8f8" d="M19.5 36L20.378 37.622 22 38.5 20.378 39.388 19.5 41 18.612 39.388 17 38.5 18.612 37.622zM43.5 46L44.027 46.973 45 47.5 44.027 48.036 43.5 49 42.973 48.036 42 47.5 42.973 46.973z"/><path fill="#8d6c9f" d="M32 56A2 2 0 1 0 32 60 2 2 0 1 0 32 56zM37 4h-4c-.552 0-1 .448-1 1s.448 1 1 1h4c.552 0 1-.448 1-1S37.552 4 37 4zM29 4h-2c-.552 0-1 .448-1 1s.448 1 1 1h2c.552 0 1-.448 1-1S29.552 4 29 4z"/><path fill="#8d6c9f" d="M43,0H21c-3.866,0-7,3.134-7,7v50c0,3.866,3.134,7,7,7h22c3.866,0,7-3.134,7-7V46.33V14V7 C50,3.134,46.866,0,43,0z M48,57c0,2.761-2.239,5-5,5H21c-2.761,0-5-2.239-5-5v-3h32V57z M48,52H16V10h32V52z M48,8H16V7 c0-2.761,2.239-5,5-5h22c2.761,0,5,2.239,5,5V8z"/><path fill="#7bbeeb" d="M21 16H43V38H21z"/><path fill="#8d6c9f" d="M43 39H21c-.553 0-1-.447-1-1V16c0-.553.447-1 1-1h22c.553 0 1 .447 1 1v22C44 38.553 43.553 39 43 39zM22 37h20V17H22V37zM43 44H21c-.553 0-1-.447-1-1s.447-1 1-1h22c.553 0 1 .447 1 1S43.553 44 43 44zM37 49H21c-.553 0-1-.447-1-1s.447-1 1-1h16c.553 0 1 .447 1 1S37.553 49 37 49z"/><path fill="#efd8be" d="M25 13A6 6 0 1 0 25 25A6 6 0 1 0 25 13Z"/><path fill="#72caaf" d="M21 34L26 31 31 33 37 25 43 33 43 38 21 38z"/><path fill="#8d6c9f" d="M25,20c-1.103,0-2-0.897-2-2s0.897-2,2-2s2,0.897,2,2S26.103,20,25,20z M25,17.998V18V17.998z"/><path fill="#8d6c9f" d="M27,22h-4c-0.369,0-0.708-0.203-0.882-0.528s-0.154-0.72,0.05-1.026C22.526,19.908,23.525,19,25,19 s2.474,0.908,2.832,1.445c0.204,0.307,0.224,0.701,0.05,1.026S27.369,22,27,22z"/><path fill="#8d6c9f" d="M25 26c-3.859 0-7-3.141-7-7s3.141-7 7-7 7 3.141 7 7S28.859 26 25 26zM25 14c-2.757 0-5 2.243-5 5s2.243 5 5 5 5-2.243 5-5S27.757 14 25 14zM43 39H21c-.553 0-1-.447-1-1v-4c0-.352.185-.677.485-.857l5-3c.268-.161.597-.188.886-.071l4.289 1.716L36.2 24.4c.377-.504 1.223-.504 1.6 0l6 8c.13.173.2.383.2.6v5C44 38.553 43.553 39 43 39zM22 37h20v-3.667l-5-6.666L31.8 33.6c-.271.362-.755.495-1.171.329l-4.54-1.816L22 34.566V37z"/></svg>