<svg xmlns="http://www.w3.org/2000/svg"  viewBox="0 0 64 64" width="64px" height="64px"><path fill="#85cbf8" d="M7,7h50c1.105,0,2,0.895,2,2v46c0,1.105-0.895,2-2,2H7c-1.105,0-2-0.895-2-2V9C5,7.895,5.895,7,7,7z"/><path fill="#6fc6f0" d="M9,52h46c2.209,0,4,1.791,4,4l0,0c0,0.552-0.448,1-1,1H6c-0.552,0-1-0.448-1-1l0,0	C5,53.791,6.791,52,9,52z"/><path fill="#ace3ff" d="M55,12H9c-2.209,0-4-1.791-4-4l0,0c0-0.552,0.448-1,1-1h52c0.552,0,1,0.448,1,1l0,0	C59,10.209,57.209,12,55,12z"/><path fill="#8d6c9f" d="M57,6H7C5.343,6,4,7.343,4,9v46c0,1.657,1.343,3,3,3l0,0h50c1.657,0,3-1.343,3-3l0,0V9	C60,7.343,58.657,6,57,6z M58,55c0,0.552-0.448,1-1,1H7c-0.552,0-1-0.448-1-1V9c0-0.552,0.448-1,1-1h50c0.552,0,1,0.448,1,1V55z"/><path fill="#8d6c9f" d="M14,10c-0.552,0-1,0.448-1,1v2c0,0.552,0.448,1,1,1s1-0.448,1-1v-2C15,10.448,14.552,10,14,10z M9,10	c-0.552,0-1,0.448-1,1v2c0,0.552,0.448,1,1,1s1-0.448,1-1v-2C10,10.448,9.552,10,9,10z M29,10c-0.552,0-1,0.448-1,1v2	c0,0.552,0.448,1,1,1s1-0.448,1-1v-2C30,10.448,29.552,10,29,10z M34,10c-0.552,0-1,0.448-1,1v2c0,0.552,0.448,1,1,1s1-0.448,1-1v-2	C35,10.448,34.552,10,34,10z M39,10c-0.552,0-1,0.448-1,1v2c0,0.552,0.448,1,1,1s1-0.448,1-1v-2C40,10.448,39.552,10,39,10z M44,10	c-0.552,0-1,0.448-1,1v2c0,0.552,0.448,1,1,1s1-0.448,1-1v-2C45,10.448,44.552,10,44,10z M49,10c-0.552,0-1,0.448-1,1v2	c0,0.552,0.448,1,1,1s1-0.448,1-1v-2C50,10.448,49.552,10,49,10z M54,10c-0.552,0-1,0.448-1,1v2c0,0.552,0.448,1,1,1s1-0.448,1-1v-2	C55,10.448,54.552,10,54,10z M19,10c-0.552,0-1,0.448-1,1v2c0,0.552,0.448,1,1,1s1-0.448,1-1v-2C20,10.448,19.552,10,19,10z M24,10	c-0.552,0-1,0.448-1,1v2c0,0.552,0.448,1,1,1s1-0.448,1-1v-2C25,10.448,24.552,10,24,10z"/><path fill="#fff" d="M37,27h6c0.552,0,1-0.448,1-1s-0.448-1-1-1h-6c-0.552,0-1,0.448-1,1S36.448,27,37,27z M15,27h18	c0.552,0,1-0.448,1-1s-0.448-1-1-1H15c-0.552,0-1,0.448-1,1S14.448,27,15,27z M15,33h30c0.552,0,1-0.448,1-1s-0.448-1-1-1H15	c-0.552,0-1,0.448-1,1S14.448,33,15,33z M50,38c0-0.552-0.448-1-1-1H15c-0.552,0-1,0.448-1,1s0.448,1,1,1h34	C49.552,39,50,38.552,50,38z M15,45h30c0.552,0,1-0.448,1-1s-0.448-1-1-1H15c-0.552,0-1,0.448-1,1S14.448,45,15,45z"/></svg>