<svg xmlns="http://www.w3.org/2000/svg"  viewBox="0 0 64 64" width="64px" height="64px"><path fill="#85cbf8" d="M61,11v42c0,1.105-0.895,2-2,2H5c-1.105,0-2-0.895-2-2V11c0-1.105,0.895-2,2-2h54 C60.105,9,61,9.895,61,11z"/><path fill="#9fddff" d="M36.18 54.5L61 29.68V11c0-1.105-.896-2-2-2h-.57l-45.5 45.5H36.18zM3 45.4L39.4 9 37.12 9 3 43.12zM43.684 9L2 50.684V53c0 .935.645 1.714 1.512 1.933L7.4 55l46-46H43.684z"/><path fill="#faefde" d="M8 39L1 32 8 25 11 28 7 32 11 36zM56 39L63 32 56 25 53 28 57 32 53 36zM25 14L32 7 39 14 36 17 32 13 28 17z"/><path fill="#fff8f8" d="M19.542 21.667L20.78 23.931 23.044 25.169 20.78 26.407 19.542 28.671 18.303 26.407 16.04 25.169 18.303 23.931zM50.458 20.833L51.313 22.397 52.877 23.252 51.313 24.107 50.458 25.671 49.603 24.107 48.04 23.252 49.603 22.397zM33.688 38.375L34.27 39.44 35.335 40.023 34.27 40.606 33.688 41.671 33.105 40.606 32.04 40.023 33.105 39.44z"/><path fill="#faefde" d="M25 50L32 57 39 50 36 47 32 51 28 47z"/><g><path fill="#8d6c9f" d="M9 48c-.553 0-1 .448-1 1v2c0 .552.447 1 1 1s1-.448 1-1v-2C10 48.448 9.553 48 9 48zM14 48c-.553 0-1 .448-1 1v2c0 .552.447 1 1 1s1-.448 1-1v-2C15 48.448 14.553 48 14 48zM19 48c-.553 0-1 .448-1 1v2c0 .552.447 1 1 1s1-.448 1-1v-2C20 48.448 19.553 48 19 48zM45 48c-.553 0-1 .448-1 1v2c0 .552.447 1 1 1s1-.448 1-1v-2C46 48.448 45.553 48 45 48zM50 48c-.553 0-1 .448-1 1v2c0 .552.447 1 1 1s1-.448 1-1v-2C51 48.448 50.553 48 50 48zM55 48c-.553 0-1 .448-1 1v2c0 .552.447 1 1 1s1-.448 1-1v-2C56 48.448 55.553 48 55 48z"/><path fill="#8d6c9f" d="M63.71,31.29L62,29.58V11c0-1.65-1.35-3-3-3H34.42l-1.71-1.71c-0.39-0.39-1.03-0.39-1.42,0L29.58,8 H5c-1.65,0-3,1.35-3,3v18.58l-1.71,1.71c-0.39,0.39-0.39,1.03,0,1.42L2,34.42V53c0,1.65,1.35,3,3,3h24.58l1.71,1.71 C31.49,57.9,31.74,58,32,58s0.51-0.1,0.71-0.29L34.42,56H59c1.65,0,3-1.35,3-3V34.42l1.71-1.71C64.1,32.32,64.1,31.68,63.71,31.29 z M57.71,31.29L54.41,28L56,26.41l4,4v0L61.59,32L60,33.59l-4,4L54.41,36l3.3-3.29C58.1,32.32,58.1,31.68,57.71,31.29z M32,8.41 L37.59,14L36,15.59l-3.29-3.3C32.51,12.1,32.26,12,32,12s-0.51,0.1-0.71,0.29L28,15.59L26.41,14L32,8.41z M4,30.41L4,30.41l4-4 L9.59,28l-3.3,3.29c-0.39,0.39-0.39,1.03,0,1.42L9.59,36L8,37.59l-4-4L2.41,32L4,30.41z M30.41,54l-4-4L28,48.41l3.29,3.3 c0.39,0.39,1.03,0.39,1.42,0l3.29-3.3L37.59,50l-4,4L32,55.59L30.41,54z M60,48c-0.553,0-1,0.448-1,1v2c0,0.552,0.447,1,1,1v1 c0,0.55-0.45,1-1,1H36.42l3.29-3.29c0.39-0.39,0.39-1.03,0-1.42l-3-3c-0.39-0.39-1.03-0.39-1.42,0L32,49.59l-3.29-3.3 c-0.39-0.39-1.03-0.39-1.42,0l-3,3c-0.39,0.39-0.39,1.03,0,1.42L27.58,54H5c-0.55,0-1-0.45-1-1v-1c0.553,0,1-0.448,1-1v-2 c0-0.552-0.447-1-1-1V36.42l3.29,3.29C7.49,39.9,7.74,40,8,40s0.51-0.1,0.71-0.29l3-3c0.39-0.39,0.39-1.03,0-1.42L8.41,32 l3.3-3.29c0.39-0.39,0.39-1.03,0-1.42l-3-3c-0.39-0.39-1.03-0.39-1.42,0L4,27.58V11c0-0.55,0.45-1,1-1h22.58l-3.29,3.29 c-0.39,0.39-0.39,1.03,0,1.42l3,3c0.39,0.39,1.03,0.39,1.42,0l3.29-3.3l3.29,3.3C35.49,17.9,35.74,18,36,18s0.51-0.1,0.71-0.29 l3-3c0.39-0.39,0.39-1.03,0-1.42L36.42,10H59c0.55,0,1,0.45,1,1v16.58l-3.29-3.29c-0.39-0.39-1.03-0.39-1.42,0l-3,3 c-0.39,0.39-0.39,1.03,0,1.42l3.3,3.29l-3.3,3.29c-0.39,0.39-0.39,1.03,0,1.42l3,3C55.49,39.9,55.74,40,56,40s0.51-0.1,0.71-0.29 L60,36.42V48z"/></g></svg>