<svg xmlns="http://www.w3.org/2000/svg"  viewBox="0 0 64 64" width="64px" height="64px"><path fill="#72caaf" d="M58 23.213L54 27.213 54 47 13.929 47 20.121 40.808 17.293 37.979 5.979 49.293 7.394 50.707 8.808 52.121 17.293 60.606 20.121 57.778 13.343 51 58 51z"/><path fill="#5dbc9d" d="M58,51c0-1.105-0.895-2-2-2H6.272l-0.293,0.293l1.414,1.414l1.414,1.414l8.485,8.485l2.828-2.828 L13.343,51L58,51L58,51z"/><path fill="#72caaf" d="M56.606 13.293L55.192 11.879 46.707 3.394 43.879 6.222 50.657 13 6 13 6 40.787 10 36.787 10 17 50.071 17 43.879 23.192 46.707 26.021 58.021 14.707z"/><path fill="#97e0bb" d="M55.192,11.879l-8.485-8.485l-2.828,2.828L50.657,13H6v0c0,1.105,0.895,2,2,2h49.728l0.293-0.293 l-1.414-1.414L55.192,11.879z"/><path fill="#8d6c9f" d="M58,23.213V51H13.343l6.778,6.778l-2.828,2.828l-8.485-8.485l-1.414-1.414l-1.414-1.414 l11.313-11.313l2.828,2.828L13.929,47H54V27.213L58,23.213 M58,21.213c-0.521,0-1.032,0.203-1.415,0.586l-4,4 C52.211,26.174,52,26.682,52,27.213V45H18.757l2.778-2.778c0.781-0.781,0.781-2.047,0-2.828l-2.828-2.828 c-0.391-0.391-0.902-0.586-1.414-0.586s-1.024,0.195-1.414,0.586L4.565,47.879c-0.781,0.781-0.781,2.047,0,2.828l1.414,1.414 l1.414,1.414l8.485,8.485c0.391,0.391,0.902,0.586,1.414,0.586s1.024-0.195,1.414-0.586l2.828-2.828 c0.781-0.781,0.781-2.047,0-2.828L18.171,53H58c1.105,0,2-0.895,2-2V23.213c0-0.809-0.487-1.538-1.235-1.848 C58.518,21.263,58.258,21.213,58,21.213L58,21.213z"/><path fill="#8d6c9f" d="M46.707,3.394l8.485,8.485l1.414,1.414l1.414,1.414L46.707,26.021l-2.828-2.828L50.071,17H10 v19.787l-4,4V13h44.657l-6.778-6.778L46.707,3.394 M46.707,1.394c-0.512,0-1.024,0.195-1.414,0.586l-2.828,2.828 c-0.781,0.781-0.781,2.047,0,2.828L45.829,11H6c-1.105,0-2,0.895-2,2v27.787c0,0.809,0.487,1.538,1.235,1.848 C5.482,42.737,5.742,42.787,6,42.787c0.521,0,1.032-0.203,1.415-0.586l4-4C11.789,37.826,12,37.318,12,36.787V19h33.243 l-2.778,2.778c-0.781,0.781-0.781,2.047,0,2.828l2.828,2.828c0.391,0.391,0.902,0.586,1.414,0.586s1.024-0.195,1.414-0.586 l11.313-11.313c0.781-0.781,0.781-2.047,0-2.828l-1.414-1.414l-1.414-1.414l-8.485-8.485C47.731,1.589,47.219,1.394,46.707,1.394 L46.707,1.394z"/><path fill="#8d6c9f" d="M37 26c-.552 0-1-.448-1-1v-2c0-.552.448-1 1-1s1 .448 1 1v2C38 25.552 37.552 26 37 26zM32 26c-.552 0-1-.448-1-1v-2c0-.552.448-1 1-1s1 .448 1 1v2C33 25.552 32.552 26 32 26zM27 26c-.552 0-1-.448-1-1v-2c0-.552.448-1 1-1s1 .448 1 1v2C28 25.552 27.552 26 27 26z"/><g><path fill="#8d6c9f" d="M22,26c-0.552,0-1-0.448-1-1v-2c0-0.552,0.448-1,1-1s1,0.448,1,1v2C23,25.552,22.552,26,22,26z"/></g><g><path fill="#8d6c9f" d="M17,26c-0.552,0-1-0.448-1-1v-2c0-0.552,0.448-1,1-1s1,0.448,1,1v2C18,25.552,17.552,26,17,26z"/></g><g><path fill="#8d6c9f" d="M41,42H26c-0.552,0-1-0.448-1-1s0.448-1,1-1h15c0.552,0,1,0.448,1,1S41.552,42,41,42z"/></g><g><path fill="#8d6c9f" d="M49,42h-4c-0.552,0-1-0.448-1-1s0.448-1,1-1h4c0.552,0,1,0.448,1,1S49.552,42,49,42z"/></g></svg>