<svg xmlns="http://www.w3.org/2000/svg"  viewBox="0 0 64 64" width="64px" height="64px"><path fill="#acb7d0" d="M57,53H13c-1.105,0-2-0.895-2-2V7c0-1.105,0.895-2,2-2h35.985c0.53,0,1.039,0.211,1.414,0.586 l8.015,8.016C58.789,13.977,59,14.486,59,15.016V51C59,52.105,58.105,53,57,53z"/><path fill="#c2cde7" d="M51,59H7c-1.105,0-2-0.895-2-2V13c0-1.105,0.895-2,2-2h35.985c0.53,0,1.039,0.211,1.414,0.586 l8.015,8.016C52.789,19.977,53,20.486,53,21.016V57C53,58.105,52.105,59,51,59z"/><path fill="#def0ff" d="M43,59H15c-1.105,0-2-0.895-2-2V37c0-1.105,0.895-2,2-2h28c1.105,0,2,0.895,2,2v20 C45,58.105,44.105,59,43,59z"/><path fill="#bbdef9" d="M41,12v16c0,0.55-0.45,1-1,1H14c-0.55,0-1-0.45-1-1V12c0-0.55,0.45-1,1-1h26C40.55,11,41,11.45,41,12 z"/><path fill="#def0ff" d="M41 11L33.083 11 18.833 29 31.667 29 41 17.211zM20.42 11L13 20.37 13 18.89 19.25 11zM29.42 11L15.17 29H14c-.55 0-1-.45-1-1v-3.21L23.92 11H29.42z"/><path fill="#ffeb9b" d="M35,25L35,25c-1.105,0-2-0.895-2-2v-6c0-1.105,0.895-2,2-2h0c1.105,0,2,0.895,2,2v6 C37,24.105,36.105,25,35,25z"/><path fill="#bbdef9" d="M45,59H13v-4c0-1.657,1.343-3,3-3h26c1.657,0,3,1.343,3,3V59z"/><path fill="#8d6c9f" d="M58.536,12.121l-6.657-6.656C50.936,4.521,49.68,4,48.343,4H13c-1.654,0-3,1.346-3,3v3H7 c-1.654,0-3,1.346-3,3v44c0,1.654,1.346,3,3,3h5h34h5c1.654,0,3-1.346,3-3v-3h3c1.654,0,3-1.346,3-3V15.656 C60,14.32,59.48,13.065,58.536,12.121z M14,12h26v15c0,0.552-0.449,1-1,1H15c-0.551,0-1-0.448-1-1V12z M14,58V37 c0-0.552,0.449-1,1-1h28c0.551,0,1,0.448,1,1v21H14z M52,57c0,0.552-0.449,1-1,1h-5V37c0-1.654-1.346-3-3-3H15 c-1.654,0-3,1.346-3,3v21H7c-0.551,0-1-0.448-1-1V13c0-0.552,0.449-1,1-1h5v15c0,1.654,1.346,3,3,3h24c1.654,0,3-1.346,3-3V12 h0.343c0.802,0,1.555,0.312,2.121,0.879l6.657,6.656C51.68,20.094,52,20.866,52,21.656V57z M58,51c0,0.552-0.449,1-1,1h-3V21.656 c0-1.336-0.52-2.591-1.464-3.535l-6.657-6.656C44.936,10.521,43.68,10,42.343,10H42H12V7c0-0.552,0.449-1,1-1h35.343 c0.802,0,1.555,0.312,2.121,0.879l6.657,6.656C57.68,14.094,58,14.866,58,15.656V51z"/><path fill="#8d6c9f" d="M39 40h-4c-.552 0-1 .447-1 1s.448 1 1 1h4c.552 0 1-.447 1-1S39.552 40 39 40zM19 42h12c.552 0 1-.447 1-1s-.448-1-1-1H19c-.552 0-1 .447-1 1S18.448 42 19 42zM35 44H19c-.552 0-1 .447-1 1s.448 1 1 1h16c.552 0 1-.447 1-1S35.552 44 35 44zM19 50c-.552 0-1 .447-1 1v2c0 .553.448 1 1 1s1-.447 1-1v-2C20 50.447 19.552 50 19 50zM24 50c-.552 0-1 .447-1 1v2c0 .553.448 1 1 1s1-.447 1-1v-2C25 50.447 24.552 50 24 50zM29 50c-.552 0-1 .447-1 1v2c0 .553.448 1 1 1s1-.447 1-1v-2C30 50.447 29.552 50 29 50zM34 50c-.552 0-1 .447-1 1v2c0 .553.448 1 1 1s1-.447 1-1v-2C35 50.447 34.552 50 34 50zM39 50c-.552 0-1 .447-1 1v2c0 .553.448 1 1 1s1-.447 1-1v-2C40 50.447 39.552 50 39 50zM35 26c1.654 0 3-1.346 3-3v-6c0-1.654-1.346-3-3-3s-3 1.346-3 3v6C32 24.654 33.346 26 35 26zM34 17c0-.552.449-1 1-1s1 .448 1 1v6c0 .552-.449 1-1 1s-1-.448-1-1V17z"/></svg>