<svg xmlns="http://www.w3.org/2000/svg"  viewBox="0 0 64 64" width="64px" height="64px"><path fill="#c2cde7" d="M49,57H3a2,2,0,0,1-2-2V9A2,2,0,0,1,3,7H41a2,2,0,0,1,1.41.59l8,8A2,2,0,0,1,51,17V55A2,2,0,0,1,49,57Z"/><rect width="34" height="26" x="9" y="31" fill="#def0ff" rx="2" ry="2"/><rect width="30" height="18" x="9" y="7" fill="#bbdef9" rx="2" ry="2" transform="rotate(180 24 16)"/><path fill="#def0ff" d="M39 7L31.08 7 16.83 25 29.67 25 39 13.21 39 7zM9 18.89L18.42 7 17.25 7 9 17.42 9 18.89zM21.92 7L9 23.32 9 25 13.17 25 27.42 7 21.92 7z"/><rect width="4" height="10" x="31" y="11" fill="#ffeb9b" rx="2" ry="2"/><path fill="#bbdef9" d="M13,50H41a2,2,0,0,1,2,2v5a0,0,0,0,1,0,0H9a0,0,0,0,1,0,0V54A4,4,0,0,1,13,50Z"/><path fill="#f9e3ae" d="M36.45 27.55H50.59V47.41H36.45z" transform="rotate(45 43.526 37.479)"/><path fill="#f6d397" d="M40.88 29.5H50.07V48.53H40.88z" transform="rotate(45 45.478 39.018)"/><path fill="#ed7899" d="M52.22,20.88h8.1a3,3,0,0,1,3,3v4.77a0,0,0,0,1,0,0H49.22a0,0,0,0,1,0,0V23.88a3,3,0,0,1,3-3Z" transform="rotate(45 56.274 24.76)"/><path fill="#c2cde7" d="M44.91 26.87H59.05V31.17H44.91z" transform="rotate(45 51.976 29.03)"/><path fill="#faefde" d="M30 48.64L30.79 40 36.29 40.79 37.07 43.14 39.36 44.32 41 50.21 31.57 50.21 30 48.64z"/><path fill="#8d6c9f" d="M25 38h4a1 1 0 0 0 0-2H25a1 1 0 0 0 0 2zM15 38h6a1 1 0 0 0 0-2H15a1 1 0 0 0 0 2zM26 40H15a1 1 0 0 0 0 2H26a1 1 0 0 0 0-2zM14 48a1 1 0 0 0-1 1v2a1 1 0 0 0 2 0V49A1 1 0 0 0 14 48zM19 48a1 1 0 0 0-1 1v2a1 1 0 0 0 2 0V49A1 1 0 0 0 19 48zM24 48a1 1 0 0 0-1 1v2a1 1 0 0 0 2 0V49A1 1 0 0 0 24 48zM33 22a3 3 0 0 0 3-3V13a3 3 0 0 0-6 0v6A3 3 0 0 0 33 22zm-1-9a1 1 0 0 1 2 0v6a1 1 0 0 1-2 0z"/><path fill="#8d6c9f" d="M62.12,23.12l-4.24-4.24A5,5,0,0,0,52,18v-.37a5,5,0,0,0-1.46-3.54L43.88,7.46A5,5,0,0,0,40.34,6H3A3,3,0,0,0,0,9V55a3,3,0,0,0,3,3H49a3,3,0,0,0,3-3V40.34L59.29,33h0l2.83-2.83A5,5,0,0,0,62.12,23.12ZM55.52,34,47,25.49l1.65-1.66,8.48,8.48Zm-5.22,5.24h0l-8.84,8.87L41,43.72a1,1,0,0,0-1-.9H38.18V41.41L43.54,36a1,1,0,0,0-1.41-1.41l-5.32,5.32L33,39.55l12.6-12.64,8.48,8.48ZM10,56V33a1,1,0,0,1,1-1H37.72l-7.58,7.61a1,1,0,0,0-.29.59l-.74,6.32-.7,4.93a1,1,0,0,0,1,1.14h.14l4.92-.7,6.39-.68a1,1,0,0,0,.6-.29l.55-.55V56ZM37.18,44.82h1.93l.47,4.51-4.85.51-3.56-3.56.57-4.86,4.46.47v1.93A1,1,0,0,0,37.18,44.82ZM38,8V23a1,1,0,0,1-1,1H11a1,1,0,0,1-1-1V8ZM3,56a1,1,0,0,1-1-1V9A1,1,0,0,1,3,8H8V23a3,3,0,0,0,3,3H37a3,3,0,0,0,3-3V8h.34a3,3,0,0,1,2.12.88l6.66,6.66A3,3,0,0,1,50,17.66v2l-2,2h0l-3,3,0,0,0,0L39.71,30H11a3,3,0,0,0-3,3V56Zm47-1a1,1,0,0,1-1,1H44V48.36l6-6ZM60.71,28.78,58.59,30.9,50.1,22.41l.05-.05,2.07-2.07a3,3,0,0,1,4.24,0l4.24,4.24A3,3,0,0,1,60.71,28.78Z"/></svg>