<svg xmlns="http://www.w3.org/2000/svg"  viewBox="0 0 64 64" width="64px" height="64px"><path fill="#c2cde7" d="M55,57H9c-1.105,0-2-0.895-2-2V9c0-1.105,0.895-2,2-2h37.985c0.53,0,1.039,0.211,1.414,0.586 l8.015,8.016C56.789,15.977,57,16.486,57,17.016V55C57,56.105,56.105,57,55,57z"/><path fill="#faefde" d="M47,57H17c-1.105,0-2-0.895-2-2V33c0-1.105,0.895-2,2-2h30c1.105,0,2,0.895,2,2v22 C49,56.105,48.105,57,47,57z"/><path fill="#bbdef9" d="M17,7h26c1.105,0,2,0.895,2,2v14c0,1.105-0.895,2-2,2H17c-1.105,0-2-0.895-2-2V9 C15,7.895,15.895,7,17,7z"/><path fill="#def0ff" d="M45 7L37.083 7 22.833 25 35.667 25 45 13.211zM15 18.895L24.417 7 23.25 7 15 17.421zM27.917 7L15 23.316 15 25 19.167 25 33.417 7z"/><path fill="#ffeb9b" d="M39,21L39,21c-1.105,0-2-0.895-2-2v-6c0-1.105,0.895-2,2-2h0c1.105,0,2,0.895,2,2v6 C41,20.105,40.105,21,39,21z"/><path fill="#efd8be" d="M49,57H15v-3c0-2.209,1.791-4,4-4h26c2.209,0,4,1.791,4,4V57z"/><path fill="#72caaf" d="M51 39A12 12 0 1 0 51 63A12 12 0 1 0 51 39Z"/><path fill="#eb9697" d="M39 38h4c.552 0 1-.448 1-1s-.448-1-1-1h-4c-.552 0-1 .448-1 1S38.448 38 39 38zM21 38h14c.552 0 1-.448 1-1s-.448-1-1-1H21c-.552 0-1 .448-1 1S20.448 38 21 38zM40 41c0-.552-.448-1-1-1H21c-.552 0-1 .448-1 1s.448 1 1 1h18C39.552 42 40 41.552 40 41z"/><path fill="#8d6c9f" d="M19 48c-.552 0-1 .448-1 1v2c0 .552.448 1 1 1s1-.448 1-1v-2C20 48.448 19.552 48 19 48zM24 48c-.552 0-1 .448-1 1v2c0 .552.448 1 1 1s1-.448 1-1v-2C25 48.448 24.552 48 24 48zM29 48c-.552 0-1 .448-1 1v2c0 .552.448 1 1 1s1-.448 1-1v-2C30 48.448 29.552 48 29 48zM34 48c-.552 0-1 .448-1 1v2c0 .552.448 1 1 1s1-.448 1-1v-2C35 48.448 34.552 48 34 48zM39 22c1.654 0 3-1.346 3-3v-6c0-1.654-1.346-3-3-3s-3 1.346-3 3v6C36 20.654 37.346 22 39 22zM38 13c0-.551.449-1 1-1s1 .449 1 1v6c0 .551-.449 1-1 1s-1-.449-1-1V13z"/><path fill="#8d6c9f" d="M58,40.05V17.66c0-1.34-0.52-2.59-1.46-3.54l-6.66-6.66C48.93,6.52,47.68,6,46.34,6H46H14H9 C7.35,6,6,7.35,6,9v46c0,1.65,1.35,3,3,3h5h26.05c2.31,3.61,6.35,6,10.95,6c7.17,0,13-5.83,13-13C64,46.4,61.61,42.36,58,40.05z M16,8h28v15c0,0.551-0.449,1-1,1H17c-0.551,0-1-0.449-1-1V8z M14,33v23H9c-0.55,0-1-0.45-1-1V9c0-0.55,0.45-1,1-1h5v15 c0,1.654,1.346,3,3,3h26c1.654,0,3-1.346,3-3V8h0.34c0.79,0,1.57,0.32,2.12,0.88l6.66,6.66C55.69,16.1,56,16.86,56,17.66V39 c-1.54-0.64-3.23-1-5-1c-0.34,0-0.67,0.01-1,0.05V33c0-1.65-1.35-3-3-3H17C15.35,30,14,31.35,14,33z M16,56V33c0-0.55,0.45-1,1-1 h30c0.55,0,1,0.45,1,1v5.35C42.27,39.71,38,44.86,38,51c0,1.77,0.36,3.46,1,5H16z M51,62c-3.41,0-6.47-1.56-8.49-4 c-0.51-0.62-0.95-1.29-1.31-2c-0.77-1.5-1.2-3.2-1.2-5c0-5.03,3.39-9.28,8-10.58c0.65-0.19,1.32-0.31,2-0.37 c0.33-0.03,0.66-0.05,1-0.05c1.8,0,3.5,0.43,5,1.2c0.71,0.36,1.38,0.8,2,1.31c2.44,2.02,4,5.08,4,8.49C62,57.07,57.07,62,51,62z"/><path fill="#faefde" d="M56.293,46.293L49,53.586l-3.293-3.293c-0.391-0.391-1.023-0.391-1.414,0s-0.391,1.023,0,1.414l4,4 C48.488,55.902,48.744,56,49,56s0.512-0.098,0.707-0.293l8-8c0.391-0.391,0.391-1.023,0-1.414S56.684,45.902,56.293,46.293z"/></svg>