<svg xmlns="http://www.w3.org/2000/svg"  viewBox="0 0 64 64" width="64px" height="64px"><path fill="#a8b7d1" d="M40 57L24 57 27 47 37 47z"/><path fill="#9aafcc" d="M38.2 51L37 47 27 47 25.8 51z"/><path fill="#becde8" d="M59,47H5c-1.105,0-2-0.895-2-2V9c0-1.105,0.895-2,2-2h54c1.105,0,2,0.895,2,2v36 C61,46.105,60.105,47,59,47z"/><path fill="#b7e4fa" d="M3 11H61V39H3z"/><path fill="#cbd9ed" d="M58,43L58,43c0,0.552-0.448,1-1,1H7c-0.552,0-1-0.448-1-1l0,0c0-0.552,0.448-1,1-1h50 C57.552,42,58,42.448,58,43z"/><path fill="#fff7f7" d="M54.648 32.704L55.231 33.769 56.296 34.352 55.231 34.935 54.648 36 54.065 34.935 53 34.352 54.065 33.769z"/><path fill="#ffd394" d="M32 37A2 2 0 1 0 32 41A2 2 0 1 0 32 37Z"/><path fill="#ddf1ff" d="M22.304,16.216c-4.378,1.121-8.459,2.984-12.103,5.445c-0.938,0.633-1.171,1.917-0.511,2.836 l7.006,9.758c0.626,0.872,1.823,1.085,2.721,0.497c2.682-1.758,5.752-2.972,9.055-3.482L32,31c4.646,0,8.968,1.381,12.583,3.752 c0.898,0.589,2.095,0.376,2.721-0.497l7.006-9.758c0.66-0.919,0.427-2.202-0.511-2.836c-2.571-1.737-10.307-5.76-16.053-6.248 C25.148,14.345,22.304,16.216,22.304,16.216z"/><path fill="#fff7f7" d="M18.502 20.996L19.74 23.26 22.004 24.498 19.74 25.736 18.502 28 17.264 25.736 15 24.498 17.264 23.26zM36.419 20.162L37.274 21.726 38.838 22.581 37.274 23.436 36.419 25 35.564 23.436 34 22.581 35.564 21.726z"/><path fill="#8d6c9f" d="M59,6H5C3.346,6,2,7.346,2,9v36c0,1.654,1.346,3,3,3h20.656l-2.4,8H18c-0.552,0-1,0.447-1,1 s0.448,1,1,1h4.656h18.688H46c0.552,0,1-0.447,1-1s-0.448-1-1-1h-5.256l-2.4-8H59c1.654,0,3-1.346,3-3V9C62,7.346,60.654,6,59,6z M5,8h54c0.551,0,1,0.448,1,1v1H4V9C4,8.448,4.449,8,5,8z M38.656,56H25.344l2.4-8h8.512L38.656,56z M59,46H37.744H26.256H5 c-0.551,0-1-0.448-1-1v-5h22.083c0.552,0,1-0.447,1-1s-0.448-1-1-1H4V12h56v26H38.083c-0.552,0-1,0.447-1,1s0.448,1,1,1H60v5 C60,45.552,59.551,46,59,46z"/><path fill="#8d6c9f" d="M32,36c-0.055,0-0.106,0.013-0.16,0.016l-8.917-21.401c-0.211-0.509-0.796-0.753-1.308-0.538 c-0.51,0.212-0.751,0.798-0.538,1.308l0.051,0.121c-4.087,1.152-7.949,2.936-11.486,5.326c-0.68,0.46-1.135,1.157-1.28,1.966 C8.217,23.604,8.4,24.415,8.877,25.08l7.006,9.758c0.583,0.812,1.496,1.246,2.428,1.246c0.567,0,1.142-0.161,1.653-0.496 c2.502-1.64,5.253-2.725,8.179-3.243l1.85,4.44C29.388,37.334,29,38.12,29,39c0,1.654,1.346,3,3,3s3-1.346,3-3S33.654,36,32,36z M18.869,33.915c-0.452,0.298-1.05,0.189-1.36-0.243l-7.006-9.758c-0.159-0.222-0.22-0.493-0.172-0.764 c0.049-0.271,0.201-0.506,0.431-0.661c3.427-2.315,7.174-4.032,11.141-5.123l5.454,13.09 C24.326,31.05,21.473,32.207,18.869,33.915z M32,40c-0.551,0-1-0.448-1-1c0-0.412,0.251-0.766,0.608-0.919 c0.003-0.001,0.006-0.001,0.009-0.002c0.001-0.001,0.002-0.002,0.003-0.002C31.737,38.028,31.865,38,32,38c0.551,0,1,0.448,1,1 S32.551,40,32,40z"/><path fill="#8d6c9f" d="M32 32c4.292 0 8.454 1.241 12.036 3.589.511.334 1.085.495 1.652.495.932 0 1.846-.435 2.429-1.246l7.006-9.758c.477-.665.66-1.476.516-2.282-.145-.809-.6-1.506-1.279-1.965-2.66-1.798-5.53-3.27-8.531-4.376-.517-.19-1.093.074-1.284.593s.075 1.093.593 1.284c2.85 1.05 5.576 2.448 8.103 4.156.229.154.381.389.43.66.048.271-.013.542-.172.764l-7.005 9.758c-.312.433-.909.538-1.36.244C41.224 31.354 36.683 30 32 30c-.552 0-1 .447-1 1S31.448 32 32 32zM32 18c.552 0 1-.447 1-1v-2c0-.553-.448-1-1-1s-1 .447-1 1v2C31 17.553 31.448 18 32 18zM27.489 18.275c.041 0 .082-.002.124-.008.548-.067.938-.565.871-1.114l-.244-1.984c-.068-.549-.568-.943-1.115-.87-.548.067-.938.565-.871 1.114l.244 1.984C26.561 17.904 26.992 18.275 27.489 18.275zM40.709 19.069c.082.02.163.029.243.029.448 0 .856-.304.969-.758l.484-1.94c.134-.536-.192-1.079-.728-1.213-.536-.128-1.079.193-1.212.729l-.484 1.94C39.847 18.393 40.173 18.936 40.709 19.069zM36.387 18.268c.042.006.083.008.124.008.498 0 .929-.371.991-.878l.244-1.984c.067-.549-.323-1.047-.871-1.114-.542-.073-1.047.321-1.115.87l-.244 1.984C35.449 17.702 35.839 18.2 36.387 18.268z"/></svg>