<svg xmlns="http://www.w3.org/2000/svg"  viewBox="0 0 64 64" width="64px" height="64px"><path fill="#fff8ee" d="M53,57H13c-2.761,0-5-2.239-5-5V12c0-2.761,2.239-5,5-5h40c2.761,0,5,2.239,5,5v40 C58,54.761,55.761,57,53,57z"/><path fill="#8d6c9f" d="M52,58H12c-3.309,0-6-2.691-6-6V12c0-3.309,2.691-6,6-6h40c3.309,0,6,2.691,6,6v40 C58,55.309,55.309,58,52,58z M12,8c-2.206,0-4,1.794-4,4v40c0,2.206,1.794,4,4,4h40c2.206,0,4-1.794,4-4V12c0-2.206-1.794-4-4-4 H12z"/><path fill="#72caaf" d="M51,43.349C49.586,35.751,41.468,30,31.936,30S14.462,35.769,13,43.384 C13,43.595,13.286,44,13.286,44h37.285C50.571,44,51,43.56,51,43.349z"/><path fill="#8d6c9f" d="M50.571,45H13.286c-0.324,0-0.629-0.157-0.816-0.422C12.158,44.137,12,43.735,12,43.385 c0-0.063,0.006-0.126,0.018-0.188C13.597,34.971,21.974,29,31.937,29c9.926,0,18.544,6.091,20.047,14.167 C51.994,43.227,52,43.288,52,43.35c0,0.152,0,0.618-0.713,1.349C51.099,44.892,50.841,45,50.571,45z M14.105,43h35.8 c-1.607-6.878-9.216-12-17.969-12C23.169,31,15.78,36.012,14.105,43z"/><path fill="#f9e3ae" d="M32,12L32,12c4.418,0,8,3.677,8,8.213v5.573C40,30.323,36.418,34,32,34h0c-4.418,0-8-3.677-8-8.213 v-5.573C24,15.677,27.582,12,32,12z"/><path fill="#8d6c9f" d="M32,35c-4.963,0-9-4.133-9-9.213v-5.574C23,15.133,27.037,11,32,11s9,4.133,9,9.213v5.574 C41,30.867,36.963,35,32,35z M32,13c-3.859,0-7,3.235-7,7.213v5.574C25,29.765,28.141,33,32,33s7-3.235,7-7.213v-5.574 C39,16.235,35.859,13,32,13z"/><g><path fill="#8d6c9f" d="M12,49c-0.552,0-1,0.448-1,1v2c0,0.552,0.448,1,1,1s1-0.448,1-1v-2C13,49.448,12.552,49,12,49z"/><path fill="#8d6c9f" d="M17,49c-0.552,0-1,0.448-1,1v2c0,0.552,0.448,1,1,1s1-0.448,1-1v-2C18,49.448,17.552,49,17,49z"/><path fill="#8d6c9f" d="M22,49c-0.552,0-1,0.448-1,1v2c0,0.552,0.448,1,1,1s1-0.448,1-1v-2C23,49.448,22.552,49,22,49z"/><path fill="#8d6c9f" d="M27,49c-0.552,0-1,0.448-1,1v2c0,0.552,0.448,1,1,1s1-0.448,1-1v-2C28,49.448,27.552,49,27,49z"/><path fill="#8d6c9f" d="M32,49c-0.552,0-1,0.448-1,1v2c0,0.552,0.448,1,1,1c0.552,0,1-0.448,1-1v-2 C33,49.448,32.552,49,32,49z"/><path fill="#8d6c9f" d="M37,49c-0.552,0-1,0.448-1,1v2c0,0.552,0.448,1,1,1s1-0.448,1-1v-2C38,49.448,37.552,49,37,49z"/><path fill="#8d6c9f" d="M42,49c-0.552,0-1,0.448-1,1v2c0,0.552,0.448,1,1,1s1-0.448,1-1v-2C43,49.448,42.552,49,42,49z"/><path fill="#8d6c9f" d="M47,49c-0.552,0-1,0.448-1,1v2c0,0.552,0.448,1,1,1s1-0.448,1-1v-2C48,49.448,47.552,49,47,49z"/><path fill="#8d6c9f" d="M52,49c-0.552,0-1,0.448-1,1v2c0,0.552,0.448,1,1,1s1-0.448,1-1v-2C53,49.448,52.552,49,52,49z"/></g></svg>