<svg xmlns="http://www.w3.org/2000/svg"  viewBox="0 0 64 64" width="64px" height="64px"><path fill="#85cbf8" d="M63,15v34c0,1.1-0.9,2-2,2H23c-1.1,0-2-0.9-2-2V15c0-1.1,0.9-2,2-2h38C62.1,13,63,13.9,63,15z"/><path fill="#faefde" d="M42,25c-2.791,0-5.193,1.637-6.317,4H12l4-4l-4-4L1,32l11,11l4-4l-4-4h23.683 c1.124,2.363,3.527,4,6.317,4c3.866,0,7-3.134,7-7C49,28.134,45.866,25,42,25z"/><path fill="#7bbeeb" d="M63,15v34c0,1.1-0.9,2-2,2c-1.66,0-3-1.34-3-3V16c0-1.66,1.34-3,3-3C62.1,13,63,13.9,63,15z"/><path fill="#8d6c9f" d="M61,12H23c-1.65,0-3,1.35-3,3v13h-5.59l2.3-2.29c0.39-0.39,0.39-1.03,0-1.42l-4-4 c-0.39-0.39-1.03-0.39-1.42,0l-11,11c-0.39,0.39-0.39,1.03,0,1.42l11,11C11.49,43.9,11.74,44,12,44s0.51-0.1,0.71-0.29l4-4 c0.39-0.39,0.39-1.03,0-1.42L14.41,36H20v13c0,1.65,1.35,3,3,3h38c1.65,0,3-1.35,3-3V15C64,13.35,62.65,12,61,12z M12,34 c-0.4,0-0.77,0.24-0.92,0.62c-0.16,0.37-0.07,0.8,0.21,1.09l3.3,3.29L12,41.59L2.41,32L12,22.41L14.59,25l-3.3,3.29 c-0.28,0.29-0.37,0.72-0.21,1.09C11.23,29.76,11.6,30,12,30h8h2h13.68c0.39,0,0.74-0.22,0.91-0.57C37.58,27.35,39.7,26,42,26 c3.31,0,6,2.69,6,6s-2.69,6-6,6c-2.3,0-4.42-1.35-5.41-3.43C36.42,34.22,36.07,34,35.68,34H22h-2H12z M62,49c0,0.55-0.45,1-1,1H23 c-0.55,0-1-0.45-1-1V36h13.08c1.42,2.45,4.07,4,6.92,4c4.41,0,8-3.59,8-8c0-4.41-3.59-8-8-8c-2.85,0-5.5,1.55-6.92,4H22V15 c0-0.55,0.45-1,1-1h38c0.55,0,1,0.45,1,1V49z"/><path fill="#8d6c9f" d="M42 30A2 2 0 1 0 42 34 2 2 0 1 0 42 30zM59 34h-2c-.552 0-1 .448-1 1s.448 1 1 1h2c.552 0 1-.448 1-1S59.552 34 59 34zM59 28h-2c-.552 0-1 .448-1 1s.448 1 1 1h2c.552 0 1-.448 1-1S59.552 28 59 28zM59 23h-2c-.552 0-1 .448-1 1s.448 1 1 1h2c.552 0 1-.448 1-1S59.552 23 59 23zM59 44h-2c-.552 0-1 .448-1 1s.448 1 1 1h2c.552 0 1-.448 1-1S59.552 44 59 44zM59 39h-2c-.552 0-1 .448-1 1s.448 1 1 1h2c.552 0 1-.448 1-1S59.552 39 59 39zM59 18h-2c-.552 0-1 .448-1 1s.448 1 1 1h2c.552 0 1-.448 1-1S59.552 18 59 18z"/></svg>