<svg xmlns="http://www.w3.org/2000/svg"  viewBox="0 0 64 64" width="64px" height="64px"><rect width="54" height="50" x="5" y="7" fill="#c2cde7" rx="2" ry="2"/><path fill="#acb7d0" d="M9,52H55a4,4,0,0,1,4,4v0a1,1,0,0,1-1,1H6a1,1,0,0,1-1-1v0A4,4,0,0,1,9,52Z"/><path fill="#faefde" d="M21 15H43V45H21z"/><path fill="#efd8be" d="M25 31H39V41H25z"/><path fill="#8d6c9f" d="M22 50a1 1 0 0 0-1 1v2a1 1 0 0 0 2 0V51A1 1 0 0 0 22 50zM27 50a1 1 0 0 0-1 1v2a1 1 0 0 0 2 0V51A1 1 0 0 0 27 50zM32 50a1 1 0 0 0-1 1v2a1 1 0 0 0 2 0V51A1 1 0 0 0 32 50zM37 50a1 1 0 0 0-1 1v2a1 1 0 0 0 2 0V51A1 1 0 0 0 37 50zM42 50a1 1 0 0 0-1 1v2a1 1 0 0 0 2 0V51A1 1 0 0 0 42 50zM47 50a1 1 0 0 0-1 1v2a1 1 0 0 0 2 0V51A1 1 0 0 0 47 50zM17 50a1 1 0 0 0-1 1v2a1 1 0 0 0 2 0V51A1 1 0 0 0 17 50z"/><path fill="#8d6c9f" d="M57,6H7A3,3,0,0,0,4,9V55a3,3,0,0,0,3,3H57a3,3,0,0,0,3-3V9A3,3,0,0,0,57,6Zm1,49a1,1,0,0,1-1,1H7a1,1,0,0,1-1-1V9A1,1,0,0,1,7,8H57a1,1,0,0,1,1,1Z"/><path fill="#8d6c9f" d="M42,14H22a2,2,0,0,0-2,2V44a2,2,0,0,0,2,2H42a2,2,0,0,0,2-2V16A2,2,0,0,0,42,14ZM22,44V16H42V44Z"/><path fill="#8d6c9f" d="M39,18H25a1,1,0,0,0-1,1V41a1,1,0,0,0,1,1H39a1,1,0,0,0,1-1V19A1,1,0,0,0,39,18Zm-1,2V30H26V20Zm0,20H26V32H38Z"/><path fill="#ed7899" d="M32 22.04A3 3 0 1 0 32 28.04A3 3 0 1 0 32 22.04Z"/><path fill="#8d6c9f" d="M10 10a2 2 0 1 0 2 2A2 2 0 0 0 10 10zm0 3zM54 10a2 2 0 1 0 2 2A2 2 0 0 0 54 10zm0 3zM10 50a2 2 0 1 0 2 2A2 2 0 0 0 10 50zm0 3zM54 50a2 2 0 1 0 2 2A2 2 0 0 0 54 50zm0 3z"/></svg>