<svg xmlns="http://www.w3.org/2000/svg"  viewBox="0 0 64 64" width="64px" height="64px"><path fill="#ed7899" d="M28.88,49H46A17,17,0,0,0,63,32h0A17,17,0,0,0,46,15H28.94"/><path fill="#e0678f" d="M58.37,32a4,4,0,0,1,3.81,5.24A17,17,0,0,1,46,49H28.88l0-17Z"/><path fill="#c2cde7" d="M20 13A19 19 0 1 0 20 51A19 19 0 1 0 20 13Z"/><path fill="#d6dff2" d="M20 18A14 14 0 1 0 20 46A14 14 0 1 0 20 18Z"/><path fill="#8d6c9f" d="M46.12,14H29a1,1,0,0,0-.24,0,20,20,0,1,0,0,35.89,1,1,0,0,0,.28.06H46.12a18,18,0,0,0,0-36ZM2,32A18,18,0,1,1,20,50,18,18,0,0,1,2,32ZM46.12,48H31.95a19.92,19.92,0,0,0,0-32H46.12a16,16,0,0,1,0,32Z"/><path fill="#8d6c9f" d="M31.8 22.74A1 1 0 1 0 30.23 24a13 13 0 0 1-1 17.2 1 1 0 1 0 1.42 1.41A15 15 0 0 0 31.8 22.74zM28.67 19.76a15 15 0 0 0-2.21-1.3 1 1 0 1 0-.86 1.8 13.06 13.06 0 0 1 1.92 1.13 1 1 0 1 0 1.16-1.63zM22.14 17.15A15 15 0 0 0 5 32a14.9 14.9 0 0 0 1.2 5.9A1 1 0 0 0 8 37.11 13 13 0 0 1 20 19a13.21 13.21 0 0 1 1.86.13 1 1 0 0 0 .28-2zM20 43a1 1 0 0 0-1 1v2a1 1 0 0 0 2 0V44A1 1 0 0 0 20 43zM15.88 42.2a1 1 0 0 0-1.3.55l-.75 1.85a1 1 0 1 0 1.85.75l.75-1.85A1 1 0 0 0 15.88 42.2zM25.42 42.75a1 1 0 0 0-1.85.75l.75 1.85a1 1 0 0 0 1.85-.75zM10.94 39.94L9.56 41.38A1 1 0 1 0 11 42.77l1.39-1.44a1 1 0 1 0-1.44-1.39z"/></svg>