<svg xmlns="http://www.w3.org/2000/svg"  viewBox="0 0 64 64" width="64px" height="64px"><path fill="#7dd8ba" d="M35.12,49H18A17,17,0,0,1,1,32H1A17,17,0,0,1,18,15H35.06"/><path fill="#72caaf" d="M5.63,32a4,4,0,0,0-3.81,5.24A17,17,0,0,0,18,49H35.12l0-17Z"/><path fill="#c2cde7" d="M44 13A19 19 0 1 0 44 51A19 19 0 1 0 44 13Z"/><path fill="#d6dff2" d="M44 18A14 14 0 1 0 44 46A14 14 0 1 0 44 18Z"/><path fill="#8d6c9f" d="M44,12a19.84,19.84,0,0,0-8.74,2,1,1,0,0,0-.2,0H18a18,18,0,0,0,0,36H35.12a1,1,0,0,0,.15,0A20,20,0,1,0,44,12ZM18,48a16,16,0,0,1,0-32H32.05a19.92,19.92,0,0,0,0,32Zm26,2A18,18,0,1,1,62,32,18,18,0,0,1,44,50Z"/><path fill="#8d6c9f" d="M55.8 22.74A1 1 0 1 0 54.23 24a13 13 0 0 1-1 17.2 1 1 0 1 0 1.42 1.41A15 15 0 0 0 55.8 22.74zM52.67 19.76a15 15 0 0 0-2.21-1.3 1 1 0 1 0-.86 1.8 13.06 13.06 0 0 1 1.92 1.13 1 1 0 1 0 1.16-1.63zM46.14 17.15A15 15 0 0 0 29 32a14.9 14.9 0 0 0 1.2 5.9A1 1 0 0 0 32 37.11 13 13 0 0 1 44 19a13.21 13.21 0 0 1 1.86.13 1 1 0 0 0 .28-2zM44 43a1 1 0 0 0-1 1v2a1 1 0 0 0 2 0V44A1 1 0 0 0 44 43zM39.88 42.2a1 1 0 0 0-1.3.55l-.75 1.85a1 1 0 1 0 1.85.75l.75-1.85A1 1 0 0 0 39.88 42.2zM49.42 42.75a1 1 0 0 0-1.85.75l.75 1.85a1 1 0 0 0 1.85-.75zM34.94 39.94l-1.39 1.44A1 1 0 1 0 35 42.77l1.39-1.44a1 1 0 0 0-1.44-1.39z"/></svg>