<svg xmlns="http://www.w3.org/2000/svg"  viewBox="0 0 64 64" width="64px" height="64px"><path fill="#85cbf8" d="M31 3A28 28 0 1 0 31 59A28 28 0 1 0 31 3Z"/><path fill="#f9e3ae" d="M31,3A28,28,0,1,0,59,31,28,28,0,0,0,31,3Zm0,50A22,22,0,1,1,46.17,15.07l.68.67q.39.4.75.82A22,22,0,0,1,31,53Z"/><path fill="#f6d397" d="M31,53A22,22,0,0,1,9,31H7.34a4,4,0,0,0-3.95,4.71,28,28,0,0,0,55.21,0A4,4,0,0,0,54.66,31H53A22,22,0,0,1,31,53Z"/><path fill="#8d6c9f" d="M31,2A29,29,0,1,0,60,31,29,29,0,0,0,31,2Zm0,56A27,27,0,1,1,58,31,27,27,0,0,1,31,58Z"/><path fill="#8d6c9f" d="M31 50a1 1 0 0 0-1 1v2a1 1 0 0 0 2 0V51A1 1 0 0 0 31 50zM37 50.08a1 1 0 0 0-1.93.52l.52 1.93A1 1 0 0 0 37.53 52zM21.75 47.52a1 1 0 0 0-1.37.37l-1 1.73a1 1 0 0 0 1.73 1l1-1.73A1 1 0 0 0 21.75 47.52zM41.62 47.89a1 1 0 0 0-1.73 1l1 1.73a1 1 0 0 0 1.73-1zM26.21 49.37a1 1 0 0 0-1.22.71L24.47 52a1 1 0 1 0 1.93.52l.52-1.93A1 1 0 0 0 26.21 49.37zM40.9 12.35a1 1 0 0 0 .45-1.89 22.88 22.88 0 0 0-2.3-1 1 1 0 0 0-.7 1.87 21.07 21.07 0 0 1 2.1.92A1 1 0 0 0 40.9 12.35zM35.48 9.44a1 1 0 0 0-.83-1.15 23 23 0 0 0-19.92 39 1 1 0 0 0 1.41-1.41 21 21 0 0 1 0-29.7 21.07 21.07 0 0 1 18.19-5.89A1 1 0 0 0 35.48 9.44zM47.26 14.74a23.39 23.39 0 0 0-2.09-1.86 1 1 0 1 0-1.23 1.57 21.25 21.25 0 0 1 1.91 1.7 21 21 0 0 1 0 29.7 1 1 0 1 0 1.41 1.41 23 23 0 0 0 0-32.53z"/></svg>