<svg xmlns="http://www.w3.org/2000/svg"  viewBox="0 0 64 64" width="64px" height="64px"><path fill="#f9e3ae" d="M59,17c0,6.08-4.92,11-11,11s-11-4.92-11-11c0-2.22,0.65-4.28,1.78-6c1.96-3.01,5.36-5,9.22-5 s7.26,1.99,9.22,5C58.35,12.72,59,14.78,59,17z"/><path fill="#ed7899" d="M16 6A11 11 0 1 0 16 28A11 11 0 1 0 16 6Z"/><path fill="#5dbc9d" d="M48 36A11 11 0 1 0 48 58A11 11 0 1 0 48 36Z"/><path fill="#6fc6f0" d="M16 36A11 11 0 1 0 16 58A11 11 0 1 0 16 36Z"/><path fill="#72caaf" d="M48 40A7 7 0 1 0 48 54A7 7 0 1 0 48 40Z"/><path fill="#faefde" d="M59,17H37c1-8,7.14-11,11-11S58,9,59,17z"/><path fill="#f283a5" d="M16,6v22C9.92,28,5,23.08,5,17C5,10.92,9.92,6,16,6z"/><path fill="#85cbf8" d="M8.125,38.875L23.5,55.125c0,0,7.983-7.807,0-16.25C17,32,8.125,38.875,8.125,38.875z"/><path fill="#8d6c9f" d="M48 29c6.617 0 12-5.383 12-12S54.617 5 48 5s-12 5.383-12 12S41.383 29 48 29zM39.353 12h17.294c.697 1.2 1.158 2.553 1.302 4H38.051C38.195 14.553 38.656 13.2 39.353 12zM57.949 18c-.144 1.447-.606 2.8-1.302 4H39.353c-.697-1.2-1.158-2.553-1.302-4H57.949zM48 27c-2.79 0-5.314-1.151-7.129-3h14.259C53.314 25.849 50.79 27 48 27zM48 7c2.79 0 5.314 1.151 7.129 3H40.871C42.686 8.151 45.21 7 48 7zM16 5C9.383 5 4 10.383 4 17s5.383 12 12 12 12-5.383 12-12S22.617 5 16 5zM16 27c-4.843 0-8.891-3.461-9.805-8.039C6.651 18.867 7 18.483 7 18v-2c0-.483-.349-.867-.805-.961C7.109 10.461 11.157 7 16 7s8.891 3.461 9.805 8.039C25.349 15.133 25 15.517 25 16v2c0 .483.349.867.805.961C24.891 23.539 20.843 27 16 27zM48 35c-6.617 0-12 5.383-12 12s5.383 12 12 12 12-5.383 12-12S54.617 35 48 35zM48 57c-5.514 0-10-4.486-10-10s4.486-10 10-10 10 4.486 10 10S53.514 57 48 57zM16 35c-3.295 0-6.283 1.336-8.453 3.493-.01.009-.022.012-.032.021s-.012.022-.021.032C5.336 40.717 4 43.705 4 47c0 6.617 5.383 12 12 12 3.295 0 6.283-1.336 8.453-3.493.01-.009.022-.012.032-.021s.012-.022.021-.032C26.664 53.283 28 50.295 28 47 28 40.383 22.617 35 16 35zM26 47c0 .032-.005.064-.005.096L15.904 37.005C15.936 37.005 15.968 37 16 37 21.514 37 26 41.486 26 47zM23.738 53.324L9.676 39.262c1.082-.886 2.356-1.54 3.745-1.912l12.23 12.23C25.279 50.968 24.624 52.242 23.738 53.324zM18.579 56.651L6.35 44.42c.372-1.389 1.026-2.663 1.912-3.745l14.063 14.063C21.242 55.624 19.968 56.279 18.579 56.651zM6 47c0-.032.005-.064.005-.096l10.091 10.091C16.063 56.995 16.032 57 16 57 10.486 57 6 52.514 6 47z"/><path fill="#8d6c9f" d="M11 15c-.552 0-1 .448-1 1v2c0 .552.448 1 1 1s1-.448 1-1v-2C12 15.448 11.552 15 11 15zM16 15c-.552 0-1 .448-1 1v2c0 .552.448 1 1 1s1-.448 1-1v-2C17 15.448 16.552 15 16 15zM21 15c-.552 0-1 .448-1 1v2c0 .552.448 1 1 1s1-.448 1-1v-2C22 15.448 21.552 15 21 15z"/></svg>