<svg xmlns="http://www.w3.org/2000/svg"  viewBox="0 0 64 64" width="64px" height="64px"><rect width="62" height="52" x=".97" y="5" fill="#c2cde7" rx="3" ry="3"/><path fill="#acb7d0" d="M1,35V54a3,3,0,0,0,3,3H60a3,3,0,0,0,3-3V35a4,4,0,0,0-4-4H5A4,4,0,0,0,1,35Z"/><rect width="47" height="40" x="10.47" y="10.5" fill="#d3e0e8" rx="3" ry="3"/><path fill="#dce9f0" d="M34.64 51L19.98 51 51.31 11 54.98 11 56.98 12 56.98 22.37 34.64 51zM10.97 50L10.47 45.87 37.98 11 44.98 11 13.43 51 10.97 50zM10.97 34.58L29.64 11 30.98 11 10.97 36.26 10.97 34.58z"/><path fill="#ffeb9b" d="M33 31A3 3 0 1 0 33 37 3 3 0 1 0 33 31zM45 23A3 3 0 1 0 45 29 3 3 0 1 0 45 23zM21 21A3 3 0 1 0 21 27 3 3 0 1 0 21 21z"/><path fill="#8d6c9f" d="M61,4H3A3,3,0,0,0,0,7V55a3,3,0,0,0,3,3H61a3,3,0,0,0,3-3V7A3,3,0,0,0,61,4Zm1,51a1,1,0,0,1-1,1H3a1,1,0,0,1-1-1V7A1,1,0,0,1,3,6H61a1,1,0,0,1,1,1Z"/><path fill="#8d6c9f" d="M56,10H12a2,2,0,0,0-2,2V50a2,2,0,0,0,2,2H56a2,2,0,0,0,2-2V12A2,2,0,0,0,56,10ZM12,50V12H56V50Z"/><path fill="#8d6c9f" d="M21 30a1 1 0 0 0-1 1V45a1 1 0 0 0 2 0V31A1 1 0 0 0 21 30zM33 40a1 1 0 0 0-1 1v4a1 1 0 0 0 2 0V41A1 1 0 0 0 33 40zM45 32a1 1 0 0 0-1 1V45a1 1 0 0 0 2 0V33A1 1 0 0 0 45 32zM7 15H5a1 1 0 0 0 0 2H7a1 1 0 0 0 0-2zM7 10H5a1 1 0 0 0 0 2H7a1 1 0 0 0 0-2zM7 50H5a1 1 0 0 0 0 2H7a1 1 0 0 0 0-2zM7 20H5a1 1 0 0 0 0 2H7a1 1 0 0 0 0-2zM7 25H5a1 1 0 0 0 0 2H7a1 1 0 0 0 0-2zM7 30H5a1 1 0 0 0 0 2H7a1 1 0 0 0 0-2zM7 35H5a1 1 0 0 0 0 2H7a1 1 0 0 0 0-2zM7 40H5a1 1 0 0 0 0 2H7a1 1 0 0 0 0-2zM7 45H5a1 1 0 0 0 0 2H7a1 1 0 0 0 0-2zM34 30.15V17a1 1 0 0 0-2 0V30.13a4 4 0 1 0 2 0zM33 36a2 2 0 1 1 2-2A2 2 0 0 1 33 36zM46 22.15V17a1 1 0 0 0-2 0v5.16a4 4 0 1 0 2 0zM45 28a2 2 0 1 1 2-2A2 2 0 0 1 45 28zM22 20.15V17a1 1 0 0 0-2 0v3.16a4 4 0 1 0 2 0zM21 26a2 2 0 1 1 2-2A2 2 0 0 1 21 26z"/></svg>