<?xml version="1.0" encoding="UTF-8" standalone="no"?>
<svg
   width="699.01202"
   height="340.34"
   viewBox="0 0 699.01202 340.33999"
   version="1.1"
   id="svg8"
   sodipodi:docname="logo-centrale.svg"
   inkscape:version="1.1.2 (08b2f3d93c, 2022-04-05)"
   xmlns:inkscape="http://www.inkscape.org/namespaces/inkscape"
   xmlns:sodipodi="http://sodipodi.sourceforge.net/DTD/sodipodi-0.dtd"
   xmlns="http://www.w3.org/2000/svg"
   xmlns:svg="http://www.w3.org/2000/svg">
  <defs
     id="defs12" />
  <sodipodi:namedview
     id="namedview10"
     pagecolor="#ffffff"
     bordercolor="#666666"
     borderopacity="1.0"
     inkscape:pageshadow="2"
     inkscape:pageopacity="0.0"
     inkscape:pagecheckerboard="0"
     showgrid="false"
     fit-margin-top="0"
     fit-margin-left="0"
     fit-margin-right="0"
     fit-margin-bottom="0"
     inkscape:zoom="1.4940226"
     inkscape:cx="354.41231"
     inkscape:cy="169.67615"
     inkscape:window-width="2560"
     inkscape:window-height="1386"
     inkscape:window-x="0"
     inkscape:window-y="0"
     inkscape:window-maximized="1"
     inkscape:current-layer="svg8" />
  <path
     d="m 358.988,142.768 h 9.332 v 37.04 c 0,5.12 2.315,6.944 6.875,6.664 v 8.42 c -10.592,1.12 -16.206,-5.193 -16.206,-15.084 v -37.04 m 51.15,34.234 c 0,-6.244 -4,-10.594 -8.91,-10.594 -4.91,0 -8.9,4.35 -8.9,10.594 0,6.104 4,10.312 8.91,10.312 4.91,0 8.91,-4.208 8.91,-10.312 m 9.33,-0.07 c 0,10.804 -8.2,18.87 -18.24,18.87 -10.03,0 -18.17,-8.066 -18.17,-18.87 0,-10.804 8.14,-19.01 18.17,-19.01 10.03,0 18.24,8.206 18.24,19.01 m 28.2,-10.313 c -5.12,0 -9.26,4.42 -9.26,10.383 0,5.752 4.14,10.172 9.26,10.172 5.12,0 9.26,-4.558 9.26,-10.172 0,-5.75 -4.14,-10.383 -9.26,-10.383 m 18.52,26.518 c 0,11.996 -7.15,19.502 -18.73,19.502 -8.7,0 -16.13,-4.98 -17.54,-12.627 h 10.1 c 1.2,2.876 4.91,4 7.44,4 6.52,0 9.47,-4.28 9.47,-10.734 v -1.614 c -2.73,2.665 -6.45,4.07 -10.52,4.07 -9.54,0 -17.32,-8.42 -17.32,-18.802 0,-10.453 7.65,-19.01 18.59,-19.01 10.87,0 18.52,8.557 18.52,19.01 v 16.205 m 36.48,-23.85 c -1.68,-2.035 -4.21,-3.23 -7.16,-3.23 -5.33,0 -9.61,4.21 -9.82,10.384 l 16.98,-7.16 z m 10.38,14.17 c -2.1,7.365 -8.49,12.346 -17.47,12.346 -10.24,0 -18.52,-8.41 -18.52,-18.87 0,-10.45 8.28,-19.01 18.52,-19.01 8.7,0 16,5.47 17.75,15.16 l -25.541,10.729 c 1.823,2.46 4.56,3.86 7.715,3.86 3.014,0 6.103,-1.33 7.645,-4.21 h 9.894 m 66.502,11.51 h -9.26 v -21.12 c 0,-2.03 -0.7,-6.87 -6.804,-6.87 -4.07,0 -7.017,2.81 -7.017,6.88 v 21.12 h -9.26 v -21.12 c 0,-2.033 -0.63,-6.873 -6.732,-6.873 -4.14,0 -7.01,2.808 -7.01,6.877 v 21.116 h -9.26 v -20.91 c 0,-9.19 6.384,-16.133 16.275,-16.133 4.91,0 8.91,1.964 11.5,5.12 2.736,-3.155 6.805,-5.12 11.506,-5.12 10.1,0 16.064,6.666 16.064,16.136 v 20.903 m 36.687,-25.676 c -1.684,-2.035 -4.21,-3.23 -7.155,-3.23 -5.33,0 -9.61,4.21 -9.82,10.38 l 16.973,-7.156 z m 10.384,14.17 c -2.11,7.365 -8.49,12.346 -17.47,12.346 -10.25,0 -18.52,-8.42 -18.52,-18.87 0,-10.45 8.27,-19.01 18.52,-19.01 8.7,0 15.99,5.47 17.74,15.15 l -25.53,10.73 c 1.82,2.45 4.56,3.86 7.71,3.86 3.01,0 6.1,-1.34 7.64,-4.216 h 9.89 m 27.43,-25.533 c 10.1,0 16.06,6.665 16.06,16.135 v 20.904 h -9.27 v -21.12 c 0,-2.038 -0.7,-6.878 -6.8,-6.878 -4.07,0 -7.016,2.807 -7.016,6.877 v 21.11 h -9.26 v -20.91 c 0,-9.19 6.453,-16.134 16.275,-16.134 m 44.97,36.97 c -10.59,1.12 -16.2,-5.26 -16.2,-15.15 v -30.1 h 9.26 v 9.19 h 6.52 v 8.21 h -6.52 v 12.77 c 0,5.05 2.316,6.95 6.946,6.67 v 8.42 m -384.37,-3.78 3.48,-7.25 c 3.906,3 8.92,4.67 13.038,4.67 2.72,0 4.74,-0.9 4.74,-2.92 0,-6 -19.45,-2.79 -19.45,-15.97 0,-7.737 6.626,-11.716 14.78,-11.716 2.96,0 5.95,0.52 8.76,1.45 C 334.42,70.427 260.527,0 170.17,0 76.19,0 0,76.19 0,170.17 c 0,93.986 76.19,170.17 170.17,170.17 85.54,0 156.33,-63.11 168.36,-145.31 -2.24,0.865 -4.85,1.31 -7.65,1.31 -6.06,0 -11.99,-1.813 -16.24,-5.225"
     fill="#e0222c"
     id="path2" />
  <path
     d="m 326.431,168.596 c 0,3.595 8.02,3.747 13.832,6.797 0.052,-1.73 0.087,-3.47 0.087,-5.22 0,-0.57 -0.016,-1.13 -0.02,-1.7 -3.49,-1.7 -6.912,-2.66 -9.58,-2.66 -2.51,0 -4.32,0.84 -4.32,2.8"
     fill="#e0222c"
     id="path4" />
  <path
     d="m 326.431,168.596 c 0,-1.954 1.81,-2.794 4.32,-2.794 2.667,0 6.088,0.968 9.578,2.665 -0.03,-3.05 -0.14,-6.083 -0.33,-9.094 -2.81,-0.93 -5.8,-1.44 -8.76,-1.44 -8.15,0 -14.78,3.98 -14.78,11.72 0,13.18 19.45,9.97 19.45,15.96 0,2.03 -2.02,2.93 -4.73,2.93 -4.11,0 -9.13,-1.67 -13.03,-4.67 l -3.48,7.26 c 4.25,3.41 10.18,5.23 16.25,5.23 2.81,0 5.41,-0.44 7.65,-1.31 0.94,-6.43 1.53,-12.98 1.73,-19.63 -5.81,-3.05 -13.83,-3.2 -13.83,-6.79 m -155.8,-14.57 c 5.12,0 9.57,2.83 11.9,7.57 l 0.07,0.15 h 10.56 l -0.11,-0.34 c -3.11,-10.263 -11.49,-16.393 -22.43,-16.393 -13.37,0 -23.84,11.27 -23.84,25.664 0,14.396 10.48,25.67 23.84,25.67 10.62,0 19.19,-6.31 22.36,-16.464 l 0.11,-0.35 h -10.5 l -0.07,0.15 c -2.34,4.75 -6.895,7.7 -11.894,7.7 -7.74,0 -14.04,-7.5 -14.04,-16.71 0,-9.18 6.3,-16.64 14.04,-16.64 m 47.62,3.89 c -9.9,0 -16.3,6.435 -16.3,16.39 v 21.178 h 9.8 v -21.18 c 0,-4.35 2.89,-7.16 7.37,-7.16 0.685,0 1.4,0.066 2.137,0.198 l 0.32,0.06 v -9.26 l -0.24,-0.03 c -1.05,-0.13 -2.09,-0.195 -3.08,-0.195 m 28.16,29.38 c -4.925,0 -8.64,-4.316 -8.64,-10.04 0,-5.884 3.715,-10.32 8.64,-10.32 4.925,0 8.64,4.436 8.64,10.32 0,5.726 -3.715,10.044 -8.64,10.044 m 0,-29.395 c -10.34,0 -18.44,8.47 -18.44,19.28 0,10.734 8.1,19.144 18.44,19.144 10.38,0 18.51,-8.41 18.51,-19.148 0,-10.81 -8.13,-19.28 -18.51,-19.28 m 51.088,0.91 v 21.39 c 0,3.83 -2.84,6.61 -6.745,6.61 -5.9,0 -6.535,-4.62 -6.535,-6.6 v -21.39 h -9.8 v 21.11 c 0,9.97 6.41,16.41 16.337,16.41 9.74,0 16.54,-6.75 16.54,-16.41 v -21.11 h -9.8"
     fill="#ffffff"
     id="path6" />
</svg>
